<svg width="1500" height="500" viewBox="0 0 1500 500" fill="none" xmlns="http://www.w3.org/2000/svg">
<path d="M276 139.62C279.27 139.62 281.92 136.97 281.92 133.7C281.92 130.431 279.27 127.78 276 127.78C272.731 127.78 270.08 130.431 270.08 133.7C270.08 136.97 272.731 139.62 276 139.62Z" fill="white"/>
<path d="M276 401.92C279.27 401.92 281.92 399.269 281.92 396C281.92 392.73 279.27 390.08 276 390.08C272.731 390.08 270.08 392.73 270.08 396C270.08 399.269 272.731 401.92 276 401.92Z" fill="white"/>
<path d="M389.049 205.21C392.318 205.21 394.969 202.56 394.969 199.29C394.969 196.02 392.318 193.37 389.049 193.37C385.779 193.37 383.129 196.02 383.129 199.29C383.129 202.56 385.779 205.21 389.049 205.21Z" fill="white"/>
<path d="M389.049 336.11C392.318 336.11 394.969 333.46 394.969 330.19C394.969 326.921 392.318 324.27 389.049 324.27C385.779 324.27 383.129 326.921 383.129 330.19C383.129 333.46 385.779 336.11 389.049 336.11Z" fill="white"/>
<path d="M162.459 205.21C165.729 205.21 168.379 202.56 168.379 199.29C168.379 196.02 165.729 193.37 162.459 193.37C159.19 193.37 156.539 196.02 156.539 199.29C156.539 202.56 159.19 205.21 162.459 205.21Z" fill="white"/>
<path d="M162.46 215.15C153.72 215.15 146.6 208.04 146.6 199.29C146.6 190.54 153.71 183.43 162.46 183.43C171.2 183.43 178.32 190.54 178.32 199.29C178.32 208.04 171.2 215.15 162.46 215.15ZM162.46 186.96C155.66 186.96 150.13 192.49 150.13 199.29C150.13 206.09 155.66 211.62 162.46 211.62C169.26 211.62 174.79 206.09 174.79 199.29C174.79 192.49 169.26 186.96 162.46 186.96Z" fill="white"/>
<path d="M218.81 172.53C221.687 172.53 224.02 170.197 224.02 167.32C224.02 164.443 221.687 162.11 218.81 162.11C215.932 162.11 213.6 164.443 213.6 167.32C213.6 170.197 215.932 172.53 218.81 172.53Z" fill="white"/>
<path d="M161.739 270.05C164.617 270.05 166.949 267.717 166.949 264.84C166.949 261.963 164.617 259.63 161.739 259.63C158.862 259.63 156.529 261.963 156.529 264.84C156.529 267.717 158.862 270.05 161.739 270.05Z" fill="white"/>
<path d="M206.799 298.23C174.729 292.46 151.449 264.58 151.449 231.94C151.449 194.8 181.669 164.58 218.809 164.58C237.859 164.58 256.109 172.7 268.869 186.87L266.249 189.23C254.159 175.81 236.869 168.11 218.819 168.11C183.629 168.11 154.989 196.74 154.989 231.94C154.989 262.87 177.049 289.29 207.439 294.76L206.799 298.23Z" fill="white"/>
<path d="M162.49 336.64C165.76 336.64 168.41 333.989 168.41 330.72C168.41 327.45 165.76 324.8 162.49 324.8C159.221 324.8 156.57 327.45 156.57 330.72C156.57 333.989 159.221 336.64 162.49 336.64Z" fill="white"/>
<path d="M162.46 346.59C159.71 346.59 157 345.87 154.56 344.46C146.99 340.09 144.38 330.37 148.76 322.8C150.88 319.13 154.3 316.51 158.39 315.41C162.48 314.31 166.76 314.88 170.42 316.99C177.99 321.36 180.6 331.08 176.22 338.65C174.1 342.32 170.68 344.94 166.59 346.04C165.23 346.41 163.84 346.59 162.46 346.59ZM162.51 318.39C161.44 318.39 160.36 318.53 159.3 318.82C156.12 319.67 153.46 321.71 151.81 324.57C148.41 330.46 150.44 338.01 156.32 341.41C159.17 343.06 162.5 343.49 165.68 342.64C168.86 341.79 171.52 339.75 173.17 336.89C176.57 331 174.54 323.45 168.66 320.05C166.76 318.95 164.65 318.39 162.51 318.39Z" fill="white"/>
<path d="M162.98 271.15C165.857 271.15 168.19 268.817 168.19 265.94C168.19 263.063 165.857 260.73 162.98 260.73C160.102 260.73 157.77 263.063 157.77 265.94C157.77 268.817 160.102 271.15 162.98 271.15Z" fill="white"/>
<path d="M218.899 369.33C221.777 369.33 224.109 366.997 224.109 364.12C224.109 361.243 221.777 358.91 218.899 358.91C216.022 358.91 213.689 361.243 213.689 364.12C213.689 366.997 216.022 369.33 218.899 369.33Z" fill="white"/>
<path d="M218.981 365.63C207.471 365.63 195.851 362.68 185.271 356.58C169.691 347.58 158.541 333.06 153.891 315.68C149.231 298.3 151.621 280.15 160.621 264.57C170.151 248.07 186.301 236.33 204.951 232.36L205.681 235.81C188.011 239.57 172.701 250.7 163.671 266.33C155.151 281.09 152.881 298.3 157.291 314.76C161.701 331.23 172.261 344.99 187.031 353.52C213.821 368.98 247.721 363.09 267.651 339.51L270.341 341.79C257.191 357.37 238.241 365.63 218.981 365.63Z" fill="white"/>
<path d="M276.33 402.33C279.6 402.33 282.25 399.68 282.25 396.41C282.25 393.14 279.6 390.49 276.33 390.49C273.061 390.49 270.41 393.14 270.41 396.41C270.41 399.68 273.061 402.33 276.33 402.33Z" fill="white"/>
<path d="M276.359 412.28C274.979 412.28 273.599 412.1 272.229 411.73C268.139 410.63 264.719 408.01 262.599 404.34C260.479 400.67 259.919 396.4 261.019 392.31C262.119 388.22 264.739 384.8 268.409 382.68C275.979 378.31 285.699 380.91 290.069 388.48C292.189 392.15 292.749 396.42 291.649 400.51C290.549 404.6 287.929 408.02 284.259 410.14C281.819 411.55 279.099 412.28 276.359 412.28ZM270.159 385.73C267.309 387.38 265.269 390.04 264.419 393.22C263.569 396.4 264.009 399.72 265.649 402.58C267.299 405.43 269.959 407.47 273.139 408.33C276.319 409.18 279.639 408.75 282.499 407.1C285.349 405.45 287.389 402.79 288.249 399.61C289.099 396.43 288.659 393.11 287.019 390.25C283.609 384.36 276.049 382.33 270.159 385.73Z" fill="white"/>
<path d="M220.47 368.8C223.347 368.8 225.68 366.467 225.68 363.59C225.68 360.713 223.347 358.38 220.47 358.38C217.592 358.38 215.26 360.713 215.26 363.59C215.26 366.467 217.592 368.8 220.47 368.8Z" fill="white"/>
<path d="M333.46 369.46C336.337 369.46 338.67 367.127 338.67 364.25C338.67 361.373 336.337 359.04 333.46 359.04C330.583 359.04 328.25 361.373 328.25 364.25C328.25 367.127 330.583 369.46 333.46 369.46Z" fill="white"/>
<path d="M276.55 398.62C253.25 398.62 230.57 386.54 218.1 364.95C208.57 348.45 206.49 328.59 212.37 310.46L215.73 311.55C210.15 328.73 212.13 347.55 221.16 363.19C229.68 377.96 243.45 388.52 259.92 392.93C276.39 397.34 293.59 395.08 308.35 386.55C335.14 371.09 346.99 338.78 336.53 309.72L339.85 308.52C350.89 339.18 338.38 373.28 310.12 389.6C299.53 395.72 287.97 398.62 276.55 398.62Z" fill="white"/>
<path d="M390.141 336.59C393.41 336.59 396.061 333.94 396.061 330.67C396.061 327.4 393.41 324.75 390.141 324.75C386.871 324.75 384.221 327.4 384.221 330.67C384.221 333.94 386.871 336.59 390.141 336.59Z" fill="white"/>
<path d="M390.141 346.52C381.401 346.52 374.281 339.41 374.281 330.66C374.281 321.92 381.391 314.8 390.141 314.8C398.881 314.8 406.001 321.91 406.001 330.66C406.001 339.41 398.881 346.52 390.141 346.52ZM390.141 318.33C383.341 318.33 377.811 323.86 377.811 330.66C377.811 337.46 383.341 343 390.141 343C396.941 343 402.471 337.47 402.471 330.67C402.471 323.87 396.941 318.33 390.141 318.33Z" fill="white"/>
<path d="M333.78 367.84C336.658 367.84 338.99 365.507 338.99 362.63C338.99 359.753 336.658 357.42 333.78 357.42C330.903 357.42 328.57 359.753 328.57 362.63C328.57 365.507 330.903 367.84 333.78 367.84Z" fill="white"/>
<path d="M390.851 270.32C393.728 270.32 396.061 267.987 396.061 265.11C396.061 262.233 393.728 259.9 390.851 259.9C387.973 259.9 385.641 262.233 385.641 265.11C385.641 267.987 387.973 270.32 390.851 270.32Z" fill="white"/>
<path d="M333.781 365.37C314.731 365.37 296.481 357.25 283.721 343.08L286.341 340.72C298.431 354.14 315.721 361.84 333.771 361.84C368.961 361.84 397.601 333.21 397.601 298.01C397.601 267.08 375.541 240.66 345.151 235.19L345.771 231.72C377.841 237.49 401.121 265.37 401.121 298.01C401.141 335.15 370.921 365.37 333.781 365.37Z" fill="white"/>
<path d="M390.1 205.15C393.369 205.15 396.02 202.5 396.02 199.23C396.02 195.96 393.369 193.31 390.1 193.31C386.83 193.31 384.18 195.96 384.18 199.23C384.18 202.5 386.83 205.15 390.1 205.15Z" fill="white"/>
<path d="M390.08 215.1C387.33 215.1 384.62 214.38 382.18 212.97C378.51 210.85 375.89 207.43 374.79 203.34C373.69 199.25 374.26 194.97 376.37 191.31C380.74 183.74 390.46 181.13 398.03 185.51C401.7 187.63 404.32 191.05 405.42 195.14C406.52 199.23 405.95 203.51 403.84 207.17C401.72 210.84 398.3 213.46 394.21 214.56C392.84 214.92 391.46 215.1 390.08 215.1ZM390.13 186.91C385.86 186.91 381.71 189.12 379.43 193.07C377.78 195.92 377.35 199.25 378.2 202.43C379.05 205.61 381.09 208.27 383.95 209.92C386.8 211.57 390.13 212 393.31 211.15C396.49 210.3 399.15 208.26 400.8 205.4C402.45 202.55 402.88 199.22 402.03 196.04C401.18 192.86 399.14 190.2 396.29 188.55C394.33 187.44 392.22 186.91 390.13 186.91Z" fill="white"/>
<path d="M389.61 269.23C392.488 269.23 394.82 266.897 394.82 264.02C394.82 261.143 392.488 258.81 389.61 258.81C386.733 258.81 384.4 261.143 384.4 264.02C384.4 266.897 386.733 269.23 389.61 269.23Z" fill="white"/>
<path d="M333.69 171.05C336.568 171.05 338.9 168.717 338.9 165.84C338.9 162.963 336.568 160.63 333.69 160.63C330.813 160.63 328.48 162.963 328.48 165.84C328.48 168.717 330.813 171.05 333.69 171.05Z" fill="white"/>
<path d="M347.65 297.59L346.91 294.14C364.58 290.38 379.89 279.25 388.92 263.62C397.44 248.85 399.71 231.65 395.3 215.19C390.89 198.73 380.33 184.96 365.56 176.43C338.78 160.97 304.87 166.86 284.94 190.44L282.25 188.16C303.28 163.27 339.07 157.05 367.33 173.37C382.91 182.37 394.06 196.89 398.71 214.27C403.37 231.65 400.98 249.8 391.98 265.38C382.45 281.89 366.3 293.62 347.65 297.59Z" fill="white"/>
<path d="M276.26 139.47C279.529 139.47 282.18 136.82 282.18 133.55C282.18 130.28 279.529 127.63 276.26 127.63C272.99 127.63 270.34 130.28 270.34 133.55C270.34 136.82 272.99 139.47 276.26 139.47Z" fill="white"/>
<path d="M276.291 149.4C270.801 149.4 265.461 146.56 262.531 141.47C260.411 137.8 259.851 133.53 260.951 129.44C262.051 125.35 264.671 121.93 268.341 119.81C275.921 115.44 285.631 118.04 290.001 125.61C294.371 133.18 291.771 142.9 284.201 147.27C281.701 148.72 278.981 149.4 276.291 149.4ZM276.241 121.22C274.151 121.22 272.031 121.75 270.101 122.87C264.211 126.27 262.191 133.83 265.591 139.71C268.991 145.6 276.541 147.62 282.431 144.22C288.321 140.82 290.341 133.26 286.941 127.38C284.661 123.43 280.511 121.22 276.241 121.22Z" fill="white"/>
<path d="M332.12 171.58C334.998 171.58 337.33 169.247 337.33 166.37C337.33 163.493 334.998 161.16 332.12 161.16C329.243 161.16 326.91 163.493 326.91 166.37C326.91 169.247 329.243 171.58 332.12 171.58Z" fill="white"/>
<path d="M219.14 170.91C222.017 170.91 224.35 168.577 224.35 165.7C224.35 162.823 222.017 160.49 219.14 160.49C216.262 160.49 213.93 162.823 213.93 165.7C213.93 168.577 216.262 170.91 219.14 170.91Z" fill="white"/>
<path d="M212.75 221.42C201.71 190.76 214.22 156.66 242.48 140.34C274.64 121.77 315.92 132.83 334.49 164.99C344.02 181.49 346.1 201.35 340.22 219.48L336.86 218.39C342.44 201.21 340.46 182.39 331.43 166.75C313.83 136.27 274.72 125.79 244.24 143.39C217.45 158.85 205.6 191.16 216.06 220.22L212.75 221.42Z" fill="white"/>
<path d="M276.26 397.77C240.75 397.77 207.37 383.94 182.27 358.84C157.16 333.73 143.34 300.35 143.34 264.85C143.34 229.35 157.17 195.96 182.27 170.86C207.38 145.75 240.76 131.93 276.26 131.93C311.76 131.93 345.15 145.76 370.25 170.86C395.36 195.97 409.18 229.35 409.18 264.85C409.18 300.35 395.35 333.74 370.25 358.84C345.15 383.94 311.77 397.77 276.26 397.77ZM276.26 135.45C204.91 135.45 146.86 193.5 146.86 264.85C146.86 336.2 204.91 394.25 276.26 394.25C347.61 394.25 405.66 336.2 405.66 264.85C405.66 193.5 347.61 135.45 276.26 135.45Z" fill="white"/>
<path d="M237.61 276.54C231.94 273.28 226.65 270.26 221.39 267.18C220.13 266.44 218.85 265.65 217.81 264.65C215.81 262.75 215.83 259.98 217.82 258.07C218.81 257.12 220 256.34 221.19 255.64C226.26 252.67 231.36 249.76 236.45 246.82C237.1 246.45 237.72 246.05 238.6 245.51C232.74 242.13 227.12 238.91 221.52 235.65C220.32 234.95 219.1 234.23 218.07 233.32C215.74 231.25 215.75 228.33 218.06 226.24C218.97 225.42 220.03 224.75 221.1 224.13C237.96 214.37 254.86 204.67 271.69 194.85C275 192.92 277.91 192.87 281.23 194.81C298.19 204.71 315.22 214.49 332.22 224.32C332.95 224.74 333.69 225.19 334.35 225.72C337.46 228.17 337.45 231.44 334.28 233.87C333.24 234.67 332.08 235.31 330.95 235.97C325.54 239.1 320.11 242.21 314.36 245.52C315.71 246.32 316.79 246.97 317.89 247.6C322.51 250.27 327.14 252.92 331.76 255.59C332.69 256.13 333.63 256.7 334.46 257.38C337.43 259.77 337.45 263.08 334.37 265.38C332.58 266.72 330.58 267.77 328.65 268.9C324.38 271.38 320.09 273.83 315.53 276.44C316.28 276.94 316.79 277.34 317.34 277.66C322.23 280.48 327.14 283.27 332.01 286.12C333.14 286.78 334.26 287.51 335.19 288.42C337.15 290.33 337.17 293.15 335.18 295.02C334.07 296.06 332.73 296.91 331.4 297.68C314.73 307.31 298.02 316.87 281.39 326.57C278 328.55 275.06 328.57 271.66 326.59C254.97 316.84 238.18 307.25 221.45 297.59C214.41 293.52 214.45 289.89 221.55 285.79C226.76 282.78 231.98 279.78 237.61 276.54ZM276.49 293.07C277.31 292.72 278.05 292.49 278.71 292.11C295.53 282.45 312.35 272.79 329.16 263.1C331.42 261.8 331.4 260.9 329.1 259.57C323.21 256.17 317.28 252.84 311.43 249.37C310.04 248.55 309.03 248.58 307.65 249.39C298.91 254.5 290.06 259.43 281.36 264.6C277.98 266.61 275.01 266.62 271.63 264.6C262.87 259.37 253.97 254.38 245.17 249.23C243.97 248.53 243.05 248.45 241.8 249.18C235.88 252.68 229.9 256.08 223.95 259.53C221.5 260.95 221.49 261.75 223.94 263.16C240.61 272.77 257.29 282.37 273.98 291.95C274.77 292.41 275.65 292.7 276.49 293.07ZM276.46 323.46C277.33 323.07 278.2 322.77 278.99 322.32C295.69 312.74 312.37 303.15 329.06 293.55C331.48 292.16 331.46 291.31 329.02 289.89C323.4 286.63 317.75 283.44 312.16 280.13C310.99 279.44 310.16 279.51 309.03 280.17C299.82 285.55 290.52 290.78 281.35 296.24C277.96 298.26 274.99 298.21 271.61 296.21C262.51 290.8 253.26 285.63 244.12 280.29C242.9 279.58 242 279.51 240.77 280.23C235.17 283.52 229.51 286.71 223.89 289.95C221.55 291.3 221.53 292.15 223.81 293.47C240.49 303.08 257.17 312.68 273.86 322.27C274.65 322.72 275.53 323.04 276.46 323.46ZM290.12 229.33C291.51 228.75 292.38 228.44 293.19 228.03C297.33 225.92 297.64 221.05 293.71 218.6C292.16 217.63 290.4 216.85 288.63 216.42C286.53 215.92 286.28 215.05 286.99 213.17C288.31 209.68 288.22 209.64 284.61 209.09C284.39 209.06 284.17 209.12 283.82 209.14C283.49 209.98 283.14 210.83 282.84 211.69C281.68 214.98 280.69 215.34 277.3 213.49C277.82 211.74 278.36 209.95 278.89 208.16C274.74 207.2 274.74 207.2 273.81 209.79C272.57 213.23 272.57 213.23 268.76 212.6C267.39 212.37 265.98 212.28 264.66 211.89C262.98 211.39 261.93 211.72 261.63 213.55C261.31 215.46 262.89 214.9 263.78 215.11C267.17 215.9 267.6 216.6 266.45 219.92C264.96 224.23 263.36 228.5 262 232.85C261.28 235.15 260.13 235.92 257.72 235.39C254.9 234.77 254.26 235.38 253.67 238.51C256.72 239.11 259.77 239.72 263.06 240.37C262.43 242.5 261.89 244.32 261.36 246.11C265.22 247.66 265.34 247.6 266.62 244.03C266.83 243.45 266.94 242.81 267.27 242.3C268.31 240.65 269.72 241.67 270.99 241.9C272.49 242.18 271.94 243.17 271.66 244.05C271.26 245.33 270.86 246.62 270.39 248.13C272.02 248.38 273.28 248.57 274.68 248.78C275.14 247.46 275.64 246.32 275.93 245.14C276.38 243.29 277.37 242.72 279.29 243.01C281.41 243.33 283.62 243.45 285.75 243.29C289.7 242.99 293.17 241.68 294.85 237.62C296.05 234.72 295.36 232.51 292.69 230.87C292.01 230.4 291.28 230 290.12 229.33Z" fill="white"/>
<path d="M277.839 238.78C279.549 238.57 281.099 238.52 282.589 238.17C284.179 237.8 285.699 236.81 285.439 235.06C285.259 233.82 284.309 232.28 283.249 231.69C281.339 230.63 279.129 229.91 276.959 229.53C271.089 228.5 272.459 227.93 270.449 233.3C270.179 234.02 270.019 234.79 269.719 235.49C269.159 236.79 269.419 237.53 270.929 237.73C273.279 238.06 275.629 238.45 277.839 238.78ZM281.109 226.82C282.179 226.6 283.739 226.58 284.979 225.94C285.939 225.44 287.019 224.2 287.089 223.22C287.159 222.27 286.239 220.89 285.349 220.3C284.039 219.44 282.419 218.93 280.849 218.59C275.069 217.35 276.149 217.02 274.389 221.98C274.159 222.63 273.919 223.29 273.689 223.94C273.259 225.16 273.629 225.85 274.979 226.01C276.899 226.22 278.799 226.51 281.109 226.82Z" fill="white"/>
<path d="M277.839 238.78C275.629 238.44 273.279 238.06 270.919 237.74C269.419 237.54 269.149 236.79 269.709 235.5C270.009 234.8 270.169 234.03 270.439 233.31C272.449 227.94 271.079 228.51 276.949 229.54C279.119 229.92 281.319 230.64 283.239 231.7C284.299 232.29 285.249 233.83 285.429 235.07C285.689 236.82 284.159 237.81 282.579 238.18C281.099 238.52 279.549 238.58 277.839 238.78Z" fill="white"/>
<path d="M281.109 226.82C278.799 226.51 276.899 226.23 274.979 226.01C273.629 225.86 273.269 225.16 273.689 223.94C273.919 223.28 274.149 222.63 274.389 221.98C276.149 217.02 275.069 217.35 280.849 218.59C282.409 218.92 284.039 219.44 285.349 220.3C286.239 220.89 287.159 222.26 287.089 223.22C287.019 224.2 285.939 225.44 284.979 225.94C283.739 226.58 282.179 226.6 281.109 226.82Z" fill="white"/>
<path d="M499.32 195.88L452.82 329.96H482.53L493.72 297.56H538.68L549.87 329.96H580.74L534.24 195.88H499.32ZM500.47 271.5L516.1 220.11L531.92 271.5H500.47Z" fill="white"/>
<path d="M708.211 227.56C701.281 227.56 695.291 229.39 690.261 233.05C685.221 236.71 681.071 241.55 677.801 247.57C675.711 241.03 672.341 236.06 667.701 232.66C663.061 229.26 657.211 227.56 650.141 227.56C643.081 227.56 636.961 229.39 631.801 233.05C626.631 236.71 624.671 241.62 621.531 247.76L621.501 229.91H594.041V329.95H621.891V257.76C624.111 255.28 626.401 253.41 628.761 252.17C631.111 250.93 633.861 250.31 637.001 250.31C642.101 250.31 645.961 251.95 648.571 255.21C651.181 258.48 652.491 263.84 652.491 271.3V329.95H680.351V267.18C680.351 263.78 681.591 254.8 686.721 252.17C689.241 250.88 692.181 250.31 695.451 250.31C700.421 250.31 704.211 251.95 706.831 255.21C709.451 258.48 710.751 263.84 710.751 271.3V329.95H738.601V267.18C738.601 253.97 736.051 244.07 730.951 237.46C725.871 230.87 718.281 227.56 708.211 227.56Z" fill="white"/>
<path d="M834.461 233.74C828.771 229.62 822.261 227.56 814.941 227.56C808.921 227.56 803.461 229.06 798.561 232.07C793.661 235.08 789.441 239.46 785.911 245.21V186.36H758.061V329.95H787.131L786.941 314.94C790.341 320.7 791.831 325.01 796.801 327.89C801.771 330.77 807.461 332.21 813.871 332.21C821.981 332.21 829.101 330.02 835.251 325.64C841.401 321.26 845.161 317.28 848.501 309.37C851.831 301.46 852.231 287.92 852.231 277.59C852.231 267.65 850.691 258.89 847.621 251.3C844.531 243.72 840.151 237.86 834.461 233.74ZM818.381 301.22C815.051 306.65 810.301 309.36 804.161 309.36C800.371 309.36 796.901 308.28 793.761 306.12C790.621 303.96 788.001 300.73 785.911 296.41V259.53C791.401 252.73 797.611 249.33 804.551 249.33C810.701 249.33 815.371 251.75 818.571 256.59C821.771 261.43 823.381 268.62 823.381 278.17C823.381 288.11 821.711 295.8 818.381 301.22Z" fill="white"/>
<path d="M956.891 275.98C956.821 273.41 956.641 270.64 956.361 267.66C955.521 259.41 953.281 252.17 949.631 245.94C945.981 239.72 940.971 234.91 934.601 231.53C928.221 228.15 920.761 226.45 912.211 226.45C902.401 226.45 893.711 228.68 886.141 233.15C878.571 237.62 872.721 243.94 868.581 252.13C864.441 260.32 862.381 269.82 862.381 280.65C862.381 291.21 864.411 300.37 868.481 308.16C872.541 315.94 878.331 321.9 885.831 326.02C893.331 330.15 902.191 332.21 912.431 332.21C930.371 332.21 944.391 326.05 954.481 313.74L939.971 298.52C937.161 302.58 933.731 305.76 929.671 308.06C925.601 310.36 921.051 311.51 916.001 311.51C908.851 311.51 903.281 309.14 899.281 304.41C895.291 299.68 892.941 295.44 892.241 286.51H957.001C957.001 283.79 956.961 278.55 956.891 275.98ZM892.661 268.47C893.641 261.57 895.851 256.26 899.281 252.54C902.711 248.82 907.091 246.96 912.421 246.96C917.891 246.96 922.271 248.86 925.561 252.64C928.851 256.43 930.571 261.71 930.711 268.47H892.661Z" fill="white"/>
<path d="M1010.86 234.5C1006.87 238.69 1003.15 244.63 1000.66 253.65L1000.05 229.91H971.84V329.95L1000.57 330.82V268.64C1003.05 264.46 1006.78 256.73 1018.44 255.54C1020.48 255.33 1027.79 255.43 1031.43 255.5V227.8C1030.22 227.64 1028.98 227.55 1027.71 227.55C1021.83 227.56 1014.85 230.32 1010.86 234.5Z" fill="white"/>
<path d="M1101.25 190.23H1085.1L1034.13 332.38H1050.65L1065.56 290.21H1120.79L1135.7 332.38H1152.02L1101.83 191.84L1101.25 190.23ZM1115.55 275.56H1070.6L1093.08 211.88L1115.55 275.56Z" fill="white"/>
<path d="M1232.43 234.14C1226.54 229.86 1219.39 227.69 1211.2 227.69C1203.73 227.69 1196.94 229.49 1191.03 233.04C1187.16 235.36 1183.79 238.26 1180.95 241.71L1180.11 230.05H1166.22V373.18H1181.65V320.58C1184.31 323.58 1187.39 326.02 1190.84 327.88C1196.4 330.87 1202.79 332.39 1209.83 332.39C1218.27 332.39 1225.67 330.2 1231.82 325.87C1237.94 321.56 1242.64 315.32 1245.82 307.33C1248.93 299.5 1250.5 290.15 1250.5 279.57C1250.5 269.24 1248.96 260.1 1245.92 252.4C1242.81 244.52 1238.27 238.39 1232.43 234.14ZM1234.67 279.55C1234.67 287.73 1233.6 294.84 1231.48 300.7C1229.43 306.38 1226.4 310.76 1222.49 313.72C1218.63 316.65 1213.9 318.13 1208.45 318.13C1202.46 318.13 1197.03 316.4 1192.31 313C1187.66 309.64 1184.07 304.9 1181.64 298.9V259.84C1183.93 254.51 1187.5 250.2 1192.23 247.04C1197.1 243.79 1202.55 242.15 1208.45 242.15C1213.91 242.15 1218.64 243.61 1222.51 246.48C1226.42 249.39 1229.45 253.64 1231.49 259.12C1233.6 264.77 1234.67 271.64 1234.67 279.55Z" fill="white"/>
<path d="M1352.08 252.37C1348.98 244.52 1344.45 238.39 1338.6 234.14C1332.71 229.86 1325.57 227.7 1317.37 227.7C1309.9 227.7 1303.11 229.5 1297.2 233.05C1293.33 235.37 1289.96 238.27 1287.12 241.72L1286.28 230.06H1272.39V373.19H1287.82V320.59C1290.48 323.59 1293.56 326.03 1297.01 327.89C1302.57 330.88 1308.96 332.4 1316 332.4C1324.44 332.4 1331.84 330.21 1337.99 325.88C1344.11 321.57 1348.81 315.33 1351.99 307.34C1355.1 299.51 1356.67 290.16 1356.67 279.58C1356.66 269.22 1355.12 260.08 1352.08 252.37ZM1340.84 279.55C1340.84 287.73 1339.77 294.84 1337.65 300.7C1335.6 306.38 1332.57 310.76 1328.66 313.72C1324.8 316.65 1320.07 318.13 1314.62 318.13C1308.63 318.13 1303.2 316.4 1298.48 313C1293.83 309.64 1290.24 304.9 1287.81 298.9V259.84C1290.1 254.51 1293.67 250.2 1298.4 247.04C1303.27 243.79 1308.72 242.15 1314.62 242.15C1320.08 242.15 1324.81 243.61 1328.68 246.48C1332.59 249.39 1335.62 253.64 1337.66 259.12C1339.77 264.77 1340.84 271.64 1340.84 279.55Z" fill="white"/>
</svg>
