<svg width="1500" height="500" viewBox="0 0 1500 500" fill="none" xmlns="http://www.w3.org/2000/svg">
<path d="M898.869 87.4599L905.819 100.71C905.819 100.71 912.039 87.0099 911.749 77.6299L900.869 81.2299L898.869 87.4599Z" fill="#F7F7F7"/>
<path d="M910.53 128.22C912.8 128.22 914.64 126.38 914.64 124.11C914.64 121.84 912.8 120 910.53 120C908.26 120 906.42 121.84 906.42 124.11C906.42 126.38 908.26 128.22 910.53 128.22Z" fill="#F7F7F7"/>
<path fill-rule="evenodd" clip-rule="evenodd" d="M875.931 146.95C876.18 146.698 876.312 146.42 876.355 146.143L879.239 137.082L879.239 137.08L879.24 137.077C883.254 124.467 887.266 111.862 891.271 99.2499C892.994 93.8259 894.72 88.4044 896.445 82.9829L896.457 82.9469C898.182 77.5254 899.908 72.1039 901.631 66.6799C902.211 64.8499 902.794 63.0199 903.376 61.1899C903.959 59.3599 904.541 57.5299 905.121 55.6999C905.268 55.2332 905.399 54.7378 905.532 54.235C905.814 53.1652 906.105 52.0619 906.581 51.1299C906.446 51.4013 906.539 51.2698 906.648 51.1179C906.691 51.057 906.737 50.9928 906.771 50.9499C907.05 50.6233 907.334 50.3013 907.619 49.9776L907.621 49.9758L907.623 49.9734L907.625 49.9706C907.757 49.821 907.889 49.6709 908.021 49.5199C908.791 48.6449 909.559 47.7699 910.326 46.8949C911.094 46.0199 911.861 45.1449 912.631 44.2699C914.592 42.0392 916.55 39.8109 918.508 37.5826L918.525 37.564C920.476 35.3435 922.427 33.123 924.381 30.8999C924.99 30.206 925.602 29.5095 926.213 28.813L926.216 28.8101C926.829 28.1126 927.441 27.415 928.051 26.7199C928.149 26.605 928.251 26.4918 928.352 26.3789C928.464 26.2541 928.576 26.1292 928.682 26.003L928.701 26.0699C928.971 27.0385 929.419 28.0072 929.86 28.9586C930.088 29.4511 930.313 29.939 930.511 30.4199C931.026 31.65 931.539 32.88 932.051 34.11C932.564 35.34 933.076 36.57 933.591 37.7999C935.831 43.1699 938.071 48.5399 940.301 53.9099C940.676 54.8149 941.054 55.7199 941.431 56.6249C941.809 57.5299 942.186 58.4349 942.561 59.3399C942.616 59.4699 942.668 59.5871 942.715 59.6946C942.794 59.8711 942.86 60.0218 942.91 60.1605C939.56 66.2443 936.453 72.4845 933.692 78.8705C930.666 85.6033 928.073 92.5322 925.991 99.5599C923.321 108.55 921.491 117.92 921.461 127.32C921.461 127.555 921.46 127.792 921.458 128.03C921.452 128.985 921.445 129.955 921.541 130.9L921.543 130.92L921.548 130.994C917.699 135.476 913.852 139.96 910.005 144.445L910.002 144.449C905.989 149.126 901.977 153.804 897.961 158.48C897.391 159.145 896.819 159.812 896.246 160.48L895.789 161.012C895.624 161.202 895.457 161.391 895.291 161.58L895.067 161.835C891.618 160.993 884.34 158.946 879.448 156.025C877.617 154.892 875.961 153.503 875.111 151.7C875.11 151.697 875.108 151.695 875.106 151.691C875.092 151.669 875.057 151.613 874.961 151.3L874.961 151.298C874.901 151.088 874.841 150.879 874.791 150.66C874.731 150.4 874.731 150.35 874.741 149.69C874.745 149.471 874.731 149.435 874.725 149.422L874.724 149.419L874.724 149.416C874.724 149.415 874.724 149.413 874.724 149.411C874.725 149.407 874.727 149.402 874.73 149.394C874.742 149.362 874.773 149.282 874.841 149.05C874.866 148.97 874.889 148.89 874.911 148.81C874.934 148.73 874.956 148.65 874.981 148.57C875.077 148.235 875.118 148.211 875.06 148.341C875.258 147.909 875.495 147.524 875.761 147.13L875.769 147.118L875.793 147.089L875.769 147.128C875.719 147.211 875.655 147.316 875.821 147.07C875.851 147.03 875.891 146.99 875.931 146.95ZM921.2 39.6899L909.6 54.0766C912.369 56.1774 914.809 61.6199 914.809 61.6199L902.992 73.6446L894.344 101.232L897.199 112.25C897.199 112.25 893.976 115.995 889.483 116.738L883.405 136.129C884.466 135.848 890.75 134.13 895.359 131.72V138.45C895.359 138.45 887.936 143.715 880.789 144.471L880.15 146.51C880.15 146.51 876.18 153.64 893.67 156.84C893.95 156.89 894.24 156.79 894.42 156.58L918.23 128.97C918.37 128.81 918.44 128.6 918.42 128.39C918.18 125.14 916.91 98.0199 937.68 61.0099C937.8 60.7999 937.82 60.5499 937.73 60.3199L927.46 34.7299C927.24 34.1899 926.54 34.0599 926.14 34.4799L921.2 39.6899ZM908.883 54.9737C908.839 55.0392 908.804 55.1096 908.78 55.1799L907.203 60.2116L908.883 54.9737Z" fill="#F7F7F7"/>
<path d="M928.583 25.6826C928.58 25.6696 928.592 25.6967 928.624 25.8029C928.601 25.7487 928.585 25.6955 928.583 25.6826Z" fill="#F7F7F7"/>
<path fill-rule="evenodd" clip-rule="evenodd" d="M849.624 169.953V219.63H866.594V372.35H849.624V428.01H1005.4C1033.9 428.01 1057.1 422.53 1074.97 411.55C1092.84 400.57 1101.78 383.21 1101.78 359.45C1101.78 337.28 1095.34 321.89 1082.44 313.29C1069.54 304.7 1055.06 299.61 1039 298.02V294.63C1046.91 293.05 1055.12 289.94 1063.6 285.3C1072.08 280.67 1079.49 273.76 1085.83 264.6C1091.47 256.459 1094.6 246.659 1095.23 235.208C1094.06 234.666 1092.9 234.126 1091.73 233.59C1059.97 218.99 1027.25 205.49 993.301 196.88C989.141 195.83 984.961 194.86 980.761 194C979.847 193.815 978.926 193.655 978.004 193.495L978 193.494C976.534 193.24 975.067 192.986 973.631 192.63C971.812 192.181 970 191.674 968.186 191.167C966.89 190.805 965.592 190.442 964.291 190.1C949.221 186.13 934.041 182.53 918.751 179.48C904.371 176.61 889.651 173.74 874.961 173.24C869.491 173.05 864.011 172.6 858.591 171.77C855.718 171.33 852.599 170.825 849.624 169.953ZM994.714 270.03C991.434 273.54 986.514 275.29 979.954 275.29H961.624V219.63H979.954C986.514 219.63 991.434 221.38 994.714 224.89C997.994 228.4 999.634 233.88 999.634 241.35V253.57C999.634 261.04 997.994 266.52 994.714 270.03ZM997.084 367.09C993.804 370.6 988.884 372.35 982.324 372.35H961.624V313.98H982.324C988.884 313.98 993.804 315.73 997.084 319.24C1000.36 322.75 1002 328.23 1002 335.7V350.63C1002 358.1 1000.36 363.58 997.084 367.09Z" fill="#F7F7F7"/>
<path d="M976.442 77.1008C980.47 73.4834 984.754 69.6367 989.647 67.2487C968.622 84.5933 954.04 108.58 944.391 133.93C944.07 134.773 943.75 135.641 943.425 136.522L943.424 136.524C941.095 142.837 938.491 149.892 933.271 154.13C929.091 157.52 925.841 152.52 926.391 148.49C926.863 145.072 928.554 141.708 930.143 138.547C930.474 137.889 930.801 137.239 931.111 136.6C937.991 122.42 946.641 109.1 956.831 97.0699C962.501 90.3799 968.631 84.0799 975.171 78.2399C975.591 77.8655 976.013 77.4866 976.437 77.1051L976.442 77.1008Z" fill="#F7F7F7"/>
<path d="M1030.82 70.3892C1028.89 72.8329 1028.74 76.1135 1028.75 79.1499C1028.75 80.6062 1028.77 82.0597 1028.79 83.5125L1028.79 83.5143C1028.82 86.0216 1028.86 88.5268 1028.81 91.0399C1028.66 99.3299 1028.09 107.6 1027.11 115.83C1026.24 123.07 1025.07 130.28 1023.57 137.42C1022.91 140.572 1022.13 143.7 1021.35 146.827C1020.36 150.831 1019.36 154.836 1018.61 158.89C1017.94 162.5 1017.52 166.16 1017.59 169.84C1017.59 169.962 1017.59 170.098 1017.59 170.244C1017.59 171.569 1017.59 173.746 1019.12 173.71C1020.41 173.67 1022 172.17 1022.84 171.3C1026.44 167.585 1027.84 161.95 1029.08 156.907L1029.09 156.905C1029.26 156.206 1029.43 155.519 1029.6 154.85C1033.28 140.61 1035.48 126 1036.19 111.31C1036.54 104.02 1036.52 96.7099 1036.14 89.4199C1035.95 85.8399 1035.68 82.2599 1035.31 78.6899C1035.29 78.5206 1035.28 78.2785 1035.25 77.9824C1035.06 75.4448 1034.57 68.9427 1031.51 70.2499C1031.27 70.3507 1031.04 70.3932 1030.82 70.3892Z" fill="#F7F7F7"/>
<path fill-rule="evenodd" clip-rule="evenodd" d="M943.481 66.3499C940.87 71.0466 938.42 75.8771 936.2 80.8182C933.472 87.2134 931.1 93.759 929.181 100.44C926.585 109.487 924.536 119.054 924.572 128.531C924.576 128.627 924.58 128.724 924.585 128.82C924.609 129.352 924.632 129.877 924.625 130.39L924.636 130.504C924.669 130.833 924.702 131.168 924.671 131.48C924.641 131.815 924.52 132.115 924.35 132.392C924.169 132.978 923.879 133.539 923.421 134.07C921.607 136.182 919.768 138.273 917.928 140.365L917.925 140.369L917.923 140.37C916.925 141.505 915.926 142.641 914.931 143.78C911.919 147.223 908.907 150.669 905.894 154.115L905.723 154.311C903.371 157.001 901.019 159.691 898.667 162.381L898.472 162.609C899.073 162.735 899.673 162.859 900.271 162.98C903.653 163.665 907.067 164.131 910.48 164.597C913.157 164.963 915.832 165.328 918.491 165.799C918.818 165.848 919.145 165.898 919.471 165.95C923.534 166.587 927.568 167.402 931.598 168.216L931.618 168.22L931.626 168.222C932.268 168.351 932.909 168.481 933.551 168.61C936.478 169.198 939.403 169.792 942.327 170.39C953.833 172.71 965.317 175.15 976.791 177.6C980.577 178.409 984.363 179.223 988.148 180.045C993.303 181.155 998.453 182.282 1003.6 183.448C1026.97 188.678 1050.28 194.298 1073.33 200.76C1080.52 202.78 1087.68 204.89 1094.79 207.17C1095.19 207.297 1095.6 207.414 1096.01 207.532L1096.01 207.532C1096.36 207.633 1096.71 207.734 1097.06 207.843C1097.57 203.779 1098 199.707 1098.31 195.62C1100.61 165.85 1097.44 134.8 1083.47 107.99C1074.86 91.4699 1062.31 77.0499 1046.8 66.6799C1042.17 63.5899 1037.3 60.8299 1032.21 58.5599L1031.96 58.4488C1031.09 58.061 1030.95 57.9966 1030 57.6199C1029.39 57.3699 1028.78 57.1299 1028.16 56.9099C1027.67 56.73 1027.18 56.5499 1026.68 56.3999C1016.03 53.1576 1005.27 50.2282 994.517 47.3008C989.185 45.8493 983.855 44.3983 978.541 42.9099C963.637 38.7251 948.732 34.549 933.828 30.3734C935.439 34.243 937.052 38.1138 938.664 41.9847L938.751 42.1917C940.762 47.0186 942.773 51.8455 944.781 56.6699C944.913 56.9853 945.074 57.3151 945.239 57.6524C945.585 58.3632 945.949 59.108 946.091 59.8199C946.111 59.9233 946.122 60.0242 946.125 60.123C946.239 60.685 946.232 61.2652 945.991 61.8899C945.607 62.8997 944.997 63.8713 944.398 64.8268C944.078 65.338 943.76 65.8446 943.481 66.3499ZM1003.93 54.3462C1003.72 54.3884 1003.51 54.4559 1003.32 54.5899C1003.08 54.7504 1002.91 54.94 1002.78 55.1767C1002.7 55.2522 1002.63 55.3362 1002.57 55.4299C1002.26 55.9299 1002.31 56.6499 1002.64 57.1399C1002.73 57.2552 1002.82 57.3615 1002.92 57.4551C1003.03 57.683 1003.19 57.8973 1003.4 58.0199C1003.83 58.2699 1004.38 58.0499 1004.79 57.8499C1005.04 57.7299 1005.28 57.5499 1005.46 57.3499C1005.68 57.0999 1005.88 56.7999 1005.95 56.4599C1005.98 56.2999 1006.01 56.1399 1005.99 55.9699C1005.97 55.6999 1005.91 55.5199 1005.81 55.2799C1005.51 54.593 1004.68 54.1179 1003.93 54.3462ZM998.361 58.4599C986.641 60.3499 975.041 62.8299 963.581 65.9099C961.621 66.4399 960.791 63.4099 962.741 62.8799C974.201 59.7999 985.811 57.3199 997.521 55.4299C999.511 55.1099 1000.35 58.1399 998.361 58.4599ZM955.531 69.0199C952.241 69.9099 949.231 71.0599 946.261 72.5499C945.471 72.9499 944.591 72.7399 944.121 71.9799C943.681 71.2999 943.941 70.1999 944.681 69.8299C947.881 68.2199 951.241 66.9199 954.701 65.9899C955.551 65.7599 956.371 66.2799 956.631 67.0899C956.891 67.8899 956.321 68.8099 955.531 69.0199ZM996.615 61.9399C997.016 61.7344 997.404 61.7462 997.733 61.8963C998.501 62.0733 998.815 62.8665 998.679 63.608C998.645 64.0447 998.436 64.4751 997.991 64.7899C982.971 75.4799 970.851 89.7399 961.451 105.52C957.301 112.5 953.651 119.77 950.461 127.24C949.398 129.723 948.445 132.274 947.49 134.83C945.561 139.994 943.624 145.177 940.761 149.86C938.881 152.94 936.311 156.69 932.811 158.04C929.491 159.32 926.091 157.52 924.381 154.57C922.271 150.93 923.291 146.65 924.781 143C926.341 139.18 928.151 135.45 930.021 131.78C937.681 116.72 947.391 102.69 958.731 90.1599C964.401 83.9099 970.491 78.0999 976.891 72.6099C982.733 67.587 988.804 62.954 996.615 61.9399ZM1025.61 83.3153C1025.39 77.7534 1025.15 71.5809 1029.16 67.5199C1029.7 66.9758 1030.35 66.9543 1030.88 67.2163C1033.71 66.5616 1036.26 68.421 1037.29 71.2199C1037.86 72.7509 1038.03 74.4477 1038.19 76.0942L1038.19 76.0953C1038.22 76.4703 1038.26 76.8427 1038.3 77.2099C1038.55 79.5499 1038.77 81.8899 1038.95 84.2299C1039.66 93.5999 1039.77 103.02 1039.27 112.41C1038.39 128.96 1035.69 145.48 1031.07 161.4C1029.43 167.07 1027 173.6 1021.26 176.26C1012.95 180.12 1014.35 166.68 1014.89 162.48C1015.59 157.028 1016.92 151.694 1018.25 146.362C1018.94 143.596 1019.63 140.831 1020.23 138.05C1022.06 129.6 1023.44 121.05 1024.35 112.45C1025.25 103.96 1025.7 95.4299 1025.71 86.8899C1025.71 85.748 1025.66 84.5466 1025.61 83.3153Z" fill="#F7F7F7"/>
<path fill-rule="evenodd" clip-rule="evenodd" d="M895.059 165.01C894.737 164.936 894.414 164.858 894.092 164.777C893.133 164.547 892.176 164.303 891.221 164.04C886.331 162.69 881.191 161.04 876.981 158.11C875.754 157.257 874.549 156.257 873.593 155.078C871.656 152.949 870.764 150.482 871.871 147.698C864.618 148.47 857.252 149.597 850.421 152.15C847.281 153.33 843.541 155.1 841.991 158C841.631 158.68 841.531 159.25 841.531 160.08C841.531 160.195 841.53 160.263 841.527 160.302C841.532 160.311 841.54 160.337 841.551 160.39C841.571 160.47 841.589 160.547 841.606 160.625C841.624 160.702 841.641 160.78 841.661 160.86C841.681 160.936 841.746 161.106 841.8 161.245C841.879 161.452 841.933 161.591 841.771 161.25C842.851 163.58 845.111 164.86 847.411 165.81C853.141 168.17 859.581 168.97 865.701 169.55C869.058 169.869 872.416 170.002 875.78 170.136H875.781C876.314 170.157 876.848 170.178 877.381 170.2C884.817 170.511 892.315 171.719 899.666 172.903L899.74 172.915C900.164 172.984 900.588 173.052 901.011 173.12C917.941 175.84 934.721 179.52 951.361 183.61C957.101 185.02 962.831 186.49 968.541 188.02C969.269 188.215 969.997 188.426 970.725 188.637C972.386 189.118 974.052 189.601 975.741 189.9C992.451 192.85 1008.83 197.66 1024.87 203.14C1055.89 213.73 1086.01 227.01 1115.42 241.43C1123.92 245.6 1132.37 249.87 1140.74 254.31C1141.44 254.675 1142.12 255.047 1142.81 255.42C1143.5 255.792 1144.19 256.165 1144.88 256.53C1147.62 257.96 1150.67 259.47 1153.74 260.06C1154.25 260.16 1154.73 260.21 1155.25 260.19C1155.29 260.19 1155.34 260.188 1155.37 260.185C1155.37 260.19 1155.37 260.194 1155.37 260.197C1155.37 260.202 1155.37 260.206 1155.37 260.208C1155.37 260.21 1155.37 260.21 1155.37 260.208C1155.37 260.205 1155.37 260.198 1155.37 260.185C1155.43 260.18 1155.46 260.172 1155.43 260.16C1155.39 260.141 1155.38 260.16 1155.37 260.179C1155.37 260.144 1155.35 260.072 1155.32 259.94C1155.01 258.71 1154.41 257.66 1153.66 256.51C1153.38 256.08 1153.09 255.67 1152.79 255.26C1152.58 255 1152.36 254.75 1152.14 254.5C1148.48 250.33 1144.16 246.71 1139.91 243.17C1129.42 234.42 1118.41 226.27 1107.34 218.27C1104.31 216.08 1101.27 213.9 1098.21 211.75C1097.98 211.587 1097.74 211.446 1097.49 211.321C1097.47 211.317 1097.46 211.313 1097.44 211.31C1091.43 209.732 1085.46 207.997 1079.49 206.262C1074.68 204.864 1069.86 203.466 1065.03 202.15C1047.15 197.272 1029.2 192.618 1011.16 188.361C999.763 185.743 988.348 183.225 976.915 180.785C975.812 180.552 974.708 180.319 973.605 180.086L973.602 180.085C971.825 179.711 970.048 179.336 968.271 178.96L965.602 178.395C959.412 177.101 953.218 175.827 947.021 174.57C938.541 172.85 930.041 171.16 921.541 169.53C920.021 169.238 918.497 168.971 916.971 168.72C909.688 167.978 902.263 167.026 895.211 165.06C895.159 165.045 895.108 165.028 895.059 165.01ZM1155.37 260.179L1155.37 260.185L1155.37 260.185C1155.37 260.183 1155.37 260.181 1155.37 260.179Z" fill="#F7F7F7"/>
<path d="M341.551 372.35H358.521V219.63H341.551V163.97H497.331C525.611 163.97 547.671 169.74 563.511 181.28C579.351 192.82 587.271 209.34 587.271 230.83C587.271 244.18 584.101 255.44 577.761 264.6C571.431 273.76 564.011 280.67 555.531 285.3C547.051 289.94 538.841 293.05 530.931 294.63V298.02C546.991 299.61 561.471 304.7 574.371 313.29C587.271 321.89 593.711 337.28 593.711 359.45C593.711 383.21 584.771 400.57 566.901 411.55C549.031 422.53 525.831 428.01 497.331 428.01H341.551V372.35ZM471.881 275.29C478.441 275.29 483.361 273.54 486.641 270.03C489.921 266.52 491.561 261.04 491.561 253.57V241.35C491.561 233.88 489.921 228.4 486.641 224.89C483.361 221.38 478.441 219.63 471.881 219.63H453.551V275.29H471.881ZM474.251 372.35C480.811 372.35 485.731 370.6 489.011 367.09C492.291 363.58 493.931 358.1 493.931 350.63V335.7C493.931 328.23 492.291 322.75 489.011 319.24C485.731 315.73 480.811 313.98 474.251 313.98H453.551V372.35H474.251Z" fill="white"/>
<path d="M637.329 400.18C614.129 378.46 602.539 343.73 602.539 295.99C602.539 204.81 646.879 159.21 735.589 159.21C757.079 159.21 777.049 161.81 795.489 167.01C813.929 172.22 827.669 177.99 836.729 184.32V269.17H755.269V244.73C755.269 236.13 753.349 229.8 749.499 225.72C745.649 221.65 739.879 219.61 732.189 219.61C724.499 219.61 718.729 221.65 714.879 225.72C711.029 229.79 709.109 236.13 709.109 244.73V347.23C709.109 355.83 711.029 362.17 714.879 366.24C718.719 370.31 724.499 372.35 732.189 372.35C739.879 372.35 745.649 370.31 749.499 366.24C753.349 362.17 755.269 355.84 755.269 347.23V319.74H836.729V407.64C827.449 413.98 813.699 419.75 795.489 424.95C777.269 430.15 757.529 432.75 736.259 432.75C693.499 432.76 660.519 421.91 637.329 400.18Z" fill="white"/>
</svg>
