<svg width="1500" height="500" viewBox="0 0 1500 500" fill="none" xmlns="http://www.w3.org/2000/svg">
<path d="M149.537 195.706V243.161H164.201V260.417H172.618V243.161H176.827V260.417H185.245V243.161H188.814C194.245 243.162 199.512 241.3 203.736 237.886C207.96 234.471 210.884 229.711 212.021 224.4C213.157 219.089 212.437 213.549 209.98 208.705C207.524 203.861 203.48 200.006 198.524 197.785C201.848 194.711 204.222 190.749 205.366 186.368C206.51 181.987 206.376 177.37 204.979 173.063C203.582 168.756 200.982 164.939 197.485 162.063C193.988 159.187 189.74 157.372 185.245 156.833V140.591H176.827V156.656H172.618V140.591H164.201V156.656H144.099V165.074H149.537V195.706ZM188.827 204.124C192.844 204.19 196.675 205.833 199.492 208.698C202.31 211.562 203.889 215.419 203.889 219.437C203.889 223.456 202.31 227.313 199.492 230.177C196.675 233.042 192.844 234.685 188.827 234.751H157.955V204.124H188.827ZM159.668 165.074H182.421C186.482 165.074 190.376 166.687 193.248 169.559C196.119 172.43 197.732 176.325 197.732 180.386C197.732 184.447 196.119 188.341 193.248 191.213C190.376 194.084 186.482 195.697 182.421 195.697H157.955V165.074H159.668Z" fill="white"/>
<path d="M174.958 294.929H134.777V303.347H174.958V332.254L136.149 350.314V358.538L136.57 359.409L176.061 341.033C177.764 346.435 181.343 351.049 186.152 354.042C190.96 357.035 196.68 358.21 202.278 357.354C207.877 356.498 212.985 353.668 216.679 349.375C220.373 345.082 222.41 339.609 222.422 333.945V294.929H174.958ZM183.376 303.347H214.004V333.945C213.937 337.963 212.295 341.793 209.43 344.611C206.565 347.429 202.708 349.008 198.69 349.008C194.672 349.008 190.815 347.429 187.95 344.611C185.085 341.793 183.443 337.963 183.376 333.945V303.347Z" fill="white"/>
<path d="M354.538 233.552C347.34 241.911 337.875 243.539 328.173 243.746C310.812 244.116 293.438 243.805 276.076 244.129C269.804 244.216 263.554 244.898 257.41 246.166C245.932 248.607 240.995 255.135 240.89 266.667C240.89 268.279 240.89 269.891 240.89 271.932H116.83C116.83 269.891 116.83 268.279 116.83 266.667C116.733 255.135 111.78 248.607 100.306 246.166C94.1612 244.897 87.9097 244.215 81.6358 244.129C64.2743 243.805 46.9001 244.129 29.5428 243.746C19.8372 243.539 10.3673 241.911 3.1744 233.552C-0.104289 242.298 3.5069 249.2 13.6965 250.997C27.4426 253.413 41.437 254.63 55.3641 255.711C66.1977 256.553 77.187 255.775 87.9743 256.881C97.0991 257.816 99.8138 261.339 100.075 270.181C100.26 276.364 103.475 279.66 109.12 280.771C113.992 281.784 118.95 282.332 123.926 282.408C140.832 282.475 157.746 282.506 174.668 282.501H187.404C202.867 282.501 218.329 282.471 233.79 282.412C238.758 282.334 243.707 281.786 248.571 280.775C254.215 279.664 257.41 276.368 257.612 270.186C257.881 261.347 260.592 257.82 269.712 256.886C280.508 255.779 291.489 256.557 302.327 255.716C316.258 254.634 330.257 253.418 343.994 251.002C354.205 249.2 357.816 242.298 354.538 233.552Z" fill="white"/>
<path d="M457.512 222.113V237.356H436.784V300.221H417.728V237.356H397V222.113H457.512Z" fill="white"/>
<path d="M534.831 222.113V300.221H515.775V268.065H486.132V300.221H467.076V222.113H486.132V252.711H515.775V222.113H534.831Z" fill="white"/>
<path d="M567.644 237.356V253.156H593.164V267.843H567.644V284.978H596.507V300.221H548.588V222.113H596.507V237.356H567.644Z" fill="white"/>
<path d="M679.856 260.166C684.388 261.13 688.029 263.392 690.778 266.953C693.526 270.439 694.901 274.445 694.901 278.969C694.901 285.497 692.598 290.689 687.992 294.547C683.46 298.33 677.108 300.221 668.935 300.221H632.494V222.113H667.709C675.659 222.113 681.862 223.93 686.32 227.565C690.852 231.199 693.118 236.132 693.118 242.363C693.118 246.962 691.892 250.782 689.44 253.823C687.063 256.865 683.868 258.979 679.856 260.166ZM651.551 253.712H664.032C667.152 253.712 669.53 253.045 671.164 251.709C672.873 250.3 673.727 248.26 673.727 245.59C673.727 242.919 672.873 240.879 671.164 239.47C669.53 238.061 667.152 237.356 664.032 237.356H651.551V253.712ZM665.592 284.866C668.787 284.866 671.238 284.162 672.947 282.752C674.73 281.269 675.622 279.155 675.622 276.41C675.622 273.666 674.693 271.515 672.836 269.957C671.053 268.399 668.564 267.62 665.369 267.62H651.551V284.866H665.592Z" fill="white"/>
<path d="M725.01 222.113V300.221H705.953V222.113H725.01Z" fill="white"/>
<path d="M795.097 222.113V237.356H774.369V300.221H755.313V237.356H734.585V222.113H795.097Z" fill="white"/>
<path d="M801.429 261.056C801.429 253.341 803.1 246.48 806.443 240.471C809.787 234.389 814.43 229.679 820.373 226.341C826.391 222.929 833.189 221.223 840.767 221.223C850.054 221.223 858.003 223.67 864.615 228.566C871.227 233.462 875.648 240.138 877.877 248.594H856.926C855.366 245.33 853.137 242.845 850.239 241.139C847.416 239.433 844.184 238.58 840.544 238.58C834.675 238.58 829.92 240.62 826.28 244.7C822.639 248.779 820.819 254.231 820.819 261.056C820.819 267.88 822.639 273.332 826.28 277.412C829.92 281.491 834.675 283.531 840.544 283.531C844.184 283.531 847.416 282.678 850.239 280.972C853.137 279.266 855.366 276.781 856.926 273.517H877.877C875.648 281.974 871.227 288.65 864.615 293.545C858.003 298.367 850.054 300.777 840.767 300.777C833.189 300.777 826.391 299.108 820.373 295.771C814.43 292.358 809.787 287.648 806.443 281.64C803.1 275.631 801.429 268.77 801.429 261.056Z" fill="white"/>
<path d="M926.544 301C919.189 301 912.429 299.294 906.262 295.882C900.17 292.47 895.304 287.722 891.664 281.64C888.098 275.483 886.315 268.585 886.315 260.944C886.315 253.304 888.098 246.443 891.664 240.36C895.304 234.278 900.17 229.53 906.262 226.118C912.429 222.706 919.189 221 926.544 221C933.899 221 940.623 222.706 946.715 226.118C952.881 229.53 957.71 234.278 961.202 240.36C964.768 246.443 966.551 253.304 966.551 260.944C966.551 268.585 964.768 275.483 961.202 281.64C957.636 287.722 952.807 292.47 946.715 295.882C940.623 299.294 933.899 301 926.544 301ZM926.544 283.643C932.785 283.643 937.763 281.566 941.477 277.412C945.266 273.258 947.161 267.769 947.161 260.944C947.161 254.046 945.266 248.557 941.477 244.477C937.763 240.323 932.785 238.246 926.544 238.246C920.23 238.246 915.178 240.286 911.389 244.366C907.674 248.446 905.817 253.972 905.817 260.944C905.817 267.843 907.674 273.369 911.389 277.523C915.178 281.603 920.23 283.643 926.544 283.643Z" fill="white"/>
<path d="M996.209 222.113V300.221H977.153V222.113H996.209Z" fill="white"/>
<path d="M1080 300.221H1060.95L1029.08 252.043V300.221H1010.02V222.113H1029.08L1060.95 270.513V222.113H1080V300.221Z" fill="white"/>
<path d="M1157.33 300.221L1141.06 270.736H1136.49V300.221H1117.43V222.113H1149.42C1155.58 222.113 1160.82 223.188 1165.13 225.339C1169.51 227.49 1172.78 230.458 1174.94 234.241C1177.09 237.949 1178.17 242.103 1178.17 246.702C1178.17 251.895 1176.68 256.531 1173.71 260.611C1170.81 264.69 1166.5 267.583 1160.78 269.289L1178.84 300.221H1157.33ZM1136.49 257.273H1148.3C1151.79 257.273 1154.39 256.42 1156.1 254.713C1157.89 253.007 1158.78 250.597 1158.78 247.481C1158.78 244.514 1157.89 242.178 1156.1 240.471C1154.39 238.765 1151.79 237.912 1148.3 237.912H1136.49V257.273Z" fill="white"/>
<path d="M1227.13 301C1219.77 301 1213.01 299.294 1206.85 295.882C1200.75 292.47 1195.89 287.722 1192.25 281.64C1188.68 275.483 1186.9 268.585 1186.9 260.944C1186.9 253.304 1188.68 246.443 1192.25 240.36C1195.89 234.278 1200.75 229.53 1206.85 226.118C1213.01 222.706 1219.77 221 1227.13 221C1234.48 221 1241.21 222.706 1247.3 226.118C1253.46 229.53 1258.29 234.278 1261.79 240.36C1265.35 246.443 1267.13 253.304 1267.13 260.944C1267.13 268.585 1265.35 275.483 1261.79 281.64C1258.22 287.722 1253.39 292.47 1247.3 295.882C1241.21 299.294 1234.48 301 1227.13 301ZM1227.13 283.643C1233.37 283.643 1238.35 281.566 1242.06 277.412C1245.85 273.258 1247.74 267.769 1247.74 260.944C1247.74 254.046 1245.85 248.557 1242.06 244.477C1238.35 240.323 1233.37 238.246 1227.13 238.246C1220.81 238.246 1215.76 240.286 1211.97 244.366C1208.26 248.446 1206.4 253.972 1206.4 260.944C1206.4 267.843 1208.26 273.369 1211.97 277.523C1215.76 281.603 1220.81 283.643 1227.13 283.643Z" fill="white"/>
<path d="M1307.04 222.113C1315.29 222.113 1322.5 223.745 1328.66 227.008C1334.83 230.272 1339.59 234.871 1342.93 240.805C1346.35 246.665 1348.05 253.452 1348.05 261.167C1348.05 268.807 1346.35 275.594 1342.93 281.529C1339.59 287.463 1334.79 292.062 1328.55 295.325C1322.39 298.589 1315.22 300.221 1307.04 300.221H1277.74V222.113H1307.04ZM1305.82 283.754C1313.03 283.754 1318.63 281.788 1322.65 277.857C1326.66 273.925 1328.66 268.362 1328.66 261.167C1328.66 253.972 1326.66 248.371 1322.65 244.366C1318.63 240.36 1313.03 238.357 1305.82 238.357H1296.79V283.754H1305.82Z" fill="white"/>
<path d="M1377.76 237.356V253.156H1403.28V267.843H1377.76V284.978H1406.62V300.221H1358.7V222.113H1406.62V237.356H1377.76Z" fill="white"/>
<path d="M1455.99 301C1448.64 301 1441.88 299.294 1435.71 295.882C1429.62 292.47 1424.75 287.722 1421.11 281.64C1417.55 275.483 1415.76 268.585 1415.76 260.944C1415.76 253.304 1417.55 246.443 1421.11 240.36C1424.75 234.278 1429.62 229.53 1435.71 226.118C1441.88 222.706 1448.64 221 1455.99 221C1463.35 221 1470.07 222.706 1476.16 226.118C1482.33 229.53 1487.16 234.278 1490.65 240.36C1494.22 246.443 1496 253.304 1496 260.944C1496 268.585 1494.22 275.483 1490.65 281.64C1487.08 287.722 1482.26 292.47 1476.16 295.882C1470.07 299.294 1463.35 301 1455.99 301ZM1455.99 283.643C1462.23 283.643 1467.21 281.566 1470.93 277.412C1474.71 273.258 1476.61 267.769 1476.61 260.944C1476.61 254.046 1474.71 248.557 1470.93 244.477C1467.21 240.323 1462.23 238.246 1455.99 238.246C1449.68 238.246 1444.63 240.286 1440.84 244.366C1437.12 248.446 1435.27 253.972 1435.27 260.944C1435.27 267.843 1437.12 273.369 1440.84 277.523C1444.63 281.603 1449.68 283.643 1455.99 283.643Z" fill="white"/>
</svg>
