<svg width="1500" height="500" viewBox="0 0 1500 500" fill="none" xmlns="http://www.w3.org/2000/svg">
<path d="M206.8 391.2C128.7 391.2 66.3003 328.9 65.9003 250.5C65.5003 171.7 128.6 108.8 207.9 108.8C285.2 108.8 348.5 172.6 348.3 250.4C348.1 328.6 285.2 391.2 206.8 391.2ZM171.8 219.2C223.8 202.8 261 220.3 285.1 267.7C313 248.2 322.6 208.6 307.4 177.1C291.8 144.8 256.3 128.6 223.1 138.6C188.5 149.1 166.8 182.7 171.8 219.2ZM171.3 254.7C171 256.9 170.8 258.1 170.8 259.3C170.8 294.5 170.8 329.6 170.7 364.8C170.7 368.9 172.6 370.4 175.9 371.9C211.6 388.1 254 371.7 271.8 334.8C279.1 319.7 281.1 303.8 278.2 286.9C234.6 302.6 199.4 291.6 171.3 254.7ZM118.1 349.5C118.1 282.9 118.1 217.1 118.1 150.9C59.4003 201.1 58.0003 297.2 118.1 349.5ZM323.7 185.8C323.7 187.8 323.5 188.7 323.7 189.5C331.2 224.7 320.9 253.7 293 276.3C289.2 279.3 288.9 282.2 289.6 286.4C294.1 313.9 287.6 338.4 269.1 359.4C264.2 364.9 258.5 369.7 253.2 374.7C322.9 353.8 366.3 261.1 323.7 185.8ZM175.1 231.7C185.8 272.9 237.9 297.6 274.4 274.4C260.1 232.1 210 213 175.1 231.7ZM158.5 124.5C149.8 129.2 142.5 133.3 135 137.2C131.4 139.1 130.4 141.7 130.4 145.6C130.6 176.8 130.5 208.1 130.5 239.3C130.5 243.4 130.5 247.6 130.5 252.1C138.8 244.1 145.9 236.7 153.7 230.1C157 227.3 158.7 224.8 158.6 220.4C158.4 191.1 158.5 161.9 158.5 132.6C158.5 130.6 158.5 128.5 158.5 124.5ZM158.1 242.7C122.9 268.9 119.7 330.7 158.1 359.2C158.1 320.5 158.1 281.9 158.1 242.7ZM170.8 162.3C191.3 136.7 216.4 122.1 251.3 124.7C233 115.3 191.2 113.4 173.8 120.5C172.5 121 171 122.8 170.9 124C170.7 136.8 170.8 149.5 170.8 162.3ZM131 349.1C129.9 360.3 138.3 368.9 150.5 370.4C144.4 363.6 138 356.6 131 349.1Z" fill="white"/>
<path d="M415.501 171.1C417.001 171.1 417.301 171 417.401 171.1C435.801 178.8 432.401 176.7 432.701 192.9C432.901 208.2 432.701 223.5 432.701 238.8C432.701 240.9 432.701 243 432.701 246.5C437.801 242.1 441.801 238.5 445.901 235.2C457.801 225.6 470.701 220.5 485.901 226.8C496.601 231.3 502.801 239.5 505.701 250.5C516.201 290.2 488.901 327.3 447.701 329.1C439.301 329.5 430.801 328 422.301 327.4C416.901 327 415.201 324.1 415.201 318.7C415.401 279.8 415.301 240.9 415.301 202C415.501 191.8 415.501 181.6 415.501 171.1ZM432.701 289.1C432.701 297.4 432.701 305.7 432.701 314C432.701 324.1 433.801 325.1 443.601 323.7C472.601 319.6 491.801 296.2 490.101 266.8C489.001 246.8 476.901 235.1 459.601 237.4C444.601 239.4 432.701 252.7 432.701 267.5C432.701 274.7 432.701 281.9 432.701 289.1Z" fill="white"/>
<path d="M1085.2 377.3C1083.8 377.4 1083.6 377.5 1083.4 377.4C1068 372.2 1068 372.2 1068 355.9C1068 315.7 1068 275.5 1068 235.3C1068 231.9 1068.3 228.4 1068.5 224.9C1084 228.3 1085.8 230.6 1085.8 247.3C1088 244.9 1089.6 243.4 1091.1 241.7C1099.3 232.4 1109 225.5 1121.7 224.4C1141.9 222.6 1156.9 235.4 1159.8 256.6C1165.5 297.4 1137.2 329.6 1095.7 329.6C1085.3 329.6 1085.2 329.6 1085.2 340C1085.2 352.3 1085.2 364.8 1085.2 377.3ZM1143.2 271.8C1142.4 266.6 1142 261.4 1140.7 256.3C1137.2 242.6 1127.6 236 1113.5 237.3C1099.4 238.5 1086.4 250.6 1085.8 264.6C1085 282.5 1085.4 300.4 1085.3 318.3C1085.3 323.4 1088.3 324.2 1092.7 324.1C1120 323.5 1142.7 299.9 1143.2 271.8Z" fill="white"/>
<path d="M1353 171.8C1355.9 173 1358.1 174 1360.3 174.8C1367.3 177.1 1369.9 181.7 1369.8 189.1C1369.4 213.8 1369.7 238.5 1369.7 263.2C1369.7 265.3 1369.7 267.4 1369.7 271.2C1378.6 263.2 1386.3 256.4 1394 249.4C1400.3 243.7 1406.7 238 1412.6 231.8C1416.7 227.6 1421.1 225.9 1427.9 227.7C1426.2 229.5 1425 231.1 1423.5 232.4C1411.9 243 1400.3 253.7 1388.6 264.1C1383.8 268.4 1383.6 271.8 1388 276.6C1403.6 293.7 1418.8 311.1 1434.2 328.4C1422.9 332.3 1413.2 329.7 1405.4 321C1394.1 308.4 1382.7 295.8 1369.8 283.7C1369.8 294.3 1369.9 304.8 1369.8 315.4C1369.7 332.7 1371.8 329 1355.6 329.3C1355 329.3 1354.3 329.1 1353.2 328.8C1353 276.7 1353 224.6 1353 171.8Z" fill="white"/>
<path d="M903.701 225.8C919.401 230.1 919.801 230.6 921.001 249.7C925.401 245.3 929.001 241.6 932.801 238C943.201 227.9 955.401 223.5 969.901 226.9C983.401 230 991.301 238.8 991.501 252.7C991.901 276.5 991.701 300.3 991.901 324.1C991.901 328.6 990.201 329.5 986.001 329.4C974.401 329.2 974.501 329.4 974.601 317.8C974.601 298.1 974.701 278.5 974.501 258.8C974.301 240.1 961.801 231.9 944.501 238.9C934.901 242.9 927.701 249.8 922.301 258.5C921.001 260.5 920.801 263.5 920.801 266C920.701 284.8 920.601 303.6 920.801 322.4C920.901 327.6 919.601 330.3 913.901 329.3C912.001 329 909.801 329.8 908.101 329.1C906.401 328.4 903.901 326.6 903.901 325.2C903.701 292.3 903.701 259.3 903.701 225.8Z" fill="white"/>
<path d="M838.3 277.2C838.2 308.4 816.7 329.6 785.3 329.5C753.9 329.5 732.1 307.5 732.3 276.2C732.5 245.2 754.5 224.1 786.6 224.2C817.1 224.4 838.4 246.1 838.3 277.2ZM749.5 271.4C750.1 271.6 750.7 271.8 751.3 272C751 287.9 755 302.3 766 314.2C780 329.3 803 326.4 813.2 308.6C824.7 288.5 820.3 255.4 803.9 239C789.8 224.8 767.2 227.4 757.9 245.1C753.7 253.1 752.2 262.5 749.5 271.4Z" fill="white"/>
<path d="M1187.1 249.7C1184.1 246.2 1181.4 243.1 1178.6 239.7C1194.1 227.7 1210.7 221.5 1230.1 225.6C1243.8 228.5 1253.1 239.6 1253.2 253.4C1253.4 276.1 1253.6 298.8 1253.8 321.6C1253.8 323.9 1253.8 326.3 1253.8 328.6C1242.2 327.8 1237.8 323.3 1236.3 310.7C1232.1 314 1228.4 317.1 1224.6 320.1C1214.4 328.2 1203 331.5 1190.2 328.4C1173.3 324.3 1166.4 308.7 1174.8 293.4C1182.8 278.8 1196.7 273.4 1211.9 270.4C1218.1 269.2 1224.5 269 1230.8 269C1235.4 269 1237.2 267.2 1236.9 262.8C1236.5 256.9 1236.6 251 1235.7 245.2C1234.2 234.8 1224.3 228.4 1214 230.5C1205.2 232.3 1198.5 237.2 1192.6 243.6C1190.9 245.4 1189.2 247.3 1187.1 249.7ZM1236.9 288C1236.8 273.6 1239 272.6 1222.3 275.3C1221.7 275.4 1221 275.3 1220.3 275.5C1206.4 278.6 1194.7 284.6 1190.5 299.6C1188.2 308 1193.3 316.7 1201.1 317.6C1212.7 319 1222.2 313.8 1231.2 307.1C1238 302.1 1237 295 1236.9 288Z" fill="white"/>
<path d="M619.3 231.7C615.2 231.7 611 231.2 607 231.9C605.2 232.2 602.4 234.8 602.4 236.4C602.1 260.9 602.2 285.3 602.3 309.8C602.3 318 607.9 321.6 616.9 324.1C614 326.5 612.3 329.1 610.7 329.1C596.8 329.1 584.8 325.5 584.9 307.1C585.1 284.6 584.8 262.1 585.1 239.6C585.2 233.8 583.8 231.4 577.5 231.5C574.1 231.5 569 234.9 567 228.7C570.4 227.8 573.9 226.1 577.3 226.3C583.4 226.5 585.4 224.3 585.1 218.3C584.7 209 585 199.7 585 189.2C590.2 191.7 594.7 193.3 598.7 195.9C600.4 197 601.6 199.7 601.8 201.9C602.3 207.5 602.6 213.3 602.1 218.9C601.6 224.9 604.1 226.8 609.6 226.2C611.8 226 614.1 225.7 616.1 226.3C617.8 226.8 619.2 228.4 620.8 229.5C620.2 230.1 619.7 230.9 619.3 231.7Z" fill="white"/>
<path d="M719.2 237.2C716.1 240.4 713.3 243.4 710.3 246.5C708.2 244 706.5 241.8 704.6 239.7C690.7 224.4 668.7 227 658.3 245.1C647.4 264.3 649.7 292.1 663.7 309.4C672.5 320.2 691.1 325 705.1 319.6C709.6 317.9 713.7 315.3 718.4 312.9C719.1 313.7 720.2 314.9 721.3 316.1C700.7 335 665.5 333.8 646.6 313.9C627.3 293.6 627.8 258.7 647.6 238.9C666.6 220 700.1 218.9 719.2 237.2Z" fill="white"/>
<path d="M1276.4 329.3C1276.4 294.6 1276.4 260.4 1276.4 226.2C1293.7 228.1 1295.1 239.8 1292.8 253.8C1293.4 253.8 1294 253.7 1294.6 253.7C1296.5 250.5 1298.4 247.3 1300.4 244.1C1310.6 228.1 1322.9 222.8 1340.1 227.9C1339 231.9 1338.1 236 1336.5 239.8C1336 240.9 1333.3 241.5 1331.6 241.4C1310.4 240.1 1295.1 252.8 1293.7 274.5C1292.8 289.7 1293.6 305.1 1293.6 320.3C1293.6 329.3 1293.6 329.3 1284.8 329.3C1282.4 329.3 1280 329.3 1276.4 329.3Z" fill="white"/>
<path d="M530.6 224.6C535.3 226.6 538.7 228.2 542.1 229.5C546.3 231.2 547.9 234.2 547.9 238.7C547.8 266.9 547.9 295.1 548 323.3C548 327.8 546.3 329.8 541.9 329.5C540.4 329.4 538.8 329.4 537.3 329.5C532.2 330 530.4 327.9 530.5 322.7C530.7 300.4 530.6 278.1 530.6 255.8C530.6 245.9 530.6 235.9 530.6 224.6Z" fill="white"/>
<path d="M859.2 225.2C864.1 227.5 868.6 228.9 872.1 231.5C874.1 233 875.8 236.4 875.8 239C876.1 267.4 875.9 295.9 876 324.3C876 328.5 874.2 329.6 870.5 329.5C856.2 329.3 858.8 330.5 858.8 318.2C858.7 290.2 858.7 262.2 858.8 234.2C858.8 231.6 859.1 228.9 859.2 225.2Z" fill="white"/>
<path d="M875.701 209.8C859.501 205.6 857.001 201.7 859.501 185.6C874.201 187.4 877.301 191.9 875.701 209.8Z" fill="white"/>
<path d="M547.4 209.2C531.5 205.2 529.3 202 531.3 185.5C544.6 185.2 549.6 192.7 547.4 209.2Z" fill="white"/>
</svg>
