<svg width="1500" height="500" viewBox="0 0 1500 500" fill="none" xmlns="http://www.w3.org/2000/svg">
<path fill-rule="evenodd" clip-rule="evenodd" d="M83.148 148.356C99.7807 148.979 110.072 143.061 108.617 120.842H254.257C252.802 143.061 263.093 148.979 279.726 148.356V237.129C276.503 296.83 214.235 343.657 181.489 365.46C148.743 343.657 86.3706 296.83 83.2519 237.129V148.356H83.148ZM74.104 143.268C92.296 143.995 103.627 141.296 101.86 117H260.806C259.039 141.296 270.474 143.891 288.562 143.268V243.878C285.132 309.082 217.041 360.165 181.281 383.942C145.521 360.165 77.5345 309.082 74 243.878V143.268H74.104Z" fill="white"/>
<path fill-rule="evenodd" clip-rule="evenodd" d="M181.386 137.661C134.087 137.661 95.7275 175.974 95.7275 223.215C95.7275 270.457 134.087 308.77 181.386 308.77C228.685 308.77 267.045 270.457 267.045 223.215C267.045 175.974 228.685 137.661 181.386 137.661ZM88.4506 152.612C101.861 153.235 114.647 145.344 113.296 124.475H249.58C248.229 145.552 260.911 153.131 274.425 152.612V234.533C271.411 291.015 212.468 335.35 181.386 356.011C150.408 335.453 91.3614 291.015 88.3467 234.533V152.612H88.4506Z" fill="white"/>
<path fill-rule="evenodd" clip-rule="evenodd" d="M250.515 187.083L249.891 185.94L253.738 183.864L254.361 185.006L250.515 187.083ZM142.09 150.95L143.234 150.327L145.313 154.169L144.17 154.792L142.09 150.95ZM217.561 292.26L218.705 291.637L220.784 295.479L219.641 296.102L217.561 292.26ZM157.996 302.02L156.748 301.605L157.996 297.452L159.243 297.867L157.996 302.02ZM204.775 148.874L203.528 148.458L204.775 144.305L206.023 144.721L204.775 148.874ZM102.484 199.853L102.9 198.607L107.058 199.853L106.642 201.099L102.484 199.853ZM255.817 246.472L256.233 245.226L260.391 246.472L259.975 247.718L255.817 246.472ZM99.5731 231.832L99.4691 230.586L103.731 230.171L103.835 231.417L99.5731 231.832ZM259.143 216.258L259.039 215.012L263.301 214.597L263.405 215.843L259.143 216.258ZM129.616 287.069L128.68 286.238L131.383 282.916L132.319 283.746L129.616 287.069ZM231.491 163.41L230.556 162.579L233.259 159.257L234.194 160.087L231.491 163.41ZM117.453 171.404L118.285 170.47L121.611 173.17L120.78 174.104L117.453 171.404ZM241.263 273.156L242.095 272.222L245.421 274.921L244.59 275.855L241.263 273.156ZM117.973 275.648L117.141 274.713L120.468 272.014L121.3 272.948L117.973 275.648ZM242.303 174.415L241.471 173.481L244.798 170.782L245.629 171.716L242.303 174.415ZM128.888 159.88L129.824 159.049L132.527 162.371L131.591 163.202L128.888 159.88ZM230.244 283.954L231.18 283.123L233.882 286.446L232.947 287.277L230.244 283.954ZM99.4691 215.531L99.5731 214.285L103.835 214.701L103.731 215.947L99.4691 215.531ZM258.935 231.729L259.039 230.483L263.301 230.898L263.197 232.144L258.935 231.729ZM102.796 247.407L102.484 246.161L106.642 244.915L106.954 246.161L102.796 247.407ZM256.337 201.411L256.025 200.165L260.183 198.919L260.495 200.165L256.337 201.411ZM157.164 144.617L158.411 144.305L159.659 148.458L158.411 148.77L157.164 144.617ZM203.216 297.971L204.463 297.659L205.711 301.813L204.463 302.124L203.216 297.971ZM142.922 295.894L141.779 295.271L143.858 291.43L145.001 292.053L142.922 295.894ZM218.913 154.896L217.769 154.273L219.848 150.535L220.992 151.158L218.913 154.896ZM108.617 184.798L109.241 183.656L113.087 185.733L112.463 186.875L108.617 184.798ZM249.787 260.697L250.411 259.555L254.153 261.631L253.53 262.773L249.787 260.697ZM105.602 255.194L105.083 254.052L109.033 252.39L109.553 253.532L105.602 255.194ZM253.738 193.935L253.218 192.793L257.168 191.132L257.688 192.274L253.738 193.935ZM149.367 147.524L150.511 147.005L152.174 150.95L151.031 151.469L149.367 147.524ZM210.7 295.375L211.844 294.856L213.507 298.802L212.364 299.321L210.7 295.375ZM150.511 299.424L149.367 298.905L151.031 294.96L152.174 295.479L150.511 299.424ZM211.844 151.469L210.7 150.95L212.364 147.005L213.507 147.524L211.844 151.469ZM105.083 192.274L105.602 191.132L109.553 192.793L109.033 193.935L105.083 192.274ZM253.218 253.636L253.738 252.494L257.688 254.155L257.168 255.298L253.218 253.636ZM99.0533 223.838V222.592H103.315V223.838H99.0533ZM259.351 223.838V222.592H263.613V223.838H259.351ZM123.691 281.774L122.755 280.839L125.77 277.828L126.705 278.763L123.691 281.774ZM237.001 168.601L236.065 167.667L239.08 164.656L240.016 165.59L237.001 168.601ZM122.755 165.486L123.691 164.552L126.705 167.563L125.77 168.497L122.755 165.486ZM236.065 278.763L237.001 277.828L240.016 280.839L239.08 281.774L236.065 278.763ZM113.191 269.211L112.463 268.172L116.102 265.784L116.83 266.822L113.191 269.211ZM246.669 180.541L245.941 179.503L249.579 177.115L250.307 178.153L246.669 180.541ZM135.333 155.103L136.373 154.377L138.764 158.011L137.724 158.737L135.333 155.103ZM224.111 288.419L225.15 287.692L227.541 291.326L226.502 292.053L224.111 288.419ZM165.792 303.889L164.545 303.681L165.376 299.424L166.624 299.632L165.792 303.889ZM197.394 146.901L196.147 146.693L196.978 142.436L198.226 142.644L197.394 146.901ZM100.613 207.64L100.821 206.395L105.083 207.225L104.875 208.471L100.613 207.64ZM257.792 239.204L258 237.958L262.262 238.789L262.054 240.035L257.792 239.204ZM100.717 239.723L100.509 238.477L104.771 237.647L104.979 238.893L100.717 239.723ZM258.104 208.783L257.896 207.537L262.158 206.706L262.366 207.952L258.104 208.783ZM164.857 142.644L166.104 142.436L166.936 146.693L165.688 146.901L164.857 142.644ZM195.835 299.736L197.082 299.528L197.914 303.785L196.667 303.993L195.835 299.736ZM136.061 291.845L135.022 291.118L137.413 287.588L138.452 288.315L136.061 291.845ZM225.358 158.841L224.318 158.114L226.709 154.584L227.749 155.311L225.358 158.841ZM112.671 177.946L113.399 176.907L116.933 179.295L116.206 180.334L112.671 177.946ZM245.837 267.134L246.565 266.096L250.099 268.484L249.372 269.522L245.837 267.134ZM180.762 140.983H182.009V145.24H180.762V140.983ZM189.91 145.759L188.662 145.655L189.078 141.398L190.325 141.502L189.91 145.759ZM172.757 141.398L174.005 141.294L174.42 145.551L173.173 145.655L172.757 141.398ZM109.033 262.462L108.409 261.32L112.256 259.243L112.879 260.385L109.033 262.462Z" fill="white"/>
<path d="M233.155 172.236H216.314C220.369 178.673 223.591 186.149 225.982 194.455H248.124C244.59 186.045 239.392 178.569 233.155 172.236ZM215.691 171.197H232.115C221.408 160.815 207.478 153.65 191.989 151.366C201.137 154.481 209.349 161.437 215.691 171.197ZM197.291 171.197H214.443C206.854 159.88 196.771 152.404 185.648 150.847C190.222 153.65 194.276 160.918 197.291 171.197ZM166.52 171.197H196.251C192.405 158.426 187.103 150.536 181.386 150.536C175.668 150.536 170.47 158.426 166.52 171.197ZM148.328 171.197H165.481C168.599 160.918 172.549 153.65 177.123 150.847C166 152.404 155.917 159.88 148.328 171.197ZM129.616 172.236C123.379 178.569 118.285 186.045 114.647 194.455H136.789C139.076 186.149 142.403 178.673 146.457 172.236H129.616ZM217.042 273.053H233.987V273.26C240.12 266.823 245.11 259.244 248.644 250.833H226.294C224.007 259.14 220.888 266.615 217.042 273.053ZM197.914 273.053H215.795C219.745 266.615 222.967 259.14 225.15 250.833H202.073C201.137 259.14 199.682 266.615 197.914 273.053ZM253.01 240.762C249.788 254.052 242.927 265.889 233.571 275.129C222.759 285.927 208.726 293.299 192.925 295.791V294.753C208.414 292.261 222.24 284.993 232.843 274.402L233.259 273.987H216.418C216.21 274.402 216.002 274.714 215.691 275.025C209.557 284.474 201.657 291.326 192.925 294.545V293.507C201.345 290.288 208.934 283.643 214.859 274.506L215.171 273.987H197.602C197.499 274.299 197.395 274.61 197.291 274.922C195.939 279.386 194.484 283.228 192.821 286.446V284.162C194.068 281.359 195.212 278.244 196.355 274.61L196.563 273.987H192.821V272.949H196.771C198.538 266.511 199.993 259.036 201.033 250.73H192.925L194.068 249.691H201.241C202.176 241.593 202.696 232.871 202.8 223.734C203.736 223.319 204.671 222.904 205.503 222.488H209.141C210.597 222.8 212.052 223.111 213.508 223.527H203.84C203.84 232.767 203.32 241.593 202.384 249.691H225.566C227.333 242.943 228.373 235.778 228.789 228.303C229.101 228.407 229.413 228.51 229.828 228.718C229.413 236.09 228.373 243.15 226.71 249.691H249.164C250.411 246.576 251.451 243.358 252.179 240.035C252.387 240.451 252.698 240.658 253.01 240.762ZM107.994 229.549C107.786 227.472 107.682 225.292 107.682 223.111C107.682 203.073 115.686 184.799 128.785 171.509L129.2 171.093L129.304 170.99C142.611 157.7 161.01 149.393 181.386 149.393C201.761 149.393 220.161 157.596 233.467 170.99L233.987 171.509C247.085 184.799 255.089 202.969 255.089 223.111C255.089 225.292 254.985 227.472 254.777 229.653C254.466 229.03 254.154 228.51 253.946 227.887C254.05 226.434 254.05 224.98 254.05 223.63H251.347C251.139 223.319 250.931 222.904 250.619 222.592H254.05C253.946 212.936 252.075 203.696 248.54 195.285H226.19C226.814 197.57 227.333 199.958 227.853 202.346C227.437 202.138 227.126 201.93 226.71 201.723C226.294 199.542 225.774 197.466 225.254 195.389H211.948C210.909 195.078 209.765 194.662 208.622 194.351H224.943C222.552 186.045 219.225 178.569 215.171 172.132H197.602C199.37 178.05 200.721 185.006 201.761 192.586C201.449 192.482 201.033 192.482 200.721 192.378C199.682 184.799 198.226 177.946 196.563 172.132H166.312C164.545 178.05 163.194 184.903 162.154 192.482C161.842 192.586 161.426 192.586 161.114 192.69C162.154 185.006 163.609 178.154 165.273 172.132H147.704C143.65 178.465 140.324 186.045 137.933 194.351H154.357C153.214 194.662 152.174 194.974 151.031 195.389H137.621C137.101 197.466 136.581 199.646 136.165 201.723C135.75 201.93 135.438 202.138 135.022 202.346C135.438 199.958 136.061 197.57 136.685 195.285H114.335C110.8 203.696 108.929 212.936 108.825 222.592H112.152C111.944 222.904 111.736 223.215 111.424 223.63H108.825C108.825 224.98 108.929 226.434 108.929 227.784C108.617 228.407 108.306 229.03 107.994 229.549ZM165.896 273.053H169.847V274.091H166.208L166.416 274.714C167.456 278.244 168.599 281.463 169.847 284.162V286.446C168.183 283.228 166.728 279.386 165.377 275.025C165.273 274.714 165.169 274.402 165.065 274.091H147.496L147.808 274.61C153.734 283.747 161.322 290.392 169.743 293.611V294.649C161.01 291.43 153.11 284.474 146.977 275.129C146.769 274.818 146.561 274.402 146.249 274.091H129.408L129.824 274.506C140.427 285.097 154.253 292.365 169.743 294.857V295.895C154.045 293.403 139.908 286.031 129.096 275.233C119.741 265.889 112.88 254.052 109.657 240.762C109.969 240.554 110.281 240.347 110.593 240.139C111.424 243.462 112.464 246.68 113.607 249.795H136.061C134.398 243.15 133.255 236.09 132.943 228.718C133.255 228.614 133.566 228.51 133.982 228.303C134.294 235.778 135.438 243.046 137.205 249.691H160.387C159.451 241.593 158.931 232.767 158.931 223.527H149.16C150.615 223.215 152.07 222.8 153.526 222.488H157.164C158.1 222.8 159.035 223.215 159.971 223.734C159.971 232.871 160.491 241.697 161.426 249.691H168.599L169.743 250.73H161.634C162.674 259.14 164.129 266.615 165.896 273.053ZM146.977 273.053H164.857C163.09 266.615 161.634 259.14 160.595 250.833H137.517C139.804 259.14 143.026 266.615 146.977 273.053ZM128.785 273.053H145.729C141.883 266.615 138.66 259.14 136.477 250.833H114.127C117.557 259.244 122.547 266.823 128.785 273.26V273.053ZM170.782 151.366C155.293 153.65 141.363 160.815 130.656 171.197H147.081C153.526 161.437 161.634 154.481 170.782 151.366Z" fill="white"/>
<path fill-rule="evenodd" clip-rule="evenodd" d="M148.329 157.494C156.853 153.133 166.001 150.537 176.085 149.81L176.189 149.706C175.981 149.914 175.669 150.433 175.357 150.745C175.461 151.056 175.565 151.264 175.357 151.679C173.486 154.794 167.456 159.259 166.833 159.362C166.001 159.57 165.897 159.674 165.273 159.259C163.402 160.089 162.363 161.231 161.531 161.854C160.907 162.27 160.076 162.581 159.348 162.893C158.1 163.308 157.996 163.1 157.269 164.035C156.229 165.177 155.294 166.319 154.254 167.461C153.838 167.876 152.903 168.499 152.175 168.603C151.343 168.707 151.447 168.395 151.136 167.98C150.928 167.669 150.304 167.669 149.992 167.461C149.68 166.007 151.343 164.865 151.136 163.1C151.863 162.477 152.071 162.373 152.695 161.439C153.007 160.92 153.526 159.985 153.838 159.362C153.838 159.362 153.734 159.259 153.734 159.362L153.319 159.051C153.423 158.22 153.526 157.597 153.111 156.974C151.967 156.767 149.888 158.428 148.745 157.701C148.745 157.597 148.745 157.597 148.641 157.494H148.329ZM111.945 200.375C114.128 193.73 117.142 187.396 121.093 181.685C121.197 181.685 121.405 181.685 121.612 181.685C122.132 181.582 122.34 181.374 122.964 181.478C122.964 182.101 121.508 183.139 121.612 184.073C122.86 184.177 123.691 181.893 125.043 180.959C126.29 180.128 127.85 179.09 128.473 177.844C128.681 177.532 128.785 177.117 128.993 176.702C129.201 176.183 126.498 174.729 126.81 174.314C128.266 172.341 137.102 164.346 137.621 164.242C137.829 165.177 143.859 162.477 143.651 163.619C145.106 163.412 137.621 172.652 138.973 171.926C138.869 174.418 137.621 174.937 138.141 175.767C138.557 176.39 138.557 175.975 138.349 176.806C138.869 176.702 139.389 176.494 139.908 176.494C140.22 178.363 136.79 179.817 135.438 180.543C134.503 181.062 132.632 184.177 134.607 186.046C134.503 186.254 131.176 188.746 130.656 189.057C127.122 191.445 120.261 190.511 115.375 196.118C115.271 196.221 115.063 196.844 115.063 197.052C114.336 199.129 113.504 199.544 111.945 200.375ZM111.529 201.724C111.633 201.309 111.841 200.79 111.945 200.375C111.737 200.79 111.633 201.309 111.529 201.724ZM108.098 229.446C108.098 227.266 108.202 225.086 108.41 223.009C108.514 222.282 108.41 221.555 108.41 220.829C109.242 220.829 109.242 220.932 109.762 220.206C110.281 219.583 110.385 219.479 111.425 219.479C111.425 220.206 111.425 219.894 111.009 220.309C110.697 220.621 110.489 221.555 110.593 222.075C110.593 222.386 110.905 222.594 111.113 222.698C111.633 221.867 111.113 219.479 113.088 219.894C113.296 220.309 113.088 220.413 113.504 220.621C111.425 223.321 109.658 226.332 108.098 229.446ZM135.542 280.011C120.989 269.005 112.568 254.884 109.45 241.075C115.999 236.818 122.964 233.08 130.241 230.069C130.656 230.588 131.28 230.588 130.033 232.25C129.721 232.665 128.993 233.599 128.889 234.119C130.241 234.222 130.137 232.977 131.8 234.534C132.839 234.222 133.879 233.08 134.919 233.496C137.206 234.326 136.374 235.157 136.478 236.299C136.894 236.195 137.206 235.988 137.517 235.572L137.621 235.365C139.493 235.261 143.547 236.61 144.898 237.441C145.73 237.96 146.769 238.791 146.977 239.933C147.601 242.217 144.482 243.255 143.651 245.747C142.715 248.447 145.522 250.835 142.299 257.584C141.156 257.48 140.948 257.168 139.804 257.584C129.929 260.491 136.582 279.491 135.542 280.011ZM136.894 183.347C138.765 183.347 140.428 183.347 139.804 180.959C139.285 180.959 138.765 181.478 138.453 180.855C138.245 180.44 138.453 180.128 138.557 179.713C137.829 179.92 136.686 180.959 136.27 181.374C135.958 181.582 137.102 182.931 136.894 183.347ZM169.535 162.477C169.951 162.789 170.679 162.893 171.407 162.996C172.342 163.1 172.342 163.1 173.278 162.789C178.476 160.712 174.629 160.297 174.317 160.297C173.798 160.401 172.966 160.608 172.342 160.608C171.511 160.712 171.199 160.712 170.679 161.231C170.159 161.439 169.535 161.958 169.535 162.477ZM176.708 171.095C176.708 171.614 176.916 171.718 177.02 172.029C176.812 172.549 176.604 172.652 176.5 173.068C176.396 173.691 176.604 173.898 177.02 174.21C177.436 174.21 178.06 173.795 178.476 173.587C178.891 173.379 179.827 173.172 180.035 172.964C180.243 172.029 179.619 171.926 180.243 171.303C180.659 170.784 180.97 170.784 180.347 170.057C179.723 170.057 178.683 169.849 178.268 170.264C178.06 170.472 177.956 170.68 177.54 170.784C176.916 170.887 177.228 170.576 176.708 171.095ZM228.27 250.835C228.27 251.458 228.374 252.185 228.166 252.808C227.958 253.534 227.542 253.534 227.126 253.95C226.503 254.677 226.295 256.026 225.983 257.168C225.567 258.83 225.671 259.764 227.542 258.934C229.101 258.311 229.205 258.311 229.933 256.857C230.973 254.884 231.804 252.911 232.844 250.939C233.467 249.693 235.443 245.747 234.507 244.398C233.779 244.398 233.883 244.605 233.675 245.124C233.571 245.436 233.26 245.851 233.052 246.059C232.22 247.097 230.869 248.239 229.725 248.966C228.893 249.693 228.27 249.381 228.27 250.835ZM232.428 229.966C231.492 230.796 230.245 231.834 229.517 232.561L227.438 234.742C226.814 235.365 226.087 236.299 225.567 237.13C225.047 238.168 224.839 239.414 225.047 240.764C225.463 244.605 227.646 247.097 224.112 250.523C220.369 254.054 222.656 250.627 219.434 254.365C217.77 256.234 219.226 256.026 219.226 257.48C219.226 258.518 217.978 259.453 217.562 259.972C216.211 261.425 215.691 260.491 215.691 262.775C215.691 264.021 215.068 264.021 213.924 265.267C213.196 266.098 212.573 266.617 211.845 267.344L208.518 270.355C207.895 270.874 207.999 270.978 206.959 270.978C204.048 270.978 203.009 272.327 201.969 272.016C201.553 271.808 201.138 271.393 201.034 270.874C200.722 269.316 202.281 269.42 201.449 267.759C201.034 266.928 200.202 266.098 199.682 265.371C198.539 263.917 199.163 264.229 198.747 262.36C198.123 259.764 196.875 257.065 196.46 254.469C196.356 253.742 196.564 253.119 196.564 252.289C196.564 248.966 198.435 247.305 198.435 246.682C198.435 246.578 198.331 246.37 198.227 246.059L198.435 245.851H198.955V245.021V238.687V237.856H198.123H195.628C195.524 237.753 195.42 237.753 195.316 237.545C195.004 237.233 193.757 236.091 193.653 235.572C193.549 235.261 194.277 233.703 194.381 232.977L194.692 231.938C196.148 226.954 202.073 223.632 206.751 222.075C215.691 223.943 224.216 226.539 232.428 229.966ZM254.051 210.861C253.531 210.861 254.362 212.211 253.219 211.796C252.595 211.588 252.179 211.069 251.971 210.342L252.491 209.927C251.556 209.823 251.556 209.615 250.932 209.2C250.204 208.577 249.373 207.123 248.229 207.227C245.734 207.539 242.927 206.916 240.952 205.462C240.225 204.943 240.432 204.839 239.809 204.216C238.665 204.008 238.561 204.839 237.73 204.528C236.586 204.112 235.339 203.386 234.507 202.555C233.987 202.036 233.779 201.724 233.571 200.79C233.052 200.686 232.532 200.582 232.116 200.79C231.908 201.932 234.195 203.074 234.195 205.047L235.962 205.254C236.066 205.67 236.066 206.397 236.378 206.604C236.69 206.916 237.418 207.019 237.834 206.916C238.873 206.708 239.185 205.877 239.705 205.358L240.329 205.67C240.432 206.189 240.329 206.812 240.744 207.123C241.056 207.331 241.472 207.642 241.888 207.954C242.408 208.265 243.759 209.2 243.967 209.719C243.967 210.55 243.343 211.069 242.823 211.484C242.408 211.796 242.096 212.419 241.888 212.938C239.081 210.342 236.066 207.954 232.844 205.774C228.27 202.659 223.384 200.063 218.186 197.986C218.706 196.221 219.122 194.456 219.018 192.484C216.939 191.653 217.355 193.418 215.379 192.38C213.404 191.445 213.924 192.38 212.781 192.276C212.469 192.276 212.053 192.068 211.845 191.964C211.845 191.964 211.845 191.964 211.845 192.068C211.741 192.38 211.325 192.484 211.013 192.38C210.39 192.068 211.013 191.757 211.221 191.549C210.39 190.719 210.182 190.511 210.078 189.161C207.167 187.604 211.429 188.227 211.637 187.188C208.622 179.401 198.955 191.653 193.549 181.997C192.094 181.893 191.782 182.62 191.262 183.035L189.495 180.024H183.361C183.257 178.467 180.763 178.674 180.555 177.532C180.763 177.013 182.946 176.39 183.673 176.286C184.609 176.079 184.817 176.39 185.337 175.663C186.584 173.898 186.792 174.729 188.039 173.898C192.405 169.018 190.326 176.909 189.287 164.554C189.495 162.893 191.678 163.412 192.821 162.581C193.341 162.166 193.861 161.647 194.173 161.231C194.9 160.401 195.836 159.466 197.083 158.739C199.682 157.286 203.425 157.909 205.712 159.362C206.439 159.778 206.647 160.089 207.167 160.608C207.687 161.024 208.207 161.335 208.83 161.647C209.974 162.166 224.112 166.111 225.359 164.761C238.561 172.86 251.867 197.675 254.051 210.861Z" fill="white"/>
<path fill-rule="evenodd" clip-rule="evenodd" d="M198.224 193.523C226.708 198.506 249.785 215.742 256.231 237.442C247.394 227.89 232.529 213.146 207.268 207.747L198.224 193.523ZM155.187 220.829C136.995 224.463 120.154 231.731 105.393 242.01C105.393 241.803 105.497 241.491 105.497 241.283L106.328 240.453C114.645 231.316 129.406 215.326 155.395 209.512L155.187 220.829ZM171.092 231.627H169.429C167.557 225.398 160.385 222.179 156.85 221.037L157.058 209.512C158.098 210.031 160.177 211.381 162.464 213.769C165.582 216.988 169.013 222.179 170.572 229.551C170.78 230.07 170.988 230.797 171.092 231.627ZM155.811 207.643C130.134 213.146 115.164 228.409 106.432 237.961C112.669 215.846 136.163 198.402 164.959 193.523L155.811 207.643ZM172.755 231.524C172.651 230.693 172.443 229.862 172.339 229.032C170.676 221.245 167.142 215.846 163.815 212.419C161.424 210.031 159.137 208.578 157.682 207.851L167.246 193.003C172.235 192.277 177.433 191.861 182.735 191.965C187.309 191.965 191.779 192.38 196.145 193.003L205.709 207.851C204.253 208.474 201.966 209.927 199.575 212.419C196.249 215.846 192.61 221.245 191.051 229.032C190.843 229.862 190.739 230.693 190.635 231.524H172.755ZM206.229 220.829C202.902 221.971 195.209 225.19 193.338 231.524H192.091C192.195 230.797 192.299 229.966 192.507 229.343C194.066 221.971 197.496 216.884 200.615 213.561C202.902 211.173 204.981 209.824 206.021 209.304L206.229 220.829ZM257.374 242.01C242.717 231.835 225.98 224.567 207.892 220.933L207.684 209.408C233.672 215.223 248.434 231.316 256.75 240.349L257.166 240.764C257.166 241.18 257.27 241.595 257.374 242.01ZM190.012 233.185H172.859V237.857H190.012V233.185ZM165.478 244.191H197.392V239.518H165.478V244.191ZM196.041 245.852H166.83L171.924 250.524H190.947L196.041 245.852ZM187.413 252.185H191.259V340.335L187.413 342.412V252.185ZM177.121 252.185H185.646V343.243L180.968 345.734L177.017 343.45V252.185H177.121ZM171.612 252.185H175.458V342.516L171.612 340.335V252.185ZM181.383 196.534C188.14 196.534 193.546 201.933 193.546 208.681C193.546 215.43 188.14 220.829 181.383 220.829C174.626 220.829 169.221 215.43 169.221 208.681C169.221 201.933 174.626 196.534 181.383 196.534ZM173.899 181.271H188.868L194.897 191.654C190.843 191.134 186.789 190.823 182.527 190.719C177.537 190.615 172.547 191.031 167.765 191.654L173.899 181.271Z" fill="white"/>
<path fill-rule="evenodd" clip-rule="evenodd" d="M183.672 213.557C183.88 213.557 184.088 213.557 184.399 213.453C184.607 213.349 184.815 213.246 185.023 213.038C185.231 212.83 185.335 212.623 185.439 212.415C185.543 212.207 185.647 211.896 185.647 211.584C185.647 211.273 185.647 211.065 185.543 210.858C185.439 210.65 185.335 210.442 185.127 210.235C184.919 210.027 184.711 209.923 184.503 209.819C184.295 209.715 183.984 209.715 183.776 209.715H180.033V213.453H183.672V213.557ZM182.112 215.53V217.71H183.984V215.53C184.503 215.53 184.919 215.426 185.439 215.322C185.959 215.218 186.375 214.907 186.79 214.595C187.206 214.284 187.518 213.869 187.726 213.453C187.934 212.934 188.038 212.415 188.038 211.792C188.038 211.377 187.934 211.065 187.83 210.754C187.726 210.442 187.518 210.131 187.31 209.819C187.102 209.508 186.79 209.3 186.582 209.093C186.271 208.885 185.959 208.781 185.647 208.677C185.855 208.573 186.063 208.47 186.271 208.262C186.478 208.054 186.686 207.847 186.79 207.639C186.894 207.431 187.102 207.12 187.102 206.912C187.206 206.601 187.206 206.393 187.206 206.081C187.206 205.562 187.102 205.043 186.894 204.628C186.686 204.213 186.478 203.797 186.063 203.486C185.751 203.174 185.335 202.967 184.815 202.759C184.503 202.655 184.191 202.551 183.88 202.551V200.059H182.112V202.551H180.553V200.059H178.682V202.551H177.642H175.771V204.42H177.642V213.661H175.771V215.53H177.642H178.682V217.71H180.553V215.53H182.112ZM180.033 207.95H183.256C183.464 207.95 183.672 207.95 183.88 207.847C184.088 207.743 184.295 207.639 184.399 207.535C184.607 207.431 184.711 207.224 184.815 207.016C184.919 206.808 184.919 206.601 184.919 206.289C184.919 206.081 184.919 205.77 184.815 205.562C184.711 205.355 184.607 205.147 184.399 205.043C184.191 204.939 184.088 204.732 183.88 204.732C183.672 204.628 183.464 204.628 183.256 204.628H180.033V207.95Z" fill="white"/>
<path fill-rule="evenodd" clip-rule="evenodd" d="M521.22 324.291H538.886V250.062H521.22V324.291ZM552.288 250.062V324.291H569.802V268.163L620.059 324.291H644.274V250.062H626.455V305.886L576.351 250.062H552.288ZM656.457 324.291H674.124V250.062H656.457V324.291ZM687.525 250.062V324.291H705.039V268.163L755.296 324.291H779.511V250.062H761.693V305.886L711.588 250.062H687.525ZM926.17 250.062L957.086 324.291H977.189L995.464 273.639L1013.74 324.291H1035.21L1065.98 250.062H1045.87L1023.64 305.125L1002.47 250.062H988.154L967.138 305.277L944.903 250.062H926.17ZM1082.58 287.481C1082.58 272.878 1096.13 265.729 1109.53 265.729C1123.09 265.729 1136.49 272.878 1136.49 287.481C1136.49 301.931 1122.93 309.08 1109.53 309.08C1096.13 309.08 1082.58 301.931 1082.58 287.481ZM1062.78 287.481C1062.78 313.187 1086.23 326.116 1109.69 326.116C1133.14 326.116 1156.59 313.187 1156.59 287.481C1156.59 261.622 1133.14 248.693 1109.69 248.693C1086.23 248.693 1062.78 261.622 1062.78 287.481ZM1183.4 267.402H1216.44C1222.23 267.402 1227.1 272.726 1227.1 278.354C1227.1 284.286 1222.38 289.458 1216.44 289.458H1183.4V267.402ZM1166.49 324.291H1183.4V306.646H1208.98L1219.34 324.139H1239.14L1227.87 304.973C1238.53 299.497 1244.01 289.61 1244.01 278.354C1244.01 262.991 1231.82 250.062 1216.44 250.062H1166.49V324.291ZM1254.21 250.062V324.291H1323.81V306.19H1272.34V250.062H1254.21ZM1387.93 268.011C1398.43 268.011 1406.81 276.833 1406.81 287.176C1406.81 297.52 1398.59 306.19 1387.93 306.19H1353.81V268.011H1387.93ZM1336.3 324.291H1389.45C1409.7 324.291 1426 307.255 1426 287.328C1426 267.25 1409.86 250.214 1389.45 250.214H1336.3V324.291ZM835.555 279.571H881.091V286.568V294.782V324.291H827.941C807.686 324.291 791.39 307.255 791.39 287.328C791.39 267.25 807.533 250.214 827.941 250.214H881.091V268.163H863.578H846.521H829.464C818.955 268.163 810.579 276.985 810.579 287.328C810.579 297.672 818.803 306.342 829.464 306.342H863.578V294.934H835.555V279.571ZM390.247 250.062V324.291H408.37V276.224L437.763 324.291H461.825L491.066 276.377L490.914 324.291H509.341L509.493 250.062H487.715L449.794 311.818L411.873 250.062H390.247Z" fill="white"/>
<path fill-rule="evenodd" clip-rule="evenodd" d="M1377.87 376.158V364.598H1366.3V369.617H1372.24V373.42C1370.72 374.485 1368.89 375.093 1366.76 375.093C1365.54 375.093 1364.47 374.941 1363.56 374.485C1362.65 374.029 1361.73 373.42 1360.97 372.66C1360.21 371.899 1359.75 370.986 1359.29 369.922C1358.84 368.857 1358.69 367.792 1358.69 366.575C1358.69 365.358 1358.84 364.294 1359.29 363.381C1359.75 362.316 1360.21 361.556 1360.97 360.795C1361.73 360.035 1362.49 359.426 1363.41 358.97C1364.32 358.513 1365.39 358.361 1366.45 358.361C1367.21 358.361 1367.98 358.361 1368.58 358.513C1369.19 358.666 1369.8 358.818 1370.41 358.97C1371.02 359.274 1371.48 359.426 1371.94 359.73C1372.39 360.035 1373 360.491 1373.46 360.947L1377.11 356.536C1376.5 355.928 1375.74 355.471 1374.98 355.015C1374.22 354.559 1373.46 354.254 1372.7 353.798C1371.94 353.342 1371.02 353.19 1369.96 353.038C1368.89 352.885 1367.82 352.733 1366.76 352.733C1364.78 352.733 1362.8 353.038 1361.12 353.798C1359.45 354.559 1357.92 355.471 1356.71 356.84C1355.49 358.057 1354.42 359.578 1353.81 361.251C1353.05 362.925 1352.75 364.75 1352.75 366.575V366.727C1352.75 368.705 1353.05 370.53 1353.81 372.203C1354.57 373.876 1355.49 375.245 1356.71 376.462C1357.92 377.679 1359.45 378.592 1361.12 379.352C1362.8 380.113 1364.78 380.417 1366.76 380.417C1369.19 380.417 1371.33 379.961 1373.31 379.2C1374.83 378.44 1376.5 377.375 1377.87 376.158ZM1337.52 379.961V353.342H1331.73V369.769L1319.24 353.342H1313.91V379.961H1319.7V363.077L1332.64 379.961H1337.52ZM1297.46 379.961V353.342H1291.68V379.961H1297.46ZM1275.23 379.961V353.342H1269.44V369.769L1256.95 353.342H1251.62V379.961H1257.41V363.077L1270.35 379.961H1275.23ZM1235.17 379.961V353.342H1229.39V379.961H1235.17ZM1212.94 379.961V353.342H1206.7L1199.69 364.598L1192.68 353.342H1186.29V379.961H1192.08V362.773L1199.54 374.029H1199.69L1207.15 362.62V379.961H1212.94ZM1146.39 366.727C1146.39 367.944 1146.24 369.009 1145.78 369.922C1145.32 370.834 1144.86 371.747 1144.1 372.355C1143.34 373.116 1142.58 373.572 1141.51 374.029C1140.45 374.485 1139.38 374.637 1138.32 374.637H1133.75V358.666H1138.32C1139.53 358.666 1140.6 358.818 1141.51 359.274C1142.43 359.73 1143.34 360.187 1144.1 360.947C1144.86 361.708 1145.32 362.468 1145.78 363.533C1146.24 364.446 1146.39 365.51 1146.39 366.727ZM1152.63 366.727C1152.63 364.75 1152.33 363.077 1151.57 361.404C1150.8 359.73 1149.89 358.361 1148.67 357.144C1147.45 355.928 1145.93 355.015 1144.26 354.407C1142.58 353.798 1140.6 353.342 1138.47 353.342H1128.11V379.961H1138.47C1140.6 379.961 1142.43 379.657 1144.26 378.896C1146.08 378.135 1147.45 377.223 1148.67 376.158C1149.89 374.941 1150.96 373.572 1151.57 371.899C1152.17 370.226 1152.63 368.553 1152.63 366.727ZM1111.97 379.961V353.342H1106.18V369.769L1093.69 353.342H1088.36V379.961H1094.15V363.077L1107.1 379.961H1111.97ZM1063.84 368.857H1056.84L1060.34 360.187L1063.84 368.857ZM1074.5 379.961L1063.08 353.19H1057.75L1046.33 379.961H1052.27L1054.71 374.029H1065.98L1068.41 379.961H1074.5ZM1013.59 379.961V353.342H1007.8V369.769L995.311 353.342H989.829V379.961H995.616V363.077L1008.56 379.961H1013.59ZM973.533 379.961V353.342H967.746V379.961H973.533ZM946.273 366.727C946.273 367.792 946.12 369.009 945.664 369.922C945.207 370.986 944.75 371.747 943.988 372.507C943.227 373.268 942.465 373.876 941.399 374.333C940.333 374.789 939.267 374.941 938.201 374.941C936.983 374.941 935.917 374.789 935.003 374.333C934.089 373.876 933.175 373.268 932.414 372.507C931.653 371.747 931.196 370.834 930.739 369.922C930.282 368.857 930.13 367.792 930.13 366.727C930.13 365.51 930.282 364.446 930.739 363.533C931.196 362.468 931.653 361.708 932.414 360.947C933.175 360.187 933.937 359.578 934.851 359.122C935.765 358.666 936.983 358.513 938.049 358.513C939.267 358.513 940.333 358.666 941.247 359.122C942.161 359.578 943.075 360.187 943.836 360.947C944.598 361.708 945.054 362.62 945.511 363.533C946.121 364.446 946.273 365.51 946.273 366.727ZM952.517 366.727C952.517 364.75 952.212 362.925 951.451 361.251C950.689 359.578 949.776 358.209 948.557 356.992C947.339 355.776 945.816 354.863 944.141 354.102C942.465 353.342 940.486 353.038 938.506 353.038C936.526 353.038 934.546 353.342 932.871 354.102C931.196 354.863 929.673 355.775 928.454 357.144C927.236 358.361 926.17 359.882 925.561 361.556C924.799 363.229 924.495 365.054 924.495 366.879V367.032C924.495 368.857 924.799 370.682 925.561 372.355C926.322 374.029 927.236 375.398 928.454 376.614C929.673 377.831 931.196 378.744 932.871 379.505C934.546 380.265 936.526 380.569 938.506 380.569C940.486 380.569 942.465 380.265 944.141 379.505C945.816 378.744 947.339 377.831 948.557 376.614C949.776 375.398 950.842 373.876 951.451 372.203C952.06 370.378 952.517 368.553 952.517 366.727ZM910.941 375.702L907.285 371.899C906.219 372.812 905.153 373.572 904.087 374.181C903.021 374.789 901.803 374.941 900.28 374.941C899.214 374.941 898.148 374.789 897.082 374.333C896.168 373.876 895.254 373.268 894.645 372.507C894.036 371.747 893.427 370.834 893.122 369.922C892.818 368.857 892.513 367.792 892.513 366.727C892.513 365.51 892.665 364.446 893.122 363.533C893.579 362.468 894.036 361.708 894.797 360.947C895.406 360.187 896.32 359.578 897.234 359.122C898.148 358.666 899.214 358.513 900.28 358.513C901.651 358.513 902.869 358.818 903.935 359.274C905.001 359.73 906.067 360.491 907.133 361.404L910.788 357.144C910.179 356.536 909.57 355.928 908.808 355.471C908.047 355.015 907.285 354.559 906.524 354.254C905.763 353.95 904.696 353.646 903.783 353.494C902.717 353.342 901.651 353.19 900.432 353.19C898.452 353.19 896.473 353.494 894.797 354.254C893.122 355.015 891.599 355.928 890.381 357.297C889.162 358.513 888.249 360.035 887.487 361.708C886.878 363.381 886.421 365.206 886.421 367.032V367.184C886.421 369.009 886.726 370.834 887.487 372.507C888.249 374.181 889.162 375.702 890.381 376.919C891.599 378.136 892.97 379.048 894.645 379.809C896.32 380.569 898.148 380.873 900.128 380.873C901.498 380.873 902.564 380.721 903.63 380.569C904.697 380.417 905.61 379.961 906.524 379.657C907.438 379.2 908.199 378.744 908.961 378.135C909.57 377.071 910.179 376.462 910.941 375.702ZM873.324 358.818V353.342H851.241V358.666H859.313V379.809H865.1V358.666H873.324V358.818ZM836.773 379.961V353.342H830.986V379.961H836.773ZM810.274 371.899C810.274 372.812 809.969 373.572 809.208 374.029C808.447 374.485 807.533 374.789 806.162 374.789H799.157V369.009H805.858C807.38 369.009 808.447 369.313 809.208 369.769C809.969 370.226 810.274 370.986 810.274 371.899ZM808.751 361.251C808.751 362.164 808.447 362.925 807.685 363.381C806.924 363.837 805.858 363.989 804.639 363.989H799.309V358.361H805.096C806.314 358.361 807.228 358.666 807.99 359.122C808.446 359.73 808.751 360.339 808.751 361.251ZM816.061 372.66C816.061 370.834 815.604 369.465 814.691 368.401C813.777 367.336 812.558 366.575 811.035 365.967C811.492 365.663 811.949 365.358 812.406 365.054C812.863 364.75 813.168 364.294 813.472 363.837C813.777 363.381 814.081 362.773 814.234 362.316C814.386 361.708 814.538 361.099 814.538 360.339V360.187C814.538 358.057 813.777 356.384 812.254 355.167C810.731 353.95 808.599 353.342 805.858 353.342H793.522V379.961H806.162C807.685 379.961 809.056 379.809 810.274 379.505C811.492 379.2 812.558 378.744 813.472 378.135C814.386 377.527 814.995 376.767 815.452 375.854C815.909 374.941 816.061 373.876 816.061 372.66ZM759.865 372.051C759.865 370.834 759.712 369.769 759.255 369.009C758.951 368.248 758.342 367.488 757.58 366.879C756.819 366.271 755.905 365.663 754.839 365.358C753.773 364.902 752.555 364.446 751.184 364.141C749.966 363.837 749.052 363.533 748.29 363.381C747.529 363.077 746.92 362.925 746.463 362.62C746.006 362.316 745.701 362.012 745.549 361.708C745.397 361.404 745.244 360.947 745.244 360.643C745.244 360.035 745.549 359.426 746.158 358.97C746.767 358.513 747.529 358.361 748.747 358.361C749.813 358.361 751.032 358.666 752.098 359.122C753.316 359.578 754.382 360.187 755.6 361.099L758.646 356.688C757.276 355.623 755.753 354.711 754.077 354.254C752.402 353.646 750.575 353.342 748.747 353.342C747.377 353.342 746.158 353.494 744.94 353.95C743.874 354.254 742.808 354.863 742.046 355.623C741.285 356.384 740.523 357.144 740.066 358.209C739.61 359.122 739.457 360.339 739.457 361.556C739.457 362.925 739.61 363.989 740.066 364.902C740.523 365.815 741.132 366.575 741.894 367.184C742.655 367.792 743.569 368.248 744.635 368.705C745.701 369.161 746.92 369.465 748.29 369.769C749.356 370.074 750.27 370.378 751.032 370.53C751.793 370.834 752.25 370.986 752.707 371.291C753.164 371.595 753.316 371.747 753.468 372.051C753.621 372.355 753.621 372.66 753.621 373.116C753.621 373.876 753.316 374.485 752.555 374.941C751.945 375.398 750.879 375.55 749.661 375.55C748.138 375.55 746.767 375.245 745.397 374.637C744.178 374.029 742.808 373.268 741.589 372.355L738.087 376.462C739.762 377.983 741.437 379.048 743.417 379.657C745.397 380.417 747.377 380.721 749.356 380.721C750.879 380.721 752.098 380.569 753.316 380.113C754.534 379.809 755.6 379.2 756.362 378.592C757.276 377.831 757.885 377.071 758.342 376.006C759.56 374.637 759.865 373.42 759.865 372.051ZM725.294 376.158V364.598H713.72V369.617H719.659V373.42C718.136 374.485 716.309 375.093 714.176 375.093C712.958 375.093 711.892 374.941 710.978 374.485C710.064 374.029 709.151 373.42 708.389 372.66C707.628 371.899 707.171 370.986 706.714 369.922C706.257 368.857 706.105 367.792 706.105 366.575C706.105 365.358 706.257 364.294 706.714 363.381C707.171 362.316 707.628 361.556 708.389 360.795C709.151 360.035 709.912 359.426 710.826 358.97C711.74 358.513 712.806 358.361 713.872 358.361C714.633 358.361 715.395 358.361 716.004 358.513C716.613 358.666 717.222 358.818 717.831 358.97C718.441 359.274 718.897 359.426 719.354 359.73C719.811 360.035 720.42 360.491 720.877 360.947L724.532 356.536C723.771 355.928 723.162 355.471 722.4 355.015C721.639 354.559 720.877 354.254 720.116 353.798C719.354 353.494 718.441 353.19 717.375 353.038C716.309 352.885 715.242 352.733 714.176 352.733C712.197 352.733 710.217 353.038 708.541 353.798C706.866 354.559 705.343 355.471 704.125 356.84C702.907 358.057 701.841 359.578 701.231 361.251C700.47 362.925 700.165 364.75 700.165 366.575V366.727C700.165 368.705 700.47 370.53 701.231 372.203C701.841 373.876 702.907 375.245 704.125 376.462C705.343 377.679 706.866 378.592 708.541 379.352C710.217 380.113 712.197 380.417 714.176 380.417C716.613 380.417 718.745 379.961 720.725 379.2C722.248 378.44 723.923 377.375 725.294 376.158ZM684.936 379.961V353.342H679.149V369.769L666.661 353.342H661.33V379.961H667.117V363.077L680.062 379.961H684.936ZM644.883 379.961V353.342H639.095V379.961H644.883ZM622.648 379.961V353.342H616.86V363.837H606.047V353.342H600.26V379.961H606.047V369.313H616.86V379.961H622.648ZM585.945 358.818V353.342H563.862V358.666H571.934V379.809H577.721V358.666H585.945V358.818ZM532.794 379.961V374.637H519.544V353.342H513.757V379.961H532.794ZM499.594 379.961V374.637H486.344V353.342H480.557V379.961H499.594ZM455.885 368.857H448.88L452.383 360.187L455.885 368.857ZM466.546 379.961L455.124 353.19H449.794L438.372 379.961H444.311L446.748 374.029H458.017L460.454 379.961H466.546Z" fill="white"/>
<path fill-rule="evenodd" clip-rule="evenodd" d="M1425.91 210.977V119.081H1405.73V175.605L1362.58 119.081H1343.79V210.977H1363.97V152.371L1408.86 210.977H1425.91ZM1241.49 210.977V119.081H1221.31V210.977H1241.49ZM1101.62 165.202C1101.62 169.017 1100.92 172.831 1099.53 176.299C1098.14 179.767 1096.4 182.888 1093.96 185.315C1091.53 188.089 1088.74 190.17 1085.26 191.557C1081.79 192.944 1077.96 193.638 1074.13 193.638C1069.96 193.638 1066.13 192.944 1063 191.21C1059.52 189.823 1056.73 187.743 1054.3 184.968C1051.86 182.194 1049.77 179.42 1048.38 175.605C1046.99 172.138 1046.29 168.323 1046.29 164.508V164.162C1046.29 160.347 1046.99 156.533 1048.38 153.065C1049.77 149.597 1051.51 146.476 1053.95 144.049C1056.39 141.274 1059.17 139.194 1062.65 137.807C1066.13 136.42 1069.96 135.726 1073.78 135.726C1077.96 135.726 1081.44 136.42 1084.92 138.153C1088.4 139.541 1091.18 141.621 1093.96 144.395C1096.4 147.17 1098.49 149.944 1099.88 153.758C1101.27 157.226 1101.62 161.041 1101.62 165.202ZM1123.19 164.855C1123.19 157.92 1122.15 152.025 1119.71 146.129C1117.28 140.234 1113.8 135.379 1109.62 131.218C1105.1 127.057 1100.23 123.589 1093.96 121.161C1088.05 118.734 1081.44 117.347 1074.48 117.347C1067.52 117.347 1060.91 118.734 1054.65 121.161C1048.73 123.589 1043.51 127.057 1038.99 131.565C1034.46 136.073 1031.33 140.928 1028.9 146.823C1026.46 152.718 1025.07 158.613 1025.07 165.202V165.549C1025.07 172.138 1026.11 178.379 1028.55 183.928C1030.98 189.823 1034.46 194.678 1038.64 198.839C1043.16 203.001 1048.03 206.468 1054.3 208.896C1060.21 211.323 1066.82 212.711 1073.78 212.711C1080.74 212.711 1087.35 211.323 1093.62 208.896C1099.53 206.468 1104.75 203.001 1109.27 198.493C1113.45 193.984 1116.93 189.13 1119.36 183.235C1121.8 177.686 1123.19 171.444 1123.19 164.855ZM933.559 196.065L920.685 182.888C917.205 186.355 913.378 188.783 909.899 190.863C906.419 192.944 901.896 193.638 896.676 193.638C892.849 193.638 889.021 192.944 885.89 191.21C882.758 189.823 879.627 187.743 877.539 184.968C875.103 182.194 873.364 179.42 871.972 175.605C870.58 172.138 869.884 168.323 869.884 164.508V164.162C869.884 160.347 870.58 156.533 871.972 153.065C873.364 149.597 875.103 146.476 877.539 144.049C879.975 141.274 882.758 139.194 885.89 137.807C889.021 136.42 892.849 135.726 896.676 135.726C901.2 135.726 905.375 136.766 909.203 138.5C913.03 140.234 916.51 143.008 920.337 146.129L933.211 131.218C931.123 129.137 928.688 127.057 926.252 125.323C923.816 123.589 921.033 122.202 918.249 120.815C915.466 119.427 911.986 118.734 908.507 118.04C905.027 117.347 900.852 117 896.676 117C889.717 117 883.106 118.387 877.191 120.815C871.276 123.242 866.405 126.71 861.881 131.218C857.706 135.726 854.227 140.581 852.139 146.476C849.703 152.371 848.659 158.267 848.659 164.855V165.202C848.659 171.791 849.703 178.033 852.139 183.581C854.574 189.476 857.706 194.331 861.881 198.493C866.057 202.654 871.276 206.122 876.843 208.549C882.758 210.977 889.021 212.364 895.632 212.364C900.156 212.364 904.331 212.017 907.811 211.323C911.29 210.63 914.77 209.589 917.901 208.202C921.033 206.815 923.816 205.081 926.252 203.001C928.688 200.92 931.123 198.839 933.559 196.065ZM757.845 137.807V119.081H681.296V137.807H709.48V211.323H729.661V137.807H757.845ZM585.61 210.977V119.081H565.428V210.977H585.61ZM448.17 183.235C448.17 186.702 446.778 189.13 444.342 190.863C441.906 192.597 438.427 193.291 433.904 193.291H409.895V173.178H433.208C438.427 173.178 442.254 174.218 444.69 175.952C447.126 177.686 448.17 180.114 448.17 183.235ZM443.298 146.476C443.298 149.944 441.906 152.371 439.471 153.758C436.687 155.145 433.208 156.186 428.684 156.186H409.895V136.766H430.076C434.252 136.766 437.731 137.46 439.819 139.194C441.906 140.928 443.298 143.008 443.298 146.476ZM468.351 185.662C468.351 179.42 466.959 174.565 463.827 171.097C460.696 167.629 456.52 164.855 451.301 162.775C453.041 161.734 454.433 160.694 455.824 159.654C457.216 158.267 458.608 156.879 459.652 155.492C460.696 153.758 461.739 152.024 462.435 149.944C463.131 147.863 463.479 145.436 463.479 143.008V142.662C463.479 135.379 460.696 129.484 455.476 125.323C449.909 121.161 442.602 118.734 433.208 118.734H390.41V210.63H434.252C439.471 210.63 443.994 209.936 448.517 208.896C452.693 207.856 456.52 206.122 459.304 204.041C462.435 201.96 464.523 199.186 466.263 196.065C467.655 193.638 468.351 189.823 468.351 185.662Z" fill="white"/>
</svg>
