<svg width="1500" height="500" viewBox="0 0 1500 500" fill="none" xmlns="http://www.w3.org/2000/svg">
<path d="M1412.2 228.63C1412.54 232.15 1413.01 234.39 1414.15 232.19L1418.03 212.37C1417.12 214.14 1415.62 216.61 1413.86 219.49L1412.67 223.69C1412.51 225.44 1412.35 227.1 1412.2 228.63Z" fill="white"/>
<path d="M1115.93 372.16C1117.83 372.36 1120.02 372.79 1122.31 373.32C1125.85 373.77 1130.01 374 1135.45 373.63L1132.78 371.31C1126.52 371.84 1120.13 372.11 1115.93 372.16Z" fill="white"/>
<path d="M535.307 361.33H533.907C533.867 361.38 533.847 361.42 533.867 361.47L535.307 361.33Z" fill="white"/>
<path d="M467.949 373.57L468.049 373.56C468.019 373.55 467.989 373.55 467.969 373.53C467.969 373.55 467.949 373.55 467.949 373.57Z" fill="white"/>
<path d="M530.139 361.33H510.879C517.889 362.5 525.449 362.19 530.139 361.33Z" fill="white"/>
<path d="M1409.26 235.78C1409.85 235.95 1410.69 235.01 1411.91 232.38C1411.96 231.34 1412.07 230.02 1412.2 228.63C1412.13 227.85 1412.06 227.02 1411.98 226.15L1409.26 235.78Z" fill="white"/>
<path d="M469.218 372.44C468.788 372.68 468.378 372.93 468.238 373.22C470.208 372.98 475.518 372.87 469.218 372.44Z" fill="white"/>
<path d="M1243.55 365.61L1255.88 361.33H1243.4C1244.1 362.99 1244.62 364.53 1243.55 365.61Z" fill="white"/>
<path d="M730.497 362C725.107 361.25 715.217 361.9 710.497 362.76L722.867 363.98C712.827 364.08 704.887 361.46 690.067 362.44C692.567 364.31 681.817 366.87 693.077 369.45C721.457 372.38 716.397 364.58 750.567 365.29C753.727 364.71 743.417 368.34 761.617 367.34C776.597 366.11 788.957 363.87 795.697 361.32H725.517C727.657 361.5 729.357 361.72 730.497 362ZM766.037 361.88C770.977 361.55 774.587 362.06 773.237 362.88L759.977 363.57C757.937 362.77 762.857 362.45 766.037 361.88Z" fill="white"/>
<path d="M1041.52 368.38L1057.71 366.58L1061.76 368.16C1071.59 367.17 1080.98 364.34 1088.76 361.33H1061.86C1053.38 364 1045.8 366.6 1041.52 368.38Z" fill="white"/>
<path d="M468.23 373.23C468.11 373.24 467.85 373.25 467.78 373.27C466.72 373.12 467.03 373.28 467.97 373.54C467.99 373.43 468.16 373.33 468.23 373.23Z" fill="white"/>
<path d="M955.41 364.99L955.05 361.32H937.16C937.41 361.7 938 362.08 939.04 362.43C944.9 364.25 970.05 367.53 971.85 367.78C974.09 366.67 975.15 364.15 975.09 361.31H957.55L955.41 364.99Z" fill="white"/>
<path d="M557.09 124.9L553.79 124.29C551.73 124.96 549.64 125.57 557.09 124.9Z" fill="white"/>
<path d="M692.297 372.55C697.957 372.99 700.847 373.34 692.687 372.44C692.567 372.48 692.457 372.51 692.297 372.55Z" fill="white"/>
<path d="M1204.83 366.49C1204.59 366.79 1204.21 367.06 1203.74 367.31C1206.79 367.26 1205.04 367.01 1204.83 366.49Z" fill="white"/>
<path d="M873.39 363.43C877.28 363.11 881.73 362.32 885.74 361.32H871C872.29 361.89 873.95 362.74 873.39 363.43Z" fill="white"/>
<path d="M1269.98 144.12C1263.74 143.35 1260.52 142.08 1256.36 144.74C1259.03 146.11 1266.32 144.61 1269.98 144.12Z" fill="white"/>
<path d="M1411.71 223.03C1410.45 225.13 1409.16 227.3 1407.91 229.49C1408.06 232.75 1408.37 235.53 1409.26 235.78L1411.98 226.15C1411.9 225.15 1411.81 224.11 1411.71 223.03Z" fill="white"/>
<path d="M250.397 188.48L186.577 185.75L170.547 297.06L246.267 284.06L248.617 246.91L231.037 238.12L247.387 234.05L250.397 188.48ZM213.047 208.01L224.347 213.63L223.837 225.63L211.947 232.58L213.047 208.01ZM226.077 267.73L209.607 276.6V272.57C209.607 272.08 209.717 271.56 209.937 270.94L210.807 247.71L226.077 256.13V267.73Z" fill="white"/>
<path d="M1412.68 223.69L1413.87 219.49C1413.57 219.99 1413.26 220.49 1412.94 221.01C1412.85 221.93 1412.77 222.82 1412.68 223.69Z" fill="white"/>
<path d="M1239.11 243.74L1221.53 234.95L1237.89 230.88L1240.89 185.32L1177.07 182.59L1161.04 293.9L1236.76 280.9L1239.11 243.74ZM1203.53 204.85L1214.83 210.47L1214.32 222.47L1202.43 229.42L1203.53 204.85ZM1216.56 264.57L1200.08 273.44V269.41C1200.08 268.92 1200.19 268.39 1200.41 267.78L1201.28 244.55L1216.55 252.97V264.57H1216.56Z" fill="white"/>
<path d="M1047.37 243.74L1029.79 234.95L1046.15 230.88L1049.15 185.32L985.329 182.59L969.289 293.9L1045.01 280.9L1047.37 243.74ZM1011.79 204.85L1023.09 210.47L1022.58 222.47L1010.69 229.42L1011.79 204.85ZM1024.82 264.57L1008.35 273.44V269.41C1008.35 268.92 1008.46 268.4 1008.68 267.78L1009.55 244.55L1024.82 252.97V264.57Z" fill="white"/>
<path d="M871.278 225.14L873.238 227.01C879.278 222.92 882.098 219.26 882.098 215.56C882.098 211.31 878.768 208.56 873.608 208.56C868.378 208.56 865.258 210.98 865.258 215.02C865.248 218.09 866.938 220.93 871.278 225.14Z" fill="white"/>
<path d="M1288.95 267.75H1304.36L1300.56 298.15L1332.11 292.96V181.45L1284.57 184.38L1254.5 290.89L1282.81 294.81L1288.95 267.75ZM1302.45 208.77H1311.93L1307.35 246.1L1293.02 250.12L1302.45 208.77Z" fill="white"/>
<path d="M872.929 268.86C877.079 268.86 880.269 268.26 883.219 266.89L866.199 250.46C861.259 253.23 859.039 256.15 859.039 259.82C859.039 265.48 864.239 268.86 872.929 268.86Z" fill="white"/>
<path d="M518.66 293.81L598.23 287.61L609.31 185.37L551.22 185.7L518.66 293.81ZM571.34 211.97H580.18L570.37 260.73L559.81 263.37L571.34 211.97Z" fill="white"/>
<path d="M652.199 190.57L616.859 293.45L653.519 290.59L678.459 189.18L652.199 190.57Z" fill="white"/>
<path d="M1154.21 182.2L1096.12 182.53L1063.56 290.65L1143.13 284.45L1154.21 182.2ZM1115.27 257.57L1104.7 260.21L1116.23 208.81H1125.07L1115.27 257.57Z" fill="white"/>
<path d="M710.999 288.25L717.659 260.3H721.969L726.279 291.6L763.979 288.6L788.929 186.81L762.689 187.93L749.759 226.07H745.739L737.189 186.14L710.039 187.89L674.059 291.14L710.999 288.25Z" fill="white"/>
<path d="M725.508 361.33H795.688C799.248 359.99 801.248 358.56 801.228 357.16C791.588 358.35 772.318 360.73 769.358 357.78C778.978 356.59 795.598 355.86 796.448 353.96C806.418 357.37 778.278 354.97 791.348 357.81C798.108 357.73 800.998 356.62 804.148 356.04C799.648 357.45 810.218 358.41 812.238 359.21C834.138 359.24 846.748 360.73 870.238 361.02C869.438 360.7 869.178 360.62 870.668 361.03C870.498 361.03 870.378 361.03 870.238 361.02C870.458 361.11 870.718 361.21 870.988 361.33H885.738C893.578 359.39 899.778 356.69 896.948 355.29C910.408 355.15 911.118 356.76 922.578 355.82C904.288 352.77 926.158 356.33 928.118 353.05C939.828 352.65 932.208 354.63 937.598 355.39C939.548 355.04 944.208 353.95 944.518 353.07C943.228 352.63 941.278 352.21 937.788 351.87C943.118 352.02 944.708 352.5 944.518 353.07C950.828 355.25 935.348 358.6 937.148 361.34H955.038L954.918 360.1L958.288 360.06L957.548 361.33H975.088C975.008 357.09 972.428 352.12 967.418 349.91C968.308 348 978.498 351.95 983.628 352.16C998.498 355.25 1006.32 349.74 1018.7 350.96L1009.27 352.69C1011.31 353.48 1029.53 352.47 1032.41 351.35C1032.87 352.43 1022.99 356.9 1028.64 358.19C1050.87 358.76 1071.95 352.81 1070.57 349.58L1036.49 352.93C1035.29 350.23 1060.68 350.23 1059.29 346.99L1090.67 347.95C1086.71 348.04 1074.6 348.81 1079.36 350.29C1092.84 350.15 1086.34 350.76 1095.34 352.01C1086.46 353.97 1073.33 357.71 1061.85 361.32H1088.75C1097.68 357.87 1104.5 354.16 1107.47 352.68C1119.6 353.36 1115.36 359.12 1112.47 360.24C1136.32 360.52 1136.03 352.1 1160.08 352.91L1151.05 351.66C1156.73 351.12 1177.35 352.28 1175.14 351.22C1179.55 352.64 1183.63 355.84 1179.98 357.08L1200.27 351.93C1197.14 352.5 1199.19 357.12 1197.85 357.94C1206.05 358.11 1211.91 353.05 1207.62 351.97C1207.42 351.93 1207.22 351.89 1207.01 351.85C1207.23 351.88 1207.43 351.92 1207.62 351.97C1223.6 355.14 1219.74 353.41 1233.12 357.28C1238.06 356.96 1232.67 352.38 1229.05 351.88C1240.21 350.64 1246.76 351.22 1252.06 351.72C1252.27 351.69 1252.4 351.64 1252.63 351.62L1252.8 351.79C1258.6 352.34 1262.96 352.66 1270.62 350.06L1258.75 357.81L1252.8 351.79C1252.59 351.77 1252.29 351.74 1252.06 351.72C1239.27 353.1 1241.8 357.54 1243.39 361.31H1255.87L1283.22 351.82C1281.88 352.65 1278.74 357.05 1278.96 357.58C1282.28 353.49 1327.74 352.95 1349.98 353.52L1346.64 353.55C1344.39 354.25 1348.05 354.89 1353.24 355.17C1354.54 355.24 1355.94 355.29 1357.36 355.31C1358.07 355.31 1358.79 355.32 1359.51 355.32L1360.31 355.31L1361.03 355.29C1362.93 355.22 1364.67 355.02 1365.74 354.66C1365.29 355.48 1363.9 355.23 1361.67 355.27C1363.26 355.73 1364.79 355.92 1366.08 355.91C1367.38 355.9 1368.45 355.69 1369.29 355.38C1369.43 352.22 1368.87 349.41 1368.64 347.25C1368.16 345.97 1369.21 341.14 1371.81 336.58C1370.78 339.85 1370.07 342.5 1369.6 344.62C1369.54 344.89 1369.49 345.14 1369.44 345.39C1369.4 345.6 1369.4 345.68 1369.38 345.83C1369.35 346.09 1369.33 346.34 1369.32 346.58C1369.3 347.05 1369.31 347.48 1369.34 347.87C1369.49 349.41 1370.09 350.3 1370.86 350.56C1370.96 349.51 1371.14 348.38 1371.37 347.2C1371.43 346.91 1371.49 346.61 1371.55 346.3L1371.68 345.73L1371.84 345.04C1372.06 344.12 1372.29 343.17 1372.52 342.21C1373.46 338.38 1374.51 334.38 1375.31 330.84C1376.91 323.77 1377.54 318.6 1374.48 320.57C1377.41 313.9 1378.59 307.48 1380.77 308.75L1385.52 281.37C1385.44 283.48 1386.32 285.58 1388.84 277.89C1384.01 292.63 1384.26 308.28 1379 315.27C1381.76 316.47 1384.88 311.3 1385.28 319.12C1392.05 289.96 1391.61 272.81 1393.41 253.75L1402.64 229L1401.63 227.56L1406.18 224.09C1406.32 220.71 1406.24 218.5 1406.73 217.93C1407.19 217.43 1407.4 218.36 1407.53 219.75C1408.12 217.04 1408.51 214.53 1408.52 213.18C1408.03 213.3 1407.54 213.45 1406.88 214.34C1408.11 211.54 1408.54 211.69 1408.52 213.18C1410.54 212.67 1411.26 217.71 1411.71 223C1412.12 222.32 1412.54 221.64 1412.94 220.98C1414.21 208.23 1415.49 193.64 1410.2 203.85L1406.12 213.35C1407.8 208.99 1409.13 205.94 1410.2 203.85L1416.32 189.64C1417.13 180.52 1417.49 176.75 1418.09 172.55C1418.39 170.45 1418.75 168.24 1419.25 165.19C1419.5 163.67 1419.79 161.93 1420.13 159.9C1420.3 158.88 1420.48 157.79 1420.67 156.61C1420.77 156.02 1420.87 155.41 1420.97 154.78L1421.05 154.3C1421.07 154.15 1421.06 154.14 1421.06 154.05C1421.06 153.91 1421.06 153.77 1421.06 153.62C1421.72 153.49 1422.13 154.06 1422.5 154.61C1422.65 155.02 1422.79 155.44 1423.02 155.47C1423.14 155.49 1423.28 155.43 1423.44 155.25C1423.52 155.18 1423.63 155 1423.71 154.93C1423.79 154.85 1423.88 154.75 1423.97 154.63C1423.68 152.41 1423.94 150.6 1424.65 148.51C1425.35 146.45 1426.5 144.07 1427.8 141.39C1426 140.77 1423.94 140.05 1421.94 139.72C1419.95 139.39 1418.19 139.45 1417.32 140.37C1416.26 140.47 1415.43 140.6 1414.78 140.74C1414.45 140.81 1414.17 140.88 1413.92 140.96C1413.79 141 1413.67 141.04 1413.56 141.08C1413.38 141.12 1413.22 141.16 1413.06 141.2C1411.82 141.53 1411.3 141.91 1410.92 142.28C1410.16 143.03 1409.99 143.8 1405.89 144.28C1406.28 143.9 1407.05 143.14 1404.67 143.09L1394.92 145.55C1390.98 144.67 1403.89 143.85 1392.9 142.79C1374.11 144.63 1363.08 145.89 1347.37 144.71C1325.01 145.29 1356.95 149.6 1338.06 149.11C1335.28 147.1 1332.84 144.72 1321.04 144.41C1314.81 145.8 1315.65 147.36 1305.07 148.25L1305.74 145.17C1295.95 145.3 1288.13 145.87 1288.06 143.55C1280.05 144.87 1274.53 144.63 1270.35 144.14C1255.5 145.77 1281.28 150.38 1284.74 151.59C1270.13 149.28 1260.05 150.62 1251.72 146.91L1264.64 146.08C1237.06 142.27 1238.49 150.44 1225.71 143.91C1235.16 144.15 1246.5 142.51 1240.93 140.82L1227.25 142.4C1225.64 141.58 1235.07 141.83 1228.79 140.89C1224.89 141.56 1216.9 143.15 1213.37 144.17L1212.42 145.11C1210.84 145.07 1211.58 144.69 1213.37 144.17L1213.55 143.98L1191.08 144.45C1190.47 144.5 1189.71 144.52 1188.84 144.5L1191.08 144.45C1193.75 144.23 1193.8 143.46 1189.97 143.36L1173.77 144.98C1172.58 145.17 1170.96 145.35 1168.43 145.52L1173.77 144.98C1178.73 144.2 1173.65 143.26 1166.38 142.75C1145.52 141.82 1149.68 149.67 1133.49 146.54C1135.85 146.61 1136.23 146.22 1138.62 146.28L1130.29 144.91C1128.53 151.44 1081.22 145.57 1079.44 152.11C1067.58 149.47 1078.61 150.54 1093.86 147.45L1081.23 145.57C1086.36 145.32 1090.66 145.82 1096.14 145.18C1079.57 142.43 1063.96 145.9 1054.99 147.6C1048.66 146.66 1059.97 142.69 1041.93 143.77C1016.44 145.05 1046.76 148.54 1031.46 149.31L1020.37 145.93C1000.83 148.52 986.218 146.2 969.728 145.78C965.998 146.05 964.168 146.4 963.258 146.77C963.448 146.78 963.638 146.78 963.828 146.8L962.678 147.19C961.908 148.23 966.198 149.3 956.448 149.32L962.678 147.19C962.768 147.05 962.938 146.91 963.258 146.77C945.718 145.31 926.488 150.08 913.258 148.97C916.358 148.27 905.698 146.84 904.108 146.02L880.238 148.11C890.798 147.22 890.338 145.27 892.268 143.39C884.808 143.59 881.298 144.66 876.218 144.91C879.318 144.22 882.448 143.52 878.498 142.65L853.448 145.87C854.928 146.2 857.808 146.33 860.218 146.41C853.958 146.43 840.408 147.65 831.458 146.07C832.248 145.32 835.328 144.62 836.098 143.87C843.618 146.01 847.888 144.19 851.798 142.73C834.518 143.06 847.488 142.23 839.168 140.86C826.978 140.93 821.978 143.51 825.178 145.15C811.408 144.41 807.028 143.9 792.978 145.86L795.648 143.22L782.728 144.05L793.198 140.83C768.418 139.03 788.648 145.36 761.118 143.87L761.038 141.55C750.448 142.44 746.808 146.36 738.588 143.57C728.308 144.97 756.168 146.85 732.018 147.32C727.758 146.12 718.588 145.25 711.648 144.78C704.608 145.74 715.288 147.24 720.968 147.25C721.458 147.24 721.948 147.23 722.458 147.21C722.028 147.24 721.518 147.25 720.968 147.25C686.378 148.06 699.378 139.32 667.268 142.33C678.428 144 657.958 146.82 684.358 146.75C671.748 148.12 659.548 143.39 646.408 145.92L654.968 142.96C650.238 142.9 644.918 143.98 642.348 144.34L643.418 142.06C627.178 146.07 613.208 140.16 603.558 145.41C610.268 141.28 591.448 145.65 584.998 144.04C598.358 141.13 623.308 144.12 625.088 140.3C618.858 139.15 613.298 141.01 607.298 139.89C603.388 140.42 601.178 140.56 606.228 139.69C606.588 139.78 606.968 139.82 607.298 139.89C611.498 139.33 617.608 138.32 619.208 137.55C598.668 135.39 586.968 139.85 574.508 140.84L596.508 139.96C594.728 143.77 586.608 140.61 580.438 143.6C569.428 141.55 560.818 144.52 551.848 143.26C554.228 143.28 554.388 142.91 556.778 142.93C532.798 143.02 526.128 136.82 516.588 136.71C507.228 136.21 489.488 138.29 495.908 139.91C488.238 140.97 527.758 138.77 514.058 143.71C500.368 138 485.898 145.85 456.058 141.94C469.118 139.91 448.388 138.73 460.048 137.2C445.828 137.66 445.298 138.51 438.968 140.13L434.688 138.35C416.118 142.35 430.328 141.89 402.208 144.02C411.638 142.63 390.918 141.44 398.108 140.18C390.318 140.06 382.708 140.6 377.008 141.67L378.038 141.41C349.568 142.33 354.728 139.16 328.798 141.15L331.378 142.23C297.418 145.13 254.498 143.26 219.348 144.59L230.658 145.39C231.088 145.4 231.458 145.43 231.728 145.47L230.658 145.39C225.118 145.23 207.248 147.05 197.088 145.49C195.958 145.54 195.188 145.52 195.358 145.24C195.868 145.35 196.538 145.4 197.088 145.49C199.288 145.39 203.058 144.9 205.108 145.05C204.788 143.84 200.528 142.06 192.088 141.76L188.838 143.6L185.428 142.17C172.558 142.14 189.208 144.81 176.328 144.78C174.368 143.41 169.668 142.7 163.588 142.33C162.068 142.24 160.458 142.16 158.788 142.11C157.678 142.07 156.518 142.02 155.338 141.98C153.368 141.92 151.288 141.89 149.208 141.87C148.778 143.7 148.338 145.54 147.878 147.32C147.638 148.23 147.388 149.13 147.158 150C146.768 151.52 146.378 152.99 145.978 154.39C144.398 160 142.788 164.53 141.128 166.88C142.938 176.25 146.988 143.22 148.258 153.35C146.848 157.05 145.758 158.61 143.638 166.72L146.488 164.4C136.718 202.14 131.568 216.22 124.458 250.17L124.288 248.7C120.728 260.55 119.678 267.14 120.398 272.96C118.798 275.23 120.208 266.43 118.238 270.91C119.188 293.42 104.558 312.4 105.648 326.23C103.788 325.01 100.648 329.78 97.6577 334.26L91.5977 361.34H487.498C488.788 361.26 490.148 361.36 491.398 361.13C492.348 361.19 493.078 361.26 493.618 361.34H509.108C509.408 361.29 509.728 361.24 510.058 361.19C510.338 361.24 510.618 361.29 510.898 361.34H530.158C532.728 360.87 534.438 360.23 534.738 359.57C538.058 360.03 534.348 360.8 533.918 361.34H535.318L546.858 360.25C547.218 360.64 547.208 361.01 546.948 361.34H636.798C638.108 360.66 643.108 360.03 646.408 359.42C669.598 361.29 709.758 360.07 725.508 361.33ZM1124.26 352.08C1123.46 352.28 1122.17 352.52 1119.42 352.82C1121.13 352.51 1122.74 352.28 1124.26 352.08C1128.04 351.08 1112.75 351.04 1116.44 349.88C1130.64 351.35 1118.66 347.15 1134.37 348.32C1138.72 351.55 1133.74 350.86 1124.26 352.08ZM1298.81 149.66L1298.04 150.41L1290.14 148.66C1294.88 148.79 1297.25 148.85 1298.81 149.66ZM1163.39 148.14L1161.03 148.08L1158.98 145.32L1163.39 148.14ZM1057.54 151.31C1058.71 151.27 1059.87 151.26 1060.97 151.29C1059.76 151.34 1058.62 151.34 1057.54 151.31C1053.71 151.42 1049.64 151.77 1046.05 151.68C1044.93 148.57 1049.44 151.03 1057.54 151.31ZM976.458 171.94L1060.33 175.5L1060.05 177.19L1065.72 182.82L1061.81 242.08L1063.77 244L1062.94 257.11L1088.49 172.31L1165.81 171.85L1165.51 173.67L1167.64 175.79L1168.2 171.93L1252.07 175.49L1251.79 177.18L1257.46 182.81L1253.55 242.07L1255.51 243.99L1255.06 251.03L1276.66 174.54L1342.39 170.5V172.3L1348.12 178.03V307.4L1296.6 315.85L1292.13 311.38L1249.34 305.49L1243.6 299.76L1241.39 299.45L1242.04 297.15L1156.85 311.77L1151.09 306.01L1148.83 306.33L1149.68 300.43L1057.8 307.58L1052.13 301.88L1049.32 302.28L1050.89 297.05L965.108 311.77L959.348 306.01L957.088 306.33L976.458 171.94ZM842.138 215.14C842.138 199.39 854.998 188.8 874.148 188.8C892.438 188.8 905.208 198.8 905.208 213.11C905.208 223.29 898.928 233 887.488 240.61L898.848 251.53C901.428 247.32 903.088 242.8 904.848 237.1L905.288 235.67L924.978 241.66L924.608 243.06C922.148 252.39 918.988 259.68 914.448 266.5L923.818 275.45L908.188 291.23L898.798 282C891.228 286.91 882.218 289.4 871.978 289.4C849.908 289.4 835.648 278.74 835.648 262.25C835.648 252.26 841.638 243.05 852.158 236.73C845.218 229.87 842.138 223.21 842.138 215.14ZM725.728 358.8C723.708 358.01 723.468 357.47 719.878 356.97L726.128 355.81L725.728 358.8ZM758.548 356.27C746.358 355.59 759.638 354.9 760.988 354.08C777.788 353.89 759.868 355.44 758.548 356.27ZM589.568 361.12L585.978 360.62L598.148 361.3L589.568 361.12ZM604.928 304.73L601.958 305.16L602.428 303.79L512.888 310.75L507.218 305.04L504.408 305.44L507.108 296.49L432.588 316.56L426.868 310.81L424.428 311.51L438.218 208L428.198 229.91L406.968 230.25L394.138 309.94L334.748 317.86L329.028 312.14L326.398 312.52L346.698 231.51C345.198 231.56 343.728 231.6 342.298 231.65C339.868 231.73 337.748 231.79 335.948 231.85L334.908 231.88L333.328 230.3L314.718 306L257.858 310.43L252.188 304.72L249.218 305.15L250.838 300.44L166.378 314.93L160.618 309.17L158.358 309.49L177.728 175.09L261.598 178.65L261.318 180.34L266.988 185.97L263.078 245.23L265.038 247.15L264.108 261.81L291.988 180.65L336.358 178.31L337.388 173.07H445.968L444.888 175.23L449.388 179.7L524.278 170.64L523.918 172.82L529.608 178.47L525.428 227.74H488.218C488.048 229.4 487.878 230.98 487.728 232.47C487.508 234.59 487.288 236.67 487.058 238.68C486.838 240.69 486.618 242.72 486.398 244.76C486.298 245.71 486.188 246.68 486.088 247.68C487.298 247.33 488.518 246.97 489.748 246.61L512.598 239.98V242.46L518.328 248.19V259.39L543.618 175.46L620.958 175L620.648 176.83L626.358 182.5L618.168 258.05L644.758 180.64L692.068 178.14L691.348 180.31L697.028 185.95L690.188 213.75L702.648 178.04L745.618 175.25L745.838 176.99L751.458 182.57L752.298 186.6C753.148 184.14 753.958 181.77 754.728 179.49L755.258 177.93L802.478 175.92L801.768 178.05L807.448 183.69L807.128 185.01L777.968 303.98L724.578 308.22L720.328 303.97L667.828 308.1L665.838 306.1L610.648 310.4L604.928 304.73Z" fill="white"/>
<path d="M1404.73 235.44C1402.59 239.77 1401.08 243.71 1401.08 246.54C1402.84 242.54 1403.98 238.81 1404.73 235.44Z" fill="white"/>
<path d="M339.488 215.55L361.498 214.88L340.058 300.26L379.468 295L392.058 216.84V214.35L415.768 213.99L429.768 183.36H345.818L339.488 215.55Z" fill="white"/>
<path d="M264.117 293.45L300.767 290.59L325.717 189.18L299.447 190.57L264.117 293.45Z" fill="white"/>
<path d="M473.147 211.74H510.207L512.688 182.37L451.017 189.87L436.688 297.51L502.288 279.86V253.7L467.807 263.71L473.147 211.74Z" fill="white"/>
<path d="M95.1498 373.04C90.6498 372.86 92.2698 374.88 91.5898 375.24C99.1198 374.8 94.9598 372.52 95.1498 373.04Z" fill="white"/>
<path d="M168.109 369.29L179.059 367.27L169.429 368.46L168.109 369.29Z" fill="white"/>
<path d="M201.339 367.84L199.299 367.06L193.719 369.82C208.759 369.38 228.299 367.55 238.889 368.51C232.319 365.07 213.719 369.06 201.339 367.84Z" fill="white"/>
<path d="M267.289 375.51C268.129 375.66 268.369 375.74 268.849 375.85C270.349 375.83 272.409 375.83 275.919 375.93C273.639 374.59 283.939 374.78 267.289 375.51Z" fill="white"/>
<path d="M268.849 375.85C273.639 376.98 261.539 375.95 268.849 375.85Z" fill="white"/>
<path d="M302.64 375.09L293 376.28C295.01 377.07 303.59 377.25 300.4 377.82C310.29 377.17 308.25 376.38 302.64 375.09Z" fill="white"/>
<path d="M311.767 372.58L306.777 373.09C307.647 373.42 308.967 373.53 311.767 372.58Z" fill="white"/>
<path d="M301.918 373.47C302.788 372.45 300.688 373.43 296.188 374.15L306.777 373.08C305.377 372.53 305.228 371.42 301.918 373.47Z" fill="white"/>
<path d="M287.478 371.22C269.048 371.69 271.758 374.11 290.198 373.63C284.788 372.88 277.808 372.41 287.478 371.22Z" fill="white"/>
<path d="M235.207 363.94L228.957 365.09C232.077 364.52 242.877 366.02 242.437 364.94L235.207 363.94Z" fill="white"/>
<path d="M362.658 376.86C363.258 376.13 359.418 374.91 358.698 373.98L351.578 374.82C355.238 375.32 362.178 375.78 362.658 376.86Z" fill="white"/>
<path d="M358.7 373.98L369.35 372.73C359.84 372.58 358.1 373.18 358.7 373.98Z" fill="white"/>
<path d="M296 371.4L316.86 368.73L313.49 368.77L296 371.4Z" fill="white"/>
<path d="M397.289 378.65L408.049 376.09L403.329 376.96L397.289 378.65Z" fill="white"/>
<path d="M430.307 376.66C425.837 378.06 436.427 379.03 431.707 379.89C439.037 379.64 445.287 378.44 450.927 377.35C444.937 377.96 438.557 377.81 430.307 376.66Z" fill="white"/>
<path d="M460.39 375.78C457.4 376.12 454.3 376.72 450.93 377.36C454.11 377.03 457.24 376.57 460.39 375.78Z" fill="white"/>
<path d="M387.488 373.09C388.308 373.53 389.898 374.69 395.868 375.18L391.678 373.12C390.398 373.11 388.958 373.1 387.488 373.09Z" fill="white"/>
<path d="M391.539 373.05L391.689 373.12C396.239 373.18 399.389 373.22 400.739 373.23C399.569 373.21 396.799 373.16 391.539 373.05Z" fill="white"/>
<path d="M386.43 373.08C386.82 373.08 387.1 373.09 387.49 373.09C387.09 372.89 386.84 372.82 386.43 373.08Z" fill="white"/>
<path d="M341.398 370.63C347.658 369.48 360.698 368.25 348.078 366.49C343.588 367.9 350.818 368.9 341.398 370.63Z" fill="white"/>
<path d="M369.09 371.94L381.24 370.5L369.93 370.03C370.14 370.58 372.18 371.37 369.09 371.94Z" fill="white"/>
<path d="M381.227 370.51L385.427 370.68L386.767 369.86L381.227 370.51Z" fill="white"/>
<path d="M441.008 373.86C445.898 372.96 451.238 372.89 457.278 372.75C450.808 372.35 444.118 372.13 437.768 372.13C436.868 372.77 434.078 373.93 441.008 373.86Z" fill="white"/>
<path d="M416.97 373.29C417.31 373.25 417.74 373.21 418.06 373.17C417.39 372.99 416.85 372.94 416.97 373.29Z" fill="white"/>
<path d="M516.717 372.76C516.387 372.65 516.097 372.51 515.767 372.39C515.687 372.51 515.637 372.63 515.547 372.75L516.717 372.76Z" fill="white"/>
<path d="M436.677 371.74C431.817 371.34 428.907 371.85 426.137 372.48C429.777 372.27 433.627 372.14 437.767 372.12C438.167 371.83 438.247 371.64 436.677 371.74Z" fill="white"/>
<path d="M476.967 374.82C474.437 374.39 471.557 374.03 468.547 373.69C471.017 374.34 476.067 375.36 476.967 374.82Z" fill="white"/>
<path d="M419.699 373.74C419.459 373.77 419.239 373.81 418.969 373.83C420.559 374.27 420.359 374.05 419.699 373.74Z" fill="white"/>
<path d="M419.699 373.74C422.199 373.44 424.169 372.94 426.149 372.49C423.189 372.65 420.439 372.87 418.059 373.18C418.659 373.31 419.259 373.54 419.699 373.74Z" fill="white"/>
<path d="M533.867 361.46C533.847 361.42 533.867 361.37 533.907 361.32H530.147C525.447 362.18 517.887 362.49 510.887 361.32H509.097C499.627 362.99 506.577 368.98 515.767 372.38C516.107 371.55 516.107 370.78 527.287 369.65C523.377 368.61 502.487 367.22 511.917 365.49C526.727 364.51 524.047 366.16 531.247 367.17C525.817 365.06 544.837 363.97 546.947 361.31H535.317L533.867 361.46Z" fill="white"/>
<path d="M546.849 360.23L535.309 361.32H546.939C547.199 360.99 547.209 360.63 546.849 360.23Z" fill="white"/>
<path d="M534.717 359.56C534.417 360.22 532.707 360.86 530.137 361.33H533.897C534.327 360.78 538.037 360.01 534.717 359.56Z" fill="white"/>
<path d="M510.04 361.18C509.71 361.22 509.39 361.27 509.09 361.33H510.88C510.6 361.28 510.32 361.23 510.04 361.18Z" fill="white"/>
<path d="M494.467 372.19L489.867 372.43C495.107 372.76 498.867 373.52 505.777 375.01C513.427 374.08 515.017 373.37 515.547 372.74L492.897 372.47L494.467 372.19Z" fill="white"/>
<path d="M469.219 372.43C472.809 370.36 483.859 369.47 477.089 367.23C463.589 367.37 467.629 368.96 459.569 369.86C481.349 369.35 453.309 371.02 469.049 372.19C464.769 372.54 460.919 372.65 457.289 372.74C461.209 372.99 464.989 373.3 468.559 373.69C468.359 373.64 468.219 373.6 468.059 373.56L467.959 373.57C467.959 373.56 467.979 373.55 467.979 373.54C467.039 373.28 466.729 373.12 467.789 373.27C467.859 373.24 468.129 373.23 468.239 373.23C468.389 372.94 468.789 372.69 469.219 372.45C475.529 372.88 470.209 372.99 468.239 373.23C468.169 373.33 467.999 373.43 467.979 373.54C467.999 373.55 468.029 373.56 468.059 373.57L489.879 372.43C485.249 372.14 479.469 372.2 469.219 372.43Z" fill="white"/>
<path d="M359.719 362.03C360.399 362.21 360.369 362.36 360.419 362.51C361.829 362.26 362.369 362.09 359.719 362.03Z" fill="white"/>
<path d="M359.288 365.01L360.828 364.73C367.708 365.29 376.128 367 378.708 367.85C376.388 366.22 374.038 364.96 368.688 363.29C367.098 363.58 365.778 364.41 360.628 364.19C356.158 363.57 360.648 363.2 360.418 362.51C357.308 363.06 349.538 364 359.288 365.01Z" fill="white"/>
<path d="M378.707 367.84C378.927 367.99 379.137 368.15 379.357 368.31C379.697 368.25 379.427 368.08 378.707 367.84Z" fill="white"/>
<path d="M419.578 367.33L437.748 366.31L428.498 364.52L428.968 365.6C418.638 365.17 420.868 366.5 419.578 367.33Z" fill="white"/>
<path d="M516.387 375.98L526.877 372.89L518.797 373.79L516.387 375.98Z" fill="white"/>
<path d="M541.527 375.43L547.767 374.28L542.407 373.53L541.527 375.43Z" fill="white"/>
<path d="M1173.76 145.02L1168.42 145.56C1170.95 145.39 1172.57 145.21 1173.76 145.02Z" fill="white"/>
<path d="M1212.41 145.15L1213.36 144.21C1211.57 144.73 1210.84 145.11 1212.41 145.15Z" fill="white"/>
<path d="M1122.3 373.31C1130.08 375.09 1138.76 377.85 1137.83 375.7L1135.44 373.61C1130.01 373.99 1125.84 373.76 1122.3 373.31Z" fill="white"/>
<path d="M1411.99 226.15C1412.07 227.01 1412.14 227.84 1412.21 228.63C1412.36 227.11 1412.52 225.44 1412.69 223.69L1411.99 226.15Z" fill="white"/>
<path d="M1412.68 223.69C1412.76 222.81 1412.85 221.92 1412.94 221.01C1412.54 221.67 1412.12 222.35 1411.71 223.03C1411.81 224.11 1411.9 225.15 1411.98 226.15L1412.68 223.69Z" fill="white"/>
<path d="M1410.2 203.89C1409.12 205.98 1407.79 209.03 1406.12 213.39L1410.2 203.89Z" fill="white"/>
<path d="M962.66 147.23L956.43 149.36C966.18 149.35 961.89 148.27 962.66 147.23Z" fill="white"/>
<path d="M784.238 372.76C790.948 373.58 796.288 373.92 800.978 374.02C792.888 372.82 786.368 371.02 784.238 372.76Z" fill="white"/>
<path d="M1188.97 122.86C1185.7 123.24 1184.31 123.66 1184.4 124.13C1187.77 123.78 1189.67 123.38 1188.97 122.86Z" fill="white"/>
<path d="M800.977 374.02C806.947 374.91 813.787 375.46 820.357 374.01C819.177 373.8 818.017 373.7 816.807 373.52C811.907 373.87 806.967 374.15 800.977 374.02Z" fill="white"/>
<path d="M197.07 145.5C196.51 145.41 195.84 145.36 195.34 145.25C195.17 145.53 195.94 145.55 197.07 145.5Z" fill="white"/>
<path d="M98.6603 287.07C98.1603 288.64 97.5703 291.34 96.8203 296.04C97.1703 293.87 97.9503 290.38 98.6603 287.07Z" fill="white"/>
<path d="M637.409 374.44C636.619 374.67 632.399 374.57 637.409 374.44Z" fill="white"/>
<path d="M615.059 365.17C614.649 365.67 613.949 365.99 613.059 366.19C614.119 365.95 614.929 365.65 615.059 365.17Z" fill="white"/>
<path d="M870.239 361.02C870.389 361.02 870.499 361.02 870.669 361.03C869.189 360.61 869.439 360.69 870.239 361.02Z" fill="white"/>
<path d="M629.879 373.49C631.759 373.75 633.929 373.96 636.279 374.11C635.239 373.95 633.299 373.74 629.879 373.49Z" fill="white"/>
<path d="M630.887 374.48C629.157 374.4 627.807 374.34 626.507 374.28C625.877 374.62 626.437 374.84 630.887 374.48Z" fill="white"/>
<path d="M637.407 374.44C638.877 374.42 640.947 374.38 644.387 374.33C641.527 374.36 638.847 374.26 636.277 374.11C637.257 374.25 637.677 374.37 637.407 374.44Z" fill="white"/>
<path d="M607.277 139.91C606.947 139.84 606.567 139.8 606.207 139.71C601.147 140.58 603.367 140.45 607.277 139.91Z" fill="white"/>
<path d="M1252.64 351.63C1252.41 351.65 1252.28 351.71 1252.07 351.73C1252.3 351.75 1252.6 351.78 1252.81 351.8L1252.64 351.63Z" fill="white"/>
<path d="M1270.62 350.08C1262.96 352.68 1258.61 352.36 1252.8 351.81L1258.75 357.83L1270.62 350.08Z" fill="white"/>
<path d="M355.708 123.52C355.498 123.42 355.208 123.31 354.828 123.19C355.098 123.31 355.398 123.42 355.708 123.52Z" fill="white"/>
<path d="M589.958 371.1C589.588 370.95 589.128 370.79 588.578 370.61C589.048 370.78 589.498 370.94 589.958 371.1Z" fill="white"/>
<path d="M1203.51 367.31C1203.57 367.31 1203.64 367.32 1203.7 367.32C1203.71 367.31 1203.72 367.31 1203.73 367.3C1203.66 367.31 1203.6 367.31 1203.51 367.31Z" fill="white"/>
<path d="M675.358 371.54C673.658 371.86 673.768 372.19 674.488 372.51C675.668 371.92 679.478 371.88 683.808 372.05C682.608 371.44 680.418 371.02 675.358 371.54Z" fill="white"/>
<path d="M1443.48 127.17L1446.27 127.44L1445.26 130.16C1444.99 129.69 1444.8 129.19 1444.69 128.63C1439.69 129.72 1436.22 129.7 1431.79 129.45C1429.59 129.33 1427.17 129.15 1424.38 129.03C1421.59 128.91 1418.43 128.84 1414.91 128.94L1415.39 128.56C1414.82 128.52 1414.26 128.48 1413.72 128.44C1413.28 128.4 1412.86 128.36 1412.44 128.33C1411.63 128.26 1410.86 128.2 1410.12 128.13C1408.65 128.02 1407.34 127.93 1406.16 127.84C1403.8 127.69 1401.97 127.61 1400.49 127.58C1397.54 127.53 1396 127.68 1394.47 127.81C1391.42 128.08 1388.41 128.31 1374.23 126.78L1375.77 129.09C1373.13 134.05 1350.65 126.16 1334.19 128.06L1340.13 129.38C1331.14 131.08 1315.01 122.63 1305.98 122.01C1304.01 121.58 1309.09 121.32 1311.83 121C1288.2 118.07 1308.77 124.02 1291.16 124.73C1287.91 123.1 1295.34 120.58 1283.49 120.28C1277.58 118.96 1249.11 125.57 1232.94 122.45C1236.5 123.71 1240.04 124.96 1231.86 125.91C1219.32 126.36 1197.96 121.16 1186.64 125.12C1185.05 124.78 1184.44 124.45 1184.38 124.14C1174.8 125.16 1153.23 125.84 1147.46 127.99C1138.6 120.02 1087.88 131.87 1088.09 124.51L1058.61 124.9L1059.38 124.15C1040.54 123.66 1033.87 125.43 1027.25 127.19C1022.89 126.69 1026.07 126 1026.43 125.62C998.897 124.14 996.157 124.45 973.067 128.11L970.667 125.73C964.407 127.12 930.857 121.99 903.857 124.77C904.117 124.5 904.677 124.04 906.827 123.7C876.447 126.5 834.087 117.08 822.957 125.77L802.907 127.91C828.847 128.58 799.047 131.68 809.717 133.12C799.517 133.63 783.347 130.5 795.877 130.05L797.837 130.48C802.447 125.95 765.607 128.88 766.307 125.79C715.267 126.01 665.517 123.51 617.707 123.31L623.217 126.83L606.537 126.63C602.157 125.81 600.667 123.88 612.557 124.02C606.297 122.02 592.607 125.69 592.267 126.46C568.967 125.03 601.367 122.36 594.227 122.27L584.527 122.53L586.717 122.94C578.857 124.38 578.157 125.9 563.857 125.73C554.807 125.03 559.217 123.56 555.657 123.42C555.677 123.17 554.477 123.05 550.197 123.32L529.187 123.02L537.587 125.8C528.277 127.17 517.827 125.65 527.527 128.8C513.297 123.95 449.147 127.06 440.407 125.55C427.367 127.58 414.487 127.54 398.537 127.3C402.497 127.88 404.877 131 391.117 130.62C396.017 124.33 367.427 127.64 355.687 123.51C361.067 126.09 316.297 124.11 331.287 128.31C319.807 127.79 330.587 125.9 321.877 124.38C294.557 126.88 261.667 122.76 227.897 123.6C227.367 124.45 233.027 125.74 225.787 127L207.957 122.77C201.287 123.19 201.817 127.66 189.627 124.72C191.347 125.43 193.917 126.51 189.447 126.78C181.697 126.3 173.907 125.97 166.087 125.77C164.127 125.73 162.177 125.68 160.217 125.64C157.817 125.61 155.407 125.58 153.007 125.55C147.357 125.52 141.697 125.49 136.017 125.46C135.007 129.98 133.997 134.5 132.997 139.03C132.147 142.92 131.297 146.82 130.447 150.72C129.107 157.04 127.767 163.38 126.427 169.72C123.767 182.41 121.097 195.14 118.257 207.82C112.577 233.19 106.187 258.39 97.6773 282.85C101.267 274.33 100.097 280.28 98.6373 287.08C100.007 282.76 100.657 287.64 101.967 287.02L92.7173 313.77C94.7073 319.47 86.3373 343.25 88.6673 346.78L90.0773 337.97C90.5773 344.75 93.9773 339.72 97.6173 334.26L142.527 133.6H1438.13L1413.85 219.51C1415.61 216.62 1417.11 214.16 1418.02 212.39L1414.14 232.21C1412.99 234.41 1412.53 232.17 1412.19 228.65C1412.06 230.04 1411.95 231.36 1411.9 232.4C1410.68 235.04 1409.84 235.97 1409.25 235.8L1373.76 361.35H1255.86L1243.53 365.63C1244.6 364.55 1244.08 363.02 1243.38 361.35H1088.74C1080.95 364.36 1071.57 367.18 1061.74 368.18L1057.69 366.6L1041.5 368.4C1045.79 366.63 1053.37 364.02 1061.85 361.35H975.077C975.127 364.19 974.077 366.7 971.837 367.82C970.037 367.57 944.887 364.29 939.027 362.47C937.987 362.11 937.397 361.74 937.147 361.36H885.737C881.717 362.35 877.277 363.15 873.387 363.47C873.947 362.78 872.287 361.92 870.987 361.36H795.677C788.937 363.9 776.577 366.15 761.597 367.38C743.407 368.39 753.707 364.76 750.547 365.33C716.377 364.62 721.437 372.42 693.057 369.49C681.797 366.9 692.547 364.34 690.047 362.48C704.867 361.5 712.797 364.12 722.847 364.02L710.477 362.8C715.187 361.94 725.087 361.29 730.477 362.04C729.347 361.76 727.637 361.54 725.487 361.37H636.757C636.217 361.65 636.307 361.95 637.427 362.25L645.767 361.89C653.437 363.98 630.067 364.78 640.627 365.75C629.437 367.22 616.897 369.52 601.137 368.34L598.177 365.39C598.517 366.25 608.477 367.15 612.897 366.25C606.327 367.56 588.737 362.26 581.547 366.12L592.587 368.16C581.347 369.64 567.467 372.77 553.497 371.84C559.847 374.75 556.717 371.51 566.637 374.92C558.387 370.85 598.867 374.76 589.917 371.14C589.457 370.98 589.007 370.83 588.537 370.65C589.097 370.83 589.547 370.99 589.917 371.14C599.407 374.39 606.767 372.48 619.457 375.7C619.047 374.73 614.747 373.84 626.467 374.32C626.997 374.04 628.247 373.67 629.037 373.46C629.397 373.49 629.517 373.5 629.827 373.53C629.597 373.49 629.417 373.46 629.177 373.42C629.687 373.27 629.727 373.24 628.937 373.38C626.147 372.95 623.887 372.44 622.967 371.9C628.787 369.67 647.427 369.74 653.727 368.58C660.677 369.04 650.817 369.7 654.617 370.73L664.037 369C664.967 371.16 682.517 372.59 666.127 373.86L680.877 373.96C689.557 375.17 701.497 375.65 708.867 374.74C715.817 375.21 726.437 372.35 720.377 374.04L743.507 372.7L743.717 373.24C766.537 373.51 790.687 369.66 816.777 373.56C824.457 373.01 832.397 372.35 845.247 372.96L847.757 374.83C857.617 374.18 877.377 376.7 881.617 374.75C892.257 379.78 929.487 375.85 946.827 376.74L947.487 374.3C959.427 374.44 970.877 373.75 985.697 372.77L984.787 370.61C997.567 368.84 1017.64 372.14 1037.85 371.92C1036.48 372.74 1031.35 372.53 1027.72 372.03C1051.87 376.9 1078.67 368.48 1100.57 372.03C1106.03 371.25 1109.98 371.51 1113.81 372.06C1113.3 372.06 1112.85 372.1 1112.46 372.17C1113.02 372.2 1113.85 372.2 1114.7 372.2C1117.11 372.57 1119.59 373 1122.28 373.35C1119.99 372.83 1117.81 372.39 1115.9 372.19C1120.11 372.15 1126.49 371.88 1132.75 371.34L1135.42 373.66C1135.93 373.63 1136.34 373.63 1136.87 373.59C1143.01 374.45 1141.81 372.49 1138.53 370.75C1141.68 370.37 1144.57 369.91 1146.81 369.35C1151.8 373.09 1163.23 368.09 1170.03 372.08C1173.94 370.28 1197.57 370.56 1203.69 367.36C1203.63 367.36 1203.56 367.35 1203.5 367.35C1203.58 367.35 1203.65 367.35 1203.73 367.35C1204.2 367.1 1204.58 366.83 1204.82 366.53C1205.03 367.05 1206.77 367.3 1203.73 367.35C1203.72 367.36 1203.71 367.36 1203.7 367.37C1210.61 367.83 1217.51 368.28 1223.71 367.14L1226.67 370.09L1241.9 366.13C1251.15 367.93 1254.99 368.97 1245.8 371.24C1267.99 367.75 1263.8 369.93 1282.67 366.47L1281.75 368.38C1288.49 368.31 1299.28 365.76 1303.34 367.33C1308.39 368.54 1318.41 369 1330.96 369.2C1337.24 369.3 1344.14 369.33 1351.38 369.36C1360.6 369.41 1370.24 369.46 1379.9 369.51C1381.42 364.34 1382.95 359.17 1384.46 354.04C1384.85 352.75 1385.23 351.46 1385.62 350.17C1385.9 349.28 1386.17 348.4 1386.45 347.51C1387.01 345.75 1387.56 344.01 1388.11 342.28C1390.34 335.37 1392.6 328.75 1394.88 322.73C1387.44 328.43 1402.2 306.09 1398.43 303.43C1400.32 301.62 1402.51 296.63 1401.91 302.98C1406.03 283.61 1412.01 274.98 1412.2 260.85C1414.1 259.04 1412.92 265.45 1414.23 263.73C1414.39 262.13 1414.83 257.37 1416.15 255.61C1417.46 253.89 1416.43 258.7 1416.14 261.87C1421.42 242.38 1418.04 239.31 1414.75 236.85C1419.28 227.5 1420.42 222.52 1420.01 214.72C1422.19 211.63 1425.07 206.27 1422.09 218.47C1424.19 211.73 1435.59 177.49 1432.82 175.96C1434.17 174.04 1435.72 166.53 1435.89 164.64C1438.44 156.06 1439.91 151.11 1441.32 146.33C1442.88 141.01 1444.36 135.84 1446.71 127.18C1446.46 127.12 1445.02 127.14 1443.48 127.17ZM553.787 124.29L557.087 124.9C549.637 125.57 551.727 124.96 553.787 124.29ZM674.487 372.51C673.767 372.19 673.647 371.86 675.357 371.54C680.417 371.02 682.607 371.44 683.807 372.05C679.477 371.88 675.667 371.92 674.487 372.51ZM692.297 372.55C692.457 372.51 692.557 372.48 692.687 372.44C700.847 373.34 697.957 372.98 692.297 372.55Z" fill="white"/>
<path d="M1191.08 144.49L1188.84 144.54C1189.71 144.56 1190.46 144.54 1191.08 144.49Z" fill="white"/>
<path d="M720.957 147.28C721.507 147.28 722.007 147.27 722.447 147.24C721.937 147.26 721.437 147.27 720.957 147.28Z" fill="white"/>
<path d="M1407.91 229.49C1409.16 227.3 1410.45 225.13 1411.71 223.03C1411.26 217.74 1410.53 212.7 1408.52 213.21C1408.51 214.57 1408.11 217.07 1407.53 219.78C1407.4 218.39 1407.18 217.47 1406.73 217.96C1406.23 218.53 1406.32 220.73 1406.18 224.12L1401.63 227.59L1402.64 229.03L1393.41 253.78C1391.61 272.85 1392.05 290 1385.28 319.15C1384.88 311.33 1381.76 316.5 1379 315.3C1384.26 308.31 1384.01 292.65 1388.84 277.92C1386.32 285.61 1385.44 283.51 1385.52 281.4L1380.77 308.78C1378.59 307.52 1377.41 313.93 1374.48 320.6C1377.54 318.63 1376.91 323.8 1375.31 330.87C1374.51 334.4 1373.47 338.41 1372.52 342.24C1372.29 343.2 1372.06 344.14 1371.84 345.07L1371.68 345.76L1371.55 346.33C1371.49 346.63 1371.43 346.93 1371.37 347.23C1371.15 348.41 1370.97 349.54 1370.86 350.59C1370.09 350.33 1369.49 349.44 1369.34 347.9C1369.3 347.51 1369.29 347.09 1369.32 346.61C1369.33 346.37 1369.35 346.12 1369.38 345.86C1369.4 345.71 1369.4 345.63 1369.44 345.42C1369.49 345.17 1369.55 344.91 1369.6 344.65C1370.07 342.53 1370.79 339.88 1371.81 336.61C1369.2 341.17 1368.16 346 1368.64 347.28C1368.87 349.44 1369.43 352.25 1369.29 355.41C1368.46 355.72 1367.38 355.93 1366.08 355.94C1364.79 355.95 1363.26 355.77 1361.67 355.3C1363.9 355.26 1365.28 355.51 1365.74 354.69C1364.67 355.05 1362.93 355.25 1361.03 355.32L1360.31 355.34L1359.51 355.35C1358.79 355.35 1358.07 355.34 1357.36 355.34C1355.94 355.32 1354.54 355.27 1353.24 355.2C1348.04 354.92 1344.39 354.28 1346.64 353.58L1349.98 353.55C1327.74 352.98 1282.28 353.51 1278.96 357.61C1278.74 357.08 1281.87 352.68 1283.22 351.85L1255.87 361.34H1373.77L1409.26 235.79C1408.38 235.53 1408.06 232.76 1407.91 229.49ZM1401.09 246.54C1401.09 243.71 1402.6 239.77 1404.74 235.44C1403.98 238.81 1402.84 242.54 1401.09 246.54Z" fill="white"/>
<path d="M646.399 359.4C643.089 360.01 638.099 360.64 636.789 361.32H725.519C709.759 360.07 669.599 361.29 646.399 359.4Z" fill="white"/>
<path d="M230.637 145.4L231.707 145.48C231.427 145.44 231.067 145.41 230.637 145.4Z" fill="white"/>
<path d="M105.628 326.23C104.538 312.4 119.168 293.42 118.218 270.91C120.188 266.43 118.768 275.23 120.378 272.96C119.658 267.14 120.708 260.56 124.268 248.7L124.438 250.17C131.538 216.22 136.688 202.14 146.468 164.4L143.618 166.72C145.748 158.62 146.828 157.05 148.238 153.35C146.968 143.22 142.908 176.25 141.108 166.88C142.768 164.53 144.378 160 145.958 154.39C146.348 152.99 146.748 151.52 147.138 150C147.368 149.13 147.608 148.24 147.858 147.32C148.318 145.54 148.748 143.7 149.188 141.87C151.278 141.89 153.358 141.92 155.318 141.98C156.498 142.03 157.658 142.07 158.768 142.11C160.438 142.17 162.048 142.24 163.568 142.33C169.648 142.7 174.348 143.41 176.308 144.78C189.188 144.81 172.528 142.14 185.408 142.17L188.818 143.6L192.068 141.76C200.508 142.06 204.768 143.85 205.088 145.05C203.038 144.91 199.268 145.39 197.068 145.49C207.228 147.05 225.098 145.22 230.638 145.39L219.328 144.59C254.478 143.26 297.398 145.13 331.358 142.23L328.778 141.15C354.708 139.16 349.548 142.33 378.018 141.41L376.988 141.67C382.688 140.6 390.298 140.06 398.088 140.18C390.898 141.44 411.618 142.63 402.188 144.02C430.308 141.88 416.098 142.34 434.668 138.35L438.948 140.13C445.278 138.52 445.808 137.67 460.028 137.2C448.368 138.73 469.108 139.92 456.038 141.94C485.878 145.84 500.348 138 514.038 143.71C527.738 138.77 488.218 140.97 495.888 139.91C489.458 138.3 507.198 136.22 516.568 136.71C526.098 136.82 532.778 143.03 556.758 142.93C554.368 142.91 554.208 143.28 551.828 143.26C560.798 144.52 569.408 141.55 580.418 143.6C586.588 140.61 594.708 143.77 596.488 139.96L574.488 140.84C586.958 139.84 598.648 135.39 619.188 137.55C617.588 138.32 611.478 139.33 607.278 139.89C613.288 141.01 618.848 139.15 625.068 140.3C623.298 144.11 598.338 141.13 584.978 144.04C591.428 145.65 610.248 141.28 603.538 145.41C613.188 140.16 627.168 146.07 643.398 142.06L642.328 144.34C644.898 143.98 650.218 142.9 654.948 142.96L646.388 145.92C659.538 143.39 671.728 148.13 684.338 146.75C657.938 146.82 678.408 144 667.248 142.33C699.358 139.32 686.358 148.05 720.948 147.25C715.268 147.24 704.588 145.75 711.628 144.78C718.568 145.25 727.738 146.13 731.998 147.32C756.158 146.85 728.288 144.97 738.568 143.57C746.788 146.35 750.428 142.44 761.018 141.55L761.098 143.87C788.618 145.36 768.398 139.03 793.178 140.83L782.708 144.05L795.628 143.22L792.958 145.86C807.008 143.9 811.388 144.41 825.158 145.15C821.958 143.51 826.958 140.94 839.148 140.86C847.458 142.24 834.488 143.07 851.778 142.73C847.878 144.18 843.598 146.01 836.078 143.87C835.308 144.63 832.228 145.33 831.438 146.07C840.398 147.66 853.938 146.43 860.198 146.41C857.788 146.32 854.908 146.2 853.428 145.87L878.478 142.65C882.418 143.52 879.298 144.22 876.198 144.91C881.268 144.66 884.788 143.59 892.248 143.39C890.318 145.28 890.778 147.22 880.218 148.11L904.088 146.02C905.678 146.84 916.338 148.27 913.238 148.97C926.468 150.08 945.698 145.31 963.238 146.77C964.148 146.4 965.978 146.05 969.708 145.78C986.198 146.21 1000.81 148.52 1020.35 145.93L1031.44 149.31C1046.75 148.54 1016.43 145.05 1041.91 143.77C1059.95 142.69 1048.65 146.66 1054.97 147.6C1063.94 145.89 1079.54 142.42 1096.12 145.18C1090.63 145.82 1086.33 145.32 1081.21 145.57L1093.84 147.45C1078.59 150.54 1067.56 149.47 1079.42 152.11C1081.21 145.57 1128.52 151.44 1130.27 144.91L1138.6 146.28C1136.21 146.22 1135.83 146.6 1133.47 146.54C1149.66 149.67 1145.5 141.81 1166.36 142.75C1173.63 143.25 1178.71 144.2 1173.75 144.98L1189.95 143.36C1193.78 143.46 1193.74 144.23 1191.06 144.45L1213.53 143.98L1213.35 144.17C1216.88 143.14 1224.87 141.56 1228.77 140.89C1235.05 141.83 1225.62 141.58 1227.23 142.4L1240.91 140.82C1246.48 142.51 1235.14 144.16 1225.69 143.91C1238.47 150.43 1237.04 142.27 1264.62 146.08L1251.7 146.91C1260.03 150.62 1270.11 149.27 1284.72 151.59C1281.25 150.38 1255.47 145.77 1270.33 144.14C1274.51 144.63 1280.03 144.87 1288.04 143.55C1288.12 145.87 1295.94 145.3 1305.72 145.17L1305.05 148.25C1315.63 147.36 1314.8 145.79 1321.02 144.41C1332.82 144.71 1335.26 147.1 1338.04 149.11C1356.93 149.6 1325 145.29 1347.35 144.71C1363.06 145.89 1374.09 144.63 1392.88 142.79C1403.87 143.85 1390.96 144.67 1394.9 145.55L1404.65 143.09C1407.04 143.15 1406.27 143.9 1405.87 144.28C1409.98 143.8 1410.15 143.04 1410.9 142.28C1411.28 141.9 1411.8 141.53 1413.04 141.2C1413.19 141.16 1413.36 141.12 1413.54 141.08C1413.65 141.04 1413.77 141 1413.9 140.96C1414.15 140.88 1414.43 140.81 1414.76 140.74C1415.42 140.6 1416.25 140.48 1417.3 140.37C1418.17 139.45 1419.94 139.39 1421.92 139.72C1423.92 140.05 1425.98 140.76 1427.78 141.39C1426.47 144.08 1425.32 146.45 1424.63 148.51C1423.93 150.6 1423.67 152.41 1423.95 154.63C1423.86 154.75 1423.77 154.85 1423.69 154.93C1423.61 155 1423.5 155.18 1423.42 155.25C1423.25 155.43 1423.11 155.49 1423 155.47C1422.76 155.44 1422.62 155.03 1422.48 154.61C1422.1 154.07 1421.69 153.49 1421.04 153.62C1421.04 153.76 1421.04 153.91 1421.04 154.05C1421.03 154.14 1421.05 154.15 1421.03 154.3L1420.95 154.78C1420.85 155.41 1420.75 156.02 1420.65 156.61C1420.46 157.79 1420.28 158.88 1420.11 159.9C1419.77 161.93 1419.49 163.67 1419.23 165.19C1418.73 168.24 1418.37 170.45 1418.07 172.55C1417.47 176.75 1417.11 180.52 1416.3 189.64L1410.18 203.85C1415.47 193.64 1414.19 208.23 1412.92 220.98C1413.24 220.46 1413.54 219.96 1413.85 219.46L1438.13 133.55H142.548L97.6484 334.25C100.628 329.78 103.778 325.01 105.628 326.23ZM1269.98 144.12C1266.32 144.61 1259.03 146.11 1256.36 144.74C1260.52 142.08 1263.74 143.35 1269.98 144.12Z" fill="white"/>
<path d="M1079.37 350.29C1074.61 348.81 1086.72 348.04 1090.68 347.95L1059.3 346.99C1060.7 350.23 1035.31 350.23 1036.5 352.93L1070.58 349.58C1071.96 352.81 1050.88 358.76 1028.65 358.19C1022.99 356.9 1032.88 352.43 1032.42 351.35C1029.54 352.46 1011.32 353.48 1009.28 352.69L1018.71 350.96C1006.33 349.74 998.51 355.25 983.64 352.16C978.51 351.95 968.31 347.99 967.43 349.91C972.44 352.12 975.02 357.09 975.1 361.33H1061.87C1073.34 357.72 1086.47 353.98 1095.36 352.02C1086.35 350.76 1092.84 350.15 1079.37 350.29Z" fill="white"/>
<path d="M944.53 353.06C944.22 353.94 939.55 355.03 937.61 355.38C932.22 354.63 939.84 352.64 928.13 353.04C926.17 356.32 904.31 352.76 922.59 355.81C911.13 356.75 910.41 355.14 896.96 355.28C899.79 356.68 893.6 359.38 885.75 361.32H937.16C935.36 358.58 950.84 355.24 944.53 353.06Z" fill="white"/>
<path d="M812.247 359.2C810.227 358.41 799.657 357.44 804.157 356.03C801.007 356.61 798.117 357.72 791.357 357.8C778.287 354.96 806.417 357.36 796.457 353.95C795.607 355.86 778.987 356.58 769.367 357.77C772.327 360.71 791.597 358.33 801.237 357.15C801.257 358.55 799.257 359.98 795.697 361.32H870.997C870.727 361.2 870.467 361.1 870.247 361.01C846.747 360.72 834.147 359.23 812.247 359.2Z" fill="white"/>
<path d="M1207.62 351.98C1207.43 351.93 1207.24 351.89 1207.01 351.86C1207.23 351.9 1207.42 351.94 1207.62 351.98Z" fill="white"/>
<path d="M1252.07 351.73C1246.78 351.23 1240.22 350.64 1229.06 351.89C1232.67 352.39 1238.06 356.97 1233.13 357.29C1219.75 353.42 1223.61 355.15 1207.63 351.98C1211.93 353.06 1206.07 358.12 1197.86 357.95C1199.2 357.13 1197.15 352.51 1200.28 351.94L1179.99 357.09C1179.7 357.19 1179.37 357.28 1178.98 357.35L1179.99 357.09C1183.64 355.85 1179.57 352.65 1175.15 351.23C1177.36 352.29 1156.74 351.13 1151.06 351.67L1160.09 352.92C1136.04 352.1 1136.34 360.53 1112.48 360.25C1115.37 359.13 1119.61 353.37 1107.48 352.69C1104.51 354.17 1097.69 357.87 1088.76 361.33H1243.4C1241.81 357.56 1239.28 353.11 1252.07 351.73Z" fill="white"/>
<path d="M1179.99 357.09L1178.98 357.35C1179.37 357.28 1179.7 357.19 1179.99 357.09Z" fill="white"/>
<path d="M1406.88 214.37C1407.54 213.48 1408.03 213.32 1408.52 213.21C1408.54 211.72 1408.11 211.57 1406.88 214.37Z" fill="white"/>
<path d="M962.66 147.23L963.81 146.84C963.62 146.82 963.43 146.83 963.24 146.81C962.92 146.95 962.76 147.09 962.66 147.23Z" fill="white"/>
<path d="M937.797 351.86C941.287 352.19 943.227 352.62 944.527 353.06C944.717 352.49 943.127 352.01 937.797 351.86Z" fill="white"/>
<path d="M586.66 374.12C586.86 374.58 588.39 375.22 586.74 375.42L596.43 374.88C591.18 375 589.31 374.49 586.66 374.12Z" fill="white"/>
<path d="M586.738 375.42L585.578 375.48C586.078 375.48 586.448 375.46 586.738 375.42Z" fill="white"/>
<path d="M486.449 361.44L486.879 362.52C492.719 362.46 497.029 361.8 493.589 361.33H487.479C487.129 361.35 486.789 361.38 486.449 361.44Z" fill="white"/>
<path d="M487.477 361.33H493.587C493.047 361.26 492.317 361.19 491.367 361.12C490.127 361.34 488.767 361.24 487.477 361.33Z" fill="white"/>
<path d="M561.608 366.84C559.368 369.57 567.468 368.67 575.528 367.77C574.668 365.82 567.858 366.48 560.258 366.84C560.718 366.84 561.148 366.82 561.608 366.84Z" fill="white"/>
<path d="M551.468 366.96C550.578 368.05 554.318 367.19 558.498 366.91C556.148 367 553.758 367.05 551.468 366.96Z" fill="white"/>
<path d="M653.87 372.84C650.27 372.34 651.61 375.34 649.57 374.54C645.54 377.02 673.6 371.53 653.87 372.84Z" fill="white"/>
<path d="M576.359 361.81L569.379 361.34L572.099 363.75L576.359 361.81Z" fill="white"/>
<path d="M629.4 363.11L617.25 362.44C617.43 362.84 615.89 363.08 614 363.26C621.48 363.34 629.69 363.82 629.4 363.11Z" fill="white"/>
<path d="M604.219 363.66C606.329 363.63 610.869 363.55 613.999 363.26C610.099 363.22 606.389 363.27 604.219 363.66Z" fill="white"/>
<path d="M589.567 361.12L598.147 361.29L585.977 360.61L589.567 361.12Z" fill="white"/>
<path d="M759.977 363.57L773.237 362.88C774.587 362.05 770.977 361.55 766.037 361.88C762.857 362.45 757.937 362.77 759.977 363.57Z" fill="white"/>
<path d="M725.729 358.8L726.129 355.81L719.879 356.97C723.469 357.47 723.709 358.01 725.729 358.8Z" fill="white"/>
<path d="M760.979 354.08C759.639 354.9 746.359 355.59 758.539 356.27C759.869 355.44 777.789 353.89 760.979 354.08Z" fill="white"/>
<path d="M957.557 361.33H955.047L955.407 364.99L957.557 361.33Z" fill="white"/>
<path d="M958.3 360.05L954.93 360.09L955.05 361.33H957.56L958.3 360.05Z" fill="white"/>
<path d="M1134.36 348.33C1118.65 347.16 1130.63 351.35 1116.43 349.89C1112.74 351.05 1128.03 351.09 1124.25 352.09C1133.74 350.86 1138.72 351.55 1134.36 348.33Z" fill="white"/>
<path d="M1124.26 352.08C1122.74 352.27 1121.13 352.51 1119.42 352.82C1122.16 352.52 1123.45 352.29 1124.26 352.08Z" fill="white"/>
<path d="M85.987 335.22L86.157 331.58L82.957 341.22L85.987 335.22Z" fill="white"/>
<path d="M83.3384 359.48C83.6984 357.22 84.4084 352.84 85.4684 351.3L81.8984 352.94L83.3384 359.48Z" fill="white"/>
<path d="M1298.81 149.66C1297.25 148.85 1294.88 148.79 1290.14 148.66L1298.04 150.41L1298.81 149.66Z" fill="white"/>
<path d="M1163.39 148.14L1158.98 145.31L1161.03 148.07L1163.39 148.14Z" fill="white"/>
<path d="M1057.54 151.31C1049.44 151.04 1044.93 148.57 1046.05 151.68C1049.64 151.77 1053.71 151.42 1057.54 151.31Z" fill="white"/>
<path d="M1060.97 151.28C1059.86 151.25 1058.71 151.27 1057.54 151.3C1058.62 151.34 1059.76 151.34 1060.97 151.28Z" fill="white"/>
</svg>
