<svg width="1500" height="500" viewBox="0 0 1500 500" fill="none" xmlns="http://www.w3.org/2000/svg">
<path d="M203.223 195.354C209.084 197.707 214.945 198.883 220.807 200.06C227.254 200.648 233.701 201.236 239.562 200.648C252.456 200.06 264.764 197.707 277.072 193.589C277.658 193.589 278.245 193.589 278.831 194.177C281.175 196.53 283.519 199.471 286.45 201.824C292.897 208.295 300.516 214.177 309.308 218.295C312.825 219.472 316.341 220.648 319.858 221.825C321.03 221.825 321.616 222.413 322.788 223.001C325.133 224.178 326.891 225.942 326.891 228.884C326.891 230.06 326.891 231.237 326.305 233.001C324.547 239.472 321.03 244.766 314.583 247.707C311.652 248.884 308.136 250.06 304.619 251.237C299.344 253.002 294.655 254.766 289.967 257.708C288.794 258.296 287.036 259.472 285.864 260.061C285.278 260.061 285.278 260.649 284.692 260.061C284.692 259.472 285.278 258.884 285.278 258.296C286.45 255.943 288.208 253.59 288.794 251.237C289.967 247.119 289.381 245.943 285.278 245.355C280.003 244.766 275.314 245.943 270.625 247.707C266.523 249.472 263.006 251.237 258.903 254.178C253.628 257.708 250.698 263.002 248.939 269.473C248.353 272.414 247.767 275.355 248.353 278.296C248.939 282.414 251.284 284.179 255.387 284.179C257.145 284.179 258.903 284.179 260.662 284.179C261.834 284.179 262.42 284.767 261.834 285.943C260.662 287.708 259.489 289.473 258.317 290.649C257.145 292.414 255.973 294.767 255.387 297.12C255.387 298.297 255.387 298.885 255.387 300.061C255.387 301.238 255.387 301.826 255.387 303.003C255.387 304.767 254.214 305.944 252.456 305.944C250.698 305.944 249.526 305.944 247.767 305.356C240.734 303.591 234.873 300.061 229.598 295.355C224.909 291.238 220.22 287.12 216.118 282.414C212.601 278.884 209.084 275.355 204.396 272.414C202.637 271.237 200.293 270.061 197.948 270.649C190.915 271.237 183.296 271.826 176.263 273.59C152.819 280.061 134.063 293.002 119.997 312.414C113.55 320.65 108.861 330.062 105.344 339.474C105.344 340.062 105.344 340.062 104.758 340.65C104.758 340.65 104.758 340.65 104.758 341.239C104.172 341.239 103.586 340.65 103 340.65C89.5195 333.591 78.9696 323.591 70.1781 311.238C64.3171 303.003 59.0421 294.179 56.1116 284.767C51.4228 271.237 50.2506 257.708 51.4228 244.178C51.4228 241.825 52.0089 239.472 52.595 236.531C52.595 235.354 53.1811 235.354 54.3533 234.766C67.2476 233.001 80.1418 231.237 92.45 227.707C108.275 223.589 123.513 217.707 137.58 209.472C149.302 202.413 159.266 194.177 167.471 183.589L168.057 183C168.057 183 168.057 183 168.643 183C169.816 184.177 170.988 184.765 172.16 185.942C175.677 188.883 179.779 191.824 183.882 194.765C190.329 199.471 197.949 202.413 206.154 203.589C208.498 204.177 210.843 204.766 213.187 204.766C213.187 204.177 212.601 203.589 212.601 203.589C210.257 201.236 207.912 198.883 204.982 197.118C203.81 196.53 203.223 195.942 203.223 195.354C202.637 195.354 202.637 195.354 203.223 195.354ZM255.973 204.766C255.387 205.942 255.387 206.53 254.8 207.707C254.8 208.295 254.8 208.883 255.387 208.883C256.559 208.883 257.145 209.472 258.317 210.06C261.248 211.236 264.178 211.825 267.109 213.001C267.695 213.589 268.281 213.001 268.867 212.413V211.825C269.453 211.236 268.867 210.648 268.281 210.648C264.178 208.295 260.075 206.53 255.973 204.766Z" fill="white"/>
<path d="M924.13 251.237C924.716 251.825 925.302 251.825 925.302 252.414C937.024 259.472 944.057 269.473 946.402 283.002C950.505 304.767 938.783 323.591 921.199 333.003C912.994 337.121 904.203 339.474 895.411 339.474C873.139 339.474 850.867 339.474 828.595 339.474C826.837 339.474 826.837 339.474 826.837 337.709C826.837 330.65 826.837 324.179 826.837 317.121C826.837 268.884 826.837 220.648 826.837 172.412C826.837 170.059 826.251 170.059 829.181 170.059C848.523 170.059 868.45 170.059 887.792 170.059C895.411 170.059 903.03 171.236 910.064 174.177C925.888 180.648 935.852 192.412 938.783 209.472C941.127 224.766 937.024 237.707 926.474 249.472C925.888 249.472 924.716 250.649 924.13 251.237ZM859.659 288.296C859.659 295.355 859.659 303.003 859.659 310.062C859.659 311.826 859.659 311.826 861.417 311.826C869.622 311.826 877.828 311.826 885.447 311.826C890.136 311.826 894.825 311.238 898.928 308.885C915.925 301.826 915.338 284.179 908.891 275.355C904.202 268.296 897.169 265.355 888.964 265.355C879.586 264.767 870.209 265.355 860.831 265.355C859.659 265.355 859.659 265.355 859.659 267.12C859.659 273.59 859.659 280.649 859.659 288.296ZM859.659 217.707C859.659 224.766 859.659 231.825 859.659 239.472C859.659 241.237 859.659 241.237 861.417 241.237C867.864 241.825 873.725 241.237 880.172 241.237C883.689 241.237 887.205 240.649 890.136 239.472C899.514 236.531 905.375 231.237 906.547 221.237C907.719 211.236 903.616 203.001 895.411 198.295C890.722 195.354 885.447 194.177 880.172 194.177C873.725 194.177 867.864 194.177 861.417 194.177C859.659 194.177 859.659 194.177 859.659 195.942C859.659 203.589 859.659 210.648 859.659 217.707Z" fill="white"/>
<path d="M1077.69 324.768C1072.41 328.885 1066.55 332.415 1060.69 335.356C1052.49 339.474 1043.69 341.239 1034.9 341.827C1026.11 342.415 1017.32 342.415 1008.53 339.474C984.498 331.827 969.26 315.356 963.985 290.649C958.124 261.825 972.19 234.178 997.393 220.648C1008.53 214.766 1020.84 212.413 1033.73 213.589C1055.42 215.354 1078.86 228.884 1088.82 254.767C1092.34 264.767 1093.51 274.767 1092.34 285.355C1092.34 286.532 1091.76 288.297 1091.76 289.473C1091.76 290.061 1091.17 290.649 1090.58 290.649C1090 290.649 1089.41 290.649 1088.82 290.649C1057.76 290.649 1027.28 290.649 996.221 290.649C995.634 290.649 994.462 290.649 993.876 290.649V291.238C998.565 304.179 1007.36 312.415 1020.25 315.356C1027.87 317.121 1035.49 315.944 1042.52 313.591C1047.8 311.826 1052.49 309.473 1057.18 305.944C1057.76 305.356 1058.35 305.356 1058.93 305.944C1062.45 309.473 1065.97 313.591 1070.07 317.121C1073 320.062 1075.34 322.415 1077.69 324.768ZM993.876 265.355C1016.15 265.355 1037.83 265.355 1060.11 265.355C1058.35 259.472 1055.42 254.178 1050.73 249.472C1044.28 243.59 1037.25 240.06 1028.46 239.472C1020.25 238.884 1012.63 241.825 1005.6 247.119C1000.32 251.825 996.22 258.296 993.876 265.355Z" fill="white"/>
<path d="M1179.67 333.003C1179.08 333.003 1178.5 333.003 1178.5 333.591C1171.47 338.297 1163.85 340.65 1156.23 341.827C1152.12 342.415 1147.43 343.003 1143.33 342.415C1136.3 342.415 1129.27 340.65 1122.82 337.121C1112.85 331.238 1106.99 323.003 1105.24 311.238C1104.06 304.767 1104.65 298.297 1106.99 291.826C1109.92 284.767 1114.61 278.885 1121.06 274.767C1127.51 270.061 1135.13 267.708 1142.75 265.943C1149.19 264.767 1155.64 264.178 1162.67 264.178C1167.95 264.178 1173.22 264.178 1178.5 264.178C1180.26 264.178 1180.26 264.767 1180.26 262.414C1179.67 251.825 1173.22 244.178 1163.26 242.413C1150.95 239.472 1139.23 241.825 1129.27 250.061C1128.68 250.649 1128.09 251.237 1127.51 251.825C1126.92 251.825 1126.34 251.237 1126.34 250.649C1121.06 245.355 1115.79 240.06 1111.1 234.766C1109.92 233.59 1109.92 233.59 1111.1 232.413C1120.47 223.589 1132.2 217.707 1145.09 215.354C1155.64 213.001 1165.6 213.589 1176.15 215.942C1189.63 219.472 1200.18 227.707 1206.63 240.649C1209.56 245.943 1210.73 251.825 1211.32 257.708C1211.91 263.002 1211.91 268.296 1211.91 273.002C1211.91 294.179 1211.91 315.356 1211.91 336.533C1211.91 338.886 1211.91 338.886 1209.56 338.886C1200.77 338.886 1191.98 338.886 1183.19 338.886C1182.6 338.886 1182.6 338.886 1182.02 338.886C1181.43 338.886 1180.84 338.297 1180.84 337.709C1179.67 335.944 1179.67 334.768 1179.67 333.003ZM1179.67 297.12C1179.67 293.591 1179.67 290.649 1179.67 287.12C1179.67 285.355 1179.67 285.355 1177.91 285.355C1173.22 285.355 1169.12 285.355 1164.43 285.355C1159.74 285.355 1155.05 285.944 1150.37 287.12C1146.26 288.296 1142.75 289.473 1139.82 292.414C1135.71 295.944 1134.54 300.65 1135.71 305.944C1136.89 310.062 1139.82 313.003 1143.33 314.768C1146.26 316.532 1149.78 316.532 1152.71 316.532C1162.09 316.532 1170.88 313.591 1178.5 308.885C1179.08 308.297 1179.08 307.709 1179.08 307.12C1179.67 303.591 1179.67 300.65 1179.67 297.12Z" fill="white"/>
<path d="M472.83 215.354C471.072 213.589 468.728 211.825 466.969 210.06C460.522 204.177 452.903 199.471 444.698 196.53C428.873 191.236 414.22 193.589 400.74 201.824C388.432 209.472 380.812 220.06 376.71 233.59C372.021 250.061 372.607 266.531 379.64 282.414C387.259 298.297 399.568 308.297 416.565 311.826C428.287 314.768 440.595 314.179 451.731 309.473C459.35 306.532 465.797 302.414 471.658 297.12C472.244 296.532 472.83 295.944 473.417 295.944C474.003 295.944 474.003 296.532 474.003 296.532C478.105 303.003 481.622 309.473 485.725 315.356C486.311 316.532 486.311 317.121 485.725 317.709C482.208 321.826 477.519 324.768 472.83 327.709C464.039 333.003 454.075 336.533 444.111 338.297C437.078 339.474 430.045 340.062 423.012 340.062C391.948 338.297 369.676 323.591 355.61 295.944C350.921 286.532 347.991 275.943 346.818 265.355C346.232 258.296 345.646 251.237 346.818 244.178C348.577 223.589 356.782 206.53 371.435 191.824C382.571 180.648 395.465 173 411.29 169.471C437.078 164.177 459.936 169.471 480.45 186.53C483.966 189.471 486.897 192.412 489.241 195.942C489.827 196.53 489.827 197.118 489.241 197.707C483.966 204.177 478.691 209.472 472.83 215.354Z" fill="white"/>
<path d="M620.529 273.59C620.529 288.885 617.012 302.414 608.807 314.179C598.257 328.885 584.19 337.709 566.607 340.062C554.299 341.827 541.991 340.65 530.269 335.944C510.927 327.709 498.619 313.003 493.93 292.414C490.414 278.296 491 263.59 496.275 250.06C505.066 228.295 520.891 214.766 544.335 210.648C558.402 208.295 571.882 209.472 584.19 215.942C602.359 224.766 613.495 239.472 618.184 258.884C619.942 264.178 620.529 269.473 620.529 273.59ZM517.375 275.355C517.375 278.885 517.375 283.002 518.547 287.12C522.649 304.767 537.888 318.885 557.816 318.297C569.538 317.709 579.501 313.003 586.535 303.591C591.223 297.12 594.154 290.061 594.74 281.826C595.326 274.767 595.326 267.12 592.982 260.061C587.707 241.825 571.296 228.884 549.024 232.413C536.716 234.766 527.924 241.825 522.063 252.413C518.547 259.472 516.788 267.12 517.375 275.355Z" fill="white"/>
<path d="M706.1 231.237C708.444 227.707 710.789 225.354 713.719 222.413C721.339 215.942 729.544 211.236 739.508 210.06C748.885 208.295 758.849 209.472 767.641 213.589C775.846 217.119 781.707 223.59 785.224 231.825C787.568 237.707 789.326 244.178 789.913 250.649C790.499 254.767 790.499 259.473 790.499 263.59C790.499 288.297 790.499 312.415 790.499 337.121C790.499 340.062 790.499 339.474 788.154 339.474C781.121 339.474 774.674 339.474 767.641 339.474C765.296 339.474 765.882 339.474 765.882 337.709C765.882 314.179 765.882 290.649 765.882 267.12C765.882 261.825 765.882 257.12 764.71 252.414C764.124 249.472 763.538 247.119 761.78 244.178C758.849 238.884 754.16 235.354 748.299 234.178C738.336 232.413 728.958 233.001 720.166 238.884C712.547 243.59 707.858 250.061 706.686 258.884C706.1 260.649 706.1 262.414 706.1 264.178C706.1 288.885 706.1 313.003 706.1 337.709C706.1 340.65 706.1 340.062 703.755 340.062C696.722 340.062 690.275 340.062 683.242 340.062C680.897 340.062 681.484 340.062 681.484 337.709C681.484 300.061 681.484 263.002 681.484 225.354C681.484 221.825 681.484 218.295 681.484 214.766C681.484 213.589 681.484 213.589 683.242 213.589C690.275 213.589 697.894 213.589 704.928 213.589C706.686 213.589 706.686 213.589 706.686 215.354C706.686 220.648 706.686 225.354 706.686 230.648C705.514 229.472 705.514 230.06 706.1 231.237Z" fill="white"/>
<path d="M1321.51 234.766C1317.4 239.472 1305.1 251.825 1303.34 253.002C1301.58 250.649 1299.24 248.884 1296.89 246.531C1291.62 241.825 1285.17 238.884 1278.14 238.884C1273.45 238.884 1268.76 240.06 1264.07 242.413C1262.31 243.59 1261.14 244.766 1259.97 245.943C1258.21 248.884 1258.21 251.825 1260.55 254.766C1261.72 256.531 1263.48 257.708 1265.83 258.884C1270.52 261.237 1275.79 263.59 1281.07 264.767C1287.51 266.531 1293.96 268.884 1299.82 271.826C1305.1 274.767 1309.2 277.708 1313.3 281.826C1318.58 287.12 1321.51 293.002 1322.68 300.65C1323.85 310.65 1320.92 319.473 1313.89 326.532C1308.03 332.415 1301.58 336.533 1293.37 338.886C1278.14 343.592 1262.9 342.415 1248.24 335.944C1240.63 332.415 1234.76 327.121 1230.08 321.238C1229.49 320.65 1229.49 320.062 1230.08 319.473C1235.94 313.591 1241.8 307.709 1247.66 301.826C1248.83 303.003 1250.59 304.767 1251.76 305.944C1257.62 311.238 1264.07 315.356 1272.27 315.944C1277.55 316.532 1282.82 315.944 1287.51 313.591C1290.44 312.415 1292.2 310.062 1292.79 306.532C1293.37 304.179 1292.2 301.826 1291.03 299.473C1289.27 297.708 1287.51 296.532 1285.76 295.355C1280.48 292.414 1274.62 290.649 1268.76 288.885C1262.31 287.12 1255.28 284.179 1249.42 280.649C1242.97 277.12 1237.69 271.826 1234.18 265.355C1230.66 259.472 1229.49 253.002 1230.08 246.531C1231.25 235.943 1236.52 227.707 1245.31 221.825C1252.35 217.119 1259.97 214.178 1268.17 213.001C1278.72 211.236 1289.27 212.413 1299.24 216.531C1308.03 220.06 1315.65 225.942 1322.09 233.001C1321.51 234.178 1321.51 234.178 1321.51 234.766Z" fill="white"/>
<path d="M271.212 187.118C268.867 187.706 267.109 188.295 264.765 188.883C260.076 190.059 255.973 190.648 251.284 191.236C248.354 191.824 244.837 191.824 241.907 192.412C239.562 192.412 236.632 193.001 234.287 193.001C224.91 193.001 216.118 191.824 207.913 188.295C202.638 186.53 197.949 183.589 194.432 179.471C192.674 177.118 190.33 175.353 187.985 173C187.985 178.295 187.399 183.001 188.571 187.706C187.985 188.295 187.399 187.706 187.399 187.706C183.882 184.765 180.366 182.412 176.849 179.471C173.919 177.118 172.16 174.177 169.23 172.412C168.058 171.236 168.058 171.236 166.885 173C165.127 175.353 163.369 178.295 161.61 180.648C158.094 184.765 154.577 188.883 151.061 191.824C148.13 194.177 144.613 197.118 141.683 199.471C139.339 201.236 136.994 202.413 134.65 204.177C131.719 205.942 128.789 207.707 125.858 208.883C121.755 210.648 117.653 212.413 113.55 214.178C105.931 217.119 97.7253 219.472 89.5198 221.825C83.6588 223.589 77.2117 224.766 70.7645 225.354C66.0757 225.942 61.3869 227.119 56.6981 227.707C55.5259 227.707 55.5259 227.707 55.5259 226.531C56.112 224.178 56.698 221.236 57.8703 218.883C60.2147 213.001 63.1452 207.119 67.2479 201.824C69.5923 198.295 72.5228 194.765 75.4533 191.236C77.2116 188.883 79.5561 187.118 81.3144 184.765C84.2449 181.824 87.1754 179.471 90.1059 177.118C93.6225 174.177 97.7253 171.824 101.242 169.471C105.345 167.118 109.447 165.353 113.55 163.588C120.583 160.647 127.617 158.294 134.65 157.118C138.752 155.941 143.441 155.353 147.544 154.765C150.475 154.177 153.991 154.177 156.922 153.588C156.922 153.588 156.922 153.588 157.508 153.588C162.783 153.588 168.058 153 173.333 153C176.263 153.588 179.78 153 182.71 153.588C185.641 154.177 188.571 154.177 191.502 154.765C195.018 155.353 198.535 155.941 201.465 156.529C208.499 157.706 214.946 159.471 221.393 161.235C227.254 163 233.115 165.353 238.976 167.706C241.32 168.883 243.665 169.471 246.009 170.647C253.043 174.177 258.904 178.295 265.351 183.001C267.695 183.589 269.453 185.354 271.212 187.118Z" fill="white"/>
<path d="M1408.84 309.473C1409.42 310.062 1408.84 310.65 1408.84 311.238C1408.84 318.885 1408.84 326.532 1408.84 334.18C1408.84 335.356 1408.25 336.533 1407.08 337.121C1402.39 339.474 1397.7 340.65 1393.01 341.239C1385.39 342.415 1377.77 341.827 1370.74 340.062C1360.19 337.709 1353.74 330.65 1350.81 320.65C1349.05 315.944 1348.47 311.238 1347.88 306.532C1347.3 302.414 1347.3 298.297 1347.3 294.179C1347.3 277.708 1347.3 261.825 1347.3 245.355C1347.3 243.002 1347.88 243.002 1344.95 243.002C1340.85 243.002 1336.75 243.002 1332.64 243.002C1331.47 243.002 1331.47 243.002 1331.47 241.825C1331.47 238.296 1331.47 234.766 1331.47 231.237C1331.47 230.06 1332.06 229.472 1333.23 228.884C1342.02 224.766 1349.64 219.472 1355.5 211.825C1360.19 205.354 1363.71 198.295 1366.05 190.648C1367.22 187.707 1367.81 184.177 1368.4 181.236C1368.4 180.648 1368.98 180.059 1369.57 180.059C1371.91 180.059 1374.84 180.059 1377.19 180.059C1377.77 180.059 1378.36 180.059 1378.36 181.236C1378.36 181.824 1378.36 182.412 1378.36 182.412C1378.36 193.001 1378.36 203.001 1378.36 213.589C1378.36 214.178 1378.36 214.766 1378.36 214.766C1378.36 215.354 1378.95 215.942 1379.53 215.942C1380.12 215.942 1380.7 215.942 1380.7 215.942C1389.5 215.942 1398.29 215.942 1407.67 215.942C1409.42 215.942 1409.42 215.942 1409.42 217.707C1409.42 225.942 1409.42 234.178 1409.42 241.825C1409.42 243.59 1409.42 243.59 1407.67 243.59C1398.87 243.59 1389.5 243.59 1380.7 243.59C1378.36 243.59 1378.36 243.59 1378.36 245.943C1378.36 263.59 1378.36 281.826 1378.36 299.473C1378.36 301.238 1378.36 303.003 1378.95 304.767C1380.12 310.65 1384.22 314.179 1390.08 314.179C1396.53 314.179 1402.98 313.003 1408.25 309.473C1408.84 309.473 1408.84 309.473 1408.84 309.473Z" fill="white"/>
<path d="M634.595 275.355C634.595 254.766 634.595 234.766 634.595 214.178C634.595 211.825 634.009 211.825 636.939 211.825C643.972 211.825 651.006 211.825 658.039 211.825C659.797 211.825 659.797 211.825 659.797 213.589C659.797 229.472 659.797 244.766 659.797 260.649C659.797 285.943 659.797 310.65 659.797 335.944C659.797 338.297 659.797 338.297 657.453 338.297C650.419 338.297 643.972 338.297 636.939 338.297C635.181 338.297 635.181 338.297 635.181 336.533C634.595 315.944 634.595 295.944 634.595 275.355Z" fill="white"/>
<path d="M192.088 278.296C189.157 280.649 186.813 282.414 184.468 284.767C169.23 299.473 159.852 317.121 156.335 337.709C155.749 340.062 155.749 342.415 155.749 344.18C155.749 344.768 155.163 345.356 154.577 345.356C148.716 346.533 142.855 347.121 136.994 347.121C130.547 347.121 124.1 347.121 117.066 345.945C116.48 345.945 115.894 345.945 115.308 345.356C123.514 315.356 152.233 284.767 192.088 278.296Z" fill="white"/>
<path d="M1419.97 324.18C1419.97 320.062 1419.97 315.356 1419.97 311.238C1419.97 309.473 1419.97 309.473 1421.73 309.473C1430.52 309.473 1438.73 309.473 1447.52 309.473C1449.28 309.473 1449.28 309.473 1449.28 311.238C1449.28 320.062 1449.28 328.297 1449.28 337.121C1449.28 338.886 1449.28 338.886 1447.52 338.886C1438.73 338.886 1430.52 338.886 1421.73 338.886C1419.97 338.886 1419.97 338.886 1419.97 337.121C1419.97 332.415 1419.97 328.297 1419.97 324.18Z" fill="white"/>
<path d="M202.637 194.765C202.637 195.353 202.637 195.353 202.637 194.765C202.051 195.353 202.051 194.765 202.637 194.765Z" fill="white"/>
</svg>
