<svg width="1500" height="500" viewBox="0 0 1500 500" fill="none" xmlns="http://www.w3.org/2000/svg">
<path d="M1134.32 170.68C1135.83 172.55 1136.59 175 1136.59 178.02C1136.59 187.95 1131.26 192.56 1120.61 191.84L1113.05 191.19C1104.55 190.47 1096.1 189.89 1087.67 189.46C1079.25 189.03 1070.43 188.81 1061.22 188.81H1051.5C1049.77 210.12 1047.97 229.55 1046.1 247.12L1083.24 246.47C1088.56 246.47 1092.13 247.41 1093.93 249.28C1095.73 251.15 1096.63 253.67 1096.63 256.84C1096.63 261.74 1095.19 265.59 1092.31 268.39C1089.43 271.2 1085.32 272.6 1080 272.6H1043.07L1041.77 281.89C1038.75 305.64 1032.3 322.56 1022.44 332.64C1012.58 342.72 999.009 347.76 981.729 347.76C971.939 347.76 962.939 345.64 954.739 341.39C946.529 337.15 940.489 332 936.599 325.95C935.009 323.5 934.219 320.55 934.219 317.1C934.219 313.65 935.049 310.62 936.699 308.03C938.349 305.44 940.409 304.14 942.849 304.14C944.579 304.14 946.269 304.72 947.919 305.87C949.569 307.02 951.699 309.25 954.289 312.56C961.199 321.63 969.759 326.16 979.989 326.16C988.199 326.16 995.069 322.81 1000.61 316.12C1006.15 309.43 1009.71 298.88 1011.3 284.48L1012.6 272.6H1002.23C998.919 272.6 996.079 271.67 993.699 269.79C991.319 267.92 990.139 265.25 990.139 261.8C990.139 257.34 991.289 253.92 993.599 251.54C995.899 249.16 999.289 247.98 1003.75 247.98C1007.78 247.98 1011.74 247.91 1015.63 247.76C1017.36 231.92 1019.23 212.7 1021.24 190.1C1005.69 191.54 994.749 194.06 988.419 197.66C982.079 201.26 978.919 206.59 978.919 213.64C978.919 218.54 980.359 223.22 983.239 227.68C984.099 228.98 984.539 230.27 984.539 231.57C984.539 234.16 983.099 236.43 980.219 238.37C977.339 240.31 974.099 241.29 970.499 241.29C966.609 241.29 963.299 240.14 960.569 237.83C958.839 236.39 957.189 233.44 955.599 228.98C954.009 224.52 953.219 219.55 953.219 214.08C953.219 196.23 962.399 183.27 980.749 175.21C999.109 167.15 1025.92 163.12 1061.19 163.12C1085.66 163.12 1107.26 164.42 1125.98 167.01C1130.03 167.59 1132.81 168.81 1134.32 170.68Z" fill="white"/>
<path d="M1104.73 337.19C1100.48 330.57 1098.36 321.79 1098.36 310.84C1098.36 304.36 1099.19 296.05 1100.84 285.9C1102.49 275.75 1104.62 266.28 1107.21 257.5C1108.51 252.89 1110.23 249.73 1112.39 248C1114.55 246.27 1118 245.41 1122.76 245.41C1130.1 245.41 1133.77 247.86 1133.77 252.75C1133.77 256.35 1132.4 264.7 1129.67 277.8C1126.21 293.64 1124.49 304.36 1124.49 309.98C1124.49 314.3 1125.06 317.61 1126.22 319.91C1127.37 322.22 1129.31 323.37 1132.05 323.37C1134.64 323.37 1137.88 321.57 1141.77 317.97C1145.66 314.37 1150.84 308.68 1157.32 300.91C1159.05 298.9 1160.99 297.89 1163.15 297.89C1165.02 297.89 1166.5 298.75 1167.58 300.48C1168.66 302.21 1169.2 304.58 1169.2 307.61C1169.2 313.37 1167.83 317.83 1165.1 321C1150.85 338.42 1137.53 347.13 1125.15 347.13C1115.78 347.12 1108.98 343.81 1104.73 337.19ZM1113.26 226.94C1110.24 224.13 1108.73 220.21 1108.73 215.17C1108.73 210.13 1110.71 205.92 1114.67 202.54C1118.63 199.16 1123.56 197.46 1129.46 197.46C1134.78 197.46 1139.1 198.76 1142.42 201.35C1145.73 203.94 1147.39 207.61 1147.39 212.36C1147.39 218.12 1145.52 222.69 1141.78 226.07C1138.03 229.45 1133.07 231.15 1126.88 231.15C1120.82 231.15 1116.29 229.75 1113.26 226.94Z" fill="white"/>
<path d="M1237.97 300.47C1239.05 302.2 1239.59 304.57 1239.59 307.6C1239.59 313.36 1238.22 317.82 1235.49 320.99C1229.3 328.62 1222.57 334.89 1215.3 339.78C1208.03 344.68 1199.79 347.12 1190.57 347.12C1177.9 347.12 1168.51 341.36 1162.39 329.84C1156.27 318.32 1153.21 303.42 1153.21 285.14C1153.21 267.58 1155.48 247.56 1160.01 225.1C1164.55 202.64 1171.24 183.35 1180.09 167.22C1188.94 151.1 1199.49 143.03 1211.73 143.03C1218.64 143.03 1224.07 146.24 1228.04 152.64C1232 159.05 1233.98 168.23 1233.98 180.17C1233.98 197.3 1229.23 217.17 1219.73 239.77C1210.23 262.37 1197.34 284.76 1181.07 306.93C1182.08 312.84 1183.73 317.05 1186.04 319.56C1188.34 322.08 1191.36 323.34 1195.11 323.34C1201.01 323.34 1206.19 321.65 1210.66 318.27C1215.12 314.89 1220.81 309.09 1227.72 300.89C1229.45 298.88 1231.39 297.87 1233.55 297.87C1235.42 297.88 1236.89 298.75 1237.97 300.47ZM1195.75 182.35C1191.57 194.3 1187.9 209.13 1184.74 226.84C1181.57 244.55 1179.84 261.54 1179.56 277.81C1189.78 260.97 1197.92 244.09 1203.96 227.17C1210.01 210.25 1213.03 194.81 1213.03 180.85C1213.03 169.91 1211.01 164.44 1206.98 164.44C1203.67 164.42 1199.93 170.4 1195.75 182.35Z" fill="white"/>
<path d="M1322.84 300.47C1323.92 302.2 1324.46 304.57 1324.46 307.6C1324.46 313.36 1323.09 317.82 1320.36 320.99C1315.03 327.47 1307.51 333.44 1297.79 338.91C1288.07 344.38 1277.67 347.12 1266.58 347.12C1251.46 347.12 1239.73 343.02 1231.38 334.81C1223.03 326.6 1218.85 315.37 1218.85 301.12C1218.85 291.19 1220.94 281.94 1225.11 273.37C1229.28 264.81 1235.08 258 1242.49 252.96C1249.9 247.92 1258.29 245.4 1267.65 245.4C1276 245.4 1282.69 247.88 1287.73 252.85C1292.77 257.82 1295.29 264.55 1295.29 273.04C1295.29 282.97 1291.73 291.5 1284.6 298.63C1277.47 305.76 1265.41 311.41 1248.43 315.58C1252.03 322.2 1258.87 325.51 1268.95 325.51C1275.43 325.51 1282.8 323.24 1291.09 318.71C1299.37 314.18 1306.53 308.24 1312.58 300.89C1314.31 298.88 1316.25 297.87 1318.41 297.87C1320.29 297.88 1321.76 298.75 1322.84 300.47ZM1250.5 275.85C1246.83 282.04 1244.99 289.53 1244.99 298.31V298.74C1253.48 296.73 1260.18 293.7 1265.07 289.67C1269.96 285.64 1272.41 280.96 1272.41 275.63C1272.41 272.9 1271.65 270.7 1270.14 269.04C1268.63 267.39 1266.58 266.56 1263.99 266.56C1258.67 266.57 1254.17 269.67 1250.5 275.85Z" fill="white"/>
<path d="M1329.97 346.69C1326.01 343.23 1324.03 339.35 1324.03 335.03C1324.03 331.29 1325.4 328.05 1328.13 325.31C1330.86 322.58 1334.9 321.21 1340.22 321.21C1342.09 321.21 1344.29 321.39 1346.81 321.75C1349.33 322.11 1351.24 322.36 1352.53 322.51C1352.38 318.77 1351.56 315.24 1350.05 311.93C1348.54 308.62 1346.63 305.42 1344.33 302.32C1342.02 299.23 1339.87 296.53 1337.85 294.22C1333.39 302.72 1328.96 309.77 1324.57 315.38C1320.18 320.99 1315.39 326.32 1310.21 331.36C1307.62 333.95 1304.88 335.25 1302 335.25C1299.7 335.25 1297.82 334.42 1296.39 332.77C1294.95 331.12 1294.23 329.06 1294.23 326.62C1294.23 323.74 1295.24 321.08 1297.25 318.63L1300.06 315.17C1307.98 305.38 1313.95 297.32 1317.98 290.98C1320.57 286.81 1323.2 281.84 1325.86 276.08C1328.52 270.32 1332.02 262.48 1336.33 252.54C1339.06 246.21 1344.75 243.04 1353.39 243.04C1357.42 243.04 1360.23 243.4 1361.81 244.12C1363.39 244.84 1364.19 245.99 1364.19 247.58C1364.19 248.44 1363.9 249.81 1363.33 251.68C1362.75 253.55 1361.96 255.43 1360.95 257.29C1358.36 262.47 1357.06 266.87 1357.06 270.46C1357.06 272.62 1357.82 275 1359.33 277.59C1360.84 280.18 1363.18 283.42 1366.35 287.31C1370.96 293.36 1374.45 298.51 1376.82 302.75C1379.2 307 1380.38 311.64 1380.38 316.68C1380.38 322.73 1378.98 328.45 1376.17 333.85C1373.36 339.25 1369.44 343.61 1364.4 346.92C1359.36 350.23 1353.6 351.89 1347.12 351.89C1339.65 351.87 1333.93 350.14 1329.97 346.69Z" fill="white"/>
<path d="M249.339 249.29C251.139 251.16 252.039 253.68 252.039 256.85C252.039 261.75 250.599 265.6 247.719 268.4C244.839 271.21 240.729 272.61 235.409 272.61H198.479L197.179 281.9C194.159 305.65 187.709 322.57 177.849 332.65C167.989 342.73 154.419 347.77 137.139 347.77C127.349 347.77 118.349 345.65 110.149 341.4C101.939 337.16 95.8989 332.01 92.0089 325.96C90.4189 323.51 89.6289 320.56 89.6289 317.11C89.6289 313.66 90.4589 310.63 92.1089 308.04C93.7589 305.45 95.8189 304.15 98.2589 304.15C99.9889 304.15 101.679 304.73 103.329 305.88C104.979 307.03 107.109 309.26 109.699 312.57C116.609 321.64 125.169 326.17 135.399 326.17C143.609 326.17 150.479 322.82 156.019 316.13C161.559 309.44 165.119 298.89 166.709 284.49L168.009 272.61H157.639C154.329 272.61 151.489 271.68 149.109 269.8C146.729 267.93 145.549 265.26 145.549 261.81C145.549 257.35 146.699 253.93 149.009 251.55C151.309 249.17 154.699 247.99 159.159 247.99C163.189 247.99 167.149 247.92 171.039 247.77C172.769 231.93 174.639 212.71 176.649 190.11C161.099 191.55 150.159 194.07 143.829 197.67C137.489 201.27 134.329 206.6 134.329 213.65C134.329 218.55 135.769 223.23 138.649 227.69C139.509 228.99 139.949 230.28 139.949 231.58C139.949 234.17 138.509 236.44 135.629 238.38C132.749 240.32 129.509 241.3 125.909 241.3C122.019 241.3 118.709 240.15 115.979 237.84C114.249 236.4 112.599 233.45 111.009 228.99C109.419 224.53 108.629 219.56 108.629 214.09C108.629 196.24 117.809 183.28 136.159 175.22C154.519 167.16 181.329 163.13 216.599 163.13C241.069 163.13 262.669 164.43 281.389 167.02C285.419 167.6 288.189 168.82 289.699 170.69C291.209 172.56 291.969 175.01 291.969 178.03C291.969 187.96 286.639 192.57 275.989 191.85L268.429 191.2C259.929 190.48 251.479 189.9 243.049 189.47C234.629 189.04 225.809 188.82 216.589 188.82H206.869C205.139 210.13 203.339 229.56 201.469 247.13L238.609 246.48C243.979 246.48 247.539 247.42 249.339 249.29ZM872.259 259.44C872.259 263.19 871.469 270.24 869.879 280.6C868.439 289.38 867.289 297.7 866.419 305.54C865.559 313.39 865.119 322.13 865.119 331.78C865.119 337.25 863.999 341.17 861.769 343.55C859.539 345.93 855.899 347.11 850.859 347.11C846.109 347.11 842.649 345.89 840.489 343.44C838.329 340.99 837.249 337.32 837.249 332.43C837.249 326.67 838.259 317.17 840.269 303.92C841.999 292.4 842.859 285.06 842.859 281.89C842.859 279.59 842.069 278.43 840.479 278.43C838.609 278.43 835.949 280.84 832.489 285.66C829.029 290.49 825.579 296.86 822.119 304.77C818.659 312.69 815.859 321.04 813.699 329.82C812.109 336.73 810.279 341.34 808.189 343.64C806.099 345.94 802.749 347.1 798.149 347.1C793.399 347.1 789.839 344.83 787.459 340.3C785.079 335.77 783.899 330.26 783.899 323.78C783.899 318.31 784.619 310.39 786.059 300.03C787.209 290.82 787.789 284.77 787.789 281.89C787.789 279.59 786.999 278.43 785.409 278.43C783.249 278.43 780.509 281.02 777.199 286.2C773.889 291.38 770.679 298.01 767.589 306.07C764.489 314.13 762.009 322.05 760.139 329.82C758.549 336.59 756.719 341.16 754.629 343.53C752.539 345.91 749.259 347.09 744.799 347.09C739.329 347.09 735.479 344.21 733.249 338.45C731.019 332.69 729.899 323.48 729.899 310.81C729.899 308.91 729.929 307.03 729.989 305.15C724.689 306.22 719.119 306.89 713.269 307.14C710.529 319.23 705.129 328.92 697.069 336.19C688.999 343.46 679.859 347.1 669.639 347.1C660.999 347.1 653.619 345.01 647.499 340.84C643.269 337.96 639.769 334.4 636.949 330.21C633.469 333.59 629.829 336.67 626.009 339.43C618.949 344.54 611.969 347.1 605.059 347.1C594.119 347.1 585.769 340.7 580.009 327.88C573.959 335.51 568.669 340.62 564.139 343.21C559.609 345.8 554.309 347.1 548.269 347.1C539.489 347.1 532.249 343.83 526.569 337.27C525.229 335.73 524.059 334.08 523.029 332.32C519.929 334.59 516.499 336.78 512.739 338.89C503.019 344.36 492.619 347.1 481.529 347.1C466.409 347.1 454.679 343 446.329 334.79C444.649 333.14 443.159 331.37 441.819 329.48C437.819 332.77 433.179 335.91 427.869 338.89C418.149 344.36 407.749 347.1 396.659 347.1C381.539 347.1 369.809 343 361.459 334.79C355.619 329.05 351.829 321.83 350.069 313.13C345.779 314.9 341.299 315.79 336.629 315.79C328.999 315.79 323.199 313.85 319.239 309.96C315.279 306.07 313.299 300.82 313.299 294.2C313.299 292.04 313.519 289.88 313.949 287.72C314.239 284.84 314.379 282.9 314.379 281.89C314.379 279.59 313.589 278.43 311.999 278.43C309.839 278.43 306.999 280.84 303.469 285.66C299.939 290.49 296.449 296.86 292.999 304.77C289.539 312.69 286.739 321.04 284.579 329.82C282.989 336.59 281.159 341.16 279.069 343.53C276.979 345.91 273.699 347.09 269.239 347.09C263.769 347.09 259.919 344.21 257.689 338.45C255.459 332.69 254.339 323.48 254.339 310.81C254.339 292.1 256.999 274.31 262.329 257.47C263.629 253.3 265.749 250.24 268.699 248.29C271.649 246.35 275.789 245.37 281.119 245.37C283.999 245.37 286.009 245.73 287.169 246.45C288.319 247.17 288.899 248.54 288.899 250.55C288.899 252.85 287.819 258.04 285.659 266.1C284.219 271.86 283.069 276.9 282.199 281.22C281.339 285.54 280.609 290.87 280.039 297.2C284.789 284.82 290.119 274.74 296.019 266.97C301.919 259.2 307.719 253.66 313.409 250.34C319.099 247.03 324.319 245.37 329.069 245.37C338.429 245.37 343.109 250.05 343.109 259.41C343.109 261.28 342.459 265.82 341.169 273.02C340.019 278.78 339.439 282.38 339.439 283.82C339.439 288.86 341.239 291.38 344.839 291.38C346.349 291.38 348.019 290.94 349.849 290.05C350.829 284.22 352.619 278.65 355.199 273.35C359.369 264.79 365.169 257.98 372.579 252.94C379.989 247.9 388.379 245.38 397.739 245.38C406.089 245.38 412.779 247.86 417.819 252.83C422.859 257.8 425.379 264.53 425.379 273.02C425.379 282.95 421.819 291.48 414.689 298.61C407.559 305.74 395.499 311.39 378.519 315.56C382.119 322.18 388.959 325.49 399.039 325.49C405.519 325.49 412.889 323.22 421.179 318.69C425.939 316.08 430.319 312.99 434.349 309.46C433.999 306.8 433.819 304.01 433.819 301.09C433.819 291.16 435.909 281.91 440.079 273.34C444.249 264.78 450.049 257.97 457.459 252.93C464.869 247.89 473.259 245.37 482.619 245.37C490.969 245.37 497.659 247.85 502.699 252.82C507.739 257.79 510.259 264.52 510.259 273.01C510.259 282.94 506.699 291.47 499.569 298.6C492.439 305.73 480.379 311.38 463.399 315.55C466.999 322.17 473.839 325.48 483.919 325.48C490.399 325.48 497.769 323.21 506.059 318.68C510.359 316.32 514.359 313.58 518.059 310.46C518.229 299.4 520.659 289.11 525.389 279.59C530.279 269.73 537.009 261.67 545.579 255.4C554.139 249.14 563.749 245.43 574.409 244.28C577.139 216.35 582.359 192.49 590.069 172.69C597.769 152.9 607.889 143 620.409 143C626.599 143 631.749 145.81 635.849 151.42C639.949 157.03 641.999 165.53 641.999 176.9C641.999 193.03 638.039 211.88 630.119 233.48C622.199 255.08 611.619 277.25 598.369 299.99C598.939 308.34 600.209 314.32 602.149 317.91C604.089 321.51 606.579 323.31 609.599 323.31C613.489 323.31 617.449 321.58 621.479 318.13C623.719 316.21 626.369 313.58 629.449 310.25C629.029 307.48 628.819 304.64 628.819 301.72C628.819 290.78 630.909 281.03 635.079 272.46C639.249 263.9 645.009 257.2 652.359 252.38C659.699 247.56 667.829 245.15 676.759 245.15C687.699 245.15 696.519 248.93 703.209 256.49C709.899 264.05 713.829 273.37 714.979 284.46C719.989 284.14 725.699 283.27 732.129 281.84C733.459 273.51 735.359 265.38 737.869 257.46C739.169 253.29 741.289 250.23 744.239 248.28C747.189 246.34 751.329 245.36 756.659 245.36C759.539 245.36 761.549 245.72 762.709 246.44C763.859 247.16 764.439 248.53 764.439 250.54C764.439 252.84 763.359 258.03 761.199 266.09C759.759 271.85 758.609 276.85 757.739 281.1C756.879 285.35 756.149 290.64 755.579 296.97C759.469 285.74 764.109 276.24 769.509 268.46C774.909 260.69 780.449 254.89 786.139 251.07C791.829 247.26 797.189 245.35 802.229 245.35C807.269 245.35 810.829 246.5 812.919 248.81C815.009 251.11 816.049 254.64 816.049 259.39C816.049 264 814.679 272.35 811.949 284.44C810.799 289.62 810.009 293.51 809.569 296.1C814.319 284.01 819.609 274.15 825.439 266.51C831.269 258.88 836.989 253.44 842.609 250.2C848.219 246.96 853.409 245.34 858.159 245.34C862.769 245.34 866.259 246.53 868.629 248.9C871.069 251.34 872.259 254.84 872.259 259.44ZM598.639 266.14C614.759 231.01 622.829 202.79 622.829 181.49C622.829 176.02 622.359 171.77 621.429 168.75C620.489 165.73 619.379 164.22 618.079 164.22C615.339 164.22 612.609 169.08 609.869 178.8C607.129 188.52 604.789 201.23 602.849 216.92C600.909 232.59 599.509 249.01 598.639 266.14ZM375.129 298.75C383.619 296.74 390.319 293.71 395.209 289.68C400.099 285.65 402.549 280.97 402.549 275.64C402.549 272.91 401.789 270.71 400.279 269.05C398.769 267.4 396.719 266.57 394.129 266.57C388.799 266.57 384.299 269.67 380.629 275.86C376.959 282.05 375.119 289.54 375.119 298.32V298.75H375.129ZM459.999 298.75C468.489 296.74 475.189 293.71 480.079 289.68C484.969 285.65 487.419 280.97 487.419 275.64C487.419 272.91 486.659 270.71 485.149 269.05C483.639 267.4 481.589 266.57 478.999 266.57C473.669 266.57 469.169 269.67 465.499 275.86C461.829 282.05 459.989 289.54 459.989 298.32V298.75H459.999ZM574.459 309.54C573.019 301.77 572.299 293.06 572.299 283.41C572.299 279.95 572.439 274.34 572.729 266.57C564.809 269.02 558.219 274.31 552.969 282.44C547.709 290.58 545.089 299.61 545.089 309.54C545.089 320.05 548.689 325.3 555.889 325.3C558.619 325.3 561.359 324.19 564.099 321.95C566.819 319.73 570.279 315.59 574.459 309.54ZM690.209 302.42C685.749 299.4 682.329 295.44 679.949 290.54C677.569 285.65 676.389 280.46 676.389 274.99C676.389 272.69 676.609 270.38 677.039 268.08H675.959C670.199 268.08 665.409 270.85 661.599 276.39C657.779 281.93 655.879 289.75 655.879 299.82C655.879 307.74 657.429 313.79 660.519 317.96C663.609 322.14 667.249 324.22 671.429 324.22C676.039 324.22 680.029 322.35 683.419 318.61C686.789 314.87 689.059 309.47 690.209 302.42Z" fill="white"/>
</svg>
