<svg width="1500" height="500" viewBox="0 0 1500 500" fill="none" xmlns="http://www.w3.org/2000/svg">
<path d="M735.083 202.76V270.4H675.163V202.76H641.863V371.36H675.163V303.72H735.083V371.36H768.383V202.76H735.083Z" fill="white"/>
<path d="M905.773 236.06V202.76H827.362H794.062V236.06V270.41V303.73V338.08V371.38H905.773V338.08H827.362V303.73H887.742V270.41H827.362V236.06H905.773Z" fill="white"/>
<path d="M1349.51 236.06V202.76H1271.1H1237.78V236.06V270.41V303.73V338.08V371.38H1349.51V338.08H1271.1V303.73H1331.46V270.41H1271.1V236.06H1349.51Z" fill="white"/>
<path d="M1031.36 202.76V340.83H1027.19L986.941 202.76H964.741H961.951H931.441V371.36H964.741V236.06H968.911L1007.07 371.37H1031.35H1055.63H1064.64V202.77H1031.36V202.76Z" fill="white"/>
<path d="M1123.63 264.86C1123.63 264.86 1123.63 267.27 1123.63 259.4C1123.63 257.62 1123.89 254.71 1124.31 252.97C1127.1 240.93 1139.2 231.17 1151.2 230.58C1151.2 230.58 1191.73 229.13 1212.09 234.44V206.45C1212.09 206.45 1199.61 203.38 1182.87 202.83L1182.94 202.74H1150.41C1120.56 202.74 1094.9 224.45 1090.55 254C1090.46 254.61 1090.37 257.64 1090.29 258.26V316.89C1094.94 379.95 1152.74 375.17 1152.74 375.17H1172.72C1181.82 375.17 1190.9 374.36 1199.85 372.65C1207.77 371.14 1212.09 369.62 1212.09 369.62V280.99H1162.3V314.29H1178.77V341.86H1151.33C1137.82 341.86 1126.15 332.19 1123.87 318.87C1123.87 318.8 1123.87 318.74 1123.85 318.69C1123.7 317.77 1123.63 316.85 1123.63 315.9V264.84V264.86Z" fill="white"/>
<path d="M405.241 129.66C382.281 121.96 356.371 123.52 334.501 133.87C328.231 136.09 321.671 137.38 315.041 137.58C287.581 138.46 268.691 145.94 257.421 152.36C249.301 156.97 244.331 165.61 244.331 174.93C244.331 177.72 244.331 180.72 244.331 183.68C244.331 194.21 252.861 202.76 263.411 202.76H268.721C272.511 202.76 274.911 206.82 273.111 210.17C263.591 227.96 263.041 245.09 263.041 245.09V329.07C263.041 332.43 264.421 335.63 266.831 337.98C269.021 340.09 269.681 342.32 269.621 344.32C269.531 347.37 267.511 349.96 264.751 351.23C261.151 352.88 261.661 356.82 261.661 356.82C260.961 363.07 258.371 364.98 255.941 365.33C253.621 365.66 251.401 364.36 250.261 362.3C245.481 353.68 235.301 354.05 235.301 354.05C229.841 354.05 229.361 348.39 229.511 345.14C229.641 342.6 229.751 340.05 229.751 337.51V252.93C229.751 244.73 221.611 239.07 213.891 241.83C213.101 242.12 212.311 242.4 211.571 242.71C191.831 250.67 179.111 270.08 179.111 291.38V346.1L179.241 353.56C179.661 363.74 171.471 363.74 171.471 363.74C159.541 364.73 153.351 370.21 150.791 373.26C150.111 374.05 150.681 375.28 151.731 375.28H567.881C570.361 375.28 571.721 372.41 570.141 370.5C562.271 360.98 556.451 348.06 552.811 338.28C549.911 330.52 548.621 322.22 548.951 313.96C549.831 292.49 546.231 279.81 543.311 273.21C540.991 267.95 538.971 262.53 537.501 256.98C533.681 242.64 528.771 231.6 525.831 225.68C523.501 220.99 519.731 217.1 514.991 214.87C508.301 211.73 502.901 213.36 498.961 216.16C494.511 219.32 491.591 224.21 490.671 229.58C489.441 236.75 487.671 242.7 486.221 246.78C484.401 251.93 483.171 257.29 482.671 262.73C479.161 299.49 483.461 315.94 486.601 322.72C488.921 327.76 490.371 333.16 490.641 338.71C490.881 343.8 490.571 347.53 490.201 350.05C489.871 352.29 487.881 353.89 485.621 353.78C463.231 352.55 459.481 358.19 459.481 358.19C455.311 360.27 453.231 358.54 452.201 356.28C451.151 354 451.191 351.37 452.201 349.06C456.721 338.84 454.501 331.27 452.291 327.1C450.581 323.9 449.771 320.32 449.771 316.7V274.2C450.141 266.46 447.771 261.04 445.451 257.66C442.881 253.91 441.441 249.52 441.441 244.98V208.29C441.861 198.92 439.381 194.56 437.271 192.59C435.471 190.88 434.481 188.47 434.481 185.99V164.58C434.391 159.54 434.591 155.17 434.721 150.26C434.851 144.73 431.521 139.73 426.361 137.76L405.301 129.67H405.241V129.66ZM366.701 282.08C362.341 284.84 357.121 290.9 356.721 304.08V360.43C356.721 363.15 354.721 365.5 352.031 365.83C350.121 366.07 347.621 366.09 344.531 365.54C341.941 365.08 340.081 362.8 340.081 360.17V274.23C340.081 274.23 341.861 242.38 331.241 231.44C328.261 228.35 326.041 224.6 325.231 220.36C324.681 217.55 324.291 214.02 324.351 209.79C324.421 204.07 327.441 198.71 332.361 195.77C339.011 191.8 350.891 188.12 371.121 190.75C372.021 190.86 372.701 191.65 372.701 192.55V270.94C372.691 275.41 370.501 279.66 366.701 282.08Z" fill="url(#paint0_linear_2134_1045)"/>
<path d="M419.761 136.22C423.511 142.47 412.611 148.63 405.311 148.74C398.011 148.85 390.5 146.33 383.55 148.59C378.64 150.19 374.691 153.99 369.781 155.54C357.521 159.42 343.11 148.41 331.99 154.86C329.53 156.29 327.561 158.46 325.191 160.04C319.001 164.14 311.021 163.77 303.701 164.95C296.371 166.13 288.171 170.46 287.671 177.85C287.231 184.23 292.631 189.26 296.031 194.67C300.941 202.5 301.821 212.72 298.291 221.28C295.441 228.19 290.091 233.74 286.641 240.38C283.221 247 281.841 254.46 280.891 261.85C276.131 299.75 284.711 340.88 301.351 375.27H201.26C201.26 375.27 179.741 289.88 229.711 252.92V337.5C229.711 337.5 225.89 354.04 235.26 354.04C235.26 354.04 246.101 353.89 250.221 362.29C250.221 362.29 259.211 371.74 261.631 356.83C261.631 356.83 261.63 351.61 266.83 349.88C266.83 349.88 273.74 344.81 266.83 337.99C266.83 337.99 263.041 334.66 263.041 329.08V245.1C263.041 245.1 264.07 226.61 273.11 210.18C273.11 210.18 276.111 204.85 268.721 202.77C268.721 202.77 251.591 206.13 245.361 189.87C245.361 189.87 243.061 183 244.331 174.93C244.331 174.93 243.541 158.85 257.421 152.36C257.421 152.36 272.071 142.93 303.281 138.39C303.281 138.39 324.451 137.91 334.511 133.87C334.511 133.87 366.99 117.24 402.46 128.78C402.46 128.78 417.951 133.17 419.791 136.22H419.761Z" fill="url(#paint1_linear_2134_1045)"/>
<path d="M229.752 252.93C229.752 252.93 181.192 282.74 201.302 375.28H151.732C151.732 375.28 150.132 375.26 150.792 373.26C150.792 373.26 157.702 364.44 171.472 363.74C171.472 363.74 179.372 363.85 179.242 353.56V291.38C179.242 291.38 177.662 257.67 211.572 242.71C211.572 242.7 227.912 236.7 229.752 252.93Z" fill="url(#paint2_linear_2134_1045)"/>
<path d="M488.703 328.25C495.263 320.31 498.573 308.11 495.653 298.22C493.793 291.93 489.973 286.22 488.983 279.73C487.333 268.89 493.833 258.56 495.323 247.71C496.463 239.4 495.193 229.57 501.463 224C507.013 219.09 517.163 221.17 524.343 223.08C524.343 223.08 521.493 215.34 509.363 213.21C509.363 213.21 499.073 211.5 492.783 223.26C492.783 223.26 490.133 228.92 489.693 234.49C489.693 234.49 487.473 244.14 485.153 250C485.153 250 481.533 260.86 481.533 278.58C481.533 278.58 480.723 298.78 482.603 307.91C482.603 307.91 484.033 315.92 486.553 322.74L488.683 328.27H488.703V328.25Z" fill="url(#paint3_linear_2134_1045)"/>
<defs>
<linearGradient id="paint0_linear_2134_1045" x1="150.494" y1="250.058" x2="570.817" y2="250.058" gradientUnits="userSpaceOnUse">
<stop stop-color="white"/>
<stop offset="1" stop-color="#F6F6F6"/>
</linearGradient>
<linearGradient id="paint1_linear_2134_1045" x1="196.652" y1="249.989" x2="420.526" y2="249.989" gradientUnits="userSpaceOnUse">
<stop stop-color="#FEFEFE"/>
<stop offset="1" stop-color="#FBFBFB"/>
</linearGradient>
<linearGradient id="paint2_linear_2134_1045" x1="154.541" y1="307.956" x2="220.102" y2="309.009" gradientUnits="userSpaceOnUse">
<stop stop-color="white"/>
<stop offset="0.17" stop-color="#FEFEFE"/>
<stop offset="0.36" stop-color="#FDFDFD"/>
<stop offset="0.57" stop-color="#FBFBFB"/>
<stop offset="0.8" stop-color="#F9F9F9"/>
<stop offset="1" stop-color="#EFEFEF"/>
</linearGradient>
<linearGradient id="paint3_linear_2134_1045" x1="524.344" y1="270.682" x2="481.356" y2="270.682" gradientUnits="userSpaceOnUse">
<stop stop-color="#FEFEFE"/>
<stop offset="1" stop-color="#F8F8F8"/>
</linearGradient>
</defs>
</svg>
