<svg width="1500" height="500" viewBox="0 0 1500 500" fill="none" xmlns="http://www.w3.org/2000/svg">
<path d="M680.67 236.19V178.26H706.22V313.97H680.67V254.14H615.63V313.97H592.08V178.25H615.63V236.18H680.67V236.19Z" fill="white"/>
<path d="M807.07 301.06C798.12 310.42 786.63 315.09 772.59 315.09C758.42 315.09 746.99 310.47 738.29 301.24C729.34 291.88 724.87 279.98 724.87 265.51C724.87 250.81 729.34 238.84 738.29 229.6C747.24 220.49 758.79 215.93 772.96 215.93C787 215.93 798.43 220.49 807.25 229.6C816.07 238.84 820.48 250.68 820.48 265.14C820.49 279.85 816.01 291.82 807.07 301.06ZM772.6 297.96C780.04 297.96 785.93 294.98 790.28 289.03C794.62 283.08 796.79 275.12 796.79 265.15C796.79 255.19 794.65 247.35 790.36 241.64C786.07 235.93 780.15 233.07 772.6 233.07C765.16 233.07 759.32 235.99 755.09 241.82C750.86 247.65 748.75 255.55 748.75 265.52C748.75 275.36 750.89 283.23 755.18 289.12C759.46 295.01 765.27 297.96 772.6 297.96Z" fill="white"/>
<path d="M899.22 228.32V174.44H922.9V313.96H907.77C904.16 313.96 901.08 311.35 900.49 307.8L899.7 300.97C899.7 300.97 886.67 315.1 873.75 315.1C861.32 315.1 851.39 312.88 843.69 303.32C835.98 293.75 832.13 281.33 832.13 266.04C832.13 251.13 835.92 239.14 843.5 230.07C851.2 221.12 860.89 216.65 872.58 216.65C885 216.64 892.63 219.74 899.22 228.32ZM879.26 297.02C885.98 297.02 893.26 293.19 897.55 287.21L897.72 240.46C893.31 234.98 885.98 233.07 879.26 233.07C872.42 233.07 866.97 235.81 862.92 241.3C858.86 246.79 856.83 254.45 856.83 264.3C856.83 274.28 857.78 282.96 861.84 288.88C865.9 294.8 872.42 297.02 879.26 297.02Z" fill="white"/>
<path d="M971.06 314.15H946.95V174.44H971.06V314.15Z" fill="white"/>
<path d="M1122.8 236.19V178.26H1148.35V313.97H1122.8V254.14H1057.76V313.97H1034.21V178.25H1057.76V236.18H1122.8V236.19Z" fill="white"/>
<path d="M1249.19 301.06C1240.24 310.42 1228.75 315.09 1214.71 315.09C1200.54 315.09 1189.11 310.47 1180.41 301.24C1171.46 291.88 1166.99 279.98 1166.99 265.51C1166.99 250.81 1171.46 238.84 1180.41 229.6C1189.36 220.49 1200.91 215.93 1215.08 215.93C1229.12 215.93 1240.55 220.49 1249.37 229.6C1258.19 238.84 1262.6 250.68 1262.6 265.14C1262.61 279.85 1258.14 291.82 1249.19 301.06ZM1214.73 297.96C1222.17 297.96 1228.06 294.98 1232.41 289.03C1236.75 283.08 1238.92 275.12 1238.92 265.15C1238.92 255.19 1236.78 247.35 1232.49 241.64C1228.2 235.93 1222.28 233.07 1214.73 233.07C1207.29 233.07 1201.45 235.99 1197.22 241.82C1192.99 247.65 1190.88 255.55 1190.88 265.52C1190.88 275.36 1193.02 283.23 1197.31 289.12C1201.59 295.01 1207.4 297.96 1214.73 297.96Z" fill="white"/>
<path d="M1341.35 228.32V174.44H1365.03V313.96H1349.9C1346.29 313.96 1343.21 311.35 1342.62 307.8L1341.83 300.97C1341.83 300.97 1328.8 315.1 1315.88 315.1C1303.45 315.1 1293.52 312.88 1285.82 303.32C1278.11 293.75 1274.26 281.33 1274.26 266.04C1274.26 251.13 1278.05 239.14 1285.63 230.07C1293.33 221.12 1303.02 216.65 1314.71 216.65C1327.12 216.64 1334.76 219.74 1341.35 228.32ZM1321.38 297.02C1328.1 297.02 1335.38 293.19 1339.67 287.21L1339.84 240.46C1335.43 234.98 1328.1 233.07 1321.38 233.07C1314.54 233.07 1309.09 235.81 1305.04 241.3C1300.98 246.79 1298.95 254.45 1298.95 264.3C1298.95 274.28 1299.9 282.96 1303.96 288.88C1308.02 294.8 1314.54 297.02 1321.38 297.02Z" fill="white"/>
<path d="M1413.19 314.15H1389.08V174.44H1413.19V314.15Z" fill="white"/>
<path d="M443.039 243.66V225.84H384.359V149.7H344.729V241.93H250.789V149.7H211.169V225.84H152.149V243.66H211.169V277.31H152.149V295.13H211.169V358.07H250.789V277.31H344.729V358.07H384.359V295.13H443.039V277.31H384.359V243.66H443.039Z" fill="white"/>
<path d="M292.94 42.37C178.26 42.37 85.2998 135.33 85.2998 250C85.2998 364.67 178.26 457.63 292.94 457.63C407.61 457.63 500.57 364.67 500.57 250C500.57 135.33 407.61 42.37 292.94 42.37ZM292.94 422.69C197.56 422.69 120.24 345.37 120.24 250C120.24 154.62 197.56 77.31 292.94 77.31C388.31 77.31 465.63 154.62 465.63 250C465.63 345.37 388.31 422.69 292.94 422.69Z" fill="white"/>
</svg>
