<svg width="1500" height="500" viewBox="0 0 1500 500" fill="none" xmlns="http://www.w3.org/2000/svg">
<path d="M1139.47 387.983L1142.58 383.563L1112.47 340.9H1095.97V379.092L1102.19 387.977H1072.44L1078.75 379.092V263.637L1072.44 254.749H1124.26V254.835C1131.82 254.902 1139.24 256.979 1145.74 260.854C1152.06 264.63 1157.32 269.959 1161.02 276.336C1164.53 282.485 1166.49 289.402 1166.72 296.483C1166.95 303.564 1165.44 310.592 1162.32 316.954C1159.43 322.745 1155.29 327.815 1150.19 331.792C1145.09 335.769 1139.16 338.551 1132.85 339.934L1160.48 379.099L1173 387.983H1139.47ZM1095.92 337.985H1123.78C1128.62 337.944 1133.25 335.996 1136.67 332.562C1140.85 328.512 1144.04 323.536 1145.95 318.032C1150.57 304.967 1150.57 290.712 1145.95 277.647C1144.04 272.134 1140.86 267.148 1136.67 263.087C1133.24 259.664 1128.62 257.72 1123.78 257.671H1095.93L1095.92 337.985ZM940.837 387.987L947.047 379.102V263.637L940.837 254.749H1022.31L1029.37 272.948L1010.37 257.674H964.241V321.417H1012.19V327.106H964.241V385.055H1010.37L1029.38 369.801L1022.32 387.983L940.837 387.987ZM801.31 387.987L807.521 379.102V263.637L801.31 254.749H854.695C862.323 254.651 869.828 256.673 876.377 260.589C882.802 264.394 888.163 269.762 891.964 276.194C895.755 282.778 897.75 290.244 897.75 297.843C897.75 305.442 895.755 312.908 891.964 319.492C888.162 325.923 882.801 331.29 876.377 335.097C869.82 338.992 862.318 341.002 854.695 340.907H824.747V379.099L830.977 387.983L801.31 387.987ZM824.747 337.985H854.695C859.563 337.95 864.223 336.002 867.671 332.562C871.858 328.511 875.039 323.535 876.959 318.032C881.575 304.967 881.575 290.712 876.959 277.647C875.038 272.136 871.857 267.15 867.671 263.087C864.221 259.651 859.562 257.706 854.695 257.671H824.747V337.985ZM669.696 387.987L675.9 379.102V263.637L669.696 254.749H751.181L758.244 272.948L739.24 257.674H693.117V321.417H741.041V327.106H693.117V385.055H739.25L758.254 369.801L751.191 387.983L669.696 387.987ZM538.073 387.987L544.293 379.102V263.637L538.046 254.749H619.534L626.578 272.948L607.626 257.674H561.506V321.417H609.431V327.106H561.506V385.055H607.629L626.617 369.801L619.538 387.983L538.073 387.987ZM464.844 387.987L467.954 383.566L425.85 323.843L394.266 368.514V379.082L400.476 387.967H370.813L377.069 379.082V179.077L370.849 170.255H370.813L370.849 170.215L377.069 161.37V158.882C375.274 158.343 373.549 157.59 371.933 156.639L328.669 131.669C324.89 129.478 321.749 126.335 319.56 122.552C317.371 118.768 316.21 114.477 316.192 110.105L316 60.633C315.984 56.2195 317.136 51.8805 319.34 48.0577C321.543 44.2349 324.718 41.0648 328.543 38.8701L371.474 14.2747C375.263 12.1146 379.551 10.9856 383.912 11.0001C388.273 11.0147 392.553 12.1721 396.328 14.3574L439.612 39.3267C443.385 41.5248 446.519 44.6708 448.704 48.4536C450.89 52.2363 452.051 56.5246 452.073 60.8944L452.261 110.333C452.267 114.754 451.106 119.098 448.896 122.924C446.686 126.751 443.505 129.926 439.675 132.126L396.791 156.721C395.983 157.194 395.14 157.604 394.269 157.949V161.37L400.443 170.215L400.48 170.255H400.443L394.266 179.077V363.53L467.118 260.437L464.804 254.749H480.844L468.331 263.657L436.403 308.883V308.966L485.98 379.115L498.467 388L464.844 387.987ZM378.153 25.9619L335.233 50.5573C333.464 51.5626 331.995 53.0213 330.976 54.7834C329.957 56.5455 329.426 58.5474 329.436 60.5834L329.617 110.065C329.63 112.085 330.168 114.066 331.18 115.814C332.191 117.561 333.641 119.014 335.385 120.029L371.308 140.786H397.558L433.029 120.442C434.789 119.429 436.252 117.968 437.268 116.208C438.284 114.447 438.818 112.449 438.816 110.416L438.621 60.911C438.607 58.8997 438.071 56.9266 437.064 55.186C436.058 53.4454 434.615 51.9972 432.88 50.9841L389.619 26.0016C387.862 24.9776 385.865 24.4387 383.832 24.4398C381.838 24.4393 379.88 24.9643 378.153 25.9619Z" fill="white"/>
<path d="M384.516 441.16L381.324 443.736C379.644 441.328 376.9 439.76 373.148 439.76C369.228 439.76 364.692 442.112 364.692 447.208C364.692 452.248 368.892 453.536 373.316 454.992C378.916 456.84 385.076 458.632 385.076 466.584C385.076 474.536 378.412 478.008 372.14 478.008C367.324 478.008 362.508 476.048 359.652 472.128L363.124 469.552C364.86 472.352 368.052 474.536 372.196 474.536C376.284 474.536 380.988 471.96 380.988 466.864C380.988 461.32 376.34 459.92 371.3 458.352C366.036 456.728 360.66 454.432 360.66 447.264C360.66 439.592 367.492 436.344 373.316 436.344C378.636 436.344 382.612 438.584 384.516 441.16ZM395.629 461.88H413.493C413.269 456.952 410.245 453.312 404.813 453.312C399.717 453.312 395.965 457.4 395.629 461.88ZM417.357 463.112C417.357 463.616 417.357 464.232 417.301 464.904H395.573C395.685 470.168 399.773 474.424 405.149 474.424C409.069 474.424 412.093 472.24 413.549 469.888L416.405 472.128C413.325 476.048 409.461 477.672 405.149 477.672C397.365 477.672 391.597 471.792 391.597 463.896C391.597 456 397.365 450.12 404.813 450.12C413.045 450.12 417.357 455.944 417.357 463.112ZM447.388 454.656L444.42 456.784C443.188 454.768 440.556 453.312 437.7 453.312C431.596 453.312 427.676 457.904 427.676 463.896C427.676 469.832 431.54 474.424 437.644 474.424C440.948 474.424 443.244 473.024 444.756 471.008L447.612 473.136C445.372 475.88 442.18 477.672 437.644 477.672C429.188 477.672 423.644 471.792 423.644 463.896C423.644 456 429.188 450.12 437.644 450.12C441.172 450.12 445.148 451.632 447.388 454.656ZM476.228 477H472.588C472.476 475.6 472.364 473.64 472.364 472.52H472.252C470.796 475.544 466.988 477.672 463.292 477.672C456.628 477.672 453.324 473.36 453.324 466.864V450.792H457.132V465.296C457.132 470.784 458.756 474.48 464.244 474.48C468.276 474.48 472.196 471.232 472.196 464.232V450.792H476.004V471.232C476.004 472.632 476.06 475.208 476.228 477ZM486.087 456.56C486.087 455.16 486.031 452.584 485.863 450.792H489.503C489.615 452.192 489.727 454.152 489.727 455.272H489.839C491.295 452.248 494.543 450.12 498.239 450.12C499.191 450.12 499.975 450.176 500.759 450.4L500.255 453.984C499.807 453.816 498.575 453.648 497.567 453.648C493.535 453.648 489.895 456.56 489.895 463.56V477H486.087V456.56ZM507.41 461.88H525.274C525.05 456.952 522.026 453.312 516.594 453.312C511.498 453.312 507.746 457.4 507.41 461.88ZM529.138 463.112C529.138 463.616 529.138 464.232 529.082 464.904H507.354C507.466 470.168 511.554 474.424 516.93 474.424C520.85 474.424 523.874 472.24 525.33 469.888L528.186 472.128C525.106 476.048 521.242 477.672 516.93 477.672C509.146 477.672 503.378 471.792 503.378 463.896C503.378 456 509.146 450.12 516.594 450.12C524.826 450.12 529.138 455.944 529.138 463.112ZM563.145 450.792V453.984H555.753V469.272C555.753 473.192 557.377 474.088 559.673 474.088C560.737 474.088 561.969 473.752 562.977 473.248L563.145 476.552C561.801 477.056 560.401 477.336 558.665 477.336C555.865 477.336 551.945 476.104 551.945 470.336V453.984H546.513V450.792H551.945V443.4H555.753V450.792H563.145ZM595.143 463.896C595.143 471.792 589.319 477.672 581.143 477.672C573.023 477.672 567.199 471.792 567.199 463.896C567.199 456 573.023 450.12 581.143 450.12C589.319 450.12 595.143 456 595.143 463.896ZM591.111 463.896C591.111 458.016 587.247 453.312 581.143 453.312C575.095 453.312 571.231 458.016 571.231 463.896C571.231 469.776 575.095 474.424 581.143 474.424C587.247 474.424 591.111 469.776 591.111 463.896ZM624.897 472.576C622.657 475.88 618.737 477.672 614.985 477.672C606.809 477.672 601.433 471.624 601.433 463.896C601.433 456.168 606.809 450.12 614.985 450.12C618.737 450.12 622.657 451.912 624.897 455.328H625.009V434.664H628.817V477H625.009V472.576H624.897ZM605.465 463.896C605.465 469.72 609.049 474.424 615.377 474.424C621.257 474.424 625.457 469.888 625.457 463.896C625.457 457.904 621.257 453.312 615.377 453.312C609.049 453.312 605.465 458.072 605.465 463.896ZM655.513 460.928V460.088C655.513 455.552 653.049 453.312 648.513 453.312C645.433 453.312 642.577 454.544 640.729 456.392L638.601 453.872C640.729 451.744 644.425 450.12 648.905 450.12C654.561 450.12 659.097 453.256 659.097 459.64V471.12C659.097 473.136 659.265 475.544 659.545 477H656.129C655.905 475.712 655.737 474.144 655.737 472.744H655.625C653.217 476.216 650.305 477.672 646.105 477.672C642.129 477.672 637.033 475.544 637.033 469.72C637.033 461.656 645.937 460.928 655.513 460.928ZM655.513 463.896H654.393C648.177 463.896 640.953 464.568 640.953 469.552C640.953 473.304 644.145 474.536 647.113 474.536C652.489 474.536 655.513 470.504 655.513 465.856V463.896ZM669.019 450.792L677.923 472.912H678.035L686.155 450.792H690.299L677.251 483.776C675.683 487.808 673.555 490.44 669.019 490.44C667.899 490.44 666.723 490.328 665.603 490.104L665.995 486.632C666.835 486.912 667.787 487.08 668.795 487.08C671.371 487.08 672.715 485.4 673.835 482.432L675.963 476.944L664.763 450.792H669.019ZM699.436 471.68L694.9 484.84H691.708L695.46 471.68H699.436ZM724.887 472.576V490.44H721.079V450.792H724.887V455.328H725.055C727.239 451.912 731.159 450.12 734.911 450.12C743.087 450.12 748.463 456.168 748.463 463.896C748.463 471.624 743.087 477.672 734.911 477.672C731.159 477.672 727.239 475.824 725.055 472.576H724.887ZM744.431 463.896C744.431 458.072 740.847 453.312 734.519 453.312C728.639 453.312 724.439 457.904 724.439 463.896C724.439 469.888 728.639 474.424 734.519 474.424C740.847 474.424 744.431 469.72 744.431 463.896ZM760.546 434.664V477H756.738V434.664H760.546ZM787.255 460.928V460.088C787.255 455.552 784.791 453.312 780.255 453.312C777.175 453.312 774.319 454.544 772.471 456.392L770.343 453.872C772.471 451.744 776.167 450.12 780.647 450.12C786.303 450.12 790.839 453.256 790.839 459.64V471.12C790.839 473.136 791.007 475.544 791.287 477H787.871C787.647 475.712 787.479 474.144 787.479 472.744H787.367C784.959 476.216 782.047 477.672 777.847 477.672C773.871 477.672 768.775 475.544 768.775 469.72C768.775 461.656 777.679 460.928 787.255 460.928ZM787.255 463.896H786.135C779.919 463.896 772.695 464.568 772.695 469.552C772.695 473.304 775.887 474.536 778.855 474.536C784.231 474.536 787.255 470.504 787.255 465.856V463.896ZM800.425 450.792H804.065C804.177 452.192 804.289 454.152 804.289 455.272H804.401C805.857 452.248 809.665 450.12 813.361 450.12C820.025 450.12 823.329 454.432 823.329 460.928V477H819.521V462.496C819.521 457.008 817.897 453.312 812.409 453.312C808.377 453.312 804.457 456.56 804.457 463.56V477H800.649V456.56C800.649 455.16 800.593 452.584 800.425 450.792ZM858.276 450.792V453.984H852.116V477H848.308V453.984H842.82V450.792H848.308V443.624C848.308 437.688 851.22 433.992 857.212 433.992C858.164 433.992 859.396 434.104 860.348 434.384L859.676 437.744C858.892 437.52 858.052 437.352 857.044 437.352C852.956 437.352 852.116 440.264 852.116 444.072V450.792H858.276ZM889.744 463.896C889.744 471.792 883.92 477.672 875.744 477.672C867.624 477.672 861.8 471.792 861.8 463.896C861.8 456 867.624 450.12 875.744 450.12C883.92 450.12 889.744 456 889.744 463.896ZM885.712 463.896C885.712 458.016 881.848 453.312 875.744 453.312C869.696 453.312 865.832 458.016 865.832 463.896C865.832 469.776 869.696 474.424 875.744 474.424C881.848 474.424 885.712 469.776 885.712 463.896ZM897.938 456.56C897.938 455.16 897.882 452.584 897.714 450.792H901.354C901.466 452.192 901.578 454.152 901.578 455.272H901.69C903.146 452.248 906.394 450.12 910.09 450.12C911.042 450.12 911.826 450.176 912.61 450.4L912.106 453.984C911.658 453.816 910.426 453.648 909.418 453.648C905.386 453.648 901.746 456.56 901.746 463.56V477H897.938V456.56ZM943.934 450.792V453.984H936.542V469.272C936.542 473.192 938.166 474.088 940.462 474.088C941.526 474.088 942.758 473.752 943.766 473.248L943.934 476.552C942.59 477.056 941.19 477.336 939.454 477.336C936.654 477.336 932.734 476.104 932.734 470.336V453.984H927.302V450.792H932.734V443.4H936.542V450.792H943.934ZM975.932 463.896C975.932 471.792 970.108 477.672 961.932 477.672C953.812 477.672 947.988 471.792 947.988 463.896C947.988 456 953.812 450.12 961.932 450.12C970.108 450.12 975.932 456 975.932 463.896ZM971.9 463.896C971.9 458.016 968.036 453.312 961.932 453.312C955.884 453.312 952.02 458.016 952.02 463.896C952.02 469.776 955.884 474.424 961.932 474.424C968.036 474.424 971.9 469.776 971.9 463.896ZM987.878 455.272C989.39 452.248 992.75 450.12 996.502 450.12C999.358 450.12 1002.83 451.184 1004.57 455.664C1006.36 452.08 1009.55 450.12 1013.75 450.12C1020.41 450.12 1023.72 454.432 1023.72 460.928V477H1019.91V462.496C1019.91 457.008 1018.06 453.312 1013.13 453.312C1007.65 453.312 1005.69 458.184 1005.69 463.056V477H1001.88V461.712C1001.88 456.616 1000.65 453.312 995.55 453.312C991.91 453.312 987.934 456.56 987.934 463.56V477H984.126V456.56C984.126 455.16 984.07 452.584 983.902 450.792H987.542C987.654 452.192 987.766 454.152 987.766 455.272H987.878ZM1059.6 463.896C1059.6 471.792 1053.78 477.672 1045.6 477.672C1037.48 477.672 1031.66 471.792 1031.66 463.896C1031.66 456 1037.48 450.12 1045.6 450.12C1053.78 450.12 1059.6 456 1059.6 463.896ZM1055.57 463.896C1055.57 458.016 1051.71 453.312 1045.6 453.312C1039.56 453.312 1035.69 458.016 1035.69 463.896C1035.69 469.776 1039.56 474.424 1045.6 474.424C1051.71 474.424 1055.57 469.776 1055.57 463.896ZM1067.8 456.56C1067.8 455.16 1067.74 452.584 1067.57 450.792H1071.21C1071.33 452.192 1071.44 454.152 1071.44 455.272H1071.55C1073.01 452.248 1076.25 450.12 1079.95 450.12C1080.9 450.12 1081.69 450.176 1082.47 450.4L1081.97 453.984C1081.52 453.816 1080.29 453.648 1079.28 453.648C1075.25 453.648 1071.61 456.56 1071.61 463.56V477H1067.8V456.56ZM1087.98 456.56C1087.98 455.16 1087.92 452.584 1087.75 450.792H1091.39C1091.51 452.192 1091.62 454.152 1091.62 455.272H1091.73C1093.19 452.248 1096.43 450.12 1100.13 450.12C1101.08 450.12 1101.87 450.176 1102.65 450.4L1102.15 453.984C1101.7 453.816 1100.47 453.648 1099.46 453.648C1095.43 453.648 1091.79 456.56 1091.79 463.56V477H1087.98V456.56ZM1133.21 463.896C1133.21 471.792 1127.39 477.672 1119.21 477.672C1111.09 477.672 1105.27 471.792 1105.27 463.896C1105.27 456 1111.09 450.12 1119.21 450.12C1127.39 450.12 1133.21 456 1133.21 463.896ZM1129.18 463.896C1129.18 458.016 1125.32 453.312 1119.21 453.312C1113.16 453.312 1109.3 458.016 1109.3 463.896C1109.3 469.776 1113.16 474.424 1119.21 474.424C1125.32 474.424 1129.18 469.776 1129.18 463.896ZM1137.82 450.792H1141.91L1148.24 472.072H1148.35L1155.41 450.792H1159.1L1166.27 472.072H1166.38L1172.66 450.792H1176.69L1168.4 477H1164.26L1157.26 455.776H1157.14L1150.26 477H1146.11L1137.82 450.792Z" fill="white"/>
</svg>
