<svg width="1500" height="500" viewBox="0 0 1500 500" fill="none" xmlns="http://www.w3.org/2000/svg">
<path d="M832.348 178.53C828.028 158.88 818.558 143.85 799.588 137.68C799.238 137.58 798.888 137.45 798.518 137.34C798.368 137.3 798.188 137.26 797.998 137.21C795.868 136.69 792.388 135.69 788.918 135.49C786.688 135.35 783.008 135.77 779.788 136.98C779.468 137.1 779.138 137.24 778.828 137.36C778.748 137.39 778.668 137.42 778.598 137.45C775.728 150.92 772.298 166.64 771.378 170.58C766.598 191.12 762.028 211.69 757.258 232.22C756.898 233.79 756.888 234.76 757.428 235.26C757.838 235.9 758.778 236.04 760.448 235.87C771.688 234.71 782.948 233.87 794.188 232.73C795.768 232.57 796.748 232.67 797.168 233.15C797.438 233.7 797.208 234.59 796.538 235.94C791.808 245.49 787.168 255.06 782.478 264.62C771.058 287.9 759.618 311.18 748.208 334.47C743.908 343.26 739.658 352.09 735.408 360.9C735.368 360.98 735.128 361.47 734.758 362.24C734.808 362.29 734.868 362.34 734.928 362.38C735.228 362.64 735.588 362.93 736.038 363.21C736.048 363.23 736.048 363.23 736.068 363.24C737.058 363.89 738.318 364.61 739.608 365.17C739.648 365.19 739.698 365.21 739.758 365.23C739.918 365.32 740.098 365.38 740.268 365.45C740.778 365.64 741.288 365.82 741.788 365.99C741.818 365.99 741.848 366.01 741.878 366.02C751.588 369.28 761.348 367.85 771.028 364.83C789.588 359.05 801.838 345.77 811.098 329.5C824.408 306.11 830.328 280.41 833.118 253.93C835.778 228.8 837.848 203.6 832.348 178.53ZM727.458 360.04C728.448 355.98 729.278 352.66 729.648 351.07C734.258 331.4 738.688 311.69 743.218 291.99C743.488 290.81 745.888 278.27 747.328 273.24C747.508 272.59 747.388 272.23 747.108 272.06C746.748 271.49 745.598 271.76 744.938 271.82C737.908 272.47 730.868 273.21 723.838 273.91C720.808 274.21 717.778 274.52 714.738 274.75C711.308 275 708.618 275.68 707.458 274.91C707.458 274.91 707.458 274.9 707.448 274.9C706.468 273.9 707.158 271.23 710.358 264.87C712.118 261.38 714.018 257.99 715.708 254.47C725.888 233.46 736.218 212.53 746.518 191.57C754.278 175.82 762.238 160.14 769.858 144.31C770.438 143.09 771.188 141.52 772.018 139.79C771.948 139.75 771.868 139.7 771.788 139.65C771.358 139.36 770.838 138.88 770.158 138.21C768.888 136.95 764.418 134.35 763.738 134.1C755.118 130.84 746.368 129.05 737.178 131.35C721.338 135.31 711.058 146.27 702.428 159.13C690.318 177.17 683.178 197.39 677.458 218.18C669.498 247.05 665.788 276.28 670.598 306.15C672.798 319.79 676.638 332.94 684.458 344.57C691.498 355.08 700.888 362.05 714.068 362.09C714.948 362.09 715.668 362.15 716.228 362.29C716.238 362.3 716.248 362.3 716.248 362.3C718.248 362.43 721.218 362.45 723.748 361.72C724.518 361.53 725.248 361.24 725.898 360.88C726.418 360.58 726.928 360.36 727.418 360.21C729.488 359.55 731.268 359.98 732.588 360.65C731.298 359.95 729.528 359.45 727.458 360.04Z" fill="white"/>
<path d="M931.188 254.55C930.068 253.49 928.668 253.05 927.208 252.8C924.638 252.35 922.068 252.48 919.488 252.58C919.028 252.59 918.978 252.85 918.998 253.24C919.058 256.01 919.108 258.79 919.178 261.57C919.218 263.09 919.228 263.09 920.768 263.09C923.168 263.06 925.548 262.91 927.898 262.33C928.908 262.06 929.848 261.67 930.718 261.05C932.848 259.55 933.078 256.34 931.188 254.55ZM926.888 238.79C924.718 238.06 922.498 238.08 920.268 238.18C918.678 238.25 918.678 238.26 918.708 239.86C918.758 242.27 918.808 244.68 918.858 247.09C918.868 247.44 918.878 247.76 919.358 247.75C921.548 247.74 923.748 247.68 925.898 247.17C926.328 247.02 926.778 246.88 927.188 246.69C928.278 246.19 929.258 245.52 929.668 244.32C930.388 242.25 929.708 239.73 926.888 238.79ZM931.188 254.55C930.068 253.49 928.668 253.05 927.208 252.8C924.638 252.35 922.068 252.48 919.488 252.58C919.028 252.59 918.978 252.85 918.998 253.24C919.058 256.01 919.108 258.79 919.178 261.57C919.218 263.09 919.228 263.09 920.768 263.09C923.168 263.06 925.548 262.91 927.898 262.33C928.908 262.06 929.848 261.67 930.718 261.05C932.848 259.55 933.078 256.34 931.188 254.55ZM926.888 238.79C924.718 238.06 922.498 238.08 920.268 238.18C918.678 238.25 918.678 238.26 918.708 239.86C918.758 242.27 918.808 244.68 918.858 247.09C918.868 247.44 918.878 247.76 919.358 247.75C921.548 247.74 923.748 247.68 925.898 247.17C926.328 247.02 926.778 246.88 927.188 246.69C928.278 246.19 929.258 245.52 929.668 244.32C930.388 242.25 929.708 239.73 926.888 238.79ZM931.188 254.55C930.068 253.49 928.668 253.05 927.208 252.8C924.638 252.35 922.068 252.48 919.488 252.58C919.028 252.59 918.978 252.85 918.998 253.24C919.058 256.01 919.108 258.79 919.178 261.57C919.218 263.09 919.228 263.09 920.768 263.09C923.168 263.06 925.548 262.91 927.898 262.33C928.908 262.06 929.848 261.67 930.718 261.05C932.848 259.55 933.078 256.34 931.188 254.55ZM926.888 238.79C924.718 238.06 922.498 238.08 920.268 238.18C918.678 238.25 918.678 238.26 918.708 239.86C918.758 242.27 918.808 244.68 918.858 247.09C918.868 247.44 918.878 247.76 919.358 247.75C921.548 247.74 923.748 247.68 925.898 247.17C926.328 247.02 926.778 246.88 927.188 246.69C928.278 246.19 929.258 245.52 929.668 244.32C930.388 242.25 929.708 239.73 926.888 238.79ZM931.188 254.55C930.068 253.49 928.668 253.05 927.208 252.8C924.638 252.35 922.068 252.48 919.488 252.58C919.028 252.59 918.978 252.85 918.998 253.24C919.058 256.01 919.108 258.79 919.178 261.57C919.218 263.09 919.228 263.09 920.768 263.09C923.168 263.06 925.548 262.91 927.898 262.33C928.908 262.06 929.848 261.67 930.718 261.05C932.848 259.55 933.078 256.34 931.188 254.55ZM926.888 238.79C924.718 238.06 922.498 238.08 920.268 238.18C918.678 238.25 918.678 238.26 918.708 239.86C918.758 242.27 918.808 244.68 918.858 247.09C918.868 247.44 918.878 247.76 919.358 247.75C921.548 247.74 923.748 247.68 925.898 247.17C926.328 247.02 926.778 246.88 927.188 246.69C928.278 246.19 929.258 245.52 929.668 244.32C930.388 242.25 929.708 239.73 926.888 238.79ZM931.188 254.55C930.068 253.49 928.668 253.05 927.208 252.8C924.638 252.35 922.068 252.48 919.488 252.58C919.028 252.59 918.978 252.85 918.998 253.24C919.058 256.01 919.108 258.79 919.178 261.57C919.218 263.09 919.228 263.09 920.768 263.09C923.168 263.06 925.548 262.91 927.898 262.33C928.908 262.06 929.848 261.67 930.718 261.05C932.848 259.55 933.078 256.34 931.188 254.55ZM926.888 238.79C924.718 238.06 922.498 238.08 920.268 238.18C918.678 238.25 918.678 238.26 918.708 239.86C918.758 242.27 918.808 244.68 918.858 247.09C918.868 247.44 918.878 247.76 919.358 247.75C921.548 247.74 923.748 247.68 925.898 247.17C926.328 247.02 926.778 246.88 927.188 246.69C928.278 246.19 929.258 245.52 929.668 244.32C930.388 242.25 929.708 239.73 926.888 238.79ZM931.188 254.55C930.068 253.49 928.668 253.05 927.208 252.8C924.638 252.35 922.068 252.48 919.488 252.58C919.028 252.59 918.978 252.85 918.998 253.24C919.058 256.01 919.108 258.79 919.178 261.57C919.218 263.09 919.228 263.09 920.768 263.09C923.168 263.06 925.548 262.91 927.898 262.33C928.908 262.06 929.848 261.67 930.718 261.05C932.848 259.55 933.078 256.34 931.188 254.55ZM926.888 238.79C924.718 238.06 922.498 238.08 920.268 238.18C918.678 238.25 918.678 238.26 918.708 239.86C918.758 242.27 918.808 244.68 918.858 247.09C918.868 247.44 918.878 247.76 919.358 247.75C921.548 247.74 923.748 247.68 925.898 247.17C926.328 247.02 926.778 246.88 927.188 246.69C928.278 246.19 929.258 245.52 929.668 244.32C930.388 242.25 929.708 239.73 926.888 238.79ZM931.188 254.55C930.068 253.49 928.668 253.05 927.208 252.8C924.638 252.35 922.068 252.48 919.488 252.58C919.028 252.59 918.978 252.85 918.998 253.24C919.058 256.01 919.108 258.79 919.178 261.57C919.218 263.09 919.228 263.09 920.768 263.09C923.168 263.06 925.548 262.91 927.898 262.33C928.908 262.06 929.848 261.67 930.718 261.05C932.848 259.55 933.078 256.34 931.188 254.55ZM926.888 238.79C924.718 238.06 922.498 238.08 920.268 238.18C918.678 238.25 918.678 238.26 918.708 239.86C918.758 242.27 918.808 244.68 918.858 247.09C918.868 247.44 918.878 247.76 919.358 247.75C921.548 247.74 923.748 247.68 925.898 247.17C926.328 247.02 926.778 246.88 927.188 246.69C928.278 246.19 929.258 245.52 929.668 244.32C930.388 242.25 929.708 239.73 926.888 238.79ZM931.188 254.55C930.068 253.49 928.668 253.05 927.208 252.8C924.638 252.35 922.068 252.48 919.488 252.58C919.028 252.59 918.978 252.85 918.998 253.24C919.058 256.01 919.108 258.79 919.178 261.57C919.218 263.09 919.228 263.09 920.768 263.09C923.168 263.06 925.548 262.91 927.898 262.33C928.908 262.06 929.848 261.67 930.718 261.05C932.848 259.55 933.078 256.34 931.188 254.55ZM926.888 238.79C924.718 238.06 922.498 238.08 920.268 238.18C918.678 238.25 918.678 238.26 918.708 239.86C918.758 242.27 918.808 244.68 918.858 247.09C918.868 247.44 918.878 247.76 919.358 247.75C921.548 247.74 923.748 247.68 925.898 247.17C926.328 247.02 926.778 246.88 927.188 246.69C928.278 246.19 929.258 245.52 929.668 244.32C930.388 242.25 929.708 239.73 926.888 238.79ZM704.238 396.97C703.528 396.74 702.908 396.84 702.358 397.26C701.808 397.68 701.098 399.23 700.228 401.9L692.388 426.13C691.408 429.14 690.938 431.04 690.948 431.83C690.968 432.61 691.428 433.15 692.318 433.44C693.238 433.74 693.958 433.52 694.478 432.79C694.998 432.06 695.758 430.17 696.738 427.11L704.458 403.27C705.248 400.86 705.608 399.27 705.558 398.51C705.508 397.75 705.068 397.24 704.238 396.97ZM931.188 254.55C930.068 253.49 928.668 253.05 927.208 252.8C924.638 252.35 922.068 252.48 919.488 252.58C919.028 252.59 918.978 252.85 918.998 253.24C919.058 256.01 919.108 258.79 919.178 261.57C919.218 263.09 919.228 263.09 920.768 263.09C923.168 263.06 925.548 262.91 927.898 262.33C928.908 262.06 929.848 261.67 930.718 261.05C932.848 259.55 933.078 256.34 931.188 254.55ZM926.888 238.79C924.718 238.06 922.498 238.08 920.268 238.18C918.678 238.25 918.678 238.26 918.708 239.86C918.758 242.27 918.808 244.68 918.858 247.09C918.868 247.44 918.878 247.76 919.358 247.75C921.548 247.74 923.748 247.68 925.898 247.17C926.328 247.02 926.778 246.88 927.188 246.69C928.278 246.19 929.258 245.52 929.668 244.32C930.388 242.25 929.708 239.73 926.888 238.79ZM704.238 396.97C703.528 396.74 702.908 396.84 702.358 397.26C701.808 397.68 701.098 399.23 700.228 401.9L692.388 426.13C691.408 429.14 690.938 431.04 690.948 431.83C690.968 432.61 691.428 433.15 692.318 433.44C693.238 433.74 693.958 433.52 694.478 432.79C694.998 432.06 695.758 430.17 696.738 427.11L704.458 403.27C705.248 400.86 705.608 399.27 705.558 398.51C705.508 397.75 705.068 397.24 704.238 396.97ZM931.188 254.55C930.068 253.49 928.668 253.05 927.208 252.8C924.638 252.35 922.068 252.48 919.488 252.58C919.028 252.59 918.978 252.85 918.998 253.24C919.058 256.01 919.108 258.79 919.178 261.57C919.218 263.09 919.228 263.09 920.768 263.09C923.168 263.06 925.548 262.91 927.898 262.33C928.908 262.06 929.848 261.67 930.718 261.05C932.848 259.55 933.078 256.34 931.188 254.55ZM926.888 238.79C924.718 238.06 922.498 238.08 920.268 238.18C918.678 238.25 918.678 238.26 918.708 239.86C918.758 242.27 918.808 244.68 918.858 247.09C918.868 247.44 918.878 247.76 919.358 247.75C921.548 247.74 923.748 247.68 925.898 247.17C926.328 247.02 926.778 246.88 927.188 246.69C928.278 246.19 929.258 245.52 929.668 244.32C930.388 242.25 929.708 239.73 926.888 238.79ZM704.238 396.97C703.528 396.74 702.908 396.84 702.358 397.26C701.808 397.68 701.098 399.23 700.228 401.9L692.388 426.13C691.408 429.14 690.938 431.04 690.948 431.83C690.968 432.61 691.428 433.15 692.318 433.44C693.238 433.74 693.958 433.52 694.478 432.79C694.998 432.06 695.758 430.17 696.738 427.11L704.458 403.27C705.248 400.86 705.608 399.27 705.558 398.51C705.508 397.75 705.068 397.24 704.238 396.97ZM931.188 254.55C930.068 253.49 928.668 253.05 927.208 252.8C924.638 252.35 922.068 252.48 919.488 252.58C919.028 252.59 918.978 252.85 918.998 253.24C919.058 256.01 919.108 258.79 919.178 261.57C919.218 263.09 919.228 263.09 920.768 263.09C923.168 263.06 925.548 262.91 927.898 262.33C928.908 262.06 929.848 261.67 930.718 261.05C932.848 259.55 933.078 256.34 931.188 254.55ZM926.888 238.79C924.718 238.06 922.498 238.08 920.268 238.18C918.678 238.25 918.678 238.26 918.708 239.86C918.758 242.27 918.808 244.68 918.858 247.09C918.868 247.44 918.878 247.76 919.358 247.75C921.548 247.74 923.748 247.68 925.898 247.17C926.328 247.02 926.778 246.88 927.188 246.69C928.278 246.19 929.258 245.52 929.668 244.32C930.388 242.25 929.708 239.73 926.888 238.79ZM704.238 396.97C703.528 396.74 702.908 396.84 702.358 397.26C701.808 397.68 701.098 399.23 700.228 401.9L692.388 426.13C691.408 429.14 690.938 431.04 690.948 431.83C690.968 432.61 691.428 433.15 692.318 433.44C693.238 433.74 693.958 433.52 694.478 432.79C694.998 432.06 695.758 430.17 696.738 427.11L704.458 403.27C705.248 400.86 705.608 399.27 705.558 398.51C705.508 397.75 705.068 397.24 704.238 396.97ZM931.188 254.55C930.068 253.49 928.668 253.05 927.208 252.8C924.638 252.35 922.068 252.48 919.488 252.58C919.028 252.59 918.978 252.85 918.998 253.24C919.058 256.01 919.108 258.79 919.178 261.57C919.218 263.09 919.228 263.09 920.768 263.09C923.168 263.06 925.548 262.91 927.898 262.33C928.908 262.06 929.848 261.67 930.718 261.05C932.848 259.55 933.078 256.34 931.188 254.55ZM926.888 238.79C924.718 238.06 922.498 238.08 920.268 238.18C918.678 238.25 918.678 238.26 918.708 239.86C918.758 242.27 918.808 244.68 918.858 247.09C918.868 247.44 918.878 247.76 919.358 247.75C921.548 247.74 923.748 247.68 925.898 247.17C926.328 247.02 926.778 246.88 927.188 246.69C928.278 246.19 929.258 245.52 929.668 244.32C930.388 242.25 929.708 239.73 926.888 238.79ZM704.238 396.97C703.528 396.74 702.908 396.84 702.358 397.26C701.808 397.68 701.098 399.23 700.228 401.9L692.388 426.13C691.408 429.14 690.938 431.04 690.948 431.83C690.968 432.61 691.428 433.15 692.318 433.44C693.238 433.74 693.958 433.52 694.478 432.79C694.998 432.06 695.758 430.17 696.738 427.11L704.458 403.27C705.248 400.86 705.608 399.27 705.558 398.51C705.508 397.75 705.068 397.24 704.238 396.97ZM931.188 254.55C930.068 253.49 928.668 253.05 927.208 252.8C924.638 252.35 922.068 252.48 919.488 252.58C919.028 252.59 918.978 252.85 918.998 253.24C919.058 256.01 919.108 258.79 919.178 261.57C919.218 263.09 919.228 263.09 920.768 263.09C923.168 263.06 925.548 262.91 927.898 262.33C928.908 262.06 929.848 261.67 930.718 261.05C932.848 259.55 933.078 256.34 931.188 254.55ZM926.888 238.79C924.718 238.06 922.498 238.08 920.268 238.18C918.678 238.25 918.678 238.26 918.708 239.86C918.758 242.27 918.808 244.68 918.858 247.09C918.868 247.44 918.878 247.76 919.358 247.75C921.548 247.74 923.748 247.68 925.898 247.17C926.328 247.02 926.778 246.88 927.188 246.69C928.278 246.19 929.258 245.52 929.668 244.32C930.388 242.25 929.708 239.73 926.888 238.79ZM704.238 396.97C703.528 396.74 702.908 396.84 702.358 397.26C701.808 397.68 701.098 399.23 700.228 401.9L692.388 426.13C691.408 429.14 690.938 431.04 690.948 431.83C690.968 432.61 691.428 433.15 692.318 433.44C693.238 433.74 693.958 433.52 694.478 432.79C694.998 432.06 695.758 430.17 696.738 427.11L704.458 403.27C705.248 400.86 705.608 399.27 705.558 398.51C705.508 397.75 705.068 397.24 704.238 396.97ZM931.188 254.55C930.068 253.49 928.668 253.05 927.208 252.8C924.638 252.35 922.068 252.48 919.488 252.58C919.028 252.59 918.978 252.85 918.998 253.24C919.058 256.01 919.108 258.79 919.178 261.57C919.218 263.09 919.228 263.09 920.768 263.09C923.168 263.06 925.548 262.91 927.898 262.33C928.908 262.06 929.848 261.67 930.718 261.05C932.848 259.55 933.078 256.34 931.188 254.55ZM926.888 238.79C924.718 238.06 922.498 238.08 920.268 238.18C918.678 238.25 918.678 238.26 918.708 239.86C918.758 242.27 918.808 244.68 918.858 247.09C918.868 247.44 918.878 247.76 919.358 247.75C921.548 247.74 923.748 247.68 925.898 247.17C926.328 247.02 926.778 246.88 927.188 246.69C928.278 246.19 929.258 245.52 929.668 244.32C930.388 242.25 929.708 239.73 926.888 238.79ZM704.238 396.97C703.528 396.74 702.908 396.84 702.358 397.26C701.808 397.68 701.098 399.23 700.228 401.9L692.388 426.13C691.408 429.14 690.938 431.04 690.948 431.83C690.968 432.61 691.428 433.15 692.318 433.44C693.238 433.74 693.958 433.52 694.478 432.79C694.998 432.06 695.758 430.17 696.738 427.11L704.458 403.27C705.248 400.86 705.608 399.27 705.558 398.51C705.508 397.75 705.068 397.24 704.238 396.97ZM931.188 254.55C930.068 253.49 928.668 253.05 927.208 252.8C924.638 252.35 922.068 252.48 919.488 252.58C919.028 252.59 918.978 252.85 918.998 253.24C919.058 256.01 919.108 258.79 919.178 261.57C919.218 263.09 919.228 263.09 920.768 263.09C923.168 263.06 925.548 262.91 927.898 262.33C928.908 262.06 929.848 261.67 930.718 261.05C932.848 259.55 933.078 256.34 931.188 254.55ZM925.898 247.17C926.328 247.02 926.778 246.88 927.188 246.69C928.278 246.19 929.258 245.52 929.668 244.32C930.388 242.25 929.708 239.73 926.888 238.79C924.718 238.06 922.498 238.08 920.268 238.18C918.678 238.25 918.678 238.26 918.708 239.86C918.758 242.27 918.808 244.68 918.858 247.09C918.868 247.44 918.878 247.76 919.358 247.75C921.548 247.74 923.748 247.68 925.898 247.17ZM704.238 396.97C703.528 396.74 702.908 396.84 702.358 397.26C701.808 397.68 701.098 399.23 700.228 401.9L692.388 426.13C691.408 429.14 690.938 431.04 690.948 431.83C690.968 432.61 691.428 433.15 692.318 433.44C693.238 433.74 693.958 433.52 694.478 432.79C694.998 432.06 695.758 430.17 696.738 427.11L704.458 403.27C705.248 400.86 705.608 399.27 705.558 398.51C705.508 397.75 705.068 397.24 704.238 396.97ZM927.208 252.8C924.638 252.35 922.068 252.48 919.488 252.58C919.028 252.59 918.978 252.85 918.998 253.24C919.058 256.01 919.108 258.79 919.178 261.57C919.218 263.09 919.228 263.09 920.768 263.09C923.168 263.06 925.548 262.91 927.898 262.33C928.908 262.06 929.848 261.67 930.718 261.05C932.848 259.55 933.078 256.34 931.188 254.55C930.068 253.49 928.668 253.05 927.208 252.8ZM925.898 247.17C926.328 247.02 926.778 246.88 927.188 246.69C928.278 246.19 929.258 245.52 929.668 244.32C930.388 242.25 929.708 239.73 926.888 238.79C924.718 238.06 922.498 238.08 920.268 238.18C918.678 238.25 918.678 238.26 918.708 239.86C918.758 242.27 918.808 244.68 918.858 247.09C918.868 247.44 918.878 247.76 919.358 247.75C921.548 247.74 923.748 247.68 925.898 247.17ZM750.018 38.09C633.808 38.09 539.258 132.64 539.258 248.85C539.258 365.07 633.808 459.61 750.018 459.61C866.228 459.61 960.778 365.07 960.778 248.85C960.778 132.64 866.228 38.09 750.018 38.09ZM902.708 119.24C905.878 120.17 908.738 122.32 911.288 125.68C913.798 129 915.198 132.26 915.498 135.47C915.788 138.69 915.258 141.33 913.888 143.41C912.518 145.49 910.048 147.88 906.488 150.58L904.608 152.01L896.048 140.71L899.988 137.71C902.478 135.83 903.958 134.54 904.418 133.85C904.878 133.16 904.808 132.41 904.198 131.61C903.668 130.91 903.038 130.64 902.318 130.8C901.588 130.95 900.118 131.87 897.898 133.55L877.038 149.37C875.088 150.85 873.898 151.94 873.468 152.66C873.038 153.38 873.108 154.12 873.678 154.87C874.308 155.69 875.078 155.99 875.998 155.75C876.918 155.52 878.398 154.64 880.418 153.1L885.568 149.19L883.838 146.91L890.448 141.91L900.478 155.14L877.148 172.83L871.768 165.72L874.088 162.32C872.158 162.57 870.418 162.36 868.858 161.69C867.298 161.03 865.908 159.9 864.708 158.31C863.258 156.41 862.378 154.28 862.048 151.92C861.708 149.57 861.898 147.45 862.608 145.55C863.318 143.66 864.328 142.04 865.668 140.7C866.998 139.35 869.158 137.54 872.148 135.28L885.058 125.49C889.208 122.34 892.398 120.28 894.618 119.3C896.828 118.32 899.528 118.3 902.708 119.24ZM868.098 356.09C868.058 355.34 867.388 356.25 867.308 356.51C866.048 360.83 865.538 365.34 864.238 369.66C863.628 371.7 862.948 373.73 862.208 375.73C862.118 375.98 861.988 376.27 861.848 376.57C861.738 376.47 861.648 376.36 861.558 376.25C859.658 373.93 858.718 371.27 858.268 368.7C856.738 359.82 860.938 352.22 868.078 347.23C868.448 346.97 868.948 346.73 869.398 346.95C869.608 347.06 869.758 347.24 869.888 347.43C874.298 353.47 874.438 362.74 871.598 368.67C869.978 372.05 867.338 374.85 863.368 376.74C863.268 376.79 863.158 376.84 863.048 376.88C863.218 376.37 863.358 375.89 863.508 375.52C864.318 373.44 865.028 371.33 865.648 369.19C866.828 365.12 868.338 360.36 868.098 356.09ZM750.018 382.96C676.068 382.96 615.918 322.8 615.918 248.85C615.918 174.91 676.068 114.75 750.018 114.75C823.958 114.75 884.118 174.91 884.118 248.85C884.118 322.8 823.958 382.96 750.018 382.96ZM870.728 87.39L862.068 111.71L877.028 92.24L886.428 99.46L853.198 142.71L843.338 135.13L852.598 110.98L837.488 130.64L828.088 123.41L861.328 80.17L870.728 87.39ZM846.118 71.72L821.858 120.57L809.158 114.26L833.418 65.41L846.118 71.72ZM787.408 49.94L798.818 53.16L799.788 78.96L806.468 55.33L817.878 58.56L803.038 111.04L791.078 107.65L790.728 81.79L783.978 105.65L772.568 102.42L787.408 49.94ZM739.418 46.29L770.398 47.14L770.098 58.05L761.678 57.82L760.488 101.43L746.308 101.04L747.498 57.43L739.118 57.2L739.418 46.29ZM704.478 51.89L708.628 70.95L712.778 70.04L708.618 50.99L722.478 47.96L734.098 101.25L720.238 104.27L715.368 81.89L711.218 82.8L716.098 105.18L702.238 108.2L690.618 54.91L704.478 51.89ZM648.488 75.39C649.978 72.43 652.608 70 656.368 68.1C660.078 66.22 663.538 65.43 666.758 65.72C669.968 66 672.478 67.01 674.278 68.73C676.078 70.45 677.988 73.3 680.008 77.29L681.068 79.39L668.408 85.79L666.178 81.37C664.768 78.59 663.768 76.9 663.168 76.32C662.578 75.74 661.828 75.68 660.928 76.14C660.148 76.53 659.768 77.1 659.788 77.85C659.808 78.59 660.448 80.2 661.708 82.69L673.518 106.05C674.628 108.23 675.498 109.6 676.118 110.15C676.748 110.7 677.488 110.76 678.328 110.33C679.248 109.87 679.678 109.16 679.618 108.21C679.548 107.26 678.948 105.66 677.798 103.39L674.888 97.62L672.328 98.91L668.588 91.52L683.408 84.02L696.618 110.15L688.668 114.17L685.728 111.27C685.628 113.21 685.108 114.89 684.178 116.31C683.248 117.72 681.888 118.88 680.098 119.78C677.968 120.86 675.718 121.35 673.348 121.25C670.968 121.16 668.918 120.6 667.178 119.56C665.448 118.52 664.038 117.23 662.948 115.68C661.858 114.12 660.478 111.68 658.778 108.33L651.468 93.87C649.118 89.22 647.658 85.71 647.098 83.36C646.538 81 646.998 78.34 648.488 75.39ZM628.378 86.65L662.528 129.18L651.468 138.06L617.318 95.53L628.378 86.65ZM601.008 111.56L633.838 140.28L639.518 133.79L647.738 140.97L632.718 158.14L591.668 122.23L601.008 111.56ZM550.458 215.83C550.178 208.86 556.058 204.1 562.158 204.02C566.078 203.98 569.158 205.67 572.028 207.97C573.498 209.15 574.848 210.49 576.198 211.82C576.928 212.54 577.468 212.56 578.218 211.82C580.288 209.8 582.438 207.85 584.888 206.28C588.258 204.12 591.918 203.48 595.778 204.39C599.768 205.33 602.298 207.95 603.528 211.78C604.528 214.92 604.398 218.05 602.828 221.02C601.078 224.34 598.338 226.38 594.648 227.18C589.708 228.24 585.708 226.36 582.138 223.24C580.748 222.02 579.258 220.9 578.028 219.51C577.398 218.8 576.748 219.04 576.148 219.64C574.558 221.24 572.928 222.78 571.128 224.16C567.038 227.29 562.538 228.24 557.578 226.75C553.878 225.64 550.628 221.38 550.458 217.52C550.438 216.96 550.458 216.4 550.458 215.83ZM603.308 230.44V233.31H550.458V230.44H603.308ZM565.378 262.72V267.42H550.228V263.49C554.718 256.14 557.388 251.6 558.228 249.86C559.078 248.11 559.508 246.75 559.508 245.77C559.508 245.02 559.378 244.46 559.118 244.09C558.858 243.72 558.478 243.54 557.948 243.54C557.428 243.54 557.038 243.74 556.778 244.15C556.528 244.56 556.398 245.37 556.398 246.59V249.22H550.228V248.21C550.228 246.66 550.308 245.45 550.468 244.55C550.618 243.66 551.018 242.78 551.638 241.92C552.268 241.06 553.078 240.4 554.078 239.96C555.078 239.52 556.278 239.29 557.678 239.29C560.418 239.29 562.488 239.97 563.888 241.33C565.288 242.69 565.998 244.41 565.998 246.49C565.998 248.07 565.598 249.74 564.808 251.5C564.018 253.26 561.688 257 557.828 262.72H565.378ZM578.678 267.42H571.788V252.63C571.788 250.49 571.738 249.2 571.638 248.77C571.538 248.34 571.258 248.01 570.798 247.79C570.338 247.57 569.308 247.46 567.718 247.46H567.038V244.24C570.368 243.53 572.898 242.05 574.618 239.82H578.678V267.42ZM587.838 267.42H581.558V239.82H590.848C591.128 241.48 591.408 243.44 591.698 245.69L592.718 252.71L594.368 239.82H603.708V267.42H597.438L597.428 248.79L594.928 267.42H590.478L587.838 249.22V267.42ZM628.428 386.39C628.388 386.63 628.338 386.89 628.268 387.14C627.778 386.79 627.328 386.47 626.958 386.17C624.058 383.78 621.238 381.29 618.488 378.72C612.668 373.28 607.888 366.86 602.128 361.41C601.778 361.08 599.948 360.28 600.548 361.47C603.978 368.19 610.518 374.1 615.918 379.25C618.758 381.97 621.718 384.55 624.798 387C625.348 387.44 626.008 388.04 626.718 388.66C626.508 388.71 626.298 388.74 626.098 388.75C618.378 389.38 611.858 387.47 606.388 383.75C596.798 377.23 588.778 362.97 590.138 349.85C590.178 349.45 590.228 349.04 590.458 348.69C590.948 347.95 591.928 347.87 592.728 347.94C608.028 349.22 621.188 357.07 626.728 371.95C628.338 376.28 629.268 381.16 628.428 386.39ZM625.858 361.26C623.288 355.21 623.848 345.95 628.518 340.11C628.658 339.94 628.808 339.76 629.028 339.66C629.488 339.45 629.978 339.72 630.338 340C637.238 345.3 641.098 353.09 639.168 361.88C638.608 364.43 637.558 367.05 635.548 369.28C635.458 369.39 635.358 369.49 635.248 369.59C635.118 369.28 634.998 368.98 634.918 368.73C634.268 366.7 633.688 364.64 633.168 362.58C632.058 358.2 631.748 353.67 630.678 349.3C630.618 349.04 629.988 348.1 629.918 348.85C629.488 353.1 630.788 357.93 631.778 362.04C632.298 364.21 632.918 366.35 633.638 368.46C633.768 368.84 633.888 369.33 634.038 369.84C633.928 369.8 633.818 369.75 633.718 369.69C629.838 367.62 627.328 364.71 625.858 361.26ZM658.968 429.03L646.818 420.84L655.118 398.24L642.058 417.63L630.288 409.7L660.768 364.48L672.528 372.4L660.688 389.97L677.768 375.93L688.808 383.37L668.298 399.24L658.968 429.03ZM718.558 404.47C718.118 406.69 717.038 410.47 715.308 415.81L712.438 424.69C710.748 429.9 709.428 433.55 708.478 435.64C707.538 437.73 706.118 439.46 704.248 440.84C702.378 442.22 700.178 443.03 697.668 443.28C695.158 443.53 692.438 443.18 689.508 442.23C686.738 441.33 684.388 440.07 682.468 438.45C680.548 436.82 679.218 434.88 678.458 432.63C677.698 430.38 677.538 428.14 677.968 425.92C678.408 423.7 679.488 419.92 681.218 414.58L684.098 405.71C685.778 400.49 687.098 396.84 688.048 394.75C688.998 392.66 690.408 390.93 692.278 389.55C694.148 388.18 696.348 387.36 698.858 387.12C701.368 386.87 704.088 387.22 707.018 388.16C709.798 389.06 712.138 390.32 714.058 391.95C715.978 393.57 717.318 395.51 718.068 397.76C718.828 400.01 718.988 402.25 718.558 404.47ZM752.338 407.52L742.518 406.8L741.768 417.12L750.508 417.76L749.748 428.1L741.008 427.46L739.348 450.31L725.198 449.28L729.178 394.88L753.128 396.63L752.338 407.52ZM780.318 448.38L766.268 450.31L758.878 396.27L782.668 393.02L784.148 403.83L774.408 405.16L775.808 415.41L784.488 414.22L785.898 424.5L777.218 425.69L780.318 448.38ZM806.648 442.78L788.118 391.49L810.358 383.45L814.068 393.72L805.158 396.94L808.678 406.66L817.008 403.65L820.538 413.41L812.208 416.42L816.278 427.7L826.068 424.16L829.778 434.43L806.648 442.78ZM845.838 426.41L816.788 380.25L836.798 367.65L842.618 376.89L834.598 381.93L840.108 390.68L847.608 385.97L853.138 394.75L845.638 399.47L852.028 409.61L860.838 404.07L866.648 413.31L845.838 426.41ZM890.038 392.01C884.408 395.48 877.818 397.1 870.128 396.12C869.928 396.1 869.718 396.06 869.518 396.01C870.258 395.42 870.928 394.85 871.498 394.43C874.688 392.13 877.758 389.68 880.728 387.09C886.348 382.19 893.148 376.57 896.868 370.01C897.528 368.85 895.658 369.57 895.298 369.88C889.298 375.07 884.238 381.27 878.178 386.45C875.318 388.89 872.388 391.25 869.378 393.51C869.008 393.79 868.538 394.09 868.038 394.42C867.968 394.16 867.938 393.91 867.908 393.66C867.298 388.4 868.448 383.56 870.248 379.32C876.448 364.7 889.948 357.44 905.288 356.85C906.088 356.81 907.068 356.93 907.528 357.7C907.738 358.05 907.778 358.47 907.798 358.87C908.558 372.03 899.918 385.93 890.038 392.01ZM936.258 266.83C933.788 267.92 931.148 268.31 928.498 268.57C927.978 268.62 927.808 268.82 927.838 269.32C927.898 271.43 927.918 273.54 927.968 275.64C927.998 276.49 927.918 276.58 927.088 276.6C926.008 276.63 924.938 276.63 923.878 276.68C923.348 276.7 923.168 276.53 923.168 276C923.128 273.86 923.068 271.73 923.048 269.58C923.048 269.03 922.858 268.83 922.318 268.86C921.478 268.9 920.628 268.91 919.768 268.9C919.318 268.88 919.208 269.1 919.218 269.5C919.268 271.7 919.288 273.92 919.358 276.14C919.378 276.63 919.218 276.79 918.748 276.79C917.538 276.8 916.308 276.83 915.108 276.86C914.628 276.88 914.578 276.6 914.568 276.24C914.528 274.02 914.458 271.81 914.428 269.6C914.428 269.06 914.248 268.9 913.718 268.93C912.988 268.97 912.238 268.95 911.488 268.96C909.508 269.01 907.528 269.05 905.528 269.08C904.808 269.11 904.788 269.08 904.888 268.36C905.078 266.95 905.288 265.53 905.478 264.11C905.578 263.4 905.648 263.35 906.398 263.35C907.258 263.35 908.138 263.31 908.998 263.31C910.078 263.31 910.848 262.51 910.828 261.43C910.788 258.25 910.688 255.07 910.638 251.88C910.618 250.34 910.588 248.81 910.538 247.27C910.478 244.96 910.468 242.65 910.378 240.35C910.468 239.93 910.218 239.64 910.078 239.3C909.538 238.44 908.728 238.14 907.768 238.11C906.738 238.08 905.718 238.11 904.678 238.16C904.248 238.18 904.078 238.04 904.098 237.63C904.128 236.32 904.028 235.02 904.048 233.73C904.048 233.3 904.118 233.1 904.608 233.1C906.528 233.08 908.448 233.01 910.358 232.99C911.298 232.99 912.238 232.92 913.168 232.92C913.578 232.92 913.668 232.78 913.658 232.35C913.618 230.12 913.558 227.88 913.518 225.63C913.508 225.21 913.648 225.04 914.058 225.02C915.328 224.99 916.588 224.99 917.858 224.95C918.238 224.94 918.258 225.22 918.258 225.46C918.258 226.28 918.298 227.09 918.308 227.9C918.328 229.03 918.328 230.15 918.408 231.26C918.458 232.78 918.308 232.59 919.778 232.55C920.388 232.54 921.018 232.49 921.628 232.49C922.098 232.48 922.258 232.28 922.248 231.82C922.188 229.71 922.158 227.6 922.088 225.51C922.068 225.02 922.198 224.81 922.708 224.8C923.918 224.79 925.138 224.76 926.348 224.72C926.908 224.7 926.898 225.07 926.898 225.45C926.948 227.47 926.988 229.47 927.018 231.48C927.048 232.53 927.048 232.53 928.058 232.69C929.488 232.87 930.928 233.06 932.308 233.48C933.868 233.94 935.338 234.59 936.538 235.71C938.018 237.1 938.678 238.87 938.828 240.88C938.878 241.57 938.868 242.25 938.818 242.94C938.768 243.59 938.578 244.2 938.368 244.81C937.828 246.27 936.808 247.32 935.548 248.18C935.418 248.28 935.168 248.31 935.218 248.54C935.248 248.72 935.478 248.7 935.628 248.74C937.118 249.15 938.498 249.78 939.648 250.83C941.008 252.07 941.658 253.67 941.888 255.43C942.188 257.79 941.988 260.11 940.998 262.31C940.038 264.47 938.378 265.88 936.258 266.83ZM704.238 396.97C703.528 396.74 702.908 396.84 702.358 397.26C701.808 397.68 701.098 399.23 700.228 401.9L692.388 426.13C691.408 429.14 690.938 431.04 690.948 431.83C690.968 432.61 691.428 433.15 692.318 433.44C693.238 433.74 693.958 433.52 694.478 432.79C694.998 432.06 695.758 430.17 696.738 427.11L704.458 403.27C705.248 400.86 705.608 399.27 705.558 398.51C705.508 397.75 705.068 397.24 704.238 396.97ZM585.228 220.54C587.148 222.15 589.288 223.3 591.948 223.19C595.578 223.43 598.798 220.46 599.488 217.03C600.188 213.59 598.368 210.13 595.108 208.75C592.528 207.67 590.028 208.1 587.668 209.38C585.058 210.79 582.878 212.77 580.838 214.9C580.168 215.59 580.388 216.08 580.968 216.62C582.388 217.93 583.748 219.3 585.228 220.54ZM555.278 218.36C556.638 222.21 560.418 224.07 564.558 222.94C568.458 221.88 571.028 219.02 573.708 216.31C574.078 215.94 574.058 215.49 573.678 215.13C571.228 212.76 568.928 210.17 565.698 208.82C560.258 206.55 554.578 210.7 554.978 215.75C554.998 216.63 554.978 217.5 555.278 218.36ZM926.888 238.79C924.718 238.06 922.498 238.08 920.268 238.18C918.678 238.25 918.678 238.26 918.708 239.86C918.758 242.27 918.808 244.68 918.858 247.09C918.868 247.44 918.878 247.76 919.358 247.75C921.548 247.74 923.748 247.68 925.898 247.17C926.328 247.02 926.778 246.88 927.188 246.69C928.278 246.19 929.258 245.52 929.668 244.32C930.388 242.25 929.708 239.73 926.888 238.79ZM931.188 254.55C930.068 253.49 928.668 253.05 927.208 252.8C924.638 252.35 922.068 252.48 919.488 252.58C919.028 252.59 918.978 252.85 918.998 253.24C919.058 256.01 919.108 258.79 919.178 261.57C919.218 263.09 919.228 263.09 920.768 263.09C923.168 263.06 925.548 262.91 927.898 262.33C928.908 262.06 929.848 261.67 930.718 261.05C932.848 259.55 933.078 256.34 931.188 254.55ZM704.238 396.97C703.528 396.74 702.908 396.84 702.358 397.26C701.808 397.68 701.098 399.23 700.228 401.9L692.388 426.13C691.408 429.14 690.938 431.04 690.948 431.83C690.968 432.61 691.428 433.15 692.318 433.44C693.238 433.74 693.958 433.52 694.478 432.79C694.998 432.06 695.758 430.17 696.738 427.11L704.458 403.27C705.248 400.86 705.608 399.27 705.558 398.51C705.508 397.75 705.068 397.24 704.238 396.97ZM926.888 238.79C924.718 238.06 922.498 238.08 920.268 238.18C918.678 238.25 918.678 238.26 918.708 239.86C918.758 242.27 918.808 244.68 918.858 247.09C918.868 247.44 918.878 247.76 919.358 247.75C921.548 247.74 923.748 247.68 925.898 247.17C926.328 247.02 926.778 246.88 927.188 246.69C928.278 246.19 929.258 245.52 929.668 244.32C930.388 242.25 929.708 239.73 926.888 238.79ZM931.188 254.55C930.068 253.49 928.668 253.05 927.208 252.8C924.638 252.35 922.068 252.48 919.488 252.58C919.028 252.59 918.978 252.85 918.998 253.24C919.058 256.01 919.108 258.79 919.178 261.57C919.218 263.09 919.228 263.09 920.768 263.09C923.168 263.06 925.548 262.91 927.898 262.33C928.908 262.06 929.848 261.67 930.718 261.05C932.848 259.55 933.078 256.34 931.188 254.55ZM704.238 396.97C703.528 396.74 702.908 396.84 702.358 397.26C701.808 397.68 701.098 399.23 700.228 401.9L692.388 426.13C691.408 429.14 690.938 431.04 690.948 431.83C690.968 432.61 691.428 433.15 692.318 433.44C693.238 433.74 693.958 433.52 694.478 432.79C694.998 432.06 695.758 430.17 696.738 427.11L704.458 403.27C705.248 400.86 705.608 399.27 705.558 398.51C705.508 397.75 705.068 397.24 704.238 396.97ZM926.888 238.79C924.718 238.06 922.498 238.08 920.268 238.18C918.678 238.25 918.678 238.26 918.708 239.86C918.758 242.27 918.808 244.68 918.858 247.09C918.868 247.44 918.878 247.76 919.358 247.75C921.548 247.74 923.748 247.68 925.898 247.17C926.328 247.02 926.778 246.88 927.188 246.69C928.278 246.19 929.258 245.52 929.668 244.32C930.388 242.25 929.708 239.73 926.888 238.79ZM931.188 254.55C930.068 253.49 928.668 253.05 927.208 252.8C924.638 252.35 922.068 252.48 919.488 252.58C919.028 252.59 918.978 252.85 918.998 253.24C919.058 256.01 919.108 258.79 919.178 261.57C919.218 263.09 919.228 263.09 920.768 263.09C923.168 263.06 925.548 262.91 927.898 262.33C928.908 262.06 929.848 261.67 930.718 261.05C932.848 259.55 933.078 256.34 931.188 254.55ZM704.238 396.97C703.528 396.74 702.908 396.84 702.358 397.26C701.808 397.68 701.098 399.23 700.228 401.9L692.388 426.13C691.408 429.14 690.938 431.04 690.948 431.83C690.968 432.61 691.428 433.15 692.318 433.44C693.238 433.74 693.958 433.52 694.478 432.79C694.998 432.06 695.758 430.17 696.738 427.11L704.458 403.27C705.248 400.86 705.608 399.27 705.558 398.51C705.508 397.75 705.068 397.24 704.238 396.97ZM926.888 238.79C924.718 238.06 922.498 238.08 920.268 238.18C918.678 238.25 918.678 238.26 918.708 239.86C918.758 242.27 918.808 244.68 918.858 247.09C918.868 247.44 918.878 247.76 919.358 247.75C921.548 247.74 923.748 247.68 925.898 247.17C926.328 247.02 926.778 246.88 927.188 246.69C928.278 246.19 929.258 245.52 929.668 244.32C930.388 242.25 929.708 239.73 926.888 238.79ZM931.188 254.55C930.068 253.49 928.668 253.05 927.208 252.8C924.638 252.35 922.068 252.48 919.488 252.58C919.028 252.59 918.978 252.85 918.998 253.24C919.058 256.01 919.108 258.79 919.178 261.57C919.218 263.09 919.228 263.09 920.768 263.09C923.168 263.06 925.548 262.91 927.898 262.33C928.908 262.06 929.848 261.67 930.718 261.05C932.848 259.55 933.078 256.34 931.188 254.55ZM704.238 396.97C703.528 396.74 702.908 396.84 702.358 397.26C701.808 397.68 701.098 399.23 700.228 401.9L692.388 426.13C691.408 429.14 690.938 431.04 690.948 431.83C690.968 432.61 691.428 433.15 692.318 433.44C693.238 433.74 693.958 433.52 694.478 432.79C694.998 432.06 695.758 430.17 696.738 427.11L704.458 403.27C705.248 400.86 705.608 399.27 705.558 398.51C705.508 397.75 705.068 397.24 704.238 396.97ZM926.888 238.79C924.718 238.06 922.498 238.08 920.268 238.18C918.678 238.25 918.678 238.26 918.708 239.86C918.758 242.27 918.808 244.68 918.858 247.09C918.868 247.44 918.878 247.76 919.358 247.75C921.548 247.74 923.748 247.68 925.898 247.17C926.328 247.02 926.778 246.88 927.188 246.69C928.278 246.19 929.258 245.52 929.668 244.32C930.388 242.25 929.708 239.73 926.888 238.79ZM931.188 254.55C930.068 253.49 928.668 253.05 927.208 252.8C924.638 252.35 922.068 252.48 919.488 252.58C919.028 252.59 918.978 252.85 918.998 253.24C919.058 256.01 919.108 258.79 919.178 261.57C919.218 263.09 919.228 263.09 920.768 263.09C923.168 263.06 925.548 262.91 927.898 262.33C928.908 262.06 929.848 261.67 930.718 261.05C932.848 259.55 933.078 256.34 931.188 254.55ZM704.238 396.97C703.528 396.74 702.908 396.84 702.358 397.26C701.808 397.68 701.098 399.23 700.228 401.9L692.388 426.13C691.408 429.14 690.938 431.04 690.948 431.83C690.968 432.61 691.428 433.15 692.318 433.44C693.238 433.74 693.958 433.52 694.478 432.79C694.998 432.06 695.758 430.17 696.738 427.11L704.458 403.27C705.248 400.86 705.608 399.27 705.558 398.51C705.508 397.75 705.068 397.24 704.238 396.97ZM926.888 238.79C924.718 238.06 922.498 238.08 920.268 238.18C918.678 238.25 918.678 238.26 918.708 239.86C918.758 242.27 918.808 244.68 918.858 247.09C918.868 247.44 918.878 247.76 919.358 247.75C921.548 247.74 923.748 247.68 925.898 247.17C926.328 247.02 926.778 246.88 927.188 246.69C928.278 246.19 929.258 245.52 929.668 244.32C930.388 242.25 929.708 239.73 926.888 238.79ZM931.188 254.55C930.068 253.49 928.668 253.05 927.208 252.8C924.638 252.35 922.068 252.48 919.488 252.58C919.028 252.59 918.978 252.85 918.998 253.24C919.058 256.01 919.108 258.79 919.178 261.57C919.218 263.09 919.228 263.09 920.768 263.09C923.168 263.06 925.548 262.91 927.898 262.33C928.908 262.06 929.848 261.67 930.718 261.05C932.848 259.55 933.078 256.34 931.188 254.55ZM704.238 396.97C703.528 396.74 702.908 396.84 702.358 397.26C701.808 397.68 701.098 399.23 700.228 401.9L692.388 426.13C691.408 429.14 690.938 431.04 690.948 431.83C690.968 432.61 691.428 433.15 692.318 433.44C693.238 433.74 693.958 433.52 694.478 432.79C694.998 432.06 695.758 430.17 696.738 427.11L704.458 403.27C705.248 400.86 705.608 399.27 705.558 398.51C705.508 397.75 705.068 397.24 704.238 396.97ZM926.888 238.79C924.718 238.06 922.498 238.08 920.268 238.18C918.678 238.25 918.678 238.26 918.708 239.86C918.758 242.27 918.808 244.68 918.858 247.09C918.868 247.44 918.878 247.76 919.358 247.75C921.548 247.74 923.748 247.68 925.898 247.17C926.328 247.02 926.778 246.88 927.188 246.69C928.278 246.19 929.258 245.52 929.668 244.32C930.388 242.25 929.708 239.73 926.888 238.79ZM931.188 254.55C930.068 253.49 928.668 253.05 927.208 252.8C924.638 252.35 922.068 252.48 919.488 252.58C919.028 252.59 918.978 252.85 918.998 253.24C919.058 256.01 919.108 258.79 919.178 261.57C919.218 263.09 919.228 263.09 920.768 263.09C923.168 263.06 925.548 262.91 927.898 262.33C928.908 262.06 929.848 261.67 930.718 261.05C932.848 259.55 933.078 256.34 931.188 254.55ZM704.238 396.97C703.528 396.74 702.908 396.84 702.358 397.26C701.808 397.68 701.098 399.23 700.228 401.9L692.388 426.13C691.408 429.14 690.938 431.04 690.948 431.83C690.968 432.61 691.428 433.15 692.318 433.44C693.238 433.74 693.958 433.52 694.478 432.79C694.998 432.06 695.758 430.17 696.738 427.11L704.458 403.27C705.248 400.86 705.608 399.27 705.558 398.51C705.508 397.75 705.068 397.24 704.238 396.97ZM926.888 238.79C924.718 238.06 922.498 238.08 920.268 238.18C918.678 238.25 918.678 238.26 918.708 239.86C918.758 242.27 918.808 244.68 918.858 247.09C918.868 247.44 918.878 247.76 919.358 247.75C921.548 247.74 923.748 247.68 925.898 247.17C926.328 247.02 926.778 246.88 927.188 246.69C928.278 246.19 929.258 245.52 929.668 244.32C930.388 242.25 929.708 239.73 926.888 238.79ZM931.188 254.55C930.068 253.49 928.668 253.05 927.208 252.8C924.638 252.35 922.068 252.48 919.488 252.58C919.028 252.59 918.978 252.85 918.998 253.24C919.058 256.01 919.108 258.79 919.178 261.57C919.218 263.09 919.228 263.09 920.768 263.09C923.168 263.06 925.548 262.91 927.898 262.33C928.908 262.06 929.848 261.67 930.718 261.05C932.848 259.55 933.078 256.34 931.188 254.55ZM704.238 396.97C703.528 396.74 702.908 396.84 702.358 397.26C701.808 397.68 701.098 399.23 700.228 401.9L692.388 426.13C691.408 429.14 690.938 431.04 690.948 431.83C690.968 432.61 691.428 433.15 692.318 433.44C693.238 433.74 693.958 433.52 694.478 432.79C694.998 432.06 695.758 430.17 696.738 427.11L704.458 403.27C705.248 400.86 705.608 399.27 705.558 398.51C705.508 397.75 705.068 397.24 704.238 396.97ZM926.888 238.79C924.718 238.06 922.498 238.08 920.268 238.18C918.678 238.25 918.678 238.26 918.708 239.86C918.758 242.27 918.808 244.68 918.858 247.09C918.868 247.44 918.878 247.76 919.358 247.75C921.548 247.74 923.748 247.68 925.898 247.17C926.328 247.02 926.778 246.88 927.188 246.69C928.278 246.19 929.258 245.52 929.668 244.32C930.388 242.25 929.708 239.73 926.888 238.79ZM931.188 254.55C930.068 253.49 928.668 253.05 927.208 252.8C924.638 252.35 922.068 252.48 919.488 252.58C919.028 252.59 918.978 252.85 918.998 253.24C919.058 256.01 919.108 258.79 919.178 261.57C919.218 263.09 919.228 263.09 920.768 263.09C923.168 263.06 925.548 262.91 927.898 262.33C928.908 262.06 929.848 261.67 930.718 261.05C932.848 259.55 933.078 256.34 931.188 254.55ZM926.888 238.79C924.718 238.06 922.498 238.08 920.268 238.18C918.678 238.25 918.678 238.26 918.708 239.86C918.758 242.27 918.808 244.68 918.858 247.09C918.868 247.44 918.878 247.76 919.358 247.75C921.548 247.74 923.748 247.68 925.898 247.17C926.328 247.02 926.778 246.88 927.188 246.69C928.278 246.19 929.258 245.52 929.668 244.32C930.388 242.25 929.708 239.73 926.888 238.79ZM931.188 254.55C930.068 253.49 928.668 253.05 927.208 252.8C924.638 252.35 922.068 252.48 919.488 252.58C919.028 252.59 918.978 252.85 918.998 253.24C919.058 256.01 919.108 258.79 919.178 261.57C919.218 263.09 919.228 263.09 920.768 263.09C923.168 263.06 925.548 262.91 927.898 262.33C928.908 262.06 929.848 261.67 930.718 261.05C932.848 259.55 933.078 256.34 931.188 254.55ZM926.888 238.79C924.718 238.06 922.498 238.08 920.268 238.18C918.678 238.25 918.678 238.26 918.708 239.86C918.758 242.27 918.808 244.68 918.858 247.09C918.868 247.44 918.878 247.76 919.358 247.75C921.548 247.74 923.748 247.68 925.898 247.17C926.328 247.02 926.778 246.88 927.188 246.69C928.278 246.19 929.258 245.52 929.668 244.32C930.388 242.25 929.708 239.73 926.888 238.79ZM931.188 254.55C930.068 253.49 928.668 253.05 927.208 252.8C924.638 252.35 922.068 252.48 919.488 252.58C919.028 252.59 918.978 252.85 918.998 253.24C919.058 256.01 919.108 258.79 919.178 261.57C919.218 263.09 919.228 263.09 920.768 263.09C923.168 263.06 925.548 262.91 927.898 262.33C928.908 262.06 929.848 261.67 930.718 261.05C932.848 259.55 933.078 256.34 931.188 254.55ZM926.888 238.79C924.718 238.06 922.498 238.08 920.268 238.18C918.678 238.25 918.678 238.26 918.708 239.86C918.758 242.27 918.808 244.68 918.858 247.09C918.868 247.44 918.878 247.76 919.358 247.75C921.548 247.74 923.748 247.68 925.898 247.17C926.328 247.02 926.778 246.88 927.188 246.69C928.278 246.19 929.258 245.52 929.668 244.32C930.388 242.25 929.708 239.73 926.888 238.79ZM931.188 254.55C930.068 253.49 928.668 253.05 927.208 252.8C924.638 252.35 922.068 252.48 919.488 252.58C919.028 252.59 918.978 252.85 918.998 253.24C919.058 256.01 919.108 258.79 919.178 261.57C919.218 263.09 919.228 263.09 920.768 263.09C923.168 263.06 925.548 262.91 927.898 262.33C928.908 262.06 929.848 261.67 930.718 261.05C932.848 259.55 933.078 256.34 931.188 254.55ZM926.888 238.79C924.718 238.06 922.498 238.08 920.268 238.18C918.678 238.25 918.678 238.26 918.708 239.86C918.758 242.27 918.808 244.68 918.858 247.09C918.868 247.44 918.878 247.76 919.358 247.75C921.548 247.74 923.748 247.68 925.898 247.17C926.328 247.02 926.778 246.88 927.188 246.69C928.278 246.19 929.258 245.52 929.668 244.32C930.388 242.25 929.708 239.73 926.888 238.79ZM931.188 254.55C930.068 253.49 928.668 253.05 927.208 252.8C924.638 252.35 922.068 252.48 919.488 252.58C919.028 252.59 918.978 252.85 918.998 253.24C919.058 256.01 919.108 258.79 919.178 261.57C919.218 263.09 919.228 263.09 920.768 263.09C923.168 263.06 925.548 262.91 927.898 262.33C928.908 262.06 929.848 261.67 930.718 261.05C932.848 259.55 933.078 256.34 931.188 254.55ZM926.888 238.79C924.718 238.06 922.498 238.08 920.268 238.18C918.678 238.25 918.678 238.26 918.708 239.86C918.758 242.27 918.808 244.68 918.858 247.09C918.868 247.44 918.878 247.76 919.358 247.75C921.548 247.74 923.748 247.68 925.898 247.17C926.328 247.02 926.778 246.88 927.188 246.69C928.278 246.19 929.258 245.52 929.668 244.32C930.388 242.25 929.708 239.73 926.888 238.79ZM931.188 254.55C930.068 253.49 928.668 253.05 927.208 252.8C924.638 252.35 922.068 252.48 919.488 252.58C919.028 252.59 918.978 252.85 918.998 253.24C919.058 256.01 919.108 258.79 919.178 261.57C919.218 263.09 919.228 263.09 920.768 263.09C923.168 263.06 925.548 262.91 927.898 262.33C928.908 262.06 929.848 261.67 930.718 261.05C932.848 259.55 933.078 256.34 931.188 254.55ZM926.888 238.79C924.718 238.06 922.498 238.08 920.268 238.18C918.678 238.25 918.678 238.26 918.708 239.86C918.758 242.27 918.808 244.68 918.858 247.09C918.868 247.44 918.878 247.76 919.358 247.75C921.548 247.74 923.748 247.68 925.898 247.17C926.328 247.02 926.778 246.88 927.188 246.69C928.278 246.19 929.258 245.52 929.668 244.32C930.388 242.25 929.708 239.73 926.888 238.79ZM931.188 254.55C930.068 253.49 928.668 253.05 927.208 252.8C924.638 252.35 922.068 252.48 919.488 252.58C919.028 252.59 918.978 252.85 918.998 253.24C919.058 256.01 919.108 258.79 919.178 261.57C919.218 263.09 919.228 263.09 920.768 263.09C923.168 263.06 925.548 262.91 927.898 262.33C928.908 262.06 929.848 261.67 930.718 261.05C932.848 259.55 933.078 256.34 931.188 254.55Z" fill="white"/>
<path d="M538.399 327.09C536.569 327.09 534.859 325.93 534.249 324.09C526.309 300.29 522.289 275.36 522.289 250C522.289 187.35 546.579 128.71 590.699 84.88C592.409 83.18 595.189 83.18 596.889 84.9C598.589 86.62 598.589 89.39 596.869 91.09C554.419 133.27 531.049 189.7 531.049 250C531.049 274.42 534.919 298.42 542.559 321.32C543.329 323.61 542.089 326.1 539.789 326.86C539.319 327.01 538.859 327.09 538.399 327.09Z" fill="white"/>
<path d="M577.939 398.92C576.669 398.92 575.409 398.37 574.539 397.31C562.439 382.48 552.199 366.18 544.099 348.84C543.079 346.65 544.019 344.04 546.219 343.02C548.409 342 551.019 342.94 552.039 345.14C559.829 361.82 569.679 377.52 581.329 391.78C582.859 393.65 582.579 396.41 580.709 397.94C579.899 398.6 578.919 398.92 577.939 398.92Z" fill="white"/>
<path d="M750 481.08C692.24 481.08 637.16 459.1 594.91 419.2C593.15 417.54 593.07 414.77 594.73 413.01C596.39 411.25 599.16 411.17 600.92 412.83C641.54 451.19 694.49 472.32 750 472.32C870.73 472.32 968.96 372.59 968.96 250C968.96 248.64 968.95 247.28 968.92 245.93C968.88 243.51 970.8 241.52 973.22 241.47C975.65 241.46 977.63 243.36 977.68 245.77C977.7 247.18 977.72 248.58 977.72 250C977.72 377.42 875.56 481.08 750 481.08Z" fill="white"/>
<path d="M972.31 232.6C970.08 232.6 968.17 230.9 967.95 228.63C966.93 217.79 965.12 206.96 962.55 196.44C961.98 194.09 963.42 191.72 965.77 191.15C968.12 190.58 970.49 192.02 971.06 194.37C973.72 205.3 975.61 216.55 976.67 227.82C976.9 230.23 975.13 232.36 972.72 232.59C972.59 232.59 972.45 232.6 972.31 232.6Z" fill="white"/>
<path d="M955.661 165.83C953.951 165.83 952.321 164.82 951.621 163.14C923.931 96.98 866.231 48.28 797.271 32.87C794.911 32.34 793.421 30 793.951 27.64C794.481 25.28 796.821 23.79 799.181 24.32C870.911 40.35 930.921 90.98 959.701 159.76C960.631 161.99 959.581 164.56 957.351 165.49C956.791 165.72 956.221 165.83 955.661 165.83Z" fill="white"/>
<path d="M658.038 47.73C656.378 47.73 654.798 46.78 654.058 45.18C653.048 42.98 654.008 40.38 656.208 39.37C685.758 25.8 717.308 18.92 749.998 18.92C759.488 18.92 769.048 19.52 778.418 20.7C780.818 21 782.518 23.19 782.218 25.59C781.918 27.99 779.728 29.68 777.328 29.39C768.328 28.25 759.138 27.68 750.008 27.68C718.588 27.68 688.268 34.29 659.878 47.33C659.278 47.6 658.648 47.73 658.038 47.73Z" fill="white"/>
<path d="M627.859 64.56C626.439 64.56 625.05 63.87 624.21 62.6C622.87 60.58 623.42 57.87 625.43 56.53C630.73 53.01 636.229 49.68 641.789 46.63C643.909 45.46 646.569 46.24 647.739 48.36C648.899 50.48 648.13 53.14 646.01 54.31C640.66 57.25 635.37 60.45 630.28 63.83C629.53 64.32 628.689 64.56 627.859 64.56Z" fill="white"/>
<path d="M596.678 92.42C599.788 92.42 602.778 89.68 602.628 86.47C602.488 83.24 600.008 80.52 596.678 80.52C593.568 80.52 590.578 83.26 590.728 86.47C590.868 89.69 593.338 92.42 596.678 92.42Z" fill="white"/>
<path d="M956.428 169.42C959.538 169.42 962.528 166.68 962.378 163.47C962.238 160.24 959.758 157.52 956.428 157.52C953.318 157.52 950.328 160.26 950.478 163.47C950.618 166.69 953.088 169.42 956.428 169.42Z" fill="white"/>
<path d="M596.678 420.48C599.788 420.48 602.778 417.74 602.628 414.53C602.488 411.3 600.008 408.58 596.678 408.58C593.568 408.58 590.578 411.32 590.728 414.53C590.868 417.75 593.338 420.48 596.678 420.48Z" fill="white"/>
<path d="M734.6 362.1C734.65 362.15 734.7 362.19 734.76 362.24C734.76 362.26 734.75 362.27 734.74 362.29C734.62 362.19 734.51 362.1 734.42 362C734.11 361.7 733.66 361.32 733.09 360.95C733.75 361.34 734.26 361.77 734.6 362.1Z" fill="#1D1D1B"/>
<path d="M747.331 273.24C745.891 278.27 743.49 290.81 743.22 291.99C738.69 311.69 734.261 331.4 729.651 351.07C729.281 352.66 728.451 355.98 727.461 360.04C727.391 360.06 727.31 360.09 727.23 360.11C728.24 355.97 729.081 352.58 729.461 350.96C734.081 331.28 738.5 311.55 743.04 291.84C743.31 290.66 745.721 278.11 747.151 273.07C747.291 272.59 747.26 272.26 747.11 272.06C747.39 272.23 747.511 272.59 747.331 273.24Z" fill="#1D1D1B"/>
<path d="M746.521 191.57C736.221 212.53 725.891 233.46 715.711 254.47C714.021 257.99 712.121 261.38 710.361 264.87C707.161 271.23 706.471 273.9 707.451 274.9C706.191 274.04 706.761 271.45 710.161 264.69C711.911 261.2 713.811 257.8 715.511 254.29C725.701 233.26 736.031 212.31 746.341 191.34C754.111 175.57 762.081 159.88 769.701 144.03C770.261 142.84 770.991 141.34 771.791 139.65C771.811 139.61 771.841 139.56 771.861 139.51C772.231 139.71 772.511 139.77 772.761 139.69C773.011 139.6 775.571 138.31 778.681 137.08C778.651 137.2 778.631 137.33 778.601 137.45C775.591 138.65 773.161 139.88 772.911 139.96C772.671 140.05 772.381 139.99 772.021 139.79C771.191 141.52 770.441 143.09 769.861 144.31C762.241 160.14 754.281 175.82 746.521 191.57Z" fill="#1D1D1B"/>
<path d="M797.17 233.15C796.75 232.67 795.77 232.57 794.19 232.73C782.95 233.87 771.69 234.71 760.45 235.87C758.78 236.04 757.84 235.9 757.43 235.26C757.91 235.72 758.82 235.82 760.29 235.67C771.53 234.51 782.81 233.67 794.05 232.53C795.84 232.34 796.86 232.5 797.17 233.15Z" fill="#1D1D1B"/>
</svg>
