<svg width="1500" height="500" viewBox="0 0 1500 500" fill="none" xmlns="http://www.w3.org/2000/svg">
<path d="M406.14 451.61C406.06 452.4 405.64 452.8 404.91 452.8H404.87C404.19 452.72 403.85 452.33 403.85 451.66V451.41L408.77 393.32C408.8 393.07 408.93 392.83 409.15 392.62C409.38 392.41 409.66 392.29 410 392.26H410.17C410.28 392.26 410.42 392.31 410.57 392.41C410.73 392.51 410.85 392.66 410.93 392.86L434.68 443.28L458.17 393.03C458.31 392.75 458.47 392.55 458.66 392.44C458.84 392.33 459.01 392.27 459.15 392.27H459.19C459.53 392.27 459.81 392.36 460.04 392.55C460.27 392.73 460.39 393 460.42 393.34L465.38 451.56V451.81C465.38 452.4 465.04 452.74 464.36 452.83H464.32C463.92 452.83 463.63 452.75 463.45 452.6C463.27 452.44 463.15 452.15 463.09 451.73L458.47 397.88L435.7 446.52C435.5 446.89 435.19 447.07 434.77 447.07H434.64C434.19 447.07 433.86 446.89 433.66 446.52L410.72 397.8L406.14 451.61Z" fill="white"/>
<path d="M499.81 392.33H500.02C500.19 392.33 500.37 392.39 500.57 392.52C500.77 392.65 500.94 392.88 501.08 393.22L525.38 451.1C525.46 451.3 525.51 451.48 525.51 451.65C525.51 451.96 525.38 452.23 525.13 452.46C524.88 452.69 524.61 452.8 524.32 452.8H524.19C523.79 452.8 523.48 452.53 523.26 451.99L516.39 435.58H483.4L476.53 451.95C476.3 452.52 476.01 452.8 475.64 452.8H475.51C475.17 452.8 474.89 452.71 474.66 452.52C474.43 452.34 474.32 452.07 474.32 451.73C474.32 451.5 474.36 451.29 474.45 451.09L498.79 393.21C499.02 392.68 499.36 392.38 499.81 392.33ZM515.42 433.25L499.94 396.19L484.38 433.25H515.42Z" fill="white"/>
<path d="M530.639 443.21C530.639 442.9 530.749 442.63 530.979 442.4L531.059 442.32C531.259 442.21 531.469 442.15 531.699 442.15C532.099 442.15 532.519 442.42 532.969 442.96C535.179 445.7 537.829 447.77 540.919 449.17C544.009 450.57 547.809 451.27 552.309 451.27C556.129 451.27 559.539 450.76 562.549 449.74C565.559 448.72 567.959 447.09 569.759 444.84C571.549 442.59 572.449 439.72 572.449 436.21C572.449 433.18 571.409 430.78 569.329 428.98C567.249 427.19 564.909 425.89 562.309 425.1C559.709 424.31 556.399 423.52 552.389 422.72C547.729 421.87 543.899 420.8 540.919 419.5C537.939 418.2 535.699 416.57 534.199 414.6C532.699 412.64 531.949 410.24 531.949 407.41C531.949 404.07 532.819 401.22 534.559 398.84C536.299 396.46 538.769 394.66 541.979 393.43C545.189 392.2 548.979 391.59 553.369 391.59C557.239 391.59 560.599 392.11 563.439 393.16C566.279 394.21 568.999 395.99 571.599 398.5C571.849 398.75 571.979 399.07 571.979 399.43C571.979 399.71 571.899 399.97 571.729 400.19L571.649 400.27C571.419 400.41 571.179 400.48 570.929 400.48C570.699 400.48 570.479 400.41 570.249 400.27C570.019 400.13 569.749 399.92 569.439 399.63C567.739 398.19 566.199 397.07 564.819 396.28C563.429 395.49 561.839 394.9 560.049 394.52C558.249 394.14 556.029 393.95 553.369 393.95C550.059 393.95 546.969 394.39 544.099 395.27C541.229 396.15 538.879 397.58 537.039 399.57C535.199 401.56 534.279 404.17 534.279 407.39C534.279 411.09 535.969 413.94 539.349 415.93C542.729 417.92 547.259 419.46 552.939 420.53C557.459 421.43 561.149 422.35 564.009 423.26C566.869 424.18 569.369 425.68 571.539 427.76C573.699 429.84 574.779 432.64 574.779 436.18C574.779 440.02 573.799 443.25 571.849 445.85C569.899 448.45 567.229 450.39 563.839 451.66C560.449 452.93 556.599 453.57 552.309 453.57C547.789 453.57 543.819 452.86 540.419 451.43C537.009 450 533.939 447.64 531.199 444.33C530.819 443.94 530.639 443.55 530.639 443.21Z" fill="white"/>
<path d="M583.9 443.21C583.9 442.9 584.01 442.63 584.24 442.4L584.32 442.32C584.52 442.21 584.73 442.15 584.96 442.15C585.36 442.15 585.78 442.42 586.23 442.96C588.44 445.7 591.09 447.77 594.18 449.17C597.27 450.57 601.07 451.27 605.57 451.27C609.39 451.27 612.8 450.76 615.81 449.74C618.82 448.72 621.22 447.09 623.02 444.84C624.81 442.59 625.71 439.72 625.71 436.21C625.71 433.18 624.67 430.78 622.59 428.98C620.51 427.19 618.17 425.89 615.57 425.1C612.97 424.31 609.66 423.52 605.65 422.72C600.99 421.87 597.16 420.8 594.18 419.5C591.2 418.2 588.96 416.57 587.46 414.6C585.96 412.64 585.21 410.24 585.21 407.41C585.21 404.07 586.08 401.22 587.82 398.84C589.56 396.46 592.03 394.66 595.24 393.43C598.45 392.2 602.24 391.59 606.63 391.59C610.5 391.59 613.86 392.11 616.7 393.16C619.54 394.21 622.26 395.99 624.86 398.5C625.11 398.75 625.24 399.07 625.24 399.43C625.24 399.71 625.16 399.97 624.99 400.19L624.91 400.27C624.68 400.41 624.44 400.48 624.19 400.48C623.96 400.48 623.74 400.41 623.51 400.27C623.28 400.13 623.01 399.92 622.7 399.63C621 398.19 619.46 397.07 618.08 396.28C616.69 395.49 615.1 394.9 613.31 394.52C611.51 394.14 609.29 393.95 606.63 393.95C603.32 393.95 600.23 394.39 597.36 395.27C594.49 396.15 592.14 397.58 590.3 399.57C588.46 401.56 587.54 404.17 587.54 407.39C587.54 411.09 589.23 413.94 592.61 415.93C595.99 417.92 600.52 419.46 606.2 420.53C610.72 421.43 614.41 422.35 617.27 423.26C620.13 424.18 622.63 425.68 624.8 427.76C626.96 429.84 628.04 432.64 628.04 436.18C628.04 440.02 627.06 443.25 625.11 445.85C623.16 448.45 620.49 450.39 617.1 451.66C613.71 452.93 609.86 453.57 605.57 453.57C601.05 453.57 597.08 452.86 593.68 451.43C590.27 450 587.2 447.64 584.46 444.33C584.08 443.94 583.9 443.55 583.9 443.21Z" fill="white"/>
<path d="M687.24 392.33H687.45C687.62 392.33 687.8 392.39 688 392.52C688.2 392.65 688.37 392.88 688.51 393.22L712.81 451.1C712.89 451.3 712.94 451.48 712.94 451.65C712.94 451.96 712.81 452.23 712.56 452.46C712.31 452.69 712.04 452.8 711.75 452.8H711.62C711.22 452.8 710.91 452.53 710.69 451.99L703.82 435.58H670.83L663.96 451.95C663.73 452.52 663.44 452.8 663.07 452.8H662.94C662.6 452.8 662.32 452.71 662.09 452.52C661.86 452.34 661.75 452.07 661.75 451.73C661.75 451.5 661.79 451.29 661.88 451.09L686.22 393.21C686.45 392.68 686.79 392.38 687.24 392.33ZM702.85 433.25L687.37 396.19L671.81 433.25H702.85Z" fill="white"/>
<path d="M724.939 392.29H743.219C749.039 392.29 754.359 393.65 759.159 396.38C763.969 399.11 767.749 402.79 770.529 407.43C773.299 412.07 774.689 417.13 774.689 422.61C774.689 428.07 773.299 433.11 770.529 437.73C767.759 442.35 763.969 446.02 759.159 448.73C754.349 451.44 749.039 452.8 743.219 452.8H724.819C724.139 452.74 723.799 452.35 723.799 451.61V393.43C723.789 392.67 724.179 392.29 724.939 392.29ZM768.449 408.55C765.879 404.27 762.359 400.88 757.889 398.39C753.419 395.9 748.479 394.66 743.049 394.66H726.089V450.42H743.049C748.479 450.42 753.429 449.18 757.889 446.71C762.349 444.24 765.879 440.87 768.449 436.62C771.019 432.37 772.309 427.69 772.309 422.61C772.309 417.53 771.019 412.83 768.449 408.55Z" fill="white"/>
<path d="M787.739 407.02C790.539 402.29 794.319 398.53 799.079 395.76C803.839 392.99 809.039 391.6 814.659 391.6C820.309 391.6 825.489 392.99 830.179 395.76C834.869 398.53 838.579 402.28 841.309 407.02C844.039 411.76 845.399 416.95 845.399 422.6C845.399 428.23 844.039 433.4 841.309 438.12C838.579 442.84 834.869 446.57 830.179 449.31C825.489 452.05 820.309 453.42 814.659 453.42C809.009 453.42 803.799 452.05 799.029 449.31C794.269 446.57 790.489 442.84 787.709 438.12C784.919 433.4 783.529 428.23 783.529 422.6C783.539 416.95 784.939 411.76 787.739 407.02ZM789.859 436.92C792.399 441.26 795.869 444.69 800.249 447.2C804.629 449.72 809.439 450.97 814.669 450.97C819.899 450.97 824.679 449.71 828.999 447.2C833.329 444.68 836.729 441.26 839.219 436.94C841.709 432.61 842.949 427.84 842.949 422.61C842.949 417.35 841.709 412.55 839.219 408.19C836.729 403.84 833.329 400.4 828.999 397.89C824.669 395.37 819.899 394.12 814.669 394.12C809.439 394.12 804.629 395.39 800.249 397.91C795.869 400.44 792.409 403.88 789.859 408.24C787.319 412.59 786.039 417.39 786.039 422.62C786.039 427.81 787.319 432.58 789.859 436.92Z" fill="white"/>
<path d="M857.84 392.29H877.6C880.99 392.29 884.13 393.14 887.01 394.83C889.89 396.53 892.18 398.82 893.88 401.7C895.58 404.58 896.42 407.74 896.42 411.16C896.42 414.55 895.58 417.68 893.9 420.55C892.22 423.42 889.94 425.7 887.05 427.38C884.17 429.06 881.01 429.9 877.59 429.9H858.97V451.44C858.97 452.35 858.6 452.8 857.87 452.8H857.83C857.07 452.8 856.68 452.35 856.68 451.44V393.43C856.69 392.67 857.07 392.29 857.84 392.29ZM858.98 427.52H877.6C880.62 427.52 883.39 426.79 885.91 425.34C888.43 423.88 890.4 421.9 891.85 419.4C893.29 416.9 894.01 414.15 894.01 411.15C894.01 408.12 893.29 405.35 891.85 402.82C890.41 400.29 888.43 398.29 885.91 396.82C883.39 395.35 880.62 394.61 877.6 394.61H858.98V427.52Z" fill="white"/>
<path d="M904.69 392.29H948.11C948.84 392.29 949.21 392.67 949.21 393.43V393.47C949.21 394.26 948.84 394.66 948.11 394.66H927.63V451.61C927.63 452.4 927.26 452.8 926.53 452.8H926.49C925.7 452.8 925.3 452.4 925.3 451.61V394.66H904.69C903.9 394.66 903.5 394.26 903.5 393.47V393.43C903.51 392.67 903.9 392.29 904.69 392.29Z" fill="white"/>
<path d="M958.38 392.67C958.58 392.42 958.86 392.29 959.23 392.29H959.27C960 392.29 960.37 392.74 960.37 393.65V451.41C960.37 452.34 960 452.81 959.27 452.81H959.23C958.83 452.81 958.54 452.68 958.36 452.43C958.18 452.18 958.08 451.84 958.08 451.41V393.65C958.08 393.25 958.18 392.92 958.38 392.67Z" fill="white"/>
<path d="M977.54 407.02C980.34 402.29 984.12 398.53 988.88 395.76C993.64 392.99 998.84 391.6 1004.46 391.6C1010.11 391.6 1015.29 392.99 1019.98 395.76C1024.67 398.53 1028.38 402.28 1031.11 407.02C1033.84 411.76 1035.2 416.95 1035.2 422.6C1035.2 428.23 1033.84 433.4 1031.11 438.12C1028.38 442.84 1024.67 446.57 1019.98 449.31C1015.29 452.05 1010.11 453.42 1004.46 453.42C998.81 453.42 993.6 452.05 988.83 449.31C984.07 446.57 980.29 442.84 977.51 438.12C974.72 433.4 973.33 428.23 973.33 422.6C973.35 416.95 974.74 411.76 977.54 407.02ZM979.66 436.92C982.2 441.26 985.67 444.69 990.05 447.2C994.43 449.72 999.24 450.97 1004.47 450.97C1009.7 450.97 1014.48 449.71 1018.8 447.2C1023.13 444.68 1026.53 441.26 1029.02 436.94C1031.51 432.61 1032.75 427.84 1032.75 422.61C1032.75 417.35 1031.51 412.55 1029.02 408.19C1026.53 403.84 1023.13 400.4 1018.8 397.89C1014.47 395.37 1009.7 394.12 1004.47 394.12C999.24 394.12 994.43 395.39 990.05 397.91C985.67 400.44 982.21 403.88 979.66 408.24C977.12 412.59 975.84 417.39 975.84 422.62C975.85 427.81 977.12 432.58 979.66 436.92Z" fill="white"/>
<path d="M1048.87 451.4C1048.87 452.33 1048.5 452.8 1047.77 452.8H1047.73C1047.33 452.8 1047.04 452.67 1046.86 452.42C1046.68 452.17 1046.58 451.83 1046.58 451.4V393.43C1046.58 393.15 1046.67 392.89 1046.86 392.67C1047.04 392.44 1047.32 392.32 1047.69 392.29H1047.9C1048.3 392.29 1048.72 392.56 1049.17 393.1L1093.82 448.57V393.44C1093.82 392.68 1094.22 392.3 1095.01 392.3H1095.05C1095.79 392.3 1096.15 392.68 1096.15 393.44V451.41C1096.15 452.34 1095.78 452.81 1095.05 452.81H1094.8C1094.43 452.81 1094.02 452.56 1093.57 452.05L1048.87 396.46V451.4Z" fill="white"/>
<path d="M820.219 428.88C819.139 433.22 811.839 430.88 809.449 430.29L811.379 422.59C813.749 423.18 821.349 424.35 820.219 428.88Z" fill="white"/>
<path d="M821.3 417.61C820.32 421.57 814.23 419.55 812.25 419.06L814 412.08C815.97 412.57 822.32 413.49 821.3 417.61Z" fill="white"/>
<path d="M821.86 391.3C804.8 387.05 787.49 397.43 783.24 414.51C778.97 431.57 789.37 448.88 806.44 453.13C823.52 457.38 840.81 447 845.07 429.92C849.33 412.85 838.94 395.55 821.86 391.3ZM828.2 417.68C827.74 420.78 826.02 422.29 823.74 422.81C826.88 424.45 828.48 426.96 826.95 431.3C825.07 436.69 820.58 437.14 814.61 436.01L813.17 441.82L809.67 440.95L811.09 435.23C810.19 434.99 809.25 434.76 808.31 434.5L806.87 440.25L803.37 439.38L804.82 433.57C804.01 433.36 803.18 433.14 802.33 432.93L797.78 431.79L799.51 427.79C799.51 427.79 802.09 428.47 802.04 428.41C803.03 428.66 803.48 428.01 803.64 427.58L805.94 418.41C806.07 418.45 806.19 418.48 806.31 418.51C806.16 418.45 806.04 418.41 805.94 418.39L807.57 411.84C807.61 411.1 807.36 410.17 805.94 409.81C805.94 409.75 803.41 409.17 803.41 409.17L804.34 405.44L809.15 406.64V406.65C809.88 406.84 810.62 407.01 811.39 407.18L812.83 401.43L816.31 402.3L814.92 407.93C815.85 408.15 816.8 408.36 817.72 408.6L819.11 403L822.61 403.87L821.17 409.62C825.61 411.15 828.84 413.43 828.2 417.68Z" fill="white"/>
<path d="M1012.03 50.61C1002.38 47.85 991.939 51.88 986.649 60.37L840.389 294.69V68.53C840.389 58.54 833.979 49.86 824.429 46.93C814.879 44 804.699 47.57 799.059 55.89L667.559 250.68L662.999 72.67C662.729 62.79 656.169 54.31 646.669 51.57C637.159 48.83 627.099 52.51 621.559 60.81L436.449 340.54H489.739L620.349 143.16L624.789 316.33C625.059 326.72 631.929 335.65 641.909 338.56C651.879 341.46 662.489 337.64 668.289 329.03L795.949 139.92V343.41H862.359L932.929 230.36H983.979V340.54H1028.42V72.34C1028.42 62.3 1021.68 53.36 1012.03 50.61ZM950.169 202.74L983.979 148.57V202.74H950.169Z" fill="white"/>
</svg>
