<svg width="1500" height="500" viewBox="0 0 1500 500" fill="none" xmlns="http://www.w3.org/2000/svg">
<path d="M1221 155.3C1206.2 144.7 1185.7 138.1 1159.5 135.5C1149.4 134.5 1127.3 134 1093.3 134H1052.1C1051 134 1050 134.9 1050 136.1V364.7C1050 365.8 1050.9 366.7 1052 366.7H1103.7C1132.6 366.7 1150.2 366.6 1156.6 366.4C1190 365.3 1215.9 354.1 1234.4 332.8C1255 309.7 1266.2 279.7 1265.7 248.8C1265.7 230.9 1261.7 213.1 1254.1 196.8C1247.1 180.3 1235.7 166 1221 155.3ZM1186.7 296.2C1175.8 308.9 1160.7 315.2 1141.7 315.2H1117.3C1116.1 315.2 1115.1 314.2 1115.1 313V187.2C1115.1 186 1116.1 185 1117.3 185H1140.6C1159.2 185 1174.1 191.1 1185.4 203.3C1196.7 215.1 1202.3 230.2 1202.3 248.8C1202.2 268.5 1197 284.2 1186.7 296.2Z" fill="white"/>
<path d="M1358 312C1357.1 312 1356.4 311.3 1356.4 310.4V274.8C1356.4 273.9 1357.1 273.2 1358 273.2H1442.7C1443.6 273.2 1444.3 272.5 1444.3 271.7C1444.3 271.7 1444.3 271.7 1444.3 271.6V221.5C1444.3 220.6 1443.6 219.9 1442.8 219.9C1442.8 219.9 1442.8 219.9 1442.7 219.9H1358C1357.1 219.9 1356.4 219.2 1356.4 218.3V186C1356.4 185.1 1357.1 184.4 1358 184.4H1446.5V133.2H1289.8C1288.9 133.2 1288.2 133.9 1288.2 134.8L1287.9 364C1287.9 364.9 1288.6 365.6 1289.5 365.6H1446.6V312H1358Z" fill="white"/>
<path d="M299.7 133.2H235.5C235.2 133.2 234.9 133.4 234.7 133.7L178.4 252.5C178.2 252.9 177.7 253.1 177.2 252.9C177 252.8 176.9 252.7 176.8 252.5L120.6 133.8C120.5 133.5 120.2 133.3 119.8 133.3H54.5004C54.0004 133.3 53.6004 133.6 53.6004 134.1C53.6004 148.9 53.4004 354.1 53.4004 365.7C53.4004 367.5 53.7004 365 54.2004 365.7C54.7004 366.4 109.8 365.7 117.2 365.7C117.7 365.7 118 365.3 118 364.9V259.2C118 258.7 118.4 258.3 118.8 258.3C119.1 258.3 119.4 258.5 119.6 258.8L176 364.1C176.2 364.5 176.7 364.7 177.1 364.5C177.3 364.4 177.4 364.3 177.5 364.1L231.3 255.7C231.5 255.3 232 255.1 232.4 255.3C232.7 255.4 232.9 255.8 232.9 256.1V364.7C232.9 365.2 233.3 365.5 233.7 365.5H299.9C300.4 365.5 300.8 365.1 300.8 364.7L300.6 134C300.6 133.6 300.2 133.2 299.7 133.2Z" fill="white"/>
<path d="M906.2 126.1C871.5 126.1 842.7 138.2 819.7 162.5C797.2 186.2 786 215.5 786 250.3C786 285.1 797.2 314.2 819.7 337.7C842.6 361.8 871.4 373.9 906.2 373.9C940.9 373.9 969.8 361.9 992.9 338C1015.3 314.5 1026.5 285.2 1026.5 250.3C1026.5 215.7 1015.2 186.5 992.6 162.5C969.5 138.3 940.7 126.1 906.2 126.1ZM966.2 233.1C964.4 246.4 957.1 252.7 947.3 254.5C960.7 261.6 967.6 272.2 961 290.5C955.3 307 943.6 312.6 928 312.6C922 312.6 915.5 311.8 908.5 310.5L902.6 335.1L887.6 331.3L893.7 307.1C889.9 306.1 885.8 305.1 881.8 304.1L875.7 328.5L860.8 324.7L866.9 300C863.3 298.9 859.8 298.2 856.2 297.2L836.7 292.4L844.1 275.5C844.1 275.5 855.2 278.6 855 278.3C857.9 279.2 860.9 277.6 861.8 274.8L878.3 208.3C878.8 204.1 875.7 200.2 871.5 199.8C871.8 199.5 860.6 197 860.6 197L864.7 181.1L885.2 186.1C888.5 186.8 891.5 187.6 894.8 188.4L900.9 164L915.9 167.8L909.8 191.7C913.9 192.8 917.9 193.6 921.7 194.5L927.4 170.8L942.4 174.6L936.3 199.2C955 205.4 969 215.2 966.2 233.1Z" fill="white"/>
<path d="M927.5 266.4C927.4 266.4 927.4 266.3 927.3 266.3C918.5 258.6 901.301 255.8 894.401 254.3L893.901 256.4C893.401 256.9 893.1 257.5 893 258.2L886.3 284.9C885.8 287 887 289 889.1 289.6C902.2 293 929.2 299.7 933.5 282.3C935.2 275.4 932.4 270.3 927.5 266.4Z" fill="white"/>
<path d="M909.301 208.3C907.201 207.8 905.101 209.1 904.601 211.1L898.601 234.6C898.401 235.4 898.501 236.2 898.701 236.9L898.201 238.9C904.401 240.6 920.501 245.7 929.901 241.2C933.801 239.7 936.801 236.9 938.001 232C942.301 215.9 920.501 210.9 909.301 208.3Z" fill="white"/>
<path d="M761.601 133.2H699.401C698.801 133.2 698.301 133.7 698.301 134.3V253.6C698.301 254.2 697.801 254.7 697.101 254.7C696.801 254.7 696.401 254.5 696.201 254.3L602.201 133.6C602.001 133.3 601.701 133.2 601.301 133.2C597.101 133.2 569.601 133.2 553.201 133.2C551.501 133.2 550.001 134.4 549.601 136L523.901 224.7C523.501 226.8 524.601 229 526.501 230L565.401 251C568.901 252.9 569.801 255.4 568.401 258.3L504.301 361.9C503.601 363.1 504.001 364.6 505.101 365.3C505.501 365.5 505.901 365.7 506.401 365.7H601.901C602.501 365.7 603.101 365.2 603.101 364.6V247.2C603.101 246.6 603.601 246.1 604.201 246.1C604.601 246.1 604.901 246.3 605.101 246.5L697.401 365.1C697.601 365.4 697.901 365.5 698.301 365.5H761.601C762.201 365.5 762.801 365 762.801 364.4V134.3C762.701 133.7 762.201 133.2 761.601 133.2Z" fill="white"/>
<path d="M497.1 286.5L458.2 265.5C455.5 264.5 454.1 261.6 455.1 258.9C455.2 258.7 455.3 258.5 455.4 258.2L532.1 134C532.2 133.7 532.1 133.4 531.9 133.3C531.8 133.3 531.7 133.2 531.7 133.2H454C453.7 133.2 453.5 133.4 453.5 133.7V187.5C453.5 187.6 453.5 187.7 453.5 187.8L422.8 234.6C422.6 234.8 422.3 234.9 422.1 234.7C422 234.7 422 234.6 422 234.6L389.6 186.7C389.6 186.6 389.6 186.5 389.6 186.4V133.8C389.6 133.5 389.4 133.3 389.1 133.3H322.1C321.8 133.3 321.6 133.5 321.6 133.8V207.2C321.6 207.3 321.6 207.4 321.6 207.5L388 305C388 305.1 388 305.2 388 305.3V365.1C388 365.4 388.2 365.6 388.5 365.6H477.8C478.2 365.6 478.6 365.3 478.7 365L499.8 292C500.1 289.7 499 287.6 497.1 286.5Z" fill="white"/>
</svg>
