<svg width="1500" height="500" viewBox="0 0 1500 500" fill="none" xmlns="http://www.w3.org/2000/svg">
<path d="M378.92 308.01H355.54V203.59H380.48L414.3 255.96L423.03 269.99H424.59L424.28 255.96V203.59H447.66V308.01H422.72L390.3 258.61L380.17 242.56H378.61L378.92 258.61V308.01Z" fill="white"/>
<path d="M553.241 308.01H473.601V203.59H553.241V224.63H496.981V245.05H550.911V265.93H496.981V286.97H553.241V308.01Z" fill="white"/>
<path d="M621.791 309.57C591.401 309.57 575.971 293.36 575.971 267.33V203.59H599.191V267.02C599.191 281.98 604.491 286.97 621.791 286.97C638.931 286.97 644.231 281.98 644.231 267.02V203.59H667.611V267.33C667.611 293.36 652.181 309.57 621.791 309.57Z" fill="white"/>
<path d="M740.261 308.01H716.881V224.63H683.221V203.59H773.931V224.63H740.271V308.01H740.261Z" fill="white"/>
<path d="M813.561 308.01H790.181V203.59H838.181C863.121 203.59 876.991 215.12 876.991 235.38C876.991 252.37 868.571 262.5 850.651 264.06V265.62C859.691 268.43 864.051 273.88 868.111 281.83L881.361 308.01H854.091L841.781 283.85C837.111 274.81 833.991 270.91 822.921 270.91H813.571V308.01H813.561ZM813.561 224.63V251.59H839.281C850.191 251.59 853.771 248.32 853.771 238.03C853.771 228.06 850.181 224.63 839.281 224.63H813.561Z" fill="white"/>
<path d="M946.951 309.57C915.781 309.57 896.771 288.37 896.771 255.8C896.771 223.23 915.781 202.03 946.951 202.03C978.121 202.03 996.98 223.23 996.98 255.8C996.98 288.37 978.121 309.57 946.951 309.57ZM946.951 286.97C964.871 286.97 972.04 280.27 972.04 255.8C972.04 231.33 964.871 224.63 946.951 224.63C929.031 224.63 921.701 231.33 921.701 255.8C921.701 280.27 929.031 286.97 946.951 286.97Z" fill="white"/>
<path d="M1042.52 308.01H1019.14V203.59H1044.08L1077.89 255.96L1086.62 269.99H1088.18L1087.87 255.96V203.59H1111.25V308.01H1086.31L1053.9 258.61L1043.77 242.56H1042.21L1042.52 258.61V308.01Z" fill="white"/>
<path d="M1160.58 308.01H1137.2V203.59H1185.2C1207.64 203.59 1223.7 217.15 1223.7 240.37C1223.7 263.75 1207.64 276.99 1185.2 276.99H1160.58V308.01ZM1186.14 224.63H1160.58V256.11H1186.14C1196.89 256.11 1200.48 252.84 1200.48 240.37C1200.48 227.75 1196.89 224.63 1186.14 224.63Z" fill="white"/>
<path d="M1252.01 308.01H1227.7L1266.19 203.59H1300.17L1338.67 308.01H1313.26L1304.84 284.79H1260.57L1252.01 308.01ZM1274.15 247.7L1268.23 263.91H1297.22L1291.3 247.7L1283.67 224.17H1282.11L1274.15 247.7Z" fill="white"/>
<path d="M1395.8 308.01H1372.42V270.3L1331.74 203.6H1358.23L1374.6 231.03L1383.63 246.46H1385.19L1394.08 231.03L1410.44 203.6H1436.47L1395.79 270.3V308.01H1395.8Z" fill="white"/>
<path d="M141.11 206.33C150.91 205.33 159.72 197.45 157.47 185.97C152.83 171.19 133.79 171.04 124.89 182.05C114.84 194.51 126.25 207.85 141.1 206.27" fill="white"/>
<path d="M70.5601 242.1C65.0501 245.18 70.7901 250.72 77.3501 252.55C82.7801 254.06 88.6201 252.85 89.0001 248.18C88.5001 241.08 76.3101 238.89 70.5801 242.1" fill="white"/>
<path d="M180.071 237C189.761 236.91 202.841 229.22 201.531 212.43C198.041 192.76 175.571 189.21 164.101 201.87C150.521 216.9 162.581 237.16 180.071 237Z" fill="white"/>
<path d="M165.611 250.76C164.841 235.64 146.481 230.98 135.081 239.37C122.251 248.87 130.061 264.72 144.581 266.75C154.081 268.11 164.861 262.36 165.571 250.76" fill="white"/>
<path d="M106.63 284.04C114.07 286.86 122.77 285.4 124.48 277.92C125.48 266.96 109.7 261.76 100.69 265.58C91.1104 269.65 96.0704 280.04 106.63 284.04Z" fill="white"/>
<path d="M65.3605 273.41C61.1805 274.09 64.6905 280.05 70.4105 284.27C75.2405 287.84 81.2705 289.54 82.8905 286.2C84.4905 280 70.3205 272.62 65.3605 273.42" fill="white"/>
<path d="M261.05 185.7C265.69 185.78 269.36 180.35 267.04 170.15C263.5 157.62 254.48 151.96 249.87 156.27C242.42 163.27 250.88 185.54 261.05 185.7Z" fill="white"/>
<path d="M243.18 226.59C249.79 225.73 258.47 217.56 257.04 202.03C256.95 201.46 256.85 200.67 256.73 200.13C253.54 184.06 238.21 178.58 229.82 190.55C219.76 204.87 228.47 228.45 243.18 226.59Z" fill="white"/>
<path d="M126.72 295.82C114.75 301.37 119.51 312.8 131.7 316.99C140.71 320.07 152.32 318.2 156.14 309.74C159.89 296.92 140.07 289.63 126.71 295.82" fill="white"/>
<path d="M272.751 218.36C269.571 211.02 262.271 213.55 258.291 223.4C253.201 235.99 257.041 250.13 264.621 246.67C269.011 244.66 273.741 236.28 274.041 225.73C274.091 223.21 273.661 220.71 272.751 218.36Z" fill="white"/>
<path d="M198.331 293.43C205.121 285.28 206.481 275.78 201.891 268.11C210.041 272.71 219.631 271.06 227.691 263.64C222.261 272.97 220.491 282.73 223.221 289.11L222.661 288.87C217.941 286.96 209.081 287.16 198.221 293.43M227.901 293.81C241.681 297.04 256.601 278.73 258.711 262.03C259.501 246.34 247.581 244.24 236.811 252.92C235.811 253.72 234.611 254.93 233.661 255.8C245.321 232.86 229.171 214.57 210.581 221.61C196.041 227.12 186.211 246.51 195.811 262.34C171.031 250.62 148.821 275.63 155.531 291.9C155.611 292.09 163.851 311.27 189.151 300.53C175.711 314.73 180.791 325.97 193.961 325.81C210.791 325.62 232.861 307.4 227.901 293.82" fill="white"/>
<path d="M143.881 326.1C135.921 332.1 139.62 339.57 151.47 341.5C161.491 343.13 176.191 340.14 182.441 332.31C183.121 331.32 183.581 330.19 183.801 329.01C185.271 318.04 157.27 316 143.86 326.1" fill="white"/>
<path d="M101.351 330.23C95.7708 332.08 98.4208 337.36 106.901 341.32C114.531 344.89 126.441 346.75 132.341 343.37C132.971 342.95 133.471 342.37 133.791 341.69C136.181 334.98 110.321 327.29 101.351 330.23Z" fill="white"/>
<path d="M280.641 234.05C278.141 231.93 271.141 251.54 272.491 256.87C272.871 258.34 273.851 258.01 275.121 255.99C276.951 253.11 279.451 246.32 280.701 238.92C280.881 237.64 281.321 234.64 280.621 234.05" fill="white"/>
<path d="M245.8 297.7C245.73 300.65 248.05 300.54 251.69 297.4C257.9 291.5 262.79 284.34 266.01 276.4C266.51 274.93 267.56 271.88 266.36 270.97C262.49 267.97 245.99 289.46 245.79 297.72" fill="white"/>
<path d="M205.21 330.89C204.14 334.37 207.86 334.65 214.44 331.6C222.21 328.02 233.72 319.65 239.54 311.87C240.34 310.65 241.7 308.6 241.14 307.36C238.58 301.77 208.03 321.8 205.21 330.89Z" fill="white"/>
</svg>
