<svg width="1500" height="500" viewBox="0 0 1500 500" fill="none" xmlns="http://www.w3.org/2000/svg">
<path d="M1269.42 190.787C1266.1 175.618 1252.72 164.777 1237.21 164.677C1221.38 164.277 1207.49 175.085 1203.98 190.521C1203.48 193.75 1203.28 197.013 1203.38 200.286V275.756H1205.38L1266.3 275.423L1270.49 275.09V243.93C1270.22 235.43 1270.49 197.423 1269.42 190.787ZM1257.67 196.891C1254.14 188.191 1247.09 181.377 1238.26 178.159C1243.2 176.695 1248.54 177.96 1252.29 181.477C1256.85 185.184 1258.93 191.154 1257.67 196.891Z" fill="white"/>
<path d="M1338.33 149.23C1282.63 93.2243 1192.15 92.8803 1136.28 148.464C1080.4 204.048 1080.26 294.509 1135.98 350.526C1191.7 406.532 1282.16 406.876 1338.04 351.281C1393.92 295.697 1394.05 205.236 1338.33 149.23ZM1278.2 302.532C1275.64 319.344 1262.7 332.682 1245.97 335.756C1245.39 335.889 1244.8 336 1244.2 336.111C1221.05 340.273 1198.91 324.881 1194.75 301.733C1194.3 297.661 1194.06 293.566 1194.06 289.471C1194.06 287.13 1194.14 284.8 1194.28 282.469V211.45C1193.93 202.905 1194.62 194.361 1196.34 185.994C1200.81 169.493 1214.95 157.408 1231.96 155.566C1249.51 153.635 1266.45 162.724 1274.54 178.426C1277.39 183.941 1278.93 190.033 1279.05 196.225V244.729C1279.05 244.929 1279.05 245.262 1279.05 245.262C1279.83 264.348 1279.54 283.468 1278.2 302.532Z" fill="white"/>
<path d="M204.935 239.014C205.146 230.98 203.37 223.013 199.753 215.833C196.424 209.486 191.319 204.248 185.072 200.752C178.092 197.091 170.291 195.26 162.412 195.437C154.6 195.248 146.865 197.068 139.952 200.752C133.638 204.237 128.5 209.541 125.204 215.966C121.787 222.769 120 230.27 120 237.871C120 238.293 120.011 238.726 120.022 239.147C119.822 247.204 121.598 255.193 125.204 262.406C128.511 268.787 133.649 274.036 139.952 277.487C146.865 281.138 154.6 282.947 162.412 282.736C170.302 282.969 178.114 281.138 185.072 277.42C191.353 273.958 196.468 268.709 199.753 262.34C203.171 255.537 204.957 248.025 204.957 240.413C204.957 239.946 204.946 239.48 204.935 239.014ZM179.823 239.147C179.912 243.464 179.168 247.748 177.626 251.776C176.438 254.983 174.374 257.801 171.645 259.876C168.926 261.829 165.63 262.817 162.279 262.673C159.05 262.739 155.876 261.763 153.246 259.876C150.55 257.746 148.53 254.883 147.398 251.642C145.978 247.925 145.256 243.975 145.256 240.002C145.256 239.713 145.256 239.436 145.267 239.147C145.145 234.886 145.867 230.636 147.398 226.664C148.508 223.423 150.538 220.583 153.246 218.485C155.943 216.643 159.15 215.711 162.412 215.833C165.686 215.755 168.904 216.732 171.578 218.618C174.286 220.693 176.361 223.468 177.559 226.664C179.057 230.448 179.823 234.487 179.823 238.559V239.147Z" fill="white"/>
<path d="M213.047 216.765H236.96V228.328H237.427C237.97 224.677 239.668 221.304 242.276 218.696C244.884 216.432 248.257 215.245 251.708 215.378C252.707 215.278 253.706 215.278 254.693 215.378C255.648 215.489 256.58 215.711 257.479 216.044V235.974C256.424 235.552 255.337 235.219 254.227 234.975C253.018 234.764 251.797 234.653 250.576 234.642C247.969 234.576 245.383 235.097 242.997 236.174C241.033 237.139 239.446 238.726 238.481 240.69C237.393 243.042 236.872 245.606 236.949 248.202V280.827H213.047V216.765Z" fill="white"/>
<path d="M269.718 279.806C266.577 278.208 263.914 275.8 262.005 272.826C260.186 269.719 259.32 266.124 259.542 262.528C259.442 258.767 260.541 255.071 262.66 251.964C265.035 248.968 268.186 246.671 271.76 245.317C276.343 243.475 281.181 242.377 286.108 242.066L312.685 240.268V253.551L290.358 255.149C288.371 255.105 286.418 255.682 284.776 256.814C283.611 257.746 282.945 259.177 282.978 260.664C282.934 262.207 283.689 263.66 284.976 264.515C286.574 265.469 288.427 265.935 290.291 265.846C292 265.869 293.687 265.558 295.274 264.914C296.627 264.348 297.793 263.427 298.658 262.262C299.291 261.13 299.546 259.832 299.391 258.545V238.615C299.468 236.939 298.814 235.319 297.593 234.165C296.006 233 294.053 232.434 292.078 232.567C290.08 232.445 288.083 232.933 286.363 233.965C285.109 234.709 284.221 235.94 283.899 237.35V237.882H262.538V237.15C262.827 232.978 264.325 228.983 266.855 225.654C269.585 222.225 273.224 219.617 277.352 218.141C282.512 216.221 287.994 215.3 293.498 215.422C298.88 215.311 304.229 216.266 309.245 218.208C313.339 219.817 316.935 222.48 319.676 225.92C322.139 229.238 323.448 233.277 323.393 237.416V281.338H299.413V272.504C298.225 274.469 296.716 276.211 294.963 277.687C293.199 279.151 291.168 280.261 288.982 280.938C286.552 281.715 284.022 282.092 281.469 282.07C277.43 282.314 273.391 281.537 269.718 279.806Z" fill="white"/>
<path d="M332.637 216.765H356.617V228.728H357.083C358.415 224.744 360.967 221.271 364.396 218.829C367.98 216.421 372.241 215.212 376.558 215.378C382.75 215.034 388.764 217.475 392.97 222.025C396.998 227.096 398.996 233.499 398.552 239.969V281.426H374.572V245.084C374.794 242.377 374.061 239.68 372.508 237.439C370.843 235.541 368.391 234.509 365.861 234.653C364.152 234.62 362.465 235.075 361.011 235.985C359.635 236.895 358.548 238.193 357.893 239.702C357.083 241.378 356.695 243.22 356.761 245.084V281.293H332.648V216.765H332.637Z" fill="white"/>
<path d="M450.695 216.765V227.784H450.163C449.231 225.299 447.788 223.035 445.913 221.148C444.059 219.229 441.785 217.775 439.266 216.898C436.625 215.855 433.806 215.334 430.965 215.367C426.105 215.223 421.311 216.543 417.205 219.151C413.332 221.881 410.347 225.687 408.638 230.115C406.685 235.441 405.698 241.078 405.698 246.749C405.698 247.159 405.698 247.581 405.709 247.992C405.354 253.706 406.13 259.432 407.973 264.859C409.659 269.131 412.633 272.782 416.473 275.29C420.579 277.775 425.306 279.029 430.1 278.885C432.985 278.93 435.848 278.497 438.6 277.62C441.019 276.888 443.283 275.689 445.247 274.102C447.056 272.604 448.509 270.718 449.497 268.587H449.963V279.74C450.007 281.892 449.075 283.945 447.433 285.321C445.213 286.953 442.484 287.74 439.732 287.518C437.412 287.596 435.115 287.041 433.085 285.921C431.809 285.255 430.754 284.245 430.033 283.002H407.04V283.535C407.473 287.285 409.138 290.781 411.757 293.5C414.919 296.729 418.814 299.148 423.12 300.535C428.668 302.355 434.494 303.209 440.331 303.065C446.545 303.198 452.748 302.188 458.596 300.08C463.235 298.393 467.329 295.475 470.425 291.635C473.189 288.173 474.664 283.845 474.609 279.407V216.765H450.695ZM450.429 248.846C450.462 251.432 450.041 253.995 449.164 256.425C448.465 258.334 447.222 259.998 445.58 261.208C442.284 263.505 437.901 263.505 434.616 261.208C432.985 259.954 431.742 258.278 431.032 256.359C430.199 254.039 429.767 251.598 429.767 249.146V248.78C429.7 246.172 430.155 243.575 431.098 241.145C431.831 239.247 433.074 237.594 434.683 236.362C437.945 234.143 442.24 234.143 445.513 236.362C447.155 237.594 448.398 239.281 449.097 241.211C449.985 243.509 450.429 245.95 450.429 248.413V248.846Z" fill="white"/>
<path d="M497.403 278.619C492.465 275.989 488.437 271.939 485.841 266.989C483 261.43 481.602 255.227 481.79 248.979C481.624 242.743 483 236.562 485.774 230.969C488.371 226.098 492.343 222.103 497.204 219.473C502.586 216.654 508.6 215.256 514.681 215.422C520.729 215.278 526.71 216.643 532.092 219.406C536.908 221.97 540.881 225.865 543.522 230.636C546.34 235.852 547.739 241.722 547.572 247.648V254.295H493.486V241.012H536.475L525.312 253.573V244.33C525.367 242.055 524.946 239.78 524.047 237.683C523.381 235.918 522.194 234.387 520.662 233.299C517.344 231.346 513.216 231.346 509.898 233.299C508.356 234.398 507.135 235.885 506.381 237.616C505.515 239.724 505.094 241.988 505.116 244.263V253.629C505.071 255.915 505.526 258.178 506.447 260.276C507.213 262.029 508.489 263.505 510.098 264.526C511.84 265.569 513.849 266.102 515.88 266.057C517.688 266.135 519.486 265.769 521.128 264.992C522.371 264.426 523.503 263.638 524.446 262.662C525.068 262.007 525.567 261.241 525.911 260.398H547.239V261.13C546.64 263.438 545.774 265.669 544.643 267.777C543.2 270.429 541.314 272.804 539.061 274.824C536.331 277.265 533.146 279.14 529.695 280.339C525.134 281.859 520.352 282.58 515.547 282.469C509.277 282.691 503.041 281.371 497.403 278.619Z" fill="white"/>
<path d="M648.817 227.718C648.972 222.047 647.618 216.421 644.888 211.45C642.358 206.933 638.608 203.227 634.058 200.753C628.765 198.111 622.906 196.813 616.991 196.957H591.746V215.7H611.076C614.539 215.489 617.967 216.554 620.708 218.685C622.95 220.838 624.193 223.79 624.193 226.863C624.193 227.163 624.182 227.474 624.16 227.784C624.426 231.191 623.161 234.52 620.708 236.895C617.99 239.081 614.561 240.168 611.076 239.946H591.746V258.223H616.658C622.562 258.389 628.432 257.113 633.736 254.494C638.386 252.153 642.258 248.502 644.888 243.997C647.485 239.314 648.828 234.054 648.828 228.705C648.828 228.373 648.828 228.051 648.817 227.718ZM578.984 196.957V281.271H603.764V196.957H578.984Z" fill="white"/>
<path d="M676.65 191.575C671.934 187.07 664.499 187.07 659.783 191.575L659.55 191.808C655.255 196.225 655.355 203.294 659.783 207.588C664.499 212.093 671.934 212.093 676.65 207.588C676.794 207.455 676.938 207.311 677.072 207.166C681.266 202.75 681.077 195.77 676.65 191.575ZM656.254 216.765V281.271H680.179V216.765H656.254Z" fill="white"/>
<path d="M689.477 196.957H713.401V281.271H689.488V196.957H689.477Z" fill="white"/>
<path d="M723.035 196.957H746.949V281.271H723.035V196.957Z" fill="white"/>
<path d="M832.451 197.157H817.104V217.087L824.916 246.993L829.477 264.459L833.915 281.471H859.96L832.451 197.157ZM837.566 246.993H796.308L791.059 264.459H842.682L837.566 246.993ZM801.357 196.957L773.859 281.071H799.904L804.231 264.459L808.792 246.993L816.638 216.898H824.749V196.957H801.357Z" fill="white"/>
<path d="M935.17 248.913C935.314 242.699 934.326 236.506 932.24 230.647C930.576 226.098 927.591 222.136 923.673 219.284C919.601 216.599 914.796 215.234 909.913 215.367C907.073 215.334 904.254 215.855 901.613 216.898C899.083 217.864 896.808 219.417 894.966 221.415C893.08 223.412 891.626 225.787 890.716 228.384H890.117V216.765H866.203L866.736 301.667H890.649V270.108H891.115C892.081 272.582 893.523 274.846 895.366 276.755C897.263 278.641 899.527 280.106 902.012 281.071C904.731 282.103 907.616 282.625 910.513 282.603C915.251 282.68 919.901 281.293 923.807 278.619C927.724 275.756 930.698 271.772 932.307 267.189C934.215 261.752 935.192 256.037 935.192 250.289C935.192 249.823 935.181 249.368 935.17 248.913ZM910.912 248.979C910.957 251.587 910.535 254.173 909.647 256.625C908.948 258.589 907.705 260.32 906.063 261.607H905.797C904.31 262.75 902.49 263.383 900.614 263.405C898.661 263.438 896.742 262.828 895.166 261.674C893.523 260.42 892.281 258.711 891.582 256.758C890.705 254.428 890.25 251.964 890.25 249.479V249.046C890.206 246.394 890.649 243.764 891.582 241.278C892.281 239.347 893.523 237.661 895.166 236.429C896.753 235.286 898.661 234.676 900.614 234.698C902.556 234.664 904.443 235.275 905.996 236.429C907.628 237.672 908.87 239.358 909.592 241.278C910.457 243.608 910.912 246.061 910.912 248.547V248.979Z" fill="white"/>
<path d="M1011.31 248.913C1011.45 242.699 1010.46 236.506 1008.39 230.647C1006.71 226.098 1003.73 222.136 999.81 219.284C995.738 216.599 990.933 215.234 986.061 215.367C983.22 215.334 980.402 215.855 977.75 216.898C975.219 217.864 972.945 219.417 971.114 221.415C969.216 223.412 967.762 225.787 966.853 228.384H966.331V216.765H942.406L942.872 301.667H966.797V270.108H967.252C968.217 272.582 969.66 274.846 971.513 276.755C973.4 278.641 975.663 280.106 978.149 281.071C980.868 282.114 983.753 282.636 986.66 282.603C991.388 282.68 996.037 281.293 999.943 278.619C1003.87 275.756 1006.83 271.772 1008.45 267.189C1010.35 261.752 1011.33 256.037 1011.33 250.289C1011.33 249.823 1011.32 249.368 1011.31 248.913ZM987.06 248.979C987.115 251.576 986.716 254.173 985.861 256.625C985.162 258.589 983.919 260.32 982.277 261.607H982.011C980.524 262.75 978.704 263.383 976.829 263.405C974.864 263.438 972.956 262.828 971.38 261.674C969.727 260.42 968.484 258.711 967.785 256.758C966.908 254.428 966.464 251.964 966.464 249.49V249.046C966.409 246.394 966.864 243.764 967.785 241.278C968.484 239.347 969.727 237.661 971.38 236.429C972.956 235.275 974.864 234.664 976.829 234.698C978.759 234.664 980.646 235.275 982.211 236.429C983.831 237.672 985.073 239.358 985.795 241.278C986.638 243.575 987.071 246.016 987.071 248.458C987.071 248.624 987.06 248.802 987.06 248.979Z" fill="white"/>
</svg>
