<svg width="1500" height="500" viewBox="0 0 1500 500" fill="none" xmlns="http://www.w3.org/2000/svg">
<path d="M750.001 459.6C598.701 459.6 447.301 459.6 296.001 459.6C231.101 459.6 178.801 433.5 138.101 383.4C113.401 353.1 98.8008 318.1 94.0008 279.7C86.8008 221 100.901 167.4 138.001 120.7C173.401 76 219.901 50.4 276.201 42.3C284.601 41.1 293.201 40.5 301.701 40.5C602.501 40.4 903.201 40.5 1204 40.4C1250.2 40.4 1291 55.1 1326.9 83.7C1369.4 117.6 1395.7 162 1404.3 215.2C1416.1 288 1395.9 351.9 1342.9 404.2C1312.6 434 1275.9 451.7 1233.8 457.8C1225.4 459 1216.8 459.6 1208.3 459.6C1055.6 459.7 902.801 459.6 750.001 459.6ZM469.401 430.5C532.401 430.5 595.301 430.5 658.301 430.5C667.301 430.5 667.301 430.5 667.301 421.7C667.301 307.2 667.301 192.8 667.301 78.3C667.301 69.6 667.301 69.6 658.801 69.6C538.501 69.6 418.201 69.6 297.901 69.6C293.501 69.6 289.101 69.5 284.801 70C238.601 75.4 198.801 94.1 167.001 128.1C129.001 168.7 112.601 217.2 118.601 272.4C122.901 312.7 139.601 347.9 168.101 377.1C201.601 411.4 242.101 430.3 290.601 430.4C350.201 430.6 409.801 430.5 469.401 430.5ZM1050.2 253.3C1049.6 253.5 1049.1 253.7 1048.5 253.9C1041.9 245.1 1035.3 236.3 1028.7 227.6C1021 217.3 1013.5 206.8 1005.5 196.7C1001 191.1 990.301 189.4 983.001 192.3C976.201 195.1 976.801 201.4 976.201 207.1C976.101 208.1 976.201 209.2 976.201 210.2C976.201 237.2 976.201 264.3 976.201 291.3C976.201 293.6 976.201 295.9 976.501 298.1C977.801 307.4 982.301 310.5 993.401 310C1002.3 309.5 1006.4 305.6 1006.5 296.8C1006.7 282.2 1006.6 267.7 1006.7 253.1C1006.7 251.4 1007 249.7 1007.2 246.9C1009.2 249.3 1010.4 250.6 1011.5 252.1C1024.2 268.8 1036.8 285.6 1049.6 302.3C1055.4 309.9 1063.1 312.1 1072.2 309.2C1077.6 307.5 1080.5 303.9 1080.5 298.2C1080.5 292.8 1080.5 287.4 1080.5 282C1080.5 256.2 1080.5 230.4 1080.5 204.6C1080.5 195.3 1077.7 192.3 1068.5 191.3C1065.6 191 1062.7 191.2 1059.8 191.6C1054.7 192.3 1051.4 195.1 1051 200.5C1050.7 204.6 1050.3 208.8 1050.3 212.9C1050.1 226.3 1050.2 239.8 1050.2 253.3ZM1095.1 250.1C1095.1 265.5 1095 280.9 1095.1 296.3C1095.2 305.1 1099.4 309.8 1108 309.9C1130.9 310.1 1153.8 310.1 1176.8 309.9C1183.8 309.8 1186.9 306.7 1188.4 300C1191.4 285.7 1186.5 279.4 1172.1 279C1170.4 279 1168.8 279 1167.1 279C1155.4 279 1143.8 278.8 1132.1 279.1C1126.5 279.3 1125.7 276.7 1125.7 271.9C1125.7 267.3 1126.6 265.1 1131.9 265.3C1140.4 265.7 1149 265.5 1157.5 265.4C1167.7 265.3 1171.3 261.5 1171.4 250.6C1171.5 239.6 1168.1 235.5 1158 235.2C1150.1 235 1142.2 235.1 1134.2 235.1C1129.5 235.1 1125.4 235.8 1125.4 228.4C1125.4 221.5 1128.7 221.3 1133.8 221.4C1147.8 221.6 1161.7 221.6 1175.7 221.4C1184.9 221.3 1189 216.5 1189 206.3C1189.1 195.6 1185.3 191 1175.4 191C1153.5 190.9 1131.6 190.9 1109.8 191C1099 191.1 1095.1 195.1 1095 205.8C1095 220.6 1095.1 235.4 1095.1 250.1ZM961.601 268.9C961.701 268.9 961.901 268.9 962.001 268.9C961.601 261.4 961.201 254 960.701 246.5C960.301 240.3 956.301 237.6 950.801 237.4C939.601 237.1 928.301 236.9 917.101 237.6C914.301 237.8 910.301 240.6 909.301 243.1C904.501 255.6 909.601 262.7 922.901 262.7C924.601 262.7 926.301 262.4 927.901 262.9C929.001 263.2 930.501 264.2 930.901 265.3C934.001 275.2 930.801 279.8 920.501 280.6C918.601 280.7 916.701 280.8 914.901 280.7C902.301 279.9 890.701 270 887.301 257.2C884.001 244.5 888.401 231.8 899.001 224.8C909.501 217.9 920.301 217.5 931.501 223.5C935.201 225.5 939.501 227.4 943.601 227.5C948.801 227.5 956.901 217.6 957.901 211.5C958.901 204.9 954.101 201.9 949.401 199C947.301 197.7 945.101 196.5 942.901 195.3C912.401 179 871.001 194.8 859.901 227.7C852.101 250.8 855.301 272.4 871.901 291.1C888.801 310.2 910.301 315.1 934.401 309.6C955.201 304.9 961.901 295.9 961.901 274.6C961.601 272.7 961.601 270.8 961.601 268.9ZM1203.6 249.8C1203.6 265 1203.4 280.2 1203.8 295.4C1203.9 299.1 1204.9 303.7 1207.3 306.1C1212.9 311.6 1220.3 311.1 1227.3 308.5C1233.4 306.2 1234.1 300.8 1234.1 295.1C1234.2 277 1234.3 276.9 1252.6 278C1254.9 278.1 1257.9 280.2 1259 282.2C1262.4 288.6 1264.9 295.5 1267.8 302.2C1271.6 310.7 1276.9 312.9 1285.3 309.5C1296.6 305 1299.5 300.1 1295.9 290.8C1293.1 283.4 1289.8 276.2 1286.5 269C1285.1 266 1285.2 264.1 1287.3 261.2C1298.1 247.2 1299.2 231.5 1292.3 215.9C1285.4 200.3 1271.9 192.4 1255.2 191.2C1242.5 190.3 1229.8 190.8 1217.1 191.1C1207.2 191.3 1203.6 195 1203.5 204.9C1203.5 219.8 1203.6 234.8 1203.6 249.8ZM750.501 188.5C746.601 189 742.601 189.1 738.801 189.9C724.201 192.9 712.101 205.6 710.301 219.6C708.101 236.2 715.001 249.5 730.401 256.6C736.401 259.4 743.001 260.9 749.301 262.9C752.901 264.1 756.601 264.8 759.901 266.4C765.301 269 766.101 274.1 762.301 278.7C758.301 283.6 750.601 284.8 744.701 281C740.501 278.3 736.901 274.7 733.001 271.6C725.701 265.8 720.601 266 714.301 272.2C706.601 279.8 706.001 284.6 711.901 292.2C728.501 313.7 760.101 317.9 781.701 301C793.501 291.8 796.901 278.9 794.801 264.6C792.901 251.3 784.901 242.9 772.001 239.4C764.401 237.4 756.601 235.8 749.001 233.7C744.101 232.4 739.901 229.8 740.701 223.8C741.301 219.1 747.401 215.6 753.101 217.1C756.901 218.1 760.401 220.7 763.901 222.9C771.301 227.7 777.701 226.7 782.901 219.7C789.901 210.3 789.801 205 782.101 198.7C772.901 191.4 762.101 188.8 750.501 188.5ZM809.801 250C809.801 265.6 809.701 281.2 809.801 296.8C809.901 304.8 813.901 309.1 821.801 309.9C834.901 311.3 839.901 306.9 840.401 293.8C840.401 292.6 840.401 291.3 840.401 290.1C840.401 263.7 840.401 237.2 840.401 210.8C840.401 207.9 840.301 205 839.901 202.1C838.501 193 834.001 190.2 822.501 191C813.301 191.7 809.801 195.3 809.801 204.4C809.701 219.6 809.801 234.8 809.801 250Z" fill="white"/>
<path d="M522.801 251.7C522.801 236.3 522.701 220.9 522.801 205.6C522.801 198.5 525.401 194.6 532.001 194.7C548.401 194.8 565.201 193.6 581.001 197.1C603.101 202 617.401 217.6 622.101 240.1C626.401 260.7 620.301 278.7 605.301 293.6C593.901 304.9 579.901 309.7 564.001 309.7C554.601 309.7 545.301 309.8 535.901 309.7C525.801 309.6 522.801 306.6 522.701 296.7C522.801 281.6 522.801 266.6 522.801 251.7ZM549.501 252C549.501 260.5 549.601 269 549.501 277.6C549.501 281.2 550.801 283 554.601 282.9C559.201 282.7 563.801 283.1 568.301 282.8C591.401 281.2 604.301 254.5 591.401 235.3C582.901 222.6 570.401 220.3 556.401 220.9C551.401 221.1 549.201 222.5 549.401 227.7C549.701 235.8 549.501 243.9 549.501 252Z" fill="white"/>
<path d="M414 251.9C414 237.7 414 223.6 414 209.4C414.1 197.7 417.5 194.2 429.4 194.2C450 194.1 470.7 194.1 491.3 194.2C495.8 194.2 501.1 194 503 199.2C505.3 205.4 506 212.1 501.8 217.7C500.2 219.8 496 220.7 492.9 220.8C478.1 221.1 463.3 221.2 448.5 220.8C442.8 220.7 440.8 222.6 440.9 228.3C441.1 238.8 440.8 238.8 451 238.8C459.3 238.8 467.7 238.7 476 238.9C483.9 239 486.7 242.2 486.9 250.8C487.2 260.7 484.4 265.1 476.6 265.4C467 265.8 457.4 265.8 447.8 265.5C442.7 265.3 440.4 267 440.9 272.2C441.1 273.8 441 275.5 440.9 277.2C440.6 281.6 442.6 282.9 446.9 282.8C461.9 282.6 476.9 282.7 491.9 282.7C501.5 282.7 504.3 285.7 504.3 295.6C504.4 306.2 501.7 309.3 492.1 309.3C470.6 309.4 449.2 309.4 427.7 309.3C417.3 309.3 414 305.9 413.9 295.3C413.9 281.1 414 266.5 414 251.9Z" fill="white"/>
<path d="M306.3 252.6C306.3 237.2 306.2 221.8 306.3 206.4C306.4 197.9 308.7 194.6 317.2 194.5C340.1 194.1 363.1 194.1 386 194.4C393 194.5 395.3 197.5 395.8 204.7C395.9 206.8 395.9 208.9 395.8 210.9C395.3 218.4 392.9 220.9 385.2 220.9C370.4 221 355.6 220.8 340.8 221.1C338.2 221.1 333.7 222.4 333.5 223.6C332.8 228.2 333.4 233 334 237.7C334.1 238.3 337.3 238.9 339.1 238.9C348.3 239 357.4 238.9 366.6 239C375.8 239.1 378.1 241.6 378.2 251.2C378.4 262.2 376 265.4 366.7 265.7C357.3 265.9 347.9 265.9 338.6 265.7C334.2 265.6 332.5 267.3 332.8 271.6C332.9 272.8 333 274.1 332.8 275.3C332 281.2 334.2 283.3 340.4 283.1C354.8 282.7 369.2 282.9 383.5 283C393.5 283 395.9 285.6 395.9 296.5C395.9 306.8 393.4 309.7 383.9 309.7C362.2 309.8 340.5 309.8 318.9 309.7C309.1 309.7 306.3 306.8 306.3 297C306.2 282.2 306.3 267.4 306.3 252.6Z" fill="white"/>
<path d="M245.001 192.9C256.201 193 267.001 194.7 275.801 202.6C282.001 208.1 282.201 211.4 277.101 218.8C271.901 226.3 267.301 227.8 260.401 223.9C258.601 222.9 257.101 221.2 255.301 220.4C252.301 219.1 249.201 217.7 246.001 217.5C239.601 217 234.201 220.6 233.301 225.3C232.101 231.8 236.201 235.2 241.401 237C248.101 239.3 255.101 240.5 261.901 242.2C274.401 245.2 284.101 251.2 287.101 265C290.101 278.8 286.501 290.6 276.701 300.3C257.701 319.1 217.801 312.9 205.401 289.4C201.901 282.8 207.001 279.3 210.401 275.5C213.501 272 217.501 269.1 222.401 272.4C225.801 274.7 229.001 277.5 232.101 280.2C238.301 285.7 245.401 288.9 253.201 285C256.501 283.3 259.401 279.1 260.701 275.4C262.201 271.1 258.601 268 254.601 266.5C249.601 264.6 244.301 263.2 239.201 261.6C236.001 260.6 232.801 259.6 229.701 258.4C211.101 251.3 204.001 239.2 207.301 220C210.001 204.2 223.601 193.3 241.401 192.8C242.501 192.8 243.801 192.9 245.001 192.9Z" fill="white"/>
<path d="M1234.1 234.5C1234.3 219.2 1232.2 221.7 1247.4 221.5C1250.1 221.5 1252.8 221.3 1255.5 221.8C1262.5 223 1266.5 228 1266.3 234.8C1266.1 241.3 1261.4 246.4 1254.6 247C1249.7 247.4 1244.6 247.1 1239.7 247.3C1235.7 247.5 1233.9 246 1234.2 241.9C1234.2 239.5 1234.1 237 1234.1 234.5Z" fill="white"/>
</svg>
