<svg width="1500" height="500" viewBox="0 0 1500 500" fill="none" xmlns="http://www.w3.org/2000/svg">
<path d="M171.101 221.477C169.901 220.277 168.701 219.077 167.001 218.477C165.601 216.877 163.801 215.977 162.001 215.177C159.801 213.177 157.001 212.077 154.501 210.777C141.701 204.077 127.901 199.877 114.101 195.477C108.101 193.577 101.901 191.977 96.5012 188.577C89.1012 183.877 88.6012 175.677 95.6012 170.277C100.501 166.377 106.401 165.077 112.401 164.677C131.601 163.277 150.001 166.177 167.201 175.377C168.001 175.777 168.701 176.277 169.801 175.677C177.201 171.577 183.901 157.677 183.101 148.777C182.101 137.877 176.201 130.677 167.201 125.477C157.601 119.977 146.901 117.677 136.001 116.477C114.801 114.077 93.9012 114.377 73.4012 120.977C59.7012 125.377 47.9012 132.677 39.4012 144.677C38.0012 145.877 37.1012 147.277 36.5012 148.977C35.3012 149.877 35.0012 151.277 34.4012 152.577C33.1012 154.577 32.6012 156.977 31.6012 159.177C30.0012 162.677 30.4012 166.877 28.2012 170.177C28.2012 170.877 28.2012 171.577 28.2012 172.277C28.2012 176.777 28.2012 181.177 28.2012 185.677C28.2012 186.877 28.2012 187.977 28.2012 189.177C28.3012 189.177 28.5012 189.177 28.6012 189.177C28.8012 197.077 31.6012 204.177 35.7012 210.977C42.8012 222.477 53.4012 229.877 65.4012 235.377C76.8012 240.577 88.6012 244.977 100.601 248.777C108.801 251.277 116.901 254.077 124.401 258.277C130.301 261.577 132.301 267.377 129.501 273.577C127.001 279.077 122.101 281.777 116.601 282.977C103.101 286.077 89.8012 284.977 76.6012 281.177C67.1012 278.377 58.2012 274.077 50.2012 268.177C48.6012 266.977 46.9012 266.177 45.0012 267.377C40.0012 270.477 35.4012 273.977 32.6012 279.377C32.5012 279.777 32.4012 280.177 32.3012 280.577C30.3012 283.077 30.3012 286.577 28.2012 289.077C28.2012 289.577 28.2012 289.977 28.2012 290.477C28.2012 293.477 28.2012 296.577 28.2012 299.577C28.2012 300.077 28.2012 300.477 28.2012 300.977C29.6012 301.277 29.4012 302.577 29.7012 303.477C30.9012 307.377 32.9012 310.677 35.6012 313.677C43.9012 323.077 55.0012 327.477 66.8012 330.277C91.4012 336.077 116.101 336.077 140.701 330.377C156.101 326.777 169.801 319.877 180.301 307.677C193.301 292.577 196.101 274.977 192.901 255.977C190.201 241.477 183.101 229.877 171.101 221.477ZM36.7012 148.677C36.6012 148.777 36.4012 148.877 36.3012 148.877C36.4012 148.777 36.5012 148.677 36.7012 148.677Z" fill="white"/>
<path d="M1472 179.477C1471.6 170.877 1468 164.377 1459.5 161.377C1445.4 156.477 1431.8 158.177 1418.5 164.277C1417 164.977 1416.6 166.277 1416.4 167.677C1414.5 177.177 1412.8 186.777 1410.6 196.177C1404.7 222.277 1397.8 248.177 1389.3 273.577C1389 274.477 1389.2 275.977 1387.8 276.077C1386.2 276.177 1386.7 274.577 1386.3 273.677C1385.7 272.177 1385.4 270.577 1384.9 268.977C1376.5 239.777 1368.1 210.577 1359.6 181.377C1357.3 173.477 1353.9 166.277 1345.9 162.277C1331.8 155.377 1311.1 158.177 1299.3 168.777C1297.7 170.177 1297.6 171.577 1298.1 173.377C1301.9 188.977 1305.9 204.477 1310.4 219.777C1317.8 244.877 1326.5 269.377 1337.9 292.977C1342.9 303.277 1349 312.577 1360 317.477C1362.2 318.477 1360.6 319.377 1360 320.077C1356.9 323.577 1353.9 327.177 1350.7 330.577C1341.8 340.077 1332 348.677 1321.9 356.877C1320.8 357.777 1319.7 358.377 1320 360.277C1322.6 373.677 1329.3 383.577 1342.8 387.977C1343.7 388.277 1344.7 388.177 1345 389.377C1350.4 389.377 1355.8 389.377 1361.2 389.377C1361.5 389.177 1361.7 388.777 1362 388.777C1372.2 387.777 1380.7 383.077 1388.1 376.177C1400.2 364.977 1409.1 351.377 1417.2 337.177C1439.3 299.077 1455.4 258.477 1466.6 215.977C1469.8 204.177 1472.5 192.077 1472 179.477Z" fill="white"/>
<path d="M626.701 255.477C615.901 216.977 604.801 178.577 592.201 140.677C589.401 132.277 584.101 126.677 576.101 123.277C567.601 119.677 558.601 118.177 549.401 117.677C533.701 116.877 518.601 119.577 504.201 125.977C502.701 126.677 501.801 127.677 501.201 129.177C499.401 134.177 497.401 139.277 495.601 144.277C488.501 163.777 481.601 183.477 475.001 203.177C473.201 207.477 471.701 211.977 470.601 216.477C470.001 218.077 469.201 219.677 468.701 221.377C465.001 232.577 461.301 243.777 457.701 255.077C452.601 271.077 447.501 287.177 443.801 303.577C441.001 315.677 445.901 325.277 457.201 329.177C471.001 334.077 485.101 333.477 499.001 328.877C501.101 328.177 501.301 326.477 501.801 324.777C504.901 312.777 508.001 300.777 511.001 288.777C511.401 287.377 511.501 285.977 513.101 285.477C532.801 285.477 552.601 285.477 572.301 285.477C574.101 285.777 574.201 287.177 574.601 288.577C576.901 297.077 579.001 305.577 581.601 313.877C584.301 322.877 589.901 329.177 599.701 331.077C607.701 332.677 615.801 332.877 623.801 331.677C630.601 330.677 637.001 328.677 642.601 324.277C644.801 322.577 645.201 320.977 644.401 318.277C638.401 297.277 632.501 276.377 626.701 255.477ZM522.701 235.577C528.401 214.977 535.601 194.777 542.401 174.577C542.801 173.477 542.601 171.677 544.301 171.577C546.101 171.577 545.601 173.477 546.201 174.477C546.401 174.877 546.601 175.277 546.901 175.677C547.601 180.077 549.001 184.177 550.501 188.377C550.501 190.177 551.101 191.777 551.901 193.277C552.001 194.977 552.401 196.677 553.301 198.177C555.201 205.177 557.201 212.277 559.101 219.277C559.801 222.377 560.301 225.577 561.701 228.577C561.801 228.977 561.901 229.377 561.901 229.877C562.101 231.177 562.301 232.477 563.001 233.577C563.601 239.077 563.601 239.077 557.801 239.077C547.001 239.077 536.201 238.977 525.401 239.177C522.201 239.177 521.901 238.377 522.701 235.577Z" fill="white"/>
<path d="M1074.4 161.577C1066.7 158.577 1058.5 157.577 1050.4 157.077C1040.1 156.377 1029.8 156.777 1019.8 159.477C1019.6 159.377 1019.5 159.377 1019.4 159.477C1016.5 159.877 1013.6 160.377 1010.9 161.577C996.202 165.977 983.502 173.577 973.502 185.477C971.602 186.977 970.202 188.877 969.102 190.977C967.302 192.877 965.802 194.877 964.902 197.377C960.602 204.377 957.402 211.877 955.802 219.977C954.702 221.977 954.702 224.077 954.502 226.177C954.302 226.877 953.902 227.477 953.902 228.177C952.402 240.777 952.102 253.377 954.602 265.977C960.102 294.077 975.302 314.977 1002 326.377C1025 336.177 1049 336.677 1073 330.477C1096.4 324.377 1113.9 310.677 1124.3 288.577C1130.3 275.877 1132.7 262.377 1133.1 248.477C1133.6 229.277 1129.9 211.177 1119.4 194.877C1108.7 178.177 1093.5 167.277 1074.4 161.577ZM1067.6 273.577C1062.7 283.177 1055 288.377 1044 288.577C1032.7 288.777 1024.4 284.077 1018.8 274.377C1015.7 268.977 1014 263.177 1013.5 257.077C1012.3 244.577 1012.1 231.977 1017.3 220.077C1022.9 207.177 1032.5 202.477 1044 202.677C1056.1 202.877 1065.2 209.877 1069.5 221.877C1072.3 229.577 1073.4 237.477 1073.1 244.677C1073.1 255.277 1072 264.777 1067.6 273.577Z" fill="white"/>
<path d="M401.701 133.477C401.001 121.277 394.801 114.077 382.601 111.677C369.601 109.177 356.701 110.777 343.801 113.177C340.401 112.777 339.701 114.577 339.701 117.577C339.801 146.077 339.801 174.577 339.701 203.177C339.701 204.777 339.501 206.477 339.401 208.077C336.501 208.077 333.501 208.077 330.601 208.077C327.001 208.177 324.601 209.977 324.701 212.677C324.801 215.277 327.201 217.177 330.701 217.277C333.601 217.377 336.501 217.277 339.501 217.277C339.701 222.877 340.001 228.477 339.301 234.077C332.701 233.877 326.201 234.177 319.601 233.677C316.301 233.377 314.401 231.877 313.301 228.977C312.901 227.777 312.401 226.577 312.201 225.277C311.601 222.177 309.701 220.777 306.701 221.077C304.101 221.277 302.601 223.977 302.901 227.277C303.901 236.577 311.301 243.277 320.701 243.277C326.901 243.277 333.201 243.277 339.401 243.277C339.501 243.977 339.701 244.677 339.701 245.377C339.701 246.477 339.701 247.577 339.701 248.777C339.701 248.977 339.701 249.077 339.701 249.277C339.701 250.677 339.701 251.977 339.701 253.377C339.701 268.377 339.601 283.377 339.601 298.377C339.601 299.777 339.201 301.177 340.001 302.477C340.001 303.577 340.001 304.777 340.101 305.877C340.101 307.377 339.901 308.777 340.701 310.177C340.801 311.177 340.501 312.177 341.401 312.977C341.401 313.177 341.401 313.377 341.501 313.577C343.501 321.377 348.901 325.877 356.501 327.677C370.301 330.877 384.201 329.277 398.001 327.177C400.901 326.677 401.901 325.577 401.901 322.677C401.901 293.277 401.801 263.877 402.101 234.477C402.401 204.877 402.001 175.177 401.801 145.577C402.101 141.477 401.901 137.477 401.701 133.477Z" fill="white"/>
<path d="M1266.7 162.077C1261.3 159.377 1255.5 157.877 1249.5 157.477C1231.7 156.477 1214.4 159.377 1197.6 165.077C1188.2 168.277 1179.1 171.977 1171.6 178.777C1165.3 184.177 1161.7 190.877 1161.7 199.277C1161.7 235.077 1161.7 270.977 1161.7 306.777C1161.7 308.577 1161.4 310.577 1162.4 312.277C1163.2 321.677 1170.3 329.077 1180 330.577C1192.4 332.377 1204.7 331.877 1217 329.377C1219.5 328.877 1220.2 328.077 1220.2 325.577C1220.1 289.377 1220.2 253.177 1220.2 216.977C1220.2 211.177 1220.2 211.177 1225.7 209.577C1240.8 205.277 1256 202.477 1271.8 202.577C1273.3 202.577 1274.4 202.477 1275.2 200.777C1278.5 193.777 1279.8 186.477 1278.7 178.877C1277.6 171.177 1273.7 165.577 1266.7 162.077Z" fill="white"/>
<path d="M300.202 234.677C299.902 234.477 299.602 234.277 299.302 234.277C297.202 233.777 294.202 235.177 293.102 233.577C292.002 231.977 292.602 229.177 292.502 226.977C292.502 226.377 292.502 225.677 292.502 225.077C292.602 223.577 292.902 222.077 292.702 220.577C292.202 217.477 293.702 217.077 296.302 217.177C299.802 217.377 303.302 217.177 306.902 217.277C312.202 217.277 315.102 219.777 316.202 224.977C317.002 229.077 318.502 230.377 321.502 230.077C324.402 229.677 325.802 227.177 325.402 223.377C324.502 215.577 317.202 208.677 309.302 208.277C304.802 208.077 300.402 208.077 295.902 208.277C293.902 208.377 292.902 207.777 292.502 205.877C293.202 201.577 292.302 197.277 292.302 192.977C292.302 174.177 292.202 155.277 292.102 136.477C292.102 132.877 291.402 129.277 290.202 125.777C286.602 115.577 278.202 112.377 268.502 111.277C256.902 109.877 245.602 111.477 234.202 113.177C230.902 113.677 230.102 114.877 230.102 118.077C230.202 179.277 230.202 240.477 230.202 301.577C230.202 302.977 230.202 304.377 230.302 305.777C231.302 319.577 237.302 326.377 251.002 328.677C260.502 330.277 270.102 330.077 279.702 328.477C282.602 328.477 285.502 327.477 288.402 327.377C292.002 327.177 292.402 325.477 292.402 322.377C292.302 298.077 292.302 273.777 292.302 249.477C292.302 243.677 292.302 243.677 298.202 243.477C298.702 243.477 299.202 243.577 299.602 243.377C301.802 242.777 303.502 241.377 303.502 238.977C303.502 236.777 302.802 234.877 300.202 234.677Z" fill="white"/>
<path d="M924.202 270.677C924.202 256.577 924.102 242.577 924.102 228.477C924.102 223.677 924.402 218.877 924.102 214.077C922.402 189.977 911.502 171.877 888.402 163.277C859.202 152.377 830.602 154.777 803.602 170.777C801.702 171.877 800.302 172.777 798.002 171.077C789.302 164.477 779.302 161.077 768.702 158.877C754.602 155.977 740.502 156.377 726.402 158.977C710.102 161.877 694.602 167.177 681.302 177.377C674.602 182.477 669.302 188.577 669.102 197.677C669.102 199.277 669.102 200.877 669.002 202.477C669.002 203.677 669.002 204.877 669.002 206.077C669.002 208.377 669.002 210.677 669.002 213.077C669.002 214.477 669.002 215.977 669.002 217.377C669.002 219.677 669.002 221.977 669.002 224.377C669.002 225.777 669.002 227.277 669.002 228.677C669.002 230.977 669.002 233.277 669.002 235.677C669.002 237.077 669.002 238.577 669.002 239.977C669.002 242.277 669.002 244.577 669.002 246.977C669.002 248.377 669.002 249.877 669.002 251.277C669.002 253.577 669.002 255.877 669.002 258.277C669.002 259.677 669.002 261.177 669.002 262.577C669.002 264.877 669.002 267.177 669.002 269.577C669.002 270.977 669.002 272.477 669.002 273.877C669.002 276.177 669.002 278.477 669.002 280.877C669.002 282.277 669.002 283.777 669.002 285.177C669.002 287.477 669.002 289.777 669.002 292.177C669.002 293.577 669.002 295.077 669.002 296.477C669.002 298.777 669.002 301.077 669.002 303.477C669.002 304.677 669.002 305.877 669.002 307.077C669.002 307.277 669.102 307.577 669.102 307.777C668.702 320.277 675.902 328.977 688.202 331.077C700.402 333.177 712.502 331.877 724.502 329.877C727.402 329.377 727.502 327.677 727.502 325.377C727.502 288.977 727.402 252.577 727.502 216.277C727.502 206.477 725.902 209.277 734.802 205.177C745.002 200.477 757.602 203.277 764.602 211.477C765.002 212.277 765.502 213.077 765.902 213.877C765.902 214.077 766.002 214.177 766.102 214.277C766.302 215.177 765.802 216.277 766.702 216.977C766.802 219.577 767.002 222.077 767.002 224.677C767.002 250.777 767.002 276.877 767.002 302.977C767.002 304.377 766.602 305.777 767.402 307.077C767.002 320.477 773.602 328.777 786.802 331.177C795.302 332.677 803.902 332.477 812.402 331.277C816.702 330.677 821.302 330.877 825.302 328.577C826.402 327.777 825.802 326.577 825.802 325.677C825.802 288.477 825.802 251.277 825.802 214.077C825.802 212.977 826.102 211.677 825.302 210.677C825.302 209.977 825.502 209.177 826.202 208.877C830.302 207.177 834.002 204.777 838.402 203.777C848.802 201.477 862.502 205.077 864.902 216.377C865.402 218.777 865.402 221.277 865.402 223.677C865.402 250.277 865.402 276.877 865.402 303.377C865.402 305.777 865.102 308.177 865.802 310.477C865.902 310.777 865.902 311.077 866.102 311.377C866.602 322.277 874.902 330.577 885.702 331.077C886.202 331.277 886.802 331.577 887.302 331.577C898.502 332.877 909.502 331.777 920.602 329.977C923.302 329.577 924.202 328.477 924.102 325.677C924.202 306.977 924.302 288.777 924.202 270.677Z" fill="white"/>
</svg>
