<svg width="1000" height="1000" viewBox="0 0 1000 1000" fill="none" xmlns="http://www.w3.org/2000/svg">
<path d="M488.073 391.814V364.978C511.927 360.207 517.89 368.954 517.89 373.923C517.89 389.428 498.012 392.311 488.073 391.814Z" fill="white"/>
<path d="M145.179 563.261V584.132C156.112 584.629 177.978 582.343 177.978 569.224C177.481 564.254 170.226 556.105 145.179 563.261Z" fill="white"/>
<path d="M145.179 627.205V606.333C170.226 599.177 177.481 607.327 177.978 612.296C177.978 625.416 156.112 627.702 145.179 627.205Z" fill="white"/>
<path d="M584.978 488.72C576.53 489.714 560.23 498.858 562.615 527.482C563.112 537.421 568.281 557.299 584.978 557.299C594.42 557.796 612.111 550.143 607.341 515.555C606.844 506.113 601.675 487.527 584.978 488.72Z" fill="white"/>
<path fill-rule="evenodd" clip-rule="evenodd" d="M93 443.837V681.037L152.634 719.799L623.74 642.275L702.755 684.018V628.857L907 596.059V442.502L845.875 409.703L810.095 418.648V390.322L845.875 312.799L790.714 280L711.7 290.436L698.282 318.762L684.864 296.399L553.67 312.799V335.161C549.695 329.695 532.799 319.955 497.018 324.725L362.842 348.579L358.37 363.487L353.897 351.56L213.758 372.432V396.286C207.298 387.341 183.047 372.134 137.725 382.868C127.753 385.903 107.493 397.487 96.9424 420.985C93.742 428.113 93 436.024 93 443.837ZM103.436 484.244L139.216 475.299C142.198 482.257 152.037 493.786 167.542 484.244C172.365 480.299 177.961 472.175 166.928 467.86C163.497 466.518 159.72 466.563 156.037 466.647C137.612 467.067 108.571 462.542 106.418 441.01C103.436 426.598 109.101 396.583 155.616 391.812C171.021 390.321 203.919 393.601 212.268 418.647L174.996 424.611C170.316 419.931 159.113 412.959 149.854 420.133C148.677 421.045 147.818 422.33 147.508 423.787C146.415 428.938 148.105 436.084 161.579 435.047C179.469 433.059 215.547 436.537 216.74 466.354C218.231 479.275 210.479 506.309 167.542 511.08C151.143 514.558 115.363 511.08 103.436 484.244ZM286.81 488.718V373.923L343.462 364.978L358.37 427.594L371.788 359.015L429.93 351.561V466.355L391.169 470.828V384.359L371.788 475.3L340.48 478.282L322.59 399.268V485.736L286.81 488.718ZM228.667 496.172V384.359L267.429 376.905V491.7L228.667 496.172ZM447.821 463.375V348.58L498.509 339.635C543.831 332.479 556.155 353.55 556.652 364.98C557.845 409.109 511.43 418.153 488.073 417.159V458.903L447.821 463.375ZM720.645 418.649L680.392 423.121V378.396L635.667 317.272L680.392 311.308L701.264 348.579L723.626 302.363L762.388 297.891L720.645 375.414V418.649ZM570.07 441.012V326.217L608.831 321.744V406.722L665.484 399.268V427.594L570.07 441.012ZM106.417 545.375V660.17L140.707 657.188V664.643L182.45 660.17V648.243C195.371 646.256 221.212 635.422 221.212 607.991C221.212 601.53 217.038 587.715 200.341 584.137C206.801 581.155 219.125 571.018 216.74 554.32C215.746 546.866 207.497 532.554 182.45 534.939V523.01L140.707 528.973V540.9L106.417 545.375ZM230.157 639.293V525.989L268.919 521V633.33L230.157 639.293ZM665.483 455.919V569.223L704.245 563.26V448.465L665.483 455.919ZM283.828 543.879V515.553L380.732 500.645V528.971L352.406 533.443V619.912L312.154 625.875V539.406L283.828 543.879ZM473.165 525.991C469.514 518.233 458.74 506.117 443.15 514.347C440.179 515.916 437.601 518.175 435.598 520.873C428.406 530.561 421.995 548.526 434.695 567.897C438.055 573.022 442.919 577.272 448.889 578.661C458.509 580.901 470.81 578.358 476.147 558.79L513.418 552.826C513.915 571.71 500 605.273 452.293 606.497C432.912 606.994 393.554 596.657 391.169 551.335C389.678 533.445 397.728 495.578 441.857 487.229C460.741 483.254 501.491 484.248 513.418 520.028L473.165 525.991ZM580.506 464.86C561.125 467.841 522.065 484.539 520.872 527.475C519.878 547.85 529.519 587.705 576.033 584.127C600.384 583.133 649.084 568.622 649.084 518.53C649.084 496.172 635.667 458.899 580.506 464.86ZM722.135 557.298V445.484L766.861 438.03L802.641 496.173V432.067L838.421 426.104V539.408L793.696 545.371L757.916 479.774V551.334L722.135 557.298Z" fill="white"/>
</svg>
