<svg width="1500" height="500" viewBox="0 0 1500 500" fill="none" xmlns="http://www.w3.org/2000/svg">
<path d="M738.073 141.814V114.978C761.927 110.207 767.89 118.954 767.89 123.923C767.89 139.428 748.012 142.311 738.073 141.814Z" fill="white"/>
<path d="M395.179 313.261V334.132C406.112 334.629 427.978 332.343 427.978 319.224C427.481 314.254 420.226 306.105 395.179 313.261Z" fill="white"/>
<path d="M395.179 377.205V356.333C420.226 349.177 427.481 357.327 427.978 362.296C427.978 375.416 406.112 377.702 395.179 377.205Z" fill="white"/>
<path d="M834.978 238.72C826.53 239.714 810.23 248.858 812.615 277.482C813.112 287.421 818.281 307.299 834.978 307.299C844.42 307.796 862.111 300.143 857.341 265.555C856.844 256.113 851.675 237.527 834.978 238.72Z" fill="white"/>
<path fill-rule="evenodd" clip-rule="evenodd" d="M343 193.837V431.037L402.634 469.799L873.74 392.275L952.755 434.018V378.857L1157 346.059V192.502L1095.88 159.703L1060.1 168.648V140.322L1095.88 62.7985L1040.71 30L961.7 40.4359L948.282 68.7619L934.864 46.3993L803.67 62.7985V85.1612C799.695 79.6947 782.799 69.9546 747.018 74.7253L612.842 98.5788L608.37 113.487L603.897 101.56L463.758 122.432V146.286C457.298 137.341 433.047 122.134 387.725 132.868C377.753 135.903 357.493 147.487 346.942 170.985C343.742 178.113 343 186.024 343 193.837ZM353.436 234.244L389.216 225.299C392.198 232.257 402.037 243.786 417.542 234.244C422.365 230.299 427.961 222.175 416.928 217.86C413.497 216.518 409.72 216.563 406.037 216.647C387.612 217.067 358.571 212.542 356.418 191.01C353.436 176.598 359.101 146.583 405.616 141.812C421.021 140.321 453.919 143.601 462.268 168.647L424.996 174.611C420.316 169.931 409.113 162.959 399.854 170.133C398.677 171.045 397.818 172.33 397.508 173.787C396.415 178.938 398.105 186.084 411.579 185.047C429.469 183.059 465.547 186.537 466.74 216.354C468.231 229.275 460.479 256.309 417.542 261.08C401.143 264.558 365.363 261.08 353.436 234.244ZM536.81 238.718V123.923L593.462 114.978L608.37 177.594L621.788 109.015L679.93 101.561V216.355L641.169 220.828V134.359L621.788 225.3L590.48 228.282L572.59 149.268V235.736L536.81 238.718ZM478.667 246.172V134.359L517.429 126.905V241.7L478.667 246.172ZM697.821 213.375V98.5803L748.509 89.6353C793.831 82.4792 806.155 103.55 806.652 114.98C807.845 159.109 761.43 168.153 738.073 167.159V208.903L697.821 213.375ZM970.645 168.649L930.392 173.121V128.396L885.667 67.2716L930.392 61.3082L951.264 98.5793L973.626 52.3632L1012.39 47.8906L970.645 125.414V168.649ZM820.07 191.012V76.2166L858.831 71.7441V156.722L915.484 149.268V177.594L820.07 191.012ZM356.417 295.375V410.17L390.707 407.188V414.643L432.45 410.17V398.243C445.371 396.256 471.212 385.422 471.212 357.991C471.212 351.53 467.038 337.715 450.341 334.137C456.801 331.155 469.125 321.018 466.74 304.32C465.746 296.866 457.497 282.554 432.45 284.939V273.01L390.707 278.973V290.9L356.417 295.375ZM480.157 389.293V275.989L518.919 271V383.33L480.157 389.293ZM915.483 205.919V319.223L954.245 313.26V198.465L915.483 205.919ZM533.828 293.879V265.553L630.732 250.645V278.971L602.406 283.443V369.912L562.154 375.875V289.406L533.828 293.879ZM723.165 275.991C719.514 268.233 708.74 256.117 693.15 264.347C690.179 265.916 687.601 268.175 685.598 270.873C678.406 280.561 671.995 298.526 684.695 317.897C688.055 323.022 692.919 327.272 698.889 328.661C708.509 330.901 720.81 328.358 726.147 308.79L763.418 302.826C763.915 321.71 750 355.273 702.293 356.497C682.912 356.994 643.554 346.657 641.169 301.335C639.678 283.445 647.728 245.578 691.857 237.229C710.741 233.254 751.491 234.248 763.418 270.028L723.165 275.991ZM830.506 214.86C811.125 217.841 772.065 234.539 770.872 277.475C769.878 297.85 779.519 337.705 826.033 334.127C850.384 333.133 899.084 318.622 899.084 268.53C899.084 246.172 885.667 208.899 830.506 214.86ZM972.135 307.298V195.484L1016.86 188.03L1052.64 246.173V182.067L1088.42 176.104V289.408L1043.7 295.371L1007.92 229.774V301.334L972.135 307.298Z" fill="white"/>
</svg>
