<svg width="1500" height="500" viewBox="0 0 1500 500" fill="none" xmlns="http://www.w3.org/2000/svg">
<path d="M502.833 373.4C501.232 369.6 502.032 365.1 504.033 360.8C505.634 357.3 507.935 354.1 510.636 351.4C511.337 350.7 511.437 350.5 511.537 350.5C512.437 349.8 512.337 349.2 511.237 348.9C503.633 346.5 495.829 344.6 487.926 343.3L486.925 343.1C485.825 342.9 484.924 342.8 484.424 342.7C474.82 341.4 465.115 340.6 455.411 340.4H448.808C448.808 340.4 425.197 340.3 424.997 341.7C424.997 341.8 424.997 341.8 424.997 341.9C425.097 342.2 425.697 342.5 425.897 342.6C426.297 342.8 426.697 343.1 427.098 343.4C428.898 344.8 430.399 346.6 431.4 348.7C433.1 352.2 432.5 354.9 429.098 369.8C427.298 377.7 424.897 388.1 426.097 396.8C426.397 399.1 427.198 402.5 429.899 405C431.199 406.2 432.7 407.1 434.401 407.5C442.305 409.9 450.709 410.1 458.912 410C466.916 409.9 475.02 410.1 483.023 409.6C491.127 409 494.929 408.7 499.031 407.4C505.534 405.4 511.136 403.7 513.438 398.6C515.839 393.3 513.438 386.5 510.636 382.6C506.834 377.1 504.533 377.5 502.833 373.4Z" fill="white"/>
<path d="M239.111 343.2C230.907 336.1 222.403 329.4 214.499 322C206.896 314.9 199.893 307 193.79 298.5C190.688 294.2 187.787 289.7 185.186 285C184.285 283.3 183.285 278.8 181.384 278.1C178.383 276.8 174.881 281.4 172.98 283.2C169.278 286.7 165.477 290.3 161.075 293.1C153.171 298.2 144.267 302.1 136.763 307.8C134.963 309.2 131.161 312 128.059 315.9C123.057 322.2 122.457 328.4 119.555 338.7C115.253 353.7 113.052 361.2 113.453 366.3C114.453 379 121.356 395.3 133.962 399.2C137.164 400.2 140.565 400.4 143.867 399.8C151.17 398.4 156.573 392.8 161.575 386.6C165.977 381 169.679 374.7 173.881 368.9C178.983 361.7 184.786 357.5 194.79 360.5C206.296 363.9 217.501 364.8 228.606 362.6C232.308 361.8 235.909 360.8 239.411 359.5C242.512 358.4 246.114 357.3 248.515 354.9C248.815 354.6 248.915 354.2 249.015 353.8C249.015 353.5 248.915 353.2 248.115 352.2C247.815 351.8 247.415 351.4 247.115 351C244.313 348.4 241.912 345.6 239.111 343.2Z" fill="white"/>
<path d="M777.46 155.2C770.957 155.1 768.156 155.2 764.854 155.9C762.353 156.4 759.652 158.2 759.051 158.5C758.051 159 757.751 159.2 753.549 161.8C749.247 164.4 749.247 164.5 747.246 165.7C744.745 167.3 742.844 168.5 742.544 168.7C732.439 175.1 717.432 183.6 717.432 183.6C698.723 194.1 689.419 200.2 672.511 209.5C658.305 217.3 637.895 227.9 611.683 239.3C585.071 249.5 557.858 258 530.245 264.7C509.436 269.7 491.728 272.9 478.722 275C478.221 275.1 432.6 283.4 389.58 283.4C389.58 283.4 287.333 288 249.315 257.7C246.614 255.5 244.213 252.9 242.212 250.1C231.207 236.1 226.505 217.6 229.806 198.3C230.907 192 230.907 188.3 229.006 186.1C224.604 180.9 212.598 183.7 206.896 184.8C198.592 186.4 190.688 189.2 182.685 191.8C169.579 196.2 156.473 199 142.666 200.1C130.961 201.1 119.155 201.2 107.45 200.4C97.2451 199.7 87.3405 196.9 77.1358 196C75.6351 195.9 73.9343 195.8 72.5337 196.4C67.8315 198.4 67.7314 206.8 67.5313 211C67.3312 216.2 68.8319 221 70.8329 225.8C75.0348 235.5 83.6388 242.1 87.2405 244.8C94.944 250.6 101.847 253.2 107.05 255.1C116.154 258.5 123.357 259.5 132.261 260.9C139.965 262.1 147.869 262.8 155.672 262.8C163.176 262.8 170.679 261.4 178.082 262.2C183.885 262.9 185.886 268.5 188.487 273C191.489 278.2 194.49 283.4 197.792 288.5C202.494 295.5 207.696 302.1 213.399 308.2C223.103 318.7 234.208 328 245.214 337.3C247.915 339.6 250.916 341.7 253.417 344.2C253.818 344.6 254.218 345 254.518 345.4C265.523 357.3 270.325 371.4 273.827 387C276.228 397.6 282.131 404.2 292.535 407.3C309.243 412.3 326.051 413.7 343.159 410.5C349.362 409.3 357.466 406.9 359.867 400.3C362.968 391.8 354.464 381.1 349.062 375.1C347.461 373.4 346.661 371.7 346.46 370C346.06 367.1 347.361 364.6 348.661 362.6C363.868 339.4 390.281 335.8 415.692 332.9C422.396 332.1 443.805 329.8 473.019 332.3C500.432 334.6 519.14 339 537.949 359.3C544.052 365.9 551.255 368.1 564.962 372.1C567.363 372.8 570.764 373 575.767 374.6C580.369 376.1 584.771 378 588.973 380.3C599.978 386.6 598.877 392.4 608.682 399.7C617.386 406.2 626.39 407.7 630.792 408.4C638.996 409.7 652.702 411.9 660.706 404C669.61 395 665.608 378.7 663.707 370.9C661.506 362.4 657.504 354.5 651.902 347.7C646.299 340.9 639.396 335.3 632.393 330C628.891 327.3 625.289 324.8 621.688 322.2C619.087 320.3 614.084 317.9 613.784 314.2C613.384 309 621.188 304 627.891 299.9C654.503 283.8 681.616 268.4 709.628 254.9C733.74 243.3 758.551 231.4 783.963 223.2C793.767 220.2 802.672 214.9 809.875 207.7C815.878 201.8 819.579 197.9 822.681 191.9C823.981 189.5 833.286 171.2 826.182 162.3C824.282 159.9 820.88 159.1 817.979 158.5C808.674 156.5 799.17 156.1 789.666 155.5C787.164 155.6 782.962 155.3 777.46 155.2Z" fill="white"/>
<path d="M740.543 154.8C739.342 151.1 732.239 149.5 728.937 148.7C723.935 147.5 718.833 146.9 713.63 146.7C708.128 146.7 702.625 147.3 697.223 148.5C684.317 151.4 672.611 156 664.208 160.7C650.301 168.5 636.895 177.1 621.988 183.1C617.686 184.9 613.184 186.4 608.682 187.6C592.875 191.9 569.864 189.9 523.843 185.2C492.628 182 489.427 180.5 451.709 176.8C436.002 175.2 422.796 173.9 404.687 172.7C388.48 171.7 367.77 171.4 326.351 170.7C312.045 170.6 297.738 171.3 283.531 172.7C260.121 175 252.117 178.9 246.714 185.2C240.111 192.8 239.111 202.1 238.711 206.9C237.21 221.4 242.913 232.8 246.114 238.1C246.814 239.2 247.615 240.4 247.615 240.4C247.615 240.4 251.717 246.6 256.819 251.2C258.12 252.4 262.922 256.6 275.628 261.4C280.93 263.4 287.933 265.7 299.439 268C304.541 269 314.246 270.8 329.653 272.2C344.159 273.5 354.864 273.6 368.571 273.7C377.875 273.8 389.981 273.9 405.588 273.1C410.49 272.9 428.899 271.9 454.31 268.8C479.722 265.6 505.034 261.1 529.945 255.2C544.652 251.7 567.963 246 596.576 235.3C602.079 233.3 608.182 230.9 615.085 227.8C620.487 225.4 624.989 223.3 628.091 221.8C630.192 220.8 631.793 220 632.293 219.7C640.997 215.3 658.805 206.5 667.409 202.2C677.514 197.2 695.422 186.2 731.139 164.3C733.74 162.8 741.543 158 740.543 154.8Z" fill="white"/>
<path d="M932.031 141.8V75H906.419V60.7H972.95V75H947.338V141.8H932.031Z" fill="white"/>
<path d="M981.854 141.8V60.7H995.461V102.4H997.362V141.8H981.854ZM1023.47 141.8V113.1C1023.47 111.7 1023.37 109.9 1023.27 107.8C1023.07 105.6 1022.67 103.4 1021.87 101.3C1021.07 99.2 1019.77 97.3 1017.97 95.8C1016.17 94.3 1013.67 93.6 1010.37 93.6C1008.97 93.6 1007.47 93.8 1006.17 94.2C1004.56 94.7 1003.16 95.5 1001.96 96.6C1000.66 97.8 999.563 99.5 998.762 101.8C997.962 104.1 997.462 107.1 997.462 110.9L988.658 106.7C988.658 102 989.658 97.4 991.559 93.2C993.46 89 996.561 85.5 1000.36 83C1004.26 80.4 1009.27 79.1 1015.17 79.1C1019.97 79.1 1023.87 79.9 1026.88 81.5C1029.68 82.9 1032.08 85 1033.88 87.6C1035.48 90 1036.68 92.6 1037.48 95.3C1038.18 97.7 1038.58 100.2 1038.78 102.7C1038.98 104.9 1038.98 106.5 1038.98 107.5V141.6H1023.47V141.8Z" fill="white"/>
<path d="M1082 143.5C1075.8 143.5 1070.3 142.1 1065.49 139.4C1060.79 136.8 1056.99 133 1054.29 128.3C1051.59 123.6 1050.29 118.2 1050.29 112.1C1050.29 105.4 1051.59 99.7 1054.19 94.7C1056.69 89.9 1060.49 86 1065.09 83.3C1069.7 80.6 1075 79.2 1081 79.2C1087.4 79.2 1092.81 80.7 1097.31 83.7C1101.81 86.7 1105.11 90.9 1107.21 96.4C1109.31 101.8 1110.11 108.3 1109.51 115.6H1094.31V110C1094.31 103.8 1093.31 99.3 1091.31 96.6C1089.3 93.9 1086.1 92.5 1081.6 92.5C1076.4 92.5 1072.5 94.1 1070.1 97.3C1067.59 100.5 1066.39 105.2 1066.39 111.4C1066.39 117.1 1067.59 121.5 1070.1 124.6C1072.6 127.7 1076.2 129.2 1080.9 129.2C1083.6 129.3 1086.3 128.6 1088.6 127.2C1090.8 125.8 1092.51 123.9 1093.51 121.5L1108.81 125.9C1106.71 131.3 1102.91 135.8 1098.01 138.9C1093.31 142 1087.7 143.6 1082 143.5ZM1061.79 115.7V104.3H1102.11V115.7H1061.79Z" fill="white"/>
<path d="M913.223 277V195.9H945.738C951.54 195.9 956.243 197.1 959.744 199.4C963.146 201.5 965.847 204.5 967.548 208.1C969.149 211.4 970.049 215 970.049 218.7C970.049 223.2 969.048 227 966.948 230C964.947 233 961.945 235.1 958.544 236V233.2C963.646 234.3 967.448 236.6 969.949 240.2C972.45 243.8 973.751 248.1 973.751 252.4C973.751 257.2 972.85 261.5 971.049 265.2C969.249 268.8 966.447 271.9 962.946 273.8C959.344 275.9 954.742 276.9 949.239 276.9L913.223 277ZM928.73 227.6H945.438C947.038 227.6 948.639 227.3 950.04 226.7C951.34 226.1 952.441 225.1 953.241 223.9C954.042 222.4 954.542 220.7 954.442 219C954.542 216.7 953.641 214.5 952.141 212.7C950.64 211 948.339 210.2 945.438 210.2H928.73V227.6ZM928.73 262.6H947.539C949.439 262.6 951.34 262.2 953.041 261.3C954.642 260.4 955.942 259.2 956.843 257.6C957.843 255.9 958.243 253.9 958.243 251.9C958.243 250.1 957.843 248.4 957.043 246.8C956.243 245.3 954.942 244.1 953.441 243.3C951.64 242.4 949.539 241.9 947.539 242H928.73V262.6Z" fill="white"/>
<path d="M986.156 207.7V194.2H1001.46V207.7H986.156ZM986.156 277V216.1H1001.46V277H986.156Z" fill="white"/>
<path d="M1011.67 228V216.2H1054.99V228H1011.67ZM1054.89 277C1050.79 277.8 1046.68 278.1 1042.48 278C1038.78 278 1035.08 277.2 1031.68 275.9C1028.58 274.6 1026.07 272.4 1024.47 269.4C1022.97 266.8 1022.17 263.9 1022.07 260.9C1021.97 258 1021.97 254.8 1021.97 251.1V199.2H1037.28V250.2C1037.28 252.6 1037.28 254.7 1037.38 256.6C1037.38 258.2 1037.78 259.8 1038.58 261.1C1039.98 263.2 1042.08 264.4 1045.08 264.6C1048.38 264.8 1051.69 264.6 1054.99 264.1L1054.89 277Z" fill="white"/>
<path d="M1091.91 278.7C1085.6 278.7 1080.2 277.3 1075.7 274.5C1071.2 271.7 1067.59 267.7 1065.29 263C1062.89 258.2 1061.69 252.7 1061.69 246.6C1061.69 240.4 1062.89 234.9 1065.39 230.1C1067.79 225.4 1071.4 221.4 1076 218.7C1080.5 215.9 1085.9 214.5 1092.11 214.5C1099.31 214.5 1105.31 216.3 1110.21 219.9C1115.12 223.5 1118.22 228.5 1119.52 234.7L1104.21 238.8C1103.51 235.9 1101.81 233.3 1099.51 231.4C1097.41 229.7 1094.71 228.7 1091.91 228.8C1088.7 228.8 1086 229.6 1084 231.1C1081.9 232.7 1080.3 234.9 1079.4 237.5C1078.4 240.4 1077.9 243.5 1077.9 246.6C1077.9 251.9 1079.1 256.2 1081.4 259.5C1083.7 262.8 1087.2 264.4 1091.91 264.4C1095.41 264.4 1098.01 263.6 1099.81 262C1101.61 260.4 1103.01 258.2 1103.91 255.2L1119.62 258.5C1117.92 265 1114.62 269.9 1109.81 273.4C1104.91 277 1098.91 278.7 1091.91 278.7Z" fill="white"/>
<path d="M1156.54 278.7C1150.43 278.7 1145.03 277.3 1140.43 274.6C1135.83 271.9 1132.12 268 1129.62 263.2C1127.02 258.4 1125.72 252.8 1125.72 246.6C1125.72 240.3 1127.02 234.7 1129.62 229.9C1132.12 225.2 1135.93 221.3 1140.53 218.6C1145.13 215.9 1150.43 214.5 1156.43 214.5C1162.54 214.5 1167.94 215.9 1172.54 218.6C1177.14 221.3 1180.95 225.2 1183.35 230C1185.95 234.8 1187.25 240.4 1187.25 246.6C1187.25 252.8 1185.95 258.4 1183.35 263.3C1180.85 268 1177.04 271.9 1172.44 274.6C1167.94 277.4 1162.54 278.7 1156.54 278.7ZM1156.54 264.4C1161.44 264.4 1165.14 262.7 1167.54 259.4C1169.94 256.1 1171.14 251.8 1171.14 246.6C1171.14 241.2 1169.94 236.9 1167.44 233.6C1164.94 230.4 1161.34 228.8 1156.43 228.8C1153.13 228.8 1150.33 229.6 1148.23 231.1C1146.03 232.7 1144.43 234.8 1143.43 237.4C1142.33 240.4 1141.83 243.5 1141.83 246.7C1141.83 252.1 1143.03 256.5 1145.53 259.7C1148.03 262.9 1151.73 264.4 1156.54 264.4Z" fill="white"/>
<path d="M1200.96 207.7V194.2H1216.26V207.7H1200.96ZM1200.96 277V216.1H1216.26V277H1200.96Z" fill="white"/>
<path d="M1233.07 277V216.1H1246.68V236.3H1248.58V277H1233.07ZM1274.69 277V248.3C1274.69 246.9 1274.59 245.1 1274.49 243C1274.29 240.8 1273.89 238.6 1273.09 236.5C1272.29 234.4 1270.99 232.5 1269.19 231C1267.39 229.5 1264.89 228.8 1261.58 228.8C1260.18 228.8 1258.68 229 1257.38 229.4C1255.78 229.9 1254.38 230.7 1253.18 231.8C1251.68 233.3 1250.58 235 1249.98 237C1249.18 239.3 1248.68 242.3 1248.68 246.1L1239.87 241.9C1239.87 237.2 1240.87 232.6 1242.77 228.4C1244.68 224.2 1247.78 220.7 1251.58 218.2C1255.48 215.6 1260.48 214.3 1266.39 214.3C1271.19 214.3 1275.09 215.1 1278.09 216.7C1280.89 218.1 1283.29 220.3 1285.09 222.8C1286.7 225.2 1287.9 227.8 1288.7 230.5C1289.4 232.9 1289.8 235.4 1290 237.9C1290.2 240.1 1290.2 241.7 1290.2 242.7V277H1274.69Z" fill="white"/>
<path d="M948.039 414C939.935 414 932.932 412.2 927.029 408.7C921.126 405.2 916.424 400 913.423 393.9C910.221 387.6 908.621 380.2 908.621 371.8C908.621 363.4 910.221 356 913.423 349.7C916.424 343.5 921.126 338.4 927.029 334.9C932.932 331.4 939.935 329.6 948.039 329.6C957.343 329.6 965.147 331.9 971.55 336.5C977.853 341.1 982.355 347.4 984.956 355.3L969.549 359.6C968.048 354.7 965.547 350.9 961.945 348.1C958.344 345.4 953.741 344 948.139 344C943.037 344 938.735 345.1 935.233 347.4C931.731 349.8 929.03 353.2 927.529 357.1C925.829 361.3 924.928 366.2 924.928 371.8C924.928 377.4 925.829 382.3 927.529 386.5C929.03 390.4 931.731 393.8 935.233 396.2C938.634 398.5 942.936 399.6 948.139 399.6C953.741 399.6 958.344 398.2 961.945 395.5C965.547 392.8 968.048 388.9 969.549 384.1L984.956 388.4C982.355 396.3 977.853 402.5 971.55 407.2C965.247 411.9 957.343 414 948.039 414Z" fill="white"/>
<path d="M1024.67 414C1018.57 414 1013.17 412.6 1008.57 409.9C1003.96 407.2 1000.26 403.3 997.762 398.5C995.16 393.7 993.86 388.1 993.86 381.9C993.86 375.6 995.16 370 997.762 365.2C1000.26 360.5 1004.06 356.6 1008.67 353.9C1013.27 351.2 1018.57 349.8 1024.57 349.8C1030.68 349.8 1036.08 351.2 1040.68 353.9C1045.28 356.6 1049.09 360.5 1051.49 365.3C1054.09 370.1 1055.39 375.7 1055.39 381.9C1055.39 388.2 1054.09 393.7 1051.49 398.6C1048.99 403.3 1045.18 407.2 1040.58 409.9C1036.18 412.6 1030.78 414 1024.67 414ZM1024.67 399.7C1029.58 399.7 1033.28 398 1035.68 394.7C1038.08 391.4 1039.28 387.1 1039.28 381.9C1039.28 376.5 1038.08 372.2 1035.58 368.9C1033.08 365.7 1029.48 364.1 1024.57 364.1C1021.27 364.1 1018.47 364.9 1016.37 366.4C1014.17 368 1012.57 370.1 1011.57 372.7C1010.47 375.7 1009.97 378.8 1009.97 382C1009.97 387.4 1011.17 391.8 1013.67 395C1016.27 398 1019.97 399.7 1024.67 399.7Z" fill="white"/>
<path d="M1067.89 412.3V351.4H1081.4V371.6H1083.3V412.3H1067.89ZM1104.61 412.3V376.4C1104.61 372.4 1103.71 369.3 1101.81 367C1099.91 364.8 1097.31 363.6 1093.91 363.6C1090.7 363.6 1088.1 364.7 1086.2 366.9C1084.3 369.1 1083.3 371.9 1083.3 375.4L1076.9 370.9C1076.8 367.1 1077.9 363.4 1079.9 360.2C1081.9 357.1 1084.7 354.5 1087.9 352.7C1091.4 350.8 1095.31 349.9 1099.21 349.9C1104.01 349.9 1107.91 350.9 1110.91 352.9C1113.92 354.9 1116.32 357.7 1117.72 361C1119.22 364.5 1119.92 368.3 1119.92 372.2V412.2L1104.61 412.3ZM1141.23 412.3V376.4C1141.23 372.4 1140.33 369.3 1138.43 367C1136.53 364.8 1133.92 363.6 1130.52 363.6C1128.52 363.6 1126.62 364.1 1124.92 365.1C1123.32 366.1 1122.02 367.6 1121.22 369.3C1120.32 371.2 1119.82 373.3 1119.92 375.5L1113.52 371.2C1113.32 363.5 1117.62 356.3 1124.42 352.7C1127.82 350.9 1131.62 350 1135.53 350C1142.43 350 1147.73 352.1 1151.33 356.2C1154.93 360.3 1156.64 365.7 1156.64 372.3V412.3H1141.23Z" fill="white"/>
<path d="M1171.14 439.3V351.4H1184.65V393.1H1186.55V439.3H1171.14ZM1201.16 414C1195.05 414 1190.05 412.6 1185.95 409.8C1181.85 406.9 1178.65 402.9 1176.74 398.3C1174.74 393.5 1173.74 388 1173.74 381.9C1173.74 375.8 1174.74 370.3 1176.74 365.5C1178.55 360.9 1181.65 356.9 1185.75 354C1189.65 351.2 1194.55 349.8 1200.36 349.8C1206.16 349.8 1211.26 351.2 1215.56 354C1219.86 356.8 1223.37 360.8 1225.67 365.4C1228.07 370.2 1229.27 375.7 1229.27 381.9C1229.27 388 1228.07 393.5 1225.77 398.3C1223.57 403 1220.16 406.9 1215.96 409.8C1211.66 412.6 1206.76 414 1201.16 414ZM1198.65 400.3C1201.96 400.3 1204.66 399.5 1206.76 397.8C1208.96 396.1 1210.56 393.7 1211.46 391.1C1212.46 388.1 1213.06 384.9 1212.96 381.8C1212.96 378.6 1212.46 375.5 1211.36 372.5C1210.46 369.8 1208.76 367.5 1206.46 365.8C1204.26 364.1 1201.46 363.3 1198.05 363.3C1194.85 363.3 1192.25 364.1 1190.35 365.6C1188.25 367.3 1186.75 369.5 1186.05 372.1C1184.25 378.4 1184.25 385.1 1186.05 391.5C1186.85 394.1 1188.35 396.3 1190.45 398C1192.45 399.5 1195.25 400.3 1198.65 400.3Z" fill="white"/>
<path d="M1258.48 414C1254.08 414 1250.48 413.2 1247.38 411.5C1244.48 410 1242.07 407.6 1240.47 404.8C1238.87 402 1238.07 398.8 1238.17 395.5C1238.17 392.9 1238.57 390.3 1239.47 387.8C1240.37 385.4 1241.77 383.3 1243.68 381.6C1245.98 379.6 1248.58 378.1 1251.48 377.1C1254.08 376.2 1256.78 375.4 1259.58 374.9C1262.68 374.3 1266.29 373.7 1270.19 373.1C1274.09 372.5 1278.49 371.9 1283.19 371.2L1277.69 374.2C1277.69 370.6 1276.79 367.9 1275.09 366.3C1273.39 364.6 1270.49 363.8 1266.39 363.8C1263.98 363.8 1261.58 364.4 1259.38 365.4C1256.98 366.5 1255.18 368.4 1254.28 371.2L1240.37 366.8C1241.87 361.9 1244.88 357.5 1249.08 354.5C1253.28 351.3 1259.08 349.8 1266.49 349.8C1271.89 349.8 1276.59 350.6 1280.79 352.3C1284.89 353.9 1288.3 356.9 1290.3 360.9C1291.5 363 1292.2 365.3 1292.4 367.7C1292.6 370 1292.7 372.5 1292.7 375.3V412.5H1279.29V400L1281.19 402.6C1278.19 406.7 1274.99 409.7 1271.59 411.5C1268.09 413 1263.78 414 1258.48 414ZM1261.78 401.9C1264.28 402 1266.69 401.4 1268.89 400.4C1270.59 399.6 1272.19 398.4 1273.49 397C1274.39 396 1275.19 395 1275.79 393.8C1276.59 392 1277.09 390 1277.19 388C1277.29 385.8 1277.39 383.9 1277.39 382.5L1281.89 383.6C1277.39 384.4 1273.69 385 1270.89 385.5C1268.09 386 1265.79 386.5 1264.08 386.9C1262.58 387.3 1260.98 387.7 1259.48 388.3C1258.18 388.8 1256.98 389.4 1255.88 390.2C1255.08 390.8 1254.38 391.6 1253.88 392.5C1253.48 393.4 1253.18 394.3 1253.28 395.3C1253.28 396.6 1253.58 397.8 1254.28 398.8C1254.98 399.8 1256.08 400.6 1257.28 401.1C1258.68 401.6 1260.18 401.9 1261.78 401.9Z" fill="white"/>
<path d="M1307.21 412.3V351.4H1320.81V371.6H1322.71V412.3H1307.21ZM1348.82 412.3V383.6C1348.82 382.2 1348.72 380.4 1348.62 378.3C1348.42 376.1 1348.02 373.9 1347.22 371.8C1346.42 369.7 1345.12 367.8 1343.32 366.3C1341.52 364.8 1339.02 364.1 1335.72 364.1C1334.32 364.1 1332.82 364.3 1331.52 364.7C1329.92 365.2 1328.51 366 1327.31 367.1C1326.01 368.3 1324.91 370 1324.11 372.3C1323.31 374.6 1322.81 377.6 1322.81 381.4L1314.01 377.2C1314.01 372.5 1315.01 367.9 1316.91 363.7C1318.81 359.5 1321.91 356 1325.71 353.5C1329.62 350.9 1334.62 349.6 1340.52 349.6C1345.32 349.6 1349.22 350.4 1352.23 352C1355.03 353.4 1357.43 355.5 1359.23 358.1C1360.83 360.5 1362.03 363.1 1362.83 365.8C1363.53 368.2 1363.93 370.7 1364.13 373.1C1364.33 375.3 1364.33 376.9 1364.33 377.9V412H1348.82V412.3Z" fill="white"/>
<path d="M1384.54 439.3L1396.25 407.1L1396.45 416.5L1369.93 351.4H1385.84L1403.65 397.5H1400.05L1417.76 351.4H1433.06L1398.65 439.3H1384.54Z" fill="white"/>
</svg>
