<svg width="1500" height="500" viewBox="0 0 1500 500" fill="none" xmlns="http://www.w3.org/2000/svg">
<path d="M429.401 258.4V253.8C426.301 253.8 424.801 252.5 424.801 249.9V164.2H458.201C459.601 164.2 460.901 164.5 462.101 165.2C463.301 165.9 463.901 167 463.901 168.5H468.501V139H463.901C463.901 141.4 463.301 143 462.101 143.9C460.901 144.8 459.601 145.2 458.201 145.2H366.601C365.201 145.2 363.901 144.8 362.701 143.9C361.501 143 360.901 141.4 360.901 139H356.301V168.6H360.901C360.901 167.1 361.501 165.9 362.701 165.3C363.901 164.6 365.201 164.3 366.601 164.3H400.001V250C400.001 251.4 399.601 252.4 398.701 253C397.801 253.6 397.001 253.9 396.101 253.9V258.5H429.401V258.4ZM531.801 258.4V253.8C530.801 253.8 529.901 253.5 529.101 252.9C528.301 252.3 527.901 251.3 527.901 249.9V211H596.801V249.8C596.801 251.2 596.401 252.2 595.601 252.8C594.801 253.4 593.901 253.7 592.901 253.7V258.3H625.301V253.7C624.301 253.7 623.401 253.4 622.601 252.8C621.801 252.2 621.401 251.2 621.401 249.8V153.6C621.401 152.2 621.801 151.2 622.601 150.6C623.401 150 624.301 149.7 625.301 149.7V145.1H593.001V149.7C594.001 149.7 594.901 150 595.701 150.6C596.501 151.2 596.901 152.2 596.901 153.6V189.9H528.001V153.6C528.001 152.2 528.401 151.2 529.201 150.6C530.001 150 530.901 149.7 531.901 149.7V145.1H499.501V149.7C500.501 149.7 501.401 150 502.201 150.6C503.001 151.2 503.401 152.2 503.401 153.6V249.8C503.401 251.2 503.001 252.2 502.201 252.8C501.401 253.4 500.501 253.7 499.501 253.7V258.3H531.801V258.4ZM775.701 261.2V234.2H771.001C771.001 235.7 770.301 237 768.901 237.9C767.501 238.8 765.801 239.3 763.801 239.3H698.001V209H735.601C739.001 209 741.701 209.2 743.601 209.6C745.501 210 746.201 211.2 745.701 213.1H750.801V185.8H746.201C746.201 187.7 745.501 188.8 744.101 189.3C742.701 189.7 740.601 189.9 737.701 189.9H698.001V164.2H760.801C766.101 164.2 768.801 165.8 768.801 169.1H773.401V140.5H768.801C768.801 143.6 766.101 145.1 760.801 145.1H669.501V149.7C670.401 149.7 671.201 150 672.101 150.6C673.001 151.2 673.401 152.2 673.401 153.6V249.8C673.401 251.2 673.001 252.2 672.101 252.8C671.201 253.4 670.401 253.7 669.501 253.7V258.3H763.901C766.001 258.3 767.701 258.4 769.001 258.6C770.401 258.8 771.101 259.6 771.101 261.2H775.701ZM966.801 258.4C974.301 258.4 980.801 257.6 986.201 256C991.601 254.4 996.001 252.2 999.301 249.4C1002.6 246.7 1005.1 243.5 1006.6 239.9C1008.1 236.3 1008.9 232.4 1008.9 228.3C1008.9 224.7 1008.3 221.4 1007.1 218.3C1005.9 215.2 1004.4 212.5 1002.5 210.1C1000.6 207.7 998.501 205.6 996.101 203.9C993.701 202.2 991.301 200.8 988.901 199.8V199.5C991.001 198.5 993.001 197.1 994.901 195.4C996.901 193.7 998.701 191.8 1000.3 189.6C1001.9 187.5 1003.3 185.1 1004.3 182.4C1005.3 179.7 1005.8 176.9 1005.8 173.8C1005.8 170 1005 166.4 1003.5 163C1002 159.6 999.601 156.5 996.401 153.9C993.201 151.2 989.301 149.1 984.601 147.6C979.901 146.1 974.301 145.3 967.701 145.3H887.701V149.9C889.101 149.9 890.401 150.2 891.701 150.8C893.001 151.4 893.601 152.4 893.601 153.8V250C893.601 251.4 893.001 252.4 891.701 253C890.401 253.6 889.101 253.9 887.701 253.9V258.5H966.801V258.4ZM964.201 189.9H918.401V164.2H964.201C966.301 164.2 968.301 164.3 970.401 164.6C972.501 164.9 974.301 165.5 975.801 166.4C977.301 167.3 978.601 168.6 979.701 170.3C980.701 171.9 981.201 174.1 981.201 176.9C981.201 182.2 979.401 185.7 975.801 187.4C972.201 189.1 968.401 189.9 964.201 189.9ZM963.701 239.3H918.401V209H959.601C968.501 209 974.901 210.3 978.601 212.9C982.401 215.5 984.301 219.4 984.301 224.7C984.301 229.3 982.801 232.9 979.901 235.5C977.001 238 971.601 239.3 963.701 239.3ZM1154.4 261.2V234.2H1149.8C1149.8 235.7 1149.1 237 1147.7 237.9C1146.3 238.8 1144.6 239.3 1142.6 239.3H1076.7V209H1114.3C1117.7 209 1120.4 209.2 1122.3 209.6C1124.2 210 1124.9 211.2 1124.4 213.1H1129.5V185.8H1124.9C1124.9 187.7 1124.2 188.8 1122.8 189.3C1121.4 189.8 1119.3 189.9 1116.4 189.9H1076.8V164.2H1139.6C1144.9 164.2 1147.6 165.8 1147.6 169.1H1152.2V140.5H1147.6C1147.6 143.6 1144.9 145.1 1139.6 145.1H1048.3V149.7C1049.2 149.7 1050 150 1050.9 150.6C1051.8 151.2 1052.2 152.2 1052.2 153.6V249.8C1052.2 251.2 1051.8 252.2 1050.9 252.8C1050 253.4 1049.2 253.7 1048.3 253.7V258.3H1142.7C1144.8 258.3 1146.5 258.4 1147.8 258.6C1149.2 258.8 1149.9 259.6 1149.9 261.2H1154.4ZM1297.4 261.2V234.2H1292.8C1292.8 235.7 1292.1 237 1290.7 237.9C1289.3 238.8 1287.6 239.3 1285.6 239.3H1219.7V209H1257.3C1260.7 209 1263.4 209.2 1265.3 209.6C1267.2 210 1267.9 211.2 1267.4 213.1H1272.5V185.8H1267.9C1267.9 187.7 1267.2 188.8 1265.8 189.3C1264.4 189.7 1262.3 189.9 1259.4 189.9H1219.8V164.2H1282.6C1287.9 164.2 1290.6 165.8 1290.6 169.1H1295.2V140.5H1290.6C1290.6 143.6 1287.9 145.1 1282.6 145.1H1191.3V149.7C1192.2 149.7 1193 150 1193.9 150.6C1194.8 151.2 1195.2 152.2 1195.2 153.6V249.8C1195.2 251.2 1194.8 252.2 1193.9 252.8C1193 253.4 1192.2 253.7 1191.3 253.7V258.3H1285.7C1287.8 258.3 1289.5 258.4 1290.8 258.6C1292.2 258.8 1292.9 259.6 1292.9 261.2H1297.4ZM1368.4 258.4V253.8C1366.9 253.8 1365.5 253.5 1364.3 252.9C1363.1 252.3 1362.5 251.3 1362.5 249.9V210.5H1407.8C1410.7 210.5 1412.5 210.8 1413.2 211.5C1413.9 212.2 1414.3 213.2 1414.5 214.6H1419.1V187.6H1414.5C1414.3 189 1413.9 190 1413.2 190.6C1412.5 191.2 1410.7 191.5 1407.8 191.5H1362.5V164.2H1432.2C1435.1 164.2 1437.2 164.6 1438.4 165.4C1439.6 166.2 1440.2 167 1440.2 167.8H1444.8V140.5H1440.2C1440.2 141.9 1439.6 143 1438.4 143.8C1437.2 144.6 1435.1 145.1 1432.2 145.1H1332.4V149.7C1336 149.7 1337.8 151 1337.8 153.6V249.8C1337.8 252.4 1336.2 253.7 1332.9 253.7V258.3H1368.4V258.4Z" fill="white"/>
<path d="M536.801 387.3V385C534.401 385 533.201 384.4 533.201 383.1V335C533.201 333.7 534.401 333.1 536.801 333.1V330.8H517.201V333.1C518.601 333.1 519.501 333.3 520.001 333.6C520.501 333.9 520.801 334.4 520.801 335.1V383C520.801 383.7 520.501 384.2 520.001 384.5C519.501 384.8 518.501 385 517.201 385V387.3H536.801ZM594.001 387.3V385C592.201 385 591.301 384.4 591.301 383.1V345.7L623.201 379.7C624.201 380.8 625.201 381.8 626.001 382.7C626.801 383.6 627.201 384.2 627.201 384.5C627.201 384.9 626.901 385.1 626.301 385.1V387.4H643.001V385.1C641.501 385.1 640.701 384.5 640.701 383.2V335.1C640.701 333.8 641.501 333.2 643.001 333.2V330.9H627.301V333.2C629.001 333.2 629.901 333.8 629.901 335.1V370L599.001 337.1C597.101 335.2 596.201 334.1 596.201 333.6C596.201 333.3 596.501 333 597.101 333V330.7H578.201V333C579.701 333 580.501 333.6 580.501 334.9V383C580.501 384.3 579.701 384.9 578.201 384.9V387.2H594.001V387.3ZM704.001 387.3V385C701.601 385 700.401 384.4 700.401 383.1V335C700.401 333.7 701.601 333.1 704.001 333.1V330.8H684.401V333.1C685.801 333.1 686.701 333.3 687.201 333.6C687.701 333.9 688.001 334.4 688.001 335.1V383C688.001 383.7 687.701 384.2 687.201 384.5C686.701 384.8 685.701 385 684.401 385V387.3H704.001ZM775.601 387.3V385C774.101 385 773.301 384.4 773.301 383.1V340.3H790.001C790.701 340.3 791.301 340.5 791.901 340.8C792.501 341.1 792.801 341.7 792.801 342.5H795.101V327.7H792.801C792.801 328.9 792.501 329.7 791.901 330.1C791.301 330.5 790.701 330.7 790.001 330.7H744.201C743.501 330.7 742.901 330.5 742.301 330.1C741.701 329.7 741.401 328.9 741.401 327.7H739.101V342.5H741.401C741.401 341.7 741.701 341.2 742.301 340.8C742.901 340.4 743.501 340.3 744.201 340.3H761.001V383C761.001 383.7 760.801 384.2 760.401 384.5C760.001 384.8 759.501 385 759.101 385V387.3H775.601ZM849.701 387.3V385C847.301 385 846.101 384.4 846.101 383.1V335C846.101 333.7 847.301 333.1 849.701 333.1V330.8H830.101V333.1C831.501 333.1 832.401 333.3 832.901 333.6C833.401 333.9 833.701 334.4 833.701 335.1V383C833.701 383.7 833.401 384.2 832.901 384.5C832.401 384.8 831.401 385 830.101 385V387.3H849.701ZM899.901 387.3V385C899.101 385 898.501 384.9 898.101 384.7C897.701 384.5 897.501 384.1 897.501 383.4C897.501 383 897.601 382.5 897.801 381.9C898.001 381.3 898.301 380.7 898.601 380L902.201 373.1H929.701L933.201 380.4C933.501 381.1 933.701 381.6 933.801 382.1C934.001 382.5 934.101 383 934.101 383.5C934.101 384.2 933.901 384.7 933.401 384.9C932.901 385.2 932.501 385.3 932.001 385.3V387.2H950.301V384.9C949.701 384.7 949.101 384.5 948.601 384.1C948.101 383.8 947.601 383.2 947.201 382.4L926.401 338.7C926.001 337.8 925.601 336.9 925.201 336.2C924.801 335.5 924.601 334.8 924.601 334.3C924.601 333.7 924.801 333.4 925.101 333.3C925.401 333.2 925.701 333.1 925.901 332.9V330.6H906.501V332.9C906.801 333.1 907.001 333.2 907.201 333.4C907.401 333.6 907.501 333.9 907.501 334.4C907.501 335.1 907.301 335.8 907.001 336.5C906.701 337.2 906.301 338.2 905.801 339.4L886.601 381.2C886.301 381.9 885.801 382.6 885.101 383.5C884.501 384.3 883.601 384.8 882.601 385V387.3H899.901ZM925.601 363.6H906.001L915.101 342L925.601 363.6ZM1012.2 387.3V385C1010.7 385 1009.9 384.4 1009.9 383.1V340.3H1026.6C1027.3 340.3 1027.9 340.5 1028.5 340.8C1029.1 341.1 1029.4 341.7 1029.4 342.5H1031.7V327.7H1029.4C1029.4 328.9 1029.1 329.7 1028.5 330.1C1027.9 330.5 1027.3 330.7 1026.6 330.7H980.801C980.101 330.7 979.501 330.5 978.901 330.1C978.301 329.7 978.001 328.9 978.001 327.7H975.701V342.5H978.001C978.001 341.7 978.301 341.2 978.901 340.8C979.501 340.5 980.101 340.3 980.801 340.3H997.501V383C997.501 383.7 997.301 384.2 996.901 384.5C996.501 384.8 996.001 385 995.601 385V387.3H1012.2ZM1086.2 387.3V385C1083.8 385 1082.6 384.4 1082.6 383.1V335C1082.6 333.7 1083.8 333.1 1086.2 333.1V330.8H1066.6V333.1C1068 333.1 1068.9 333.3 1069.4 333.6C1069.9 333.9 1070.2 334.4 1070.2 335.1V383C1070.2 383.7 1069.9 384.2 1069.4 384.5C1068.9 384.8 1067.9 385 1066.6 385V387.3H1086.2ZM1163.2 387.3V385C1161.7 384.7 1160.9 384.4 1160.9 383.8C1160.9 383.4 1161.1 382.8 1161.6 382C1162.1 381.2 1162.8 379.7 1163.7 377.5L1182.5 336C1183.4 334 1184.5 333 1185.7 333V330.7H1168.8V333C1170 333 1170.6 333.5 1170.7 334.5C1170.8 335.1 1170.6 335.9 1170.1 336.9C1169.6 337.9 1168.9 339.5 1167.9 341.5L1153.9 372.6L1139.1 340.6C1138.5 339.3 1138 338.1 1137.5 337.1C1137 336 1136.8 335.2 1136.8 334.6C1136.8 333.5 1137.3 332.9 1138.3 332.9V330.6H1120.2V332.9C1120.7 332.9 1121.3 333.1 1121.8 333.5C1122.4 333.9 1122.8 334.5 1123.2 335.3L1142.8 377.4C1143.6 379 1144.2 380.3 1144.8 381.3C1145.4 382.2 1145.6 382.9 1145.6 383.4C1145.6 383.9 1145.4 384.2 1145 384.4C1144.6 384.6 1144.2 384.8 1143.8 385V387.3H1163.2ZM1271.7 388.7V375.2H1269.4C1269.4 376 1269.1 376.6 1268.4 377.1C1267.7 377.6 1266.9 377.8 1265.8 377.8H1232.9V362.6H1251.7C1253.4 362.6 1254.7 362.7 1255.7 362.9C1256.6 363.1 1257 363.7 1256.7 364.6H1259.3V351H1257C1257 351.9 1256.7 352.5 1256 352.7C1255.3 352.9 1254.2 353 1252.8 353H1233V340.1H1264.4C1267.1 340.1 1268.4 340.9 1268.4 342.5H1270.7V328.2H1268.4C1268.4 329.7 1267.1 330.5 1264.4 330.5H1218.7V332.8C1219.1 332.8 1219.6 333 1220 333.3C1220.4 333.6 1220.6 334.1 1220.6 334.8V383C1220.6 383.7 1220.4 384.2 1220 384.5C1219.6 384.8 1219.1 385 1218.7 385V387.3H1265.9C1266.9 387.3 1267.8 387.3 1268.5 387.4C1269.2 387.5 1269.5 387.9 1269.5 388.7H1271.7Z" fill="white"/>
<path d="M1458.6 107H345.4V112.1H1458.6V107Z" fill="white"/>
<path d="M1458.6 295.5H345.4V300.6H1458.6V295.5Z" fill="white"/>
<path d="M233.601 81.3001C227.101 90.2001 223.201 100.7 222.001 111.8C221.701 114.2 221.701 116.2 221.801 119.7C222.001 125.2 222.401 128.9 223.701 133.7C226.001 142.7 230.601 151.7 236.401 158.4C237.401 159.6 237.501 159.7 236.901 159.7C235.201 159.7 231.601 158.2 229.401 156.5C227.001 154.7 225.001 151.8 224.001 148.7C223.501 147 223.201 146.8 220.901 145.9C218.501 145 215.901 144.7 213.501 145C209.701 145.5 207.201 146.7 204.301 149.6C202.301 151.6 200.901 153.9 200.201 156.6C199.701 158.3 199.701 162.5 200.101 164.2C200.501 165.9 201.901 168.7 203.001 170.2C204.801 172.6 208.101 174.8 211.101 175.6C214.201 176.4 224.101 177.7 230.701 178.1C236.001 178.5 248.001 178.4 250.201 178C253.801 177.4 257.401 175.8 260.301 173.6C269.201 166.9 272.101 154.4 267.001 144.4C265.101 140.7 263.301 138.7 258.801 135.1C255.201 132.3 250.101 127.4 247.701 124.4C243.001 118.5 238.701 110.4 236.601 103.5C234.701 97.1001 233.701 90.4001 233.901 84.0001C233.901 82.2001 234.001 80.7 234.001 80.7C234.001 80.7 233.801 81.1001 233.601 81.3001Z" fill="white"/>
<path d="M49.4003 99.1C45.3003 106.4 42.6003 114.6 41.6003 123.1C41.2003 126.6 41.3003 134.4 41.7003 137.8C42.7003 145.2 44.5003 151.2 47.7003 157.7C55.1003 172.8 68.4003 184.3 84.3003 189.4C88.9003 190.9 94.3003 192 98.1003 192.2L99.3003 192.3L100.1 190.2C101.4 187 104.6 180.6 106.7 177.2C109.9 171.9 113.2 167.4 117 163C118 161.8 119.1 160.6 119.3 160.3L119.8 159.7L117.8 159.9C114.8 160.2 107.6 159.9 104.2 159.4C90.9003 157.4 79.2003 151.6 69.7003 142.3C58.1003 131 51.4003 116.2 50.8003 100.4L50.6003 96.8001L49.4003 99.1Z" fill="white"/>
<path d="M172.7 145.8C159.3 146.9 147.4 150.1 135.6 155.8L131.8 157.6L129.2 160.3C121.8 167.9 115.9 176.1 111.2 185.5C107 193.7 105 199.7 102 211.7C100.4 218.4 98.1004 224.7 94.7004 231.5C90.9004 239.4 86.8004 245.6 81.1004 252.4L78.9004 255L79.2004 257.8C80.4004 268.9 84.1004 282.1 88.7004 291.2C89.5004 292.7 89.6004 292.9 90.0004 292.8C90.7004 292.6 95.2004 292.1 98.2004 291.8C101.7 291.5 111 291.5 114.5 291.8C120.1 292.3 126.4 293.3 130.9 294.5L132.8 295L137.4 292.7C148.4 287.2 158.9 284.1 171.7 282.6C175.2 282.2 186.5 282 191.3 282.4L193.8 282.6L194.4 280.7C198.5 268.1 205.5 253.7 213.3 242C215.2 239.2 218.9 234.1 219 234.1C219 234.1 218.5 235.3 217.7 236.8C209.8 252 204 270.5 201.4 288.5C201.2 289.9 201 291 201 291.1C201 291.2 199.8 291 198.5 290.7C190.7 289.1 181 289.1 173.3 290.8C165.3 292.5 158 295.5 151.5 299.9C149.8 301 148.2 302.1 147.9 302.4L147.4 302.8L150.4 304.3C156.1 307.3 160.9 310.8 165.7 315.5C175.7 325.5 181.6 337.4 183.7 352C183.9 353.2 184 356.1 184 359.7C184 364.6 183.9 365.9 183.5 368.6C183.2 370.3 183 371.7 183.1 371.8C183.2 371.9 184.4 372.7 186 373.7C200.5 383.3 210.6 399.4 213 416.5C213.2 418.1 213.5 419.3 213.6 419.3C213.7 419.3 215.1 418.6 216.9 417.8C233.2 409.6 249.8 397.5 257 388.3C271.5 370 274.7 345.2 265.3 324C260.3 312.7 251.7 302.7 241.3 296.3C236.1 293 230.7 290.8 223.7 288.8L222.7 288.5L224.3 288.3C232.1 287.6 241.8 288.9 249.6 291.8C266.5 297.9 280.2 311.1 286.7 327.6C287.3 329 287.8 330.3 287.9 330.4C288 330.5 288.9 329.2 290 327.6C299.5 313.2 305.1 297 306.6 279.6C306.9 276.2 306.9 266.7 306.6 263.3C305 244.6 298.7 227.2 288 212.3C280.1 201.2 272.1 194.1 262 189C253.2 184.6 244.3 182.5 234.1 182.5C229.3 182.5 225.8 182.8 221.5 183.7C217.7 184.5 214.7 184.6 212 184.2C202.9 182.7 195.5 176.2 193 167.5C191.4 162 191.9 156.4 194.3 151.3C194.8 150.2 195.5 148.9 195.9 148.3C196.3 147.7 196.6 147.3 196.5 147.2C196.4 147.1 191.3 146.5 188.5 146.2C186.2 145.7 174.8 145.6 172.7 145.8Z" fill="white"/>
</svg>
