<svg width="1500" height="500" viewBox="0 0 1500 500" fill="none" xmlns="http://www.w3.org/2000/svg">
<path d="M948.938 349.752H954.357L970.032 363.755V349.752H977.124V375.501H971.841L955.984 361.635V375.501H948.938V349.752Z" fill="white"/>
<path d="M896.159 395.78H885.95L881.25 389.051H914.494V395.78H903.246V414.8H896.154V395.78H896.159Z" fill="white"/>
<path d="M918.191 407.975H945.295V414.795H918.191V407.975ZM918.191 398.49H938.43V405.265H918.191V398.49ZM918.191 389.051H945.341V395.78H918.191V389.051Z" fill="white"/>
<path d="M948.938 389.051H954.357L970.032 403.054V389.051H977.124V414.8H971.841L955.984 400.933V414.8H948.938V389.051Z" fill="white"/>
<path d="M907.363 429.251C909.262 429.251 910.602 429.735 911.382 430.697C912.193 431.659 912.601 432.908 912.601 434.444V449.394C912.601 451.111 912.088 452.482 911.065 453.504C910.043 454.496 908.627 454.995 906.819 454.995H887.759C885.951 454.995 884.535 454.496 883.513 453.504C882.49 452.482 881.977 451.111 881.977 449.394V439.637H889.069V448.266H905.509V435.98H881.977V434.444C881.977 432.908 882.369 431.659 883.15 430.697C883.961 429.735 885.316 429.251 887.215 429.251H907.363Z" fill="white"/>
<path d="M914.207 429.251H924.326L940.001 443.254V429.251H947.093V455H941.81L925.953 441.133V455H918.907V435.98L914.207 429.251Z" fill="white"/>
<path d="M981.914 429.251V435.98H954.719L950.02 429.251H981.909H981.914ZM954.719 448.18H981.868V455H954.719V448.18ZM954.719 438.695H975.003V445.47H954.719V438.695Z" fill="white"/>
<path d="M537.022 319.339H519V272.223H586.667V452.456H537.022V319.339Z" fill="white"/>
<path d="M776.369 319.339H661.274V405.028H776.369V319.339ZM611.946 452.456V272.223H826.013V452.456H611.941H611.946Z" fill="white"/>
<path d="M537.022 93.0276H519V45.9167H586.667V226.15H537.022V93.0276Z" fill="white"/>
<path d="M776.369 93.0276H661.274V178.717H776.369V93.0276ZM611.941 226.15V45.9167H826.008V226.15H611.941Z" fill="white"/>
<path fill-rule="evenodd" clip-rule="evenodd" d="M843.939 139.227H879.983V338.797H979.267V45H843.934V139.227H843.939Z" fill="white"/>
<path d="M896.159 356.482H885.95L881.25 349.752H914.494V356.482H903.246V375.501H896.154V356.482H896.159Z" fill="white"/>
<path d="M918.191 368.676H945.295V375.496H918.191V368.676ZM918.191 359.192H938.43V365.966H918.191V359.192ZM918.191 349.752H945.341V356.482H918.191V349.752Z" fill="white"/>
</svg>
