<svg width="1500" height="500" viewBox="0 0 1500 500" fill="none" xmlns="http://www.w3.org/2000/svg">
<path fill-rule="evenodd" clip-rule="evenodd" d="M551 135.854L746.915 25L948.317 135.854V364.146L752.951 475L551 358.11V135.854ZM566.365 143.8L747.126 41.4634L932.951 143.8V354.553L752.696 456.89L566.365 348.981V143.8Z" fill="white"/>
<path d="M697.523 197.043H717.005V297.47H697.523L670.633 238.75L643.743 297.47H624.261V197.043H643.743V255.488L663.499 210.762H677.493L697.523 255.488V197.043Z" fill="white"/>
<path d="M798.225 297.47L778.743 297.47L778.743 197.043L798.225 197.043L825.115 255.762L852.005 197.043L871.487 197.043L871.487 297.47L852.005 297.47L852.005 239.024L832.249 283.75L818.255 283.75L798.225 239.024L798.225 297.47Z" fill="white"/>
<rect x="737.586" y="225.854" width="20.8537" height="71.8902" fill="white"/>
<rect x="737.586" y="197.317" width="20.8537" height="17.0122" fill="white"/>
</svg>
